M48
; DRILL file {KiCad (5.1.4-0-10_14)} date 2019 October 28, Monday 14:00:34
; FORMAT={-:-/ absolute / inch / decimal}
; #@! TF.CreationDate,2019-10-28T14:00:34+08:00
; #@! TF.GenerationSoftware,Kicad,Pcbnew,(5.1.4-0-10_14)
; #@! TF.FileFunction,Plated,1,2,PTH
FMAT,2
INCH
T1C0.0100
T2C0.0157
T3C0.0236
T4C0.0394
T5C0.0866
%
G90
G05
T1
X7.0029Y-4.4679
X7.117Y-3.58
X7.118Y-4.449
X7.118Y-4.557
X7.143Y-3.523
X7.18Y-4.304
X7.4414Y-3.5646
X7.536Y-4.427
X7.603Y-4.012
X7.624Y-4.557
X7.72Y-4.091
X7.721Y-3.9235
X7.721Y-3.976
X7.724Y-3.95
X7.724Y-4.039
X7.752Y-4.49
X7.869Y-3.83
X7.871Y-3.98
X7.953Y-4.176
X7.981Y-4.009
X7.992Y-3.881
X7.993Y-3.83
X8.008Y-3.98
X8.031Y-4.246
T2
X6.4Y-4.19
X6.407Y-3.975
X6.408Y-4.126
X6.42Y-3.68
X6.44Y-4.19
X6.4511Y-4.097
X6.499Y-4.0125
X6.57Y-4.48
X6.63Y-4.54
X6.667Y-3.719
X6.67Y-4.068
X6.715Y-4.335
X6.73Y-4.391
X6.732Y-4.068
X6.804Y-4.069
X6.807Y-4.626
X6.813Y-3.719
X6.829Y-4.49
X6.858Y-3.474
X6.859Y-4.07
X6.864Y-4.518
X6.878Y-4.384
X6.878Y-4.448
X6.879Y-4.318
X6.981Y-3.562
X6.985Y-4.674
X7.03Y-3.3
X7.08Y-3.3
X7.13Y-3.13
X7.13Y-3.3
X7.16Y-4.62
X7.18Y-3.13
X7.18Y-3.3
X7.207Y-4.371
X7.21Y-4.62
X7.22Y-4.14
X7.229Y-3.821
X7.229Y-3.862
X7.23Y-3.13
X7.233Y-3.668
X7.235Y-3.62
X7.26Y-4.62
X7.263Y-4.372
X7.271Y-3.819
X7.271Y-3.862
X7.279Y-3.668
X7.28Y-3.13
X7.28Y-3.621
X7.28Y-4.14
X7.31Y-4.62
X7.312Y-3.862
X7.313Y-3.819
X7.322Y-4.372
X7.324Y-3.667
X7.325Y-3.62
X7.33Y-3.13
X7.34Y-4.14
X7.352Y-3.862
X7.354Y-3.818
X7.37Y-4.62
X7.373Y-3.622
X7.374Y-3.665
X7.38Y-3.13
X7.41Y-3.39
X7.43Y-4.62
X7.498Y-3.24
X7.498Y-4.239
X7.498Y-4.336
X7.57Y-3.39
X7.57Y-3.44
X7.63Y-4.203
X7.7Y-3.43
X7.891Y-4.508
X7.936Y-4.691
X7.987Y-3.586
X8.021Y-3.548
X8.041Y-4.459
X8.06Y-4.558
X8.066Y-3.681
X8.066Y-3.733
X8.066Y-3.783
X8.075Y-3.592
X8.155Y-4.342
X8.188Y-4.061
X6.765Y-4.809
X6.7841Y-4.7631
X6.7841Y-4.8549
X6.83Y-4.744
X6.83Y-4.874
X6.8759Y-4.7631
X6.8759Y-4.8549
X6.895Y-4.809
T4
X6.5Y-3.58
X6.5707Y-3.5093
X6.6414Y-3.4386
X6.7121Y-3.3679
X6.7828Y-3.2972
T5
X7.745Y-3.623
X6.83Y-4.809
T3
G00X6.3642Y-3.8799
M15
G01X6.3406Y-3.8799
M16
G05
G00X6.3642Y-4.2201
M15
G01X6.3406Y-4.2201
M16
G05
G00X6.5386Y-3.8799
M15
G01X6.4953Y-3.8799
M16
G05
G00X6.5386Y-4.2201
M15
G01X6.4953Y-4.2201
M16
G05
T0
M30
