G04 #@! TF.GenerationSoftware,KiCad,Pcbnew,(5.1.4-0-10_14)*
G04 #@! TF.CreationDate,2019-10-28T14:00:27+08:00*
G04 #@! TF.ProjectId,z2m_partner,7a326d5f-7061-4727-946e-65722e6b6963,rev?*
G04 #@! TF.SameCoordinates,Original*
G04 #@! TF.FileFunction,Copper,L2,Bot*
G04 #@! TF.FilePolarity,Positive*
%FSLAX46Y46*%
G04 Gerber Fmt 4.6, Leading zero omitted, Abs format (unit mm)*
G04 Created by KiCad (PCBNEW (5.1.4-0-10_14)) date 2019-10-28 14:00:27*
%MOMM*%
%LPD*%
G04 APERTURE LIST*
%ADD10C,4.399999*%
%ADD11C,0.700000*%
%ADD12C,3.500001*%
%ADD13C,1.700000*%
%ADD14C,0.100000*%
%ADD15C,1.700000*%
%ADD16O,1.600000X1.000000*%
%ADD17O,2.100000X1.000000*%
%ADD18C,0.457200*%
%ADD19C,0.800000*%
%ADD20C,0.508000*%
%ADD21C,0.203200*%
%ADD22C,0.381000*%
%ADD23C,0.254000*%
G04 APERTURE END LIST*
D10*
X173482000Y-122148600D03*
D11*
X175132000Y-122148600D03*
X174648726Y-123315326D03*
X173482000Y-123798600D03*
X172315274Y-123315326D03*
X171832000Y-122148600D03*
X172315274Y-120981874D03*
X173482000Y-120498600D03*
X174648726Y-120981874D03*
D12*
X196723000Y-92024200D03*
D13*
X165100000Y-90932000D03*
D14*
G36*
X166302082Y-90932000D02*
G01*
X165100000Y-92134082D01*
X163897918Y-90932000D01*
X165100000Y-89729918D01*
X166302082Y-90932000D01*
X166302082Y-90932000D01*
G37*
D13*
X166896051Y-89135949D03*
D15*
X166896051Y-89135949D02*
X166896051Y-89135949D01*
D13*
X168692102Y-87339898D03*
D15*
X168692102Y-87339898D02*
X168692102Y-87339898D01*
D13*
X170488154Y-85543846D03*
D15*
X170488154Y-85543846D02*
X170488154Y-85543846D01*
D13*
X172284205Y-83747795D03*
D15*
X172284205Y-83747795D02*
X172284205Y-83747795D01*
D16*
X161350000Y-107190000D03*
X161350000Y-98550000D03*
D17*
X165530000Y-107190000D03*
X165530000Y-98550000D03*
D18*
X196113400Y-100990400D03*
X196088000Y-103911400D03*
D19*
X207137000Y-110286800D03*
X201574400Y-119151400D03*
X204724000Y-115773200D03*
X204241400Y-113258600D03*
X200431400Y-114503200D03*
X185978800Y-111048800D03*
X184480200Y-111048800D03*
X183057800Y-111023400D03*
X193802000Y-106756200D03*
X204876400Y-96088200D03*
X204876400Y-94818200D03*
X204876400Y-93497400D03*
X202869800Y-91084400D03*
X203733400Y-90119200D03*
X174193200Y-88239600D03*
X177317400Y-90474800D03*
X174218600Y-103378000D03*
X172821600Y-103352600D03*
X169418000Y-103327200D03*
X170992800Y-103327200D03*
X174726600Y-109677200D03*
X174701200Y-111353600D03*
X174701200Y-112979200D03*
X172897800Y-117500400D03*
X177419000Y-118719600D03*
X163068000Y-93472000D03*
X184683400Y-98094800D03*
X185724800Y-98094800D03*
X186740800Y-98094800D03*
X183616600Y-98094800D03*
X183616600Y-97053400D03*
X184683400Y-97002600D03*
X185750200Y-97002600D03*
X186791600Y-96977200D03*
X183769000Y-91948000D03*
X184912000Y-91973400D03*
X186055000Y-91948000D03*
X187274200Y-91998800D03*
X187299600Y-93091000D03*
X186029600Y-93141800D03*
X184886600Y-93167200D03*
X183718200Y-93167200D03*
X178562000Y-83820000D03*
X179832000Y-83820000D03*
X181102000Y-83820000D03*
X182372000Y-83820000D03*
X181102000Y-79502000D03*
X182372000Y-79502000D03*
X183642000Y-79502000D03*
X184912000Y-79502000D03*
X186182000Y-79502000D03*
X187452000Y-79502000D03*
X188214000Y-86106000D03*
X192278000Y-86106000D03*
X192278000Y-87376000D03*
X195580000Y-87122000D03*
X166878000Y-113792000D03*
X168402000Y-115316000D03*
X183388000Y-105156000D03*
X184912000Y-105156000D03*
X186436000Y-105156000D03*
X181864000Y-117348000D03*
X183134000Y-117348000D03*
X184404000Y-117348000D03*
X185674000Y-117348000D03*
X187198000Y-117348000D03*
X188722000Y-117348000D03*
X205105000Y-91236800D03*
X207975200Y-103149400D03*
X190449200Y-82296000D03*
X190449200Y-110134400D03*
X190449200Y-107670600D03*
X173050200Y-94462600D03*
X169341800Y-94462600D03*
X162763200Y-104800400D03*
X162737800Y-100965000D03*
D18*
X180771800Y-90932000D03*
X193649600Y-115747800D03*
X180797200Y-115747800D03*
X180797200Y-113004600D03*
X181432200Y-89484200D03*
X182372000Y-109321600D03*
X189011400Y-90541000D03*
X196900800Y-114046000D03*
X203987400Y-107848400D03*
X191414400Y-112445800D03*
X202006200Y-106070400D03*
X177874000Y-113485000D03*
D19*
X174345600Y-114757200D03*
D18*
X202996800Y-98577400D03*
D19*
X173456600Y-114046000D03*
D18*
X203403200Y-101092000D03*
D19*
X162560000Y-106426000D03*
X170942000Y-111531400D03*
X163858500Y-104063800D03*
X163576000Y-106426000D03*
X170561000Y-110109000D03*
X165074600Y-101918400D03*
D18*
X193116200Y-101904800D03*
X199923400Y-101092000D03*
X196189600Y-100330000D03*
X199872600Y-97282000D03*
X196112924Y-99656859D03*
X203022200Y-97282000D03*
X196189600Y-102590600D03*
X202717400Y-101828600D03*
D20*
X205105000Y-91802485D02*
X207137000Y-93834485D01*
X205105000Y-91236800D02*
X205105000Y-91802485D01*
X207137000Y-93834485D02*
X207137000Y-95148400D01*
X207137000Y-95148400D02*
X207975200Y-95986600D01*
X207975200Y-95986600D02*
X207975200Y-103149400D01*
X190449200Y-82296000D02*
X190449200Y-110134400D01*
D21*
X173050200Y-94462600D02*
X169341800Y-94462600D01*
D22*
X162737800Y-104775000D02*
X162763200Y-104800400D01*
X162737800Y-100965000D02*
X162737800Y-104775000D01*
D21*
X168098132Y-89135949D02*
X166896051Y-89135949D01*
X180670200Y-90786511D02*
X179019638Y-89135949D01*
X179019638Y-89135949D02*
X168098132Y-89135949D01*
X188849000Y-115747800D02*
X193370200Y-115747800D01*
X193370200Y-115747800D02*
X193649600Y-115747800D01*
X180797200Y-90913511D02*
X180670200Y-90786511D01*
X180797200Y-113004600D02*
X180797200Y-90913511D01*
X188849000Y-115747800D02*
X180797200Y-115747800D01*
X181432200Y-89484200D02*
X179287898Y-87339898D01*
X179287898Y-87339898D02*
X179131502Y-87339898D01*
X168692102Y-87339898D02*
X179131502Y-87339898D01*
X181711600Y-108661200D02*
X182372000Y-109321600D01*
X181432200Y-108381800D02*
X181711600Y-108661200D01*
X181432200Y-89484200D02*
X181432200Y-108381800D01*
X184014246Y-85543846D02*
X170488154Y-85543846D01*
X189011400Y-90541000D02*
X184014246Y-85543846D01*
X196900800Y-114046000D02*
X203098400Y-107848400D01*
X203098400Y-107848400D02*
X203987400Y-107848400D01*
X189011400Y-110042800D02*
X191414400Y-112445800D01*
X189011400Y-109890400D02*
X189011400Y-110042800D01*
X189011400Y-90541000D02*
X189011400Y-109890400D01*
X180542703Y-113534801D02*
X194541799Y-113534801D01*
X194541799Y-113534801D02*
X202006200Y-106070400D01*
X177923801Y-113534801D02*
X177874000Y-113485000D01*
X180542703Y-113534801D02*
X177923801Y-113534801D01*
X174345600Y-114757200D02*
X195249800Y-114757200D01*
X201549000Y-108458000D02*
X202031600Y-107975400D01*
X195249800Y-114757200D02*
X201549000Y-108458000D01*
X203669900Y-99250500D02*
X202996800Y-98577400D01*
X204038200Y-99618800D02*
X203669900Y-99250500D01*
X204038200Y-105968800D02*
X204038200Y-99618800D01*
X201549000Y-108458000D02*
X204038200Y-105968800D01*
X185724800Y-114046000D02*
X173456600Y-114046000D01*
X195046600Y-114046000D02*
X185724800Y-114046000D01*
X203403200Y-105689400D02*
X195046600Y-114046000D01*
X203403200Y-101092000D02*
X203403200Y-105689400D01*
X170942000Y-111314224D02*
X170942000Y-111379000D01*
X171094400Y-111506000D02*
X171094400Y-111466624D01*
X167805420Y-108394820D02*
X166839580Y-108394820D01*
X170516601Y-111106001D02*
X167805420Y-108394820D01*
X166839580Y-108394820D02*
X167050375Y-108394820D01*
X170516601Y-111106001D02*
X170942000Y-111531400D01*
X163255399Y-105730601D02*
X162560000Y-106426000D01*
X163855400Y-105130600D02*
X163255399Y-105730601D01*
X163858500Y-104629485D02*
X163855400Y-104632585D01*
X163855400Y-104632585D02*
X163855400Y-105130600D01*
X163858500Y-104063800D02*
X163858500Y-104629485D01*
X162560000Y-106426000D02*
X162560000Y-106603800D01*
X164351020Y-108394820D02*
X164478020Y-108394820D01*
X162560000Y-106603800D02*
X164351020Y-108394820D01*
X166839580Y-108394820D02*
X164478020Y-108394820D01*
X168529000Y-108077000D02*
X170561000Y-110109000D01*
X164647963Y-107991610D02*
X168443610Y-107991610D01*
X168443610Y-107991610D02*
X168529000Y-108077000D01*
X163576000Y-106919647D02*
X164647963Y-107991610D01*
X163576000Y-106426000D02*
X163576000Y-106919647D01*
X164560101Y-102432899D02*
X165074600Y-101918400D01*
X164560101Y-104476699D02*
X164560101Y-102432899D01*
X164258610Y-104778190D02*
X164560101Y-104476699D01*
X164258610Y-105743390D02*
X164258610Y-104778190D01*
X163576000Y-106426000D02*
X164258610Y-105743390D01*
X193116200Y-101904800D02*
X198831200Y-101904800D01*
X198831200Y-101904800D02*
X199644000Y-101092000D01*
X199644000Y-101092000D02*
X199923400Y-101092000D01*
X196189600Y-100330000D02*
X196418199Y-100101401D01*
X196418199Y-100101401D02*
X197612000Y-98907600D01*
X197612000Y-98907600D02*
X199186800Y-97332800D01*
X199237600Y-97282000D02*
X199872600Y-97282000D01*
X199186800Y-97332800D02*
X199237600Y-97282000D01*
X199197577Y-96751799D02*
X202415799Y-96751799D01*
X196305176Y-99644200D02*
X199197577Y-96751799D01*
X196189600Y-99644200D02*
X196305176Y-99644200D01*
X202946000Y-97282000D02*
X203022200Y-97282000D01*
X202415799Y-96751799D02*
X202946000Y-97282000D01*
X196189600Y-102590600D02*
X196472190Y-102308010D01*
X196472190Y-102308010D02*
X199189990Y-102308010D01*
X199189990Y-102308010D02*
X199694800Y-101803200D01*
X202692000Y-101803200D02*
X202717400Y-101828600D01*
X199694800Y-101803200D02*
X202692000Y-101803200D01*
D23*
G36*
X186962364Y-78685014D02*
G01*
X188876239Y-78953130D01*
X190762762Y-79372455D01*
X192610007Y-79940340D01*
X194406293Y-80653193D01*
X196140265Y-81506508D01*
X197800959Y-82494890D01*
X199377876Y-83612090D01*
X200861047Y-84851044D01*
X202241094Y-86203921D01*
X203509293Y-87662165D01*
X204657625Y-89216559D01*
X205279884Y-90216310D01*
X205206939Y-90201800D01*
X205003061Y-90201800D01*
X204803102Y-90241574D01*
X204614744Y-90319595D01*
X204445226Y-90432863D01*
X204301063Y-90577026D01*
X204187795Y-90746544D01*
X204109774Y-90934902D01*
X204070000Y-91134861D01*
X204070000Y-91338739D01*
X204109774Y-91538698D01*
X204187795Y-91727056D01*
X204215104Y-91767926D01*
X204211700Y-91802485D01*
X204216000Y-91846145D01*
X204216000Y-91846152D01*
X204228864Y-91976759D01*
X204279697Y-92144336D01*
X204362248Y-92298776D01*
X204473342Y-92434144D01*
X204507259Y-92461979D01*
X206248000Y-94202721D01*
X206248001Y-95104731D01*
X206243700Y-95148400D01*
X206260864Y-95322674D01*
X206311698Y-95490252D01*
X206315626Y-95497600D01*
X206394248Y-95644691D01*
X206505342Y-95780059D01*
X206539259Y-95807894D01*
X207086200Y-96354836D01*
X207086201Y-102616931D01*
X207057995Y-102659144D01*
X206979974Y-102847502D01*
X206940200Y-103047461D01*
X206940200Y-103251339D01*
X206979974Y-103451298D01*
X207057995Y-103639656D01*
X207171263Y-103809174D01*
X207315426Y-103953337D01*
X207484944Y-104066605D01*
X207673302Y-104144626D01*
X207873261Y-104184400D01*
X208077139Y-104184400D01*
X208277098Y-104144626D01*
X208465456Y-104066605D01*
X208634974Y-103953337D01*
X208779137Y-103809174D01*
X208835784Y-103724396D01*
X208835784Y-103836282D01*
X208682242Y-105762737D01*
X208376128Y-107670903D01*
X207919377Y-109548717D01*
X207314877Y-111384305D01*
X206566451Y-113166063D01*
X205678829Y-114882727D01*
X204657625Y-116523441D01*
X203509293Y-118077835D01*
X202241094Y-119536079D01*
X202011656Y-119761000D01*
X175011566Y-119761000D01*
X174824875Y-119636257D01*
X174308939Y-119422549D01*
X173761223Y-119313601D01*
X173202777Y-119313601D01*
X172655061Y-119422549D01*
X172139125Y-119636257D01*
X171952434Y-119761000D01*
X167097194Y-119761000D01*
X166210307Y-118819567D01*
X165001086Y-117312056D01*
X163915459Y-115713238D01*
X162960291Y-114033221D01*
X162141620Y-112282626D01*
X161464622Y-110472522D01*
X160933577Y-108614352D01*
X160873136Y-108314392D01*
X160923000Y-108325000D01*
X161223000Y-108325000D01*
X161223000Y-107317000D01*
X161203000Y-107317000D01*
X161203000Y-107063000D01*
X161223000Y-107063000D01*
X161223000Y-106055000D01*
X161477000Y-106055000D01*
X161477000Y-107063000D01*
X161497000Y-107063000D01*
X161497000Y-107317000D01*
X161477000Y-107317000D01*
X161477000Y-108325000D01*
X161777000Y-108325000D01*
X161995987Y-108278415D01*
X162201678Y-108190003D01*
X162386169Y-108063161D01*
X162542369Y-107902764D01*
X162650574Y-107736083D01*
X163804577Y-108890087D01*
X163827645Y-108918195D01*
X163855751Y-108941261D01*
X163855752Y-108941262D01*
X163904629Y-108981374D01*
X163939807Y-109010244D01*
X164067771Y-109078642D01*
X164163700Y-109107742D01*
X164206621Y-109120762D01*
X164351020Y-109134984D01*
X164387206Y-109131420D01*
X167500311Y-109131420D01*
X169907000Y-111538110D01*
X169907000Y-111633339D01*
X169946774Y-111833298D01*
X170024795Y-112021656D01*
X170138063Y-112191174D01*
X170282226Y-112335337D01*
X170451744Y-112448605D01*
X170640102Y-112526626D01*
X170840061Y-112566400D01*
X171043939Y-112566400D01*
X171243898Y-112526626D01*
X171432256Y-112448605D01*
X171601774Y-112335337D01*
X171745937Y-112191174D01*
X171859205Y-112021656D01*
X171937226Y-111833298D01*
X171977000Y-111633339D01*
X171977000Y-111429461D01*
X171937226Y-111229502D01*
X171859205Y-111041144D01*
X171745937Y-110871626D01*
X171601774Y-110727463D01*
X171457122Y-110630810D01*
X171478205Y-110599256D01*
X171556226Y-110410898D01*
X171596000Y-110210939D01*
X171596000Y-110007061D01*
X171556226Y-109807102D01*
X171478205Y-109618744D01*
X171364937Y-109449226D01*
X171220774Y-109305063D01*
X171051256Y-109191795D01*
X170862898Y-109113774D01*
X170662939Y-109074000D01*
X170567710Y-109074000D01*
X169024267Y-107530558D01*
X168990056Y-107496347D01*
X168966985Y-107468235D01*
X168854823Y-107376186D01*
X168726859Y-107307788D01*
X168588009Y-107265668D01*
X168479796Y-107255010D01*
X168479793Y-107255010D01*
X168443610Y-107251446D01*
X168407427Y-107255010D01*
X165383000Y-107255010D01*
X165383000Y-107063000D01*
X165403000Y-107063000D01*
X165403000Y-107043000D01*
X165657000Y-107043000D01*
X165657000Y-107063000D01*
X167047954Y-107063000D01*
X167174119Y-106888126D01*
X167094276Y-106665024D01*
X166972369Y-106477236D01*
X166816169Y-106316839D01*
X166631678Y-106189997D01*
X166425987Y-106101585D01*
X166207000Y-106055000D01*
X165916904Y-106055000D01*
X165923108Y-106040022D01*
X165960000Y-105854552D01*
X165960000Y-105665448D01*
X165923108Y-105479978D01*
X165850741Y-105305269D01*
X165745681Y-105148036D01*
X165611964Y-105014319D01*
X165454731Y-104909259D01*
X165280022Y-104836892D01*
X165210217Y-104823007D01*
X165243923Y-104759948D01*
X165286043Y-104621098D01*
X165296701Y-104512885D01*
X165296701Y-104512884D01*
X165300265Y-104476699D01*
X165296701Y-104440513D01*
X165296701Y-102929498D01*
X165376498Y-102913626D01*
X165564856Y-102835605D01*
X165734374Y-102722337D01*
X165878537Y-102578174D01*
X165991805Y-102408656D01*
X166069826Y-102220298D01*
X166109600Y-102020339D01*
X166109600Y-101816461D01*
X166069826Y-101616502D01*
X165991805Y-101428144D01*
X165878537Y-101258626D01*
X165734374Y-101114463D01*
X165564856Y-101001195D01*
X165376498Y-100923174D01*
X165277820Y-100903546D01*
X165280022Y-100903108D01*
X165454731Y-100830741D01*
X165611964Y-100725681D01*
X165745681Y-100591964D01*
X165850741Y-100434731D01*
X165923108Y-100260022D01*
X165960000Y-100074552D01*
X165960000Y-99885448D01*
X165923108Y-99699978D01*
X165916904Y-99685000D01*
X166207000Y-99685000D01*
X166425987Y-99638415D01*
X166631678Y-99550003D01*
X166816169Y-99423161D01*
X166972369Y-99262764D01*
X167094276Y-99074976D01*
X167174119Y-98851874D01*
X167047954Y-98677000D01*
X165657000Y-98677000D01*
X165657000Y-98697000D01*
X165403000Y-98697000D01*
X165403000Y-98677000D01*
X164012046Y-98677000D01*
X163885881Y-98851874D01*
X163965724Y-99074976D01*
X164087631Y-99262764D01*
X164228206Y-99407116D01*
X164149259Y-99525269D01*
X164076892Y-99699978D01*
X164040000Y-99885448D01*
X164040000Y-100074552D01*
X164076892Y-100260022D01*
X164149259Y-100434731D01*
X164254319Y-100591964D01*
X164388036Y-100725681D01*
X164545269Y-100830741D01*
X164719978Y-100903108D01*
X164796780Y-100918385D01*
X164772702Y-100923174D01*
X164584344Y-101001195D01*
X164414826Y-101114463D01*
X164270663Y-101258626D01*
X164157395Y-101428144D01*
X164079374Y-101616502D01*
X164039600Y-101816461D01*
X164039600Y-101907166D01*
X164036727Y-101909524D01*
X164013661Y-101937630D01*
X164013659Y-101937632D01*
X163944677Y-102021687D01*
X163876279Y-102149652D01*
X163856634Y-102214413D01*
X163848930Y-102239812D01*
X163834160Y-102288501D01*
X163819937Y-102432899D01*
X163823502Y-102469092D01*
X163823502Y-103028800D01*
X163756561Y-103028800D01*
X163563300Y-103067242D01*
X163563300Y-101592503D01*
X163655005Y-101455256D01*
X163733026Y-101266898D01*
X163772800Y-101066939D01*
X163772800Y-100863061D01*
X163733026Y-100663102D01*
X163655005Y-100474744D01*
X163541737Y-100305226D01*
X163397574Y-100161063D01*
X163228056Y-100047795D01*
X163039698Y-99969774D01*
X162839739Y-99930000D01*
X162635861Y-99930000D01*
X162435902Y-99969774D01*
X162247544Y-100047795D01*
X162078026Y-100161063D01*
X161933863Y-100305226D01*
X161820595Y-100474744D01*
X161742574Y-100663102D01*
X161702800Y-100863061D01*
X161702800Y-101066939D01*
X161742574Y-101266898D01*
X161820595Y-101455256D01*
X161912300Y-101592503D01*
X161912301Y-104210910D01*
X161845995Y-104310144D01*
X161767974Y-104498502D01*
X161728200Y-104698461D01*
X161728200Y-104902339D01*
X161767974Y-105102298D01*
X161845995Y-105290656D01*
X161959263Y-105460174D01*
X162032662Y-105533573D01*
X161900226Y-105622063D01*
X161756063Y-105766226D01*
X161642795Y-105935744D01*
X161593397Y-106055000D01*
X161477000Y-106055000D01*
X161223000Y-106055000D01*
X160923000Y-106055000D01*
X160704013Y-106101585D01*
X160498322Y-106189997D01*
X160489088Y-106196346D01*
X160321832Y-104801036D01*
X160245000Y-102870000D01*
X160321832Y-100938964D01*
X160489088Y-99543654D01*
X160498322Y-99550003D01*
X160704013Y-99638415D01*
X160923000Y-99685000D01*
X161223000Y-99685000D01*
X161223000Y-98677000D01*
X161477000Y-98677000D01*
X161477000Y-99685000D01*
X161777000Y-99685000D01*
X161995987Y-99638415D01*
X162201678Y-99550003D01*
X162386169Y-99423161D01*
X162542369Y-99262764D01*
X162664276Y-99074976D01*
X162744119Y-98851874D01*
X162617954Y-98677000D01*
X161477000Y-98677000D01*
X161223000Y-98677000D01*
X161203000Y-98677000D01*
X161203000Y-98423000D01*
X161223000Y-98423000D01*
X161223000Y-97415000D01*
X161477000Y-97415000D01*
X161477000Y-98423000D01*
X162617954Y-98423000D01*
X162744119Y-98248126D01*
X163885881Y-98248126D01*
X164012046Y-98423000D01*
X165403000Y-98423000D01*
X165403000Y-97415000D01*
X165657000Y-97415000D01*
X165657000Y-98423000D01*
X167047954Y-98423000D01*
X167174119Y-98248126D01*
X167094276Y-98025024D01*
X166972369Y-97837236D01*
X166816169Y-97676839D01*
X166631678Y-97549997D01*
X166425987Y-97461585D01*
X166207000Y-97415000D01*
X165657000Y-97415000D01*
X165403000Y-97415000D01*
X164853000Y-97415000D01*
X164634013Y-97461585D01*
X164428322Y-97549997D01*
X164243831Y-97676839D01*
X164087631Y-97837236D01*
X163965724Y-98025024D01*
X163885881Y-98248126D01*
X162744119Y-98248126D01*
X162664276Y-98025024D01*
X162542369Y-97837236D01*
X162386169Y-97676839D01*
X162201678Y-97549997D01*
X161995987Y-97461585D01*
X161777000Y-97415000D01*
X161477000Y-97415000D01*
X161223000Y-97415000D01*
X160923000Y-97415000D01*
X160873136Y-97425608D01*
X160933577Y-97125648D01*
X161464622Y-95267478D01*
X161803781Y-94360661D01*
X168306800Y-94360661D01*
X168306800Y-94564539D01*
X168346574Y-94764498D01*
X168424595Y-94952856D01*
X168537863Y-95122374D01*
X168682026Y-95266537D01*
X168851544Y-95379805D01*
X169039902Y-95457826D01*
X169239861Y-95497600D01*
X169443739Y-95497600D01*
X169643698Y-95457826D01*
X169832056Y-95379805D01*
X170001574Y-95266537D01*
X170068911Y-95199200D01*
X172323089Y-95199200D01*
X172390426Y-95266537D01*
X172559944Y-95379805D01*
X172748302Y-95457826D01*
X172948261Y-95497600D01*
X173152139Y-95497600D01*
X173352098Y-95457826D01*
X173540456Y-95379805D01*
X173709974Y-95266537D01*
X173854137Y-95122374D01*
X173967405Y-94952856D01*
X174045426Y-94764498D01*
X174085200Y-94564539D01*
X174085200Y-94360661D01*
X174045426Y-94160702D01*
X173967405Y-93972344D01*
X173854137Y-93802826D01*
X173709974Y-93658663D01*
X173540456Y-93545395D01*
X173352098Y-93467374D01*
X173152139Y-93427600D01*
X172948261Y-93427600D01*
X172748302Y-93467374D01*
X172559944Y-93545395D01*
X172390426Y-93658663D01*
X172323089Y-93726000D01*
X170068911Y-93726000D01*
X170001574Y-93658663D01*
X169832056Y-93545395D01*
X169643698Y-93467374D01*
X169443739Y-93427600D01*
X169239861Y-93427600D01*
X169039902Y-93467374D01*
X168851544Y-93545395D01*
X168682026Y-93658663D01*
X168537863Y-93802826D01*
X168424595Y-93972344D01*
X168346574Y-94160702D01*
X168306800Y-94360661D01*
X161803781Y-94360661D01*
X162141620Y-93457374D01*
X162842057Y-91959603D01*
X164252002Y-91959603D01*
X164252002Y-92184109D01*
X164648815Y-92585267D01*
X164745506Y-92664620D01*
X164855820Y-92723584D01*
X164975519Y-92759893D01*
X165100000Y-92772153D01*
X165224481Y-92759893D01*
X165344180Y-92723584D01*
X165454494Y-92664620D01*
X165551185Y-92585267D01*
X165947998Y-92184109D01*
X165947998Y-91959603D01*
X165100000Y-91111605D01*
X164252002Y-91959603D01*
X162842057Y-91959603D01*
X162960291Y-91706779D01*
X163292254Y-91122899D01*
X163308416Y-91176180D01*
X163367380Y-91286494D01*
X163446733Y-91383185D01*
X163847891Y-91779998D01*
X164072397Y-91779998D01*
X164920395Y-90932000D01*
X164072397Y-90084002D01*
X163882915Y-90084002D01*
X163915459Y-90026762D01*
X164150990Y-89679891D01*
X164252002Y-89679891D01*
X164252002Y-89904397D01*
X165100000Y-90752395D01*
X165114143Y-90738253D01*
X165293748Y-90917858D01*
X165279605Y-90932000D01*
X166127603Y-91779998D01*
X166352109Y-91779998D01*
X166753267Y-91383185D01*
X166832620Y-91286494D01*
X166891584Y-91176180D01*
X166927893Y-91056481D01*
X166940153Y-90932000D01*
X166927893Y-90807519D01*
X166891584Y-90687820D01*
X166855841Y-90620949D01*
X166969001Y-90620949D01*
X167187162Y-90599462D01*
X167467085Y-90514548D01*
X167725065Y-90376655D01*
X167951185Y-90191083D01*
X168136757Y-89964963D01*
X168186153Y-89872549D01*
X178714529Y-89872549D01*
X179920407Y-91078428D01*
X179941387Y-91183903D01*
X180006487Y-91341068D01*
X180060601Y-91422055D01*
X180060600Y-112552560D01*
X180031887Y-112595532D01*
X179966787Y-112752697D01*
X179957736Y-112798201D01*
X178400572Y-112798201D01*
X178283068Y-112719687D01*
X178125903Y-112654587D01*
X177959057Y-112621400D01*
X177788943Y-112621400D01*
X177622097Y-112654587D01*
X177464932Y-112719687D01*
X177323487Y-112814198D01*
X177203198Y-112934487D01*
X177108687Y-113075932D01*
X177043587Y-113233097D01*
X177028410Y-113309400D01*
X174183711Y-113309400D01*
X174116374Y-113242063D01*
X173946856Y-113128795D01*
X173758498Y-113050774D01*
X173558539Y-113011000D01*
X173354661Y-113011000D01*
X173154702Y-113050774D01*
X172966344Y-113128795D01*
X172796826Y-113242063D01*
X172652663Y-113386226D01*
X172539395Y-113555744D01*
X172461374Y-113744102D01*
X172421600Y-113944061D01*
X172421600Y-114147939D01*
X172461374Y-114347898D01*
X172539395Y-114536256D01*
X172652663Y-114705774D01*
X172796826Y-114849937D01*
X172966344Y-114963205D01*
X173154702Y-115041226D01*
X173354661Y-115081000D01*
X173359446Y-115081000D01*
X173428395Y-115247456D01*
X173541663Y-115416974D01*
X173685826Y-115561137D01*
X173855344Y-115674405D01*
X174043702Y-115752426D01*
X174243661Y-115792200D01*
X174447539Y-115792200D01*
X174647498Y-115752426D01*
X174835856Y-115674405D01*
X175005374Y-115561137D01*
X175072711Y-115493800D01*
X179967656Y-115493800D01*
X179966787Y-115495897D01*
X179933600Y-115662743D01*
X179933600Y-115832857D01*
X179966787Y-115999703D01*
X180031887Y-116156868D01*
X180126398Y-116298313D01*
X180246687Y-116418602D01*
X180388132Y-116513113D01*
X180545297Y-116578213D01*
X180712143Y-116611400D01*
X180882257Y-116611400D01*
X181049103Y-116578213D01*
X181206268Y-116513113D01*
X181249240Y-116484400D01*
X193197560Y-116484400D01*
X193240532Y-116513113D01*
X193397697Y-116578213D01*
X193564543Y-116611400D01*
X193734657Y-116611400D01*
X193901503Y-116578213D01*
X194058668Y-116513113D01*
X194200113Y-116418602D01*
X194320402Y-116298313D01*
X194414913Y-116156868D01*
X194480013Y-115999703D01*
X194513200Y-115832857D01*
X194513200Y-115662743D01*
X194480013Y-115495897D01*
X194479144Y-115493800D01*
X195213617Y-115493800D01*
X195249800Y-115497364D01*
X195285983Y-115493800D01*
X195285986Y-115493800D01*
X195394199Y-115483142D01*
X195533049Y-115441022D01*
X195661013Y-115372624D01*
X195773175Y-115280575D01*
X195796246Y-115252463D01*
X196341097Y-114707612D01*
X196350287Y-114716802D01*
X196491732Y-114811313D01*
X196648897Y-114876413D01*
X196815743Y-114909600D01*
X196985857Y-114909600D01*
X197152703Y-114876413D01*
X197309868Y-114811313D01*
X197451313Y-114716802D01*
X197571602Y-114596513D01*
X197666113Y-114455068D01*
X197731213Y-114297903D01*
X197741296Y-114247214D01*
X203403510Y-108585000D01*
X203535360Y-108585000D01*
X203578332Y-108613713D01*
X203735497Y-108678813D01*
X203902343Y-108712000D01*
X204072457Y-108712000D01*
X204239303Y-108678813D01*
X204396468Y-108613713D01*
X204537913Y-108519202D01*
X204658202Y-108398913D01*
X204752713Y-108257468D01*
X204817813Y-108100303D01*
X204851000Y-107933457D01*
X204851000Y-107763343D01*
X204817813Y-107596497D01*
X204752713Y-107439332D01*
X204658202Y-107297887D01*
X204537913Y-107177598D01*
X204396468Y-107083087D01*
X204239303Y-107017987D01*
X204072457Y-106984800D01*
X204063909Y-106984800D01*
X204533468Y-106515241D01*
X204561574Y-106492175D01*
X204653624Y-106380013D01*
X204722022Y-106252049D01*
X204764142Y-106113199D01*
X204774800Y-106004986D01*
X204774800Y-106004977D01*
X204778363Y-105968801D01*
X204774800Y-105932625D01*
X204774800Y-99654986D01*
X204778364Y-99618800D01*
X204764142Y-99474401D01*
X204746905Y-99417579D01*
X204722022Y-99335551D01*
X204653624Y-99207587D01*
X204561575Y-99095425D01*
X204533463Y-99072354D01*
X204216347Y-98755238D01*
X204216342Y-98755232D01*
X203837295Y-98376186D01*
X203827213Y-98325497D01*
X203762113Y-98168332D01*
X203667602Y-98026887D01*
X203583115Y-97942400D01*
X203693002Y-97832513D01*
X203787513Y-97691068D01*
X203852613Y-97533903D01*
X203885800Y-97367057D01*
X203885800Y-97196943D01*
X203852613Y-97030097D01*
X203787513Y-96872932D01*
X203693002Y-96731487D01*
X203572713Y-96611198D01*
X203431268Y-96516687D01*
X203274103Y-96451587D01*
X203128293Y-96422584D01*
X202962245Y-96256536D01*
X202939174Y-96228424D01*
X202827012Y-96136375D01*
X202699048Y-96067977D01*
X202560198Y-96025857D01*
X202451985Y-96015199D01*
X202451982Y-96015199D01*
X202415799Y-96011635D01*
X202379616Y-96015199D01*
X199233763Y-96015199D01*
X199197577Y-96011635D01*
X199161391Y-96015199D01*
X199053178Y-96025857D01*
X198914328Y-96067977D01*
X198786364Y-96136375D01*
X198674202Y-96228424D01*
X198651136Y-96256530D01*
X196114408Y-98793259D01*
X196027867Y-98793259D01*
X195861021Y-98826446D01*
X195703856Y-98891546D01*
X195562411Y-98986057D01*
X195442122Y-99106346D01*
X195347611Y-99247791D01*
X195282511Y-99404956D01*
X195249324Y-99571802D01*
X195249324Y-99741916D01*
X195282511Y-99908762D01*
X195347611Y-100065927D01*
X195358397Y-100082069D01*
X195326000Y-100244943D01*
X195326000Y-100415057D01*
X195359187Y-100581903D01*
X195424287Y-100739068D01*
X195518798Y-100880513D01*
X195639087Y-101000802D01*
X195780532Y-101095313D01*
X195937697Y-101160413D01*
X195976846Y-101168200D01*
X193568240Y-101168200D01*
X193525268Y-101139487D01*
X193368103Y-101074387D01*
X193201257Y-101041200D01*
X193031143Y-101041200D01*
X192864297Y-101074387D01*
X192707132Y-101139487D01*
X192565687Y-101233998D01*
X192445398Y-101354287D01*
X192350887Y-101495732D01*
X192285787Y-101652897D01*
X192252600Y-101819743D01*
X192252600Y-101989857D01*
X192285787Y-102156703D01*
X192350887Y-102313868D01*
X192445398Y-102455313D01*
X192565687Y-102575602D01*
X192707132Y-102670113D01*
X192864297Y-102735213D01*
X193031143Y-102768400D01*
X193201257Y-102768400D01*
X193368103Y-102735213D01*
X193525268Y-102670113D01*
X193568240Y-102641400D01*
X195326000Y-102641400D01*
X195326000Y-102675657D01*
X195359187Y-102842503D01*
X195424287Y-102999668D01*
X195518798Y-103141113D01*
X195639087Y-103261402D01*
X195780532Y-103355913D01*
X195937697Y-103421013D01*
X196104543Y-103454200D01*
X196274657Y-103454200D01*
X196441503Y-103421013D01*
X196598668Y-103355913D01*
X196740113Y-103261402D01*
X196860402Y-103141113D01*
X196924884Y-103044610D01*
X199153807Y-103044610D01*
X199189990Y-103048174D01*
X199226173Y-103044610D01*
X199226176Y-103044610D01*
X199334389Y-103033952D01*
X199473239Y-102991832D01*
X199601203Y-102923434D01*
X199713365Y-102831385D01*
X199736435Y-102803274D01*
X199999910Y-102539800D01*
X202227347Y-102539800D01*
X202308332Y-102593913D01*
X202465497Y-102659013D01*
X202632343Y-102692200D01*
X202666600Y-102692200D01*
X202666601Y-105384289D01*
X202604003Y-105446888D01*
X202556713Y-105399598D01*
X202415268Y-105305087D01*
X202258103Y-105239987D01*
X202091257Y-105206800D01*
X201921143Y-105206800D01*
X201754297Y-105239987D01*
X201597132Y-105305087D01*
X201455687Y-105399598D01*
X201335398Y-105519887D01*
X201240887Y-105661332D01*
X201175787Y-105818497D01*
X201165705Y-105869185D01*
X194236690Y-112798201D01*
X192203185Y-112798201D01*
X192244813Y-112697703D01*
X192278000Y-112530857D01*
X192278000Y-112360743D01*
X192244813Y-112193897D01*
X192179713Y-112036732D01*
X192085202Y-111895287D01*
X191964913Y-111774998D01*
X191823468Y-111680487D01*
X191666303Y-111615387D01*
X191615615Y-111605305D01*
X191012865Y-111002555D01*
X191108974Y-110938337D01*
X191253137Y-110794174D01*
X191366405Y-110624656D01*
X191444426Y-110436298D01*
X191484200Y-110236339D01*
X191484200Y-110032461D01*
X191444426Y-109832502D01*
X191366405Y-109644144D01*
X191338200Y-109601932D01*
X191338200Y-108203068D01*
X191366405Y-108160856D01*
X191444426Y-107972498D01*
X191484200Y-107772539D01*
X191484200Y-107568661D01*
X191444426Y-107368702D01*
X191366405Y-107180344D01*
X191338200Y-107138132D01*
X191338200Y-93693809D01*
X195232997Y-93693809D01*
X195419073Y-94034966D01*
X195836409Y-94250713D01*
X196287815Y-94380896D01*
X196755946Y-94420513D01*
X197222811Y-94368042D01*
X197670468Y-94225497D01*
X198026927Y-94034966D01*
X198213003Y-93693809D01*
X196723000Y-92203805D01*
X195232997Y-93693809D01*
X191338200Y-93693809D01*
X191338200Y-92057146D01*
X194326687Y-92057146D01*
X194379158Y-92524011D01*
X194521703Y-92971668D01*
X194712234Y-93328127D01*
X195053391Y-93514203D01*
X196543395Y-92024200D01*
X196902605Y-92024200D01*
X198392609Y-93514203D01*
X198733766Y-93328127D01*
X198949513Y-92910791D01*
X199079696Y-92459385D01*
X199119313Y-91991254D01*
X199066842Y-91524389D01*
X198924297Y-91076732D01*
X198733766Y-90720273D01*
X198392609Y-90534197D01*
X196902605Y-92024200D01*
X196543395Y-92024200D01*
X195053391Y-90534197D01*
X194712234Y-90720273D01*
X194496487Y-91137609D01*
X194366304Y-91589015D01*
X194326687Y-92057146D01*
X191338200Y-92057146D01*
X191338200Y-90354591D01*
X195232997Y-90354591D01*
X196723000Y-91844595D01*
X198213003Y-90354591D01*
X198026927Y-90013434D01*
X197609591Y-89797687D01*
X197158185Y-89667504D01*
X196690054Y-89627887D01*
X196223189Y-89680358D01*
X195775532Y-89822903D01*
X195419073Y-90013434D01*
X195232997Y-90354591D01*
X191338200Y-90354591D01*
X191338200Y-82828468D01*
X191366405Y-82786256D01*
X191444426Y-82597898D01*
X191484200Y-82397939D01*
X191484200Y-82194061D01*
X191444426Y-81994102D01*
X191366405Y-81805744D01*
X191253137Y-81636226D01*
X191108974Y-81492063D01*
X190939456Y-81378795D01*
X190751098Y-81300774D01*
X190551139Y-81261000D01*
X190347261Y-81261000D01*
X190147302Y-81300774D01*
X189958944Y-81378795D01*
X189789426Y-81492063D01*
X189645263Y-81636226D01*
X189531995Y-81805744D01*
X189453974Y-81994102D01*
X189414200Y-82194061D01*
X189414200Y-82397939D01*
X189453974Y-82597898D01*
X189531995Y-82786256D01*
X189560200Y-82828468D01*
X189560200Y-89869054D01*
X189420468Y-89775687D01*
X189263303Y-89710587D01*
X189212615Y-89700505D01*
X184560692Y-85048583D01*
X184537621Y-85020471D01*
X184425459Y-84928422D01*
X184297495Y-84860024D01*
X184158645Y-84817904D01*
X184050432Y-84807246D01*
X184050429Y-84807246D01*
X184014246Y-84803682D01*
X183978063Y-84807246D01*
X173334079Y-84807246D01*
X173339339Y-84802929D01*
X173524911Y-84576809D01*
X173662804Y-84318829D01*
X173747718Y-84038906D01*
X173776390Y-83747795D01*
X173747718Y-83456684D01*
X173662804Y-83176761D01*
X173524911Y-82918781D01*
X173339339Y-82692661D01*
X173113219Y-82507089D01*
X172855239Y-82369196D01*
X172575316Y-82284282D01*
X172357155Y-82262795D01*
X172211255Y-82262795D01*
X171993094Y-82284282D01*
X171713171Y-82369196D01*
X171455191Y-82507089D01*
X171229071Y-82692661D01*
X171043499Y-82918781D01*
X170905606Y-83176761D01*
X170820692Y-83456684D01*
X170792020Y-83747795D01*
X170820692Y-84038906D01*
X170838731Y-84098372D01*
X170779265Y-84080333D01*
X170561104Y-84058846D01*
X170415204Y-84058846D01*
X170197043Y-84080333D01*
X169917120Y-84165247D01*
X169659140Y-84303140D01*
X169433020Y-84488712D01*
X169247448Y-84714832D01*
X169109555Y-84972812D01*
X169024641Y-85252735D01*
X168995969Y-85543846D01*
X169024641Y-85834957D01*
X169042680Y-85894424D01*
X168983213Y-85876385D01*
X168765052Y-85854898D01*
X168619152Y-85854898D01*
X168400991Y-85876385D01*
X168121068Y-85961299D01*
X167863088Y-86099192D01*
X167636968Y-86284764D01*
X167451396Y-86510884D01*
X167313503Y-86768864D01*
X167228589Y-87048787D01*
X167199917Y-87339898D01*
X167228589Y-87631009D01*
X167246628Y-87690475D01*
X167187162Y-87672436D01*
X166969001Y-87650949D01*
X166823101Y-87650949D01*
X166604940Y-87672436D01*
X166325017Y-87757350D01*
X166067037Y-87895243D01*
X165840917Y-88080815D01*
X165655345Y-88306935D01*
X165517452Y-88564915D01*
X165432538Y-88844838D01*
X165403866Y-89135949D01*
X165407647Y-89174340D01*
X165344180Y-89140416D01*
X165224481Y-89104107D01*
X165100000Y-89091847D01*
X164975519Y-89104107D01*
X164855820Y-89140416D01*
X164745506Y-89199380D01*
X164648815Y-89278733D01*
X164252002Y-89679891D01*
X164150990Y-89679891D01*
X165001086Y-88427944D01*
X166210307Y-86920433D01*
X167535477Y-85513761D01*
X168968219Y-84216820D01*
X170499474Y-83037810D01*
X172119561Y-81984187D01*
X173818237Y-81062609D01*
X175584762Y-80278906D01*
X177407969Y-79638030D01*
X179276330Y-79144035D01*
X181178033Y-78800042D01*
X183101054Y-78608228D01*
X185033237Y-78569804D01*
X186962364Y-78685014D01*
X186962364Y-78685014D01*
G37*
X186962364Y-78685014D02*
X188876239Y-78953130D01*
X190762762Y-79372455D01*
X192610007Y-79940340D01*
X194406293Y-80653193D01*
X196140265Y-81506508D01*
X197800959Y-82494890D01*
X199377876Y-83612090D01*
X200861047Y-84851044D01*
X202241094Y-86203921D01*
X203509293Y-87662165D01*
X204657625Y-89216559D01*
X205279884Y-90216310D01*
X205206939Y-90201800D01*
X205003061Y-90201800D01*
X204803102Y-90241574D01*
X204614744Y-90319595D01*
X204445226Y-90432863D01*
X204301063Y-90577026D01*
X204187795Y-90746544D01*
X204109774Y-90934902D01*
X204070000Y-91134861D01*
X204070000Y-91338739D01*
X204109774Y-91538698D01*
X204187795Y-91727056D01*
X204215104Y-91767926D01*
X204211700Y-91802485D01*
X204216000Y-91846145D01*
X204216000Y-91846152D01*
X204228864Y-91976759D01*
X204279697Y-92144336D01*
X204362248Y-92298776D01*
X204473342Y-92434144D01*
X204507259Y-92461979D01*
X206248000Y-94202721D01*
X206248001Y-95104731D01*
X206243700Y-95148400D01*
X206260864Y-95322674D01*
X206311698Y-95490252D01*
X206315626Y-95497600D01*
X206394248Y-95644691D01*
X206505342Y-95780059D01*
X206539259Y-95807894D01*
X207086200Y-96354836D01*
X207086201Y-102616931D01*
X207057995Y-102659144D01*
X206979974Y-102847502D01*
X206940200Y-103047461D01*
X206940200Y-103251339D01*
X206979974Y-103451298D01*
X207057995Y-103639656D01*
X207171263Y-103809174D01*
X207315426Y-103953337D01*
X207484944Y-104066605D01*
X207673302Y-104144626D01*
X207873261Y-104184400D01*
X208077139Y-104184400D01*
X208277098Y-104144626D01*
X208465456Y-104066605D01*
X208634974Y-103953337D01*
X208779137Y-103809174D01*
X208835784Y-103724396D01*
X208835784Y-103836282D01*
X208682242Y-105762737D01*
X208376128Y-107670903D01*
X207919377Y-109548717D01*
X207314877Y-111384305D01*
X206566451Y-113166063D01*
X205678829Y-114882727D01*
X204657625Y-116523441D01*
X203509293Y-118077835D01*
X202241094Y-119536079D01*
X202011656Y-119761000D01*
X175011566Y-119761000D01*
X174824875Y-119636257D01*
X174308939Y-119422549D01*
X173761223Y-119313601D01*
X173202777Y-119313601D01*
X172655061Y-119422549D01*
X172139125Y-119636257D01*
X171952434Y-119761000D01*
X167097194Y-119761000D01*
X166210307Y-118819567D01*
X165001086Y-117312056D01*
X163915459Y-115713238D01*
X162960291Y-114033221D01*
X162141620Y-112282626D01*
X161464622Y-110472522D01*
X160933577Y-108614352D01*
X160873136Y-108314392D01*
X160923000Y-108325000D01*
X161223000Y-108325000D01*
X161223000Y-107317000D01*
X161203000Y-107317000D01*
X161203000Y-107063000D01*
X161223000Y-107063000D01*
X161223000Y-106055000D01*
X161477000Y-106055000D01*
X161477000Y-107063000D01*
X161497000Y-107063000D01*
X161497000Y-107317000D01*
X161477000Y-107317000D01*
X161477000Y-108325000D01*
X161777000Y-108325000D01*
X161995987Y-108278415D01*
X162201678Y-108190003D01*
X162386169Y-108063161D01*
X162542369Y-107902764D01*
X162650574Y-107736083D01*
X163804577Y-108890087D01*
X163827645Y-108918195D01*
X163855751Y-108941261D01*
X163855752Y-108941262D01*
X163904629Y-108981374D01*
X163939807Y-109010244D01*
X164067771Y-109078642D01*
X164163700Y-109107742D01*
X164206621Y-109120762D01*
X164351020Y-109134984D01*
X164387206Y-109131420D01*
X167500311Y-109131420D01*
X169907000Y-111538110D01*
X169907000Y-111633339D01*
X169946774Y-111833298D01*
X170024795Y-112021656D01*
X170138063Y-112191174D01*
X170282226Y-112335337D01*
X170451744Y-112448605D01*
X170640102Y-112526626D01*
X170840061Y-112566400D01*
X171043939Y-112566400D01*
X171243898Y-112526626D01*
X171432256Y-112448605D01*
X171601774Y-112335337D01*
X171745937Y-112191174D01*
X171859205Y-112021656D01*
X171937226Y-111833298D01*
X171977000Y-111633339D01*
X171977000Y-111429461D01*
X171937226Y-111229502D01*
X171859205Y-111041144D01*
X171745937Y-110871626D01*
X171601774Y-110727463D01*
X171457122Y-110630810D01*
X171478205Y-110599256D01*
X171556226Y-110410898D01*
X171596000Y-110210939D01*
X171596000Y-110007061D01*
X171556226Y-109807102D01*
X171478205Y-109618744D01*
X171364937Y-109449226D01*
X171220774Y-109305063D01*
X171051256Y-109191795D01*
X170862898Y-109113774D01*
X170662939Y-109074000D01*
X170567710Y-109074000D01*
X169024267Y-107530558D01*
X168990056Y-107496347D01*
X168966985Y-107468235D01*
X168854823Y-107376186D01*
X168726859Y-107307788D01*
X168588009Y-107265668D01*
X168479796Y-107255010D01*
X168479793Y-107255010D01*
X168443610Y-107251446D01*
X168407427Y-107255010D01*
X165383000Y-107255010D01*
X165383000Y-107063000D01*
X165403000Y-107063000D01*
X165403000Y-107043000D01*
X165657000Y-107043000D01*
X165657000Y-107063000D01*
X167047954Y-107063000D01*
X167174119Y-106888126D01*
X167094276Y-106665024D01*
X166972369Y-106477236D01*
X166816169Y-106316839D01*
X166631678Y-106189997D01*
X166425987Y-106101585D01*
X166207000Y-106055000D01*
X165916904Y-106055000D01*
X165923108Y-106040022D01*
X165960000Y-105854552D01*
X165960000Y-105665448D01*
X165923108Y-105479978D01*
X165850741Y-105305269D01*
X165745681Y-105148036D01*
X165611964Y-105014319D01*
X165454731Y-104909259D01*
X165280022Y-104836892D01*
X165210217Y-104823007D01*
X165243923Y-104759948D01*
X165286043Y-104621098D01*
X165296701Y-104512885D01*
X165296701Y-104512884D01*
X165300265Y-104476699D01*
X165296701Y-104440513D01*
X165296701Y-102929498D01*
X165376498Y-102913626D01*
X165564856Y-102835605D01*
X165734374Y-102722337D01*
X165878537Y-102578174D01*
X165991805Y-102408656D01*
X166069826Y-102220298D01*
X166109600Y-102020339D01*
X166109600Y-101816461D01*
X166069826Y-101616502D01*
X165991805Y-101428144D01*
X165878537Y-101258626D01*
X165734374Y-101114463D01*
X165564856Y-101001195D01*
X165376498Y-100923174D01*
X165277820Y-100903546D01*
X165280022Y-100903108D01*
X165454731Y-100830741D01*
X165611964Y-100725681D01*
X165745681Y-100591964D01*
X165850741Y-100434731D01*
X165923108Y-100260022D01*
X165960000Y-100074552D01*
X165960000Y-99885448D01*
X165923108Y-99699978D01*
X165916904Y-99685000D01*
X166207000Y-99685000D01*
X166425987Y-99638415D01*
X166631678Y-99550003D01*
X166816169Y-99423161D01*
X166972369Y-99262764D01*
X167094276Y-99074976D01*
X167174119Y-98851874D01*
X167047954Y-98677000D01*
X165657000Y-98677000D01*
X165657000Y-98697000D01*
X165403000Y-98697000D01*
X165403000Y-98677000D01*
X164012046Y-98677000D01*
X163885881Y-98851874D01*
X163965724Y-99074976D01*
X164087631Y-99262764D01*
X164228206Y-99407116D01*
X164149259Y-99525269D01*
X164076892Y-99699978D01*
X164040000Y-99885448D01*
X164040000Y-100074552D01*
X164076892Y-100260022D01*
X164149259Y-100434731D01*
X164254319Y-100591964D01*
X164388036Y-100725681D01*
X164545269Y-100830741D01*
X164719978Y-100903108D01*
X164796780Y-100918385D01*
X164772702Y-100923174D01*
X164584344Y-101001195D01*
X164414826Y-101114463D01*
X164270663Y-101258626D01*
X164157395Y-101428144D01*
X164079374Y-101616502D01*
X164039600Y-101816461D01*
X164039600Y-101907166D01*
X164036727Y-101909524D01*
X164013661Y-101937630D01*
X164013659Y-101937632D01*
X163944677Y-102021687D01*
X163876279Y-102149652D01*
X163856634Y-102214413D01*
X163848930Y-102239812D01*
X163834160Y-102288501D01*
X163819937Y-102432899D01*
X163823502Y-102469092D01*
X163823502Y-103028800D01*
X163756561Y-103028800D01*
X163563300Y-103067242D01*
X163563300Y-101592503D01*
X163655005Y-101455256D01*
X163733026Y-101266898D01*
X163772800Y-101066939D01*
X163772800Y-100863061D01*
X163733026Y-100663102D01*
X163655005Y-100474744D01*
X163541737Y-100305226D01*
X163397574Y-100161063D01*
X163228056Y-100047795D01*
X163039698Y-99969774D01*
X162839739Y-99930000D01*
X162635861Y-99930000D01*
X162435902Y-99969774D01*
X162247544Y-100047795D01*
X162078026Y-100161063D01*
X161933863Y-100305226D01*
X161820595Y-100474744D01*
X161742574Y-100663102D01*
X161702800Y-100863061D01*
X161702800Y-101066939D01*
X161742574Y-101266898D01*
X161820595Y-101455256D01*
X161912300Y-101592503D01*
X161912301Y-104210910D01*
X161845995Y-104310144D01*
X161767974Y-104498502D01*
X161728200Y-104698461D01*
X161728200Y-104902339D01*
X161767974Y-105102298D01*
X161845995Y-105290656D01*
X161959263Y-105460174D01*
X162032662Y-105533573D01*
X161900226Y-105622063D01*
X161756063Y-105766226D01*
X161642795Y-105935744D01*
X161593397Y-106055000D01*
X161477000Y-106055000D01*
X161223000Y-106055000D01*
X160923000Y-106055000D01*
X160704013Y-106101585D01*
X160498322Y-106189997D01*
X160489088Y-106196346D01*
X160321832Y-104801036D01*
X160245000Y-102870000D01*
X160321832Y-100938964D01*
X160489088Y-99543654D01*
X160498322Y-99550003D01*
X160704013Y-99638415D01*
X160923000Y-99685000D01*
X161223000Y-99685000D01*
X161223000Y-98677000D01*
X161477000Y-98677000D01*
X161477000Y-99685000D01*
X161777000Y-99685000D01*
X161995987Y-99638415D01*
X162201678Y-99550003D01*
X162386169Y-99423161D01*
X162542369Y-99262764D01*
X162664276Y-99074976D01*
X162744119Y-98851874D01*
X162617954Y-98677000D01*
X161477000Y-98677000D01*
X161223000Y-98677000D01*
X161203000Y-98677000D01*
X161203000Y-98423000D01*
X161223000Y-98423000D01*
X161223000Y-97415000D01*
X161477000Y-97415000D01*
X161477000Y-98423000D01*
X162617954Y-98423000D01*
X162744119Y-98248126D01*
X163885881Y-98248126D01*
X164012046Y-98423000D01*
X165403000Y-98423000D01*
X165403000Y-97415000D01*
X165657000Y-97415000D01*
X165657000Y-98423000D01*
X167047954Y-98423000D01*
X167174119Y-98248126D01*
X167094276Y-98025024D01*
X166972369Y-97837236D01*
X166816169Y-97676839D01*
X166631678Y-97549997D01*
X166425987Y-97461585D01*
X166207000Y-97415000D01*
X165657000Y-97415000D01*
X165403000Y-97415000D01*
X164853000Y-97415000D01*
X164634013Y-97461585D01*
X164428322Y-97549997D01*
X164243831Y-97676839D01*
X164087631Y-97837236D01*
X163965724Y-98025024D01*
X163885881Y-98248126D01*
X162744119Y-98248126D01*
X162664276Y-98025024D01*
X162542369Y-97837236D01*
X162386169Y-97676839D01*
X162201678Y-97549997D01*
X161995987Y-97461585D01*
X161777000Y-97415000D01*
X161477000Y-97415000D01*
X161223000Y-97415000D01*
X160923000Y-97415000D01*
X160873136Y-97425608D01*
X160933577Y-97125648D01*
X161464622Y-95267478D01*
X161803781Y-94360661D01*
X168306800Y-94360661D01*
X168306800Y-94564539D01*
X168346574Y-94764498D01*
X168424595Y-94952856D01*
X168537863Y-95122374D01*
X168682026Y-95266537D01*
X168851544Y-95379805D01*
X169039902Y-95457826D01*
X169239861Y-95497600D01*
X169443739Y-95497600D01*
X169643698Y-95457826D01*
X169832056Y-95379805D01*
X170001574Y-95266537D01*
X170068911Y-95199200D01*
X172323089Y-95199200D01*
X172390426Y-95266537D01*
X172559944Y-95379805D01*
X172748302Y-95457826D01*
X172948261Y-95497600D01*
X173152139Y-95497600D01*
X173352098Y-95457826D01*
X173540456Y-95379805D01*
X173709974Y-95266537D01*
X173854137Y-95122374D01*
X173967405Y-94952856D01*
X174045426Y-94764498D01*
X174085200Y-94564539D01*
X174085200Y-94360661D01*
X174045426Y-94160702D01*
X173967405Y-93972344D01*
X173854137Y-93802826D01*
X173709974Y-93658663D01*
X173540456Y-93545395D01*
X173352098Y-93467374D01*
X173152139Y-93427600D01*
X172948261Y-93427600D01*
X172748302Y-93467374D01*
X172559944Y-93545395D01*
X172390426Y-93658663D01*
X172323089Y-93726000D01*
X170068911Y-93726000D01*
X170001574Y-93658663D01*
X169832056Y-93545395D01*
X169643698Y-93467374D01*
X169443739Y-93427600D01*
X169239861Y-93427600D01*
X169039902Y-93467374D01*
X168851544Y-93545395D01*
X168682026Y-93658663D01*
X168537863Y-93802826D01*
X168424595Y-93972344D01*
X168346574Y-94160702D01*
X168306800Y-94360661D01*
X161803781Y-94360661D01*
X162141620Y-93457374D01*
X162842057Y-91959603D01*
X164252002Y-91959603D01*
X164252002Y-92184109D01*
X164648815Y-92585267D01*
X164745506Y-92664620D01*
X164855820Y-92723584D01*
X164975519Y-92759893D01*
X165100000Y-92772153D01*
X165224481Y-92759893D01*
X165344180Y-92723584D01*
X165454494Y-92664620D01*
X165551185Y-92585267D01*
X165947998Y-92184109D01*
X165947998Y-91959603D01*
X165100000Y-91111605D01*
X164252002Y-91959603D01*
X162842057Y-91959603D01*
X162960291Y-91706779D01*
X163292254Y-91122899D01*
X163308416Y-91176180D01*
X163367380Y-91286494D01*
X163446733Y-91383185D01*
X163847891Y-91779998D01*
X164072397Y-91779998D01*
X164920395Y-90932000D01*
X164072397Y-90084002D01*
X163882915Y-90084002D01*
X163915459Y-90026762D01*
X164150990Y-89679891D01*
X164252002Y-89679891D01*
X164252002Y-89904397D01*
X165100000Y-90752395D01*
X165114143Y-90738253D01*
X165293748Y-90917858D01*
X165279605Y-90932000D01*
X166127603Y-91779998D01*
X166352109Y-91779998D01*
X166753267Y-91383185D01*
X166832620Y-91286494D01*
X166891584Y-91176180D01*
X166927893Y-91056481D01*
X166940153Y-90932000D01*
X166927893Y-90807519D01*
X166891584Y-90687820D01*
X166855841Y-90620949D01*
X166969001Y-90620949D01*
X167187162Y-90599462D01*
X167467085Y-90514548D01*
X167725065Y-90376655D01*
X167951185Y-90191083D01*
X168136757Y-89964963D01*
X168186153Y-89872549D01*
X178714529Y-89872549D01*
X179920407Y-91078428D01*
X179941387Y-91183903D01*
X180006487Y-91341068D01*
X180060601Y-91422055D01*
X180060600Y-112552560D01*
X180031887Y-112595532D01*
X179966787Y-112752697D01*
X179957736Y-112798201D01*
X178400572Y-112798201D01*
X178283068Y-112719687D01*
X178125903Y-112654587D01*
X177959057Y-112621400D01*
X177788943Y-112621400D01*
X177622097Y-112654587D01*
X177464932Y-112719687D01*
X177323487Y-112814198D01*
X177203198Y-112934487D01*
X177108687Y-113075932D01*
X177043587Y-113233097D01*
X177028410Y-113309400D01*
X174183711Y-113309400D01*
X174116374Y-113242063D01*
X173946856Y-113128795D01*
X173758498Y-113050774D01*
X173558539Y-113011000D01*
X173354661Y-113011000D01*
X173154702Y-113050774D01*
X172966344Y-113128795D01*
X172796826Y-113242063D01*
X172652663Y-113386226D01*
X172539395Y-113555744D01*
X172461374Y-113744102D01*
X172421600Y-113944061D01*
X172421600Y-114147939D01*
X172461374Y-114347898D01*
X172539395Y-114536256D01*
X172652663Y-114705774D01*
X172796826Y-114849937D01*
X172966344Y-114963205D01*
X173154702Y-115041226D01*
X173354661Y-115081000D01*
X173359446Y-115081000D01*
X173428395Y-115247456D01*
X173541663Y-115416974D01*
X173685826Y-115561137D01*
X173855344Y-115674405D01*
X174043702Y-115752426D01*
X174243661Y-115792200D01*
X174447539Y-115792200D01*
X174647498Y-115752426D01*
X174835856Y-115674405D01*
X175005374Y-115561137D01*
X175072711Y-115493800D01*
X179967656Y-115493800D01*
X179966787Y-115495897D01*
X179933600Y-115662743D01*
X179933600Y-115832857D01*
X179966787Y-115999703D01*
X180031887Y-116156868D01*
X180126398Y-116298313D01*
X180246687Y-116418602D01*
X180388132Y-116513113D01*
X180545297Y-116578213D01*
X180712143Y-116611400D01*
X180882257Y-116611400D01*
X181049103Y-116578213D01*
X181206268Y-116513113D01*
X181249240Y-116484400D01*
X193197560Y-116484400D01*
X193240532Y-116513113D01*
X193397697Y-116578213D01*
X193564543Y-116611400D01*
X193734657Y-116611400D01*
X193901503Y-116578213D01*
X194058668Y-116513113D01*
X194200113Y-116418602D01*
X194320402Y-116298313D01*
X194414913Y-116156868D01*
X194480013Y-115999703D01*
X194513200Y-115832857D01*
X194513200Y-115662743D01*
X194480013Y-115495897D01*
X194479144Y-115493800D01*
X195213617Y-115493800D01*
X195249800Y-115497364D01*
X195285983Y-115493800D01*
X195285986Y-115493800D01*
X195394199Y-115483142D01*
X195533049Y-115441022D01*
X195661013Y-115372624D01*
X195773175Y-115280575D01*
X195796246Y-115252463D01*
X196341097Y-114707612D01*
X196350287Y-114716802D01*
X196491732Y-114811313D01*
X196648897Y-114876413D01*
X196815743Y-114909600D01*
X196985857Y-114909600D01*
X197152703Y-114876413D01*
X197309868Y-114811313D01*
X197451313Y-114716802D01*
X197571602Y-114596513D01*
X197666113Y-114455068D01*
X197731213Y-114297903D01*
X197741296Y-114247214D01*
X203403510Y-108585000D01*
X203535360Y-108585000D01*
X203578332Y-108613713D01*
X203735497Y-108678813D01*
X203902343Y-108712000D01*
X204072457Y-108712000D01*
X204239303Y-108678813D01*
X204396468Y-108613713D01*
X204537913Y-108519202D01*
X204658202Y-108398913D01*
X204752713Y-108257468D01*
X204817813Y-108100303D01*
X204851000Y-107933457D01*
X204851000Y-107763343D01*
X204817813Y-107596497D01*
X204752713Y-107439332D01*
X204658202Y-107297887D01*
X204537913Y-107177598D01*
X204396468Y-107083087D01*
X204239303Y-107017987D01*
X204072457Y-106984800D01*
X204063909Y-106984800D01*
X204533468Y-106515241D01*
X204561574Y-106492175D01*
X204653624Y-106380013D01*
X204722022Y-106252049D01*
X204764142Y-106113199D01*
X204774800Y-106004986D01*
X204774800Y-106004977D01*
X204778363Y-105968801D01*
X204774800Y-105932625D01*
X204774800Y-99654986D01*
X204778364Y-99618800D01*
X204764142Y-99474401D01*
X204746905Y-99417579D01*
X204722022Y-99335551D01*
X204653624Y-99207587D01*
X204561575Y-99095425D01*
X204533463Y-99072354D01*
X204216347Y-98755238D01*
X204216342Y-98755232D01*
X203837295Y-98376186D01*
X203827213Y-98325497D01*
X203762113Y-98168332D01*
X203667602Y-98026887D01*
X203583115Y-97942400D01*
X203693002Y-97832513D01*
X203787513Y-97691068D01*
X203852613Y-97533903D01*
X203885800Y-97367057D01*
X203885800Y-97196943D01*
X203852613Y-97030097D01*
X203787513Y-96872932D01*
X203693002Y-96731487D01*
X203572713Y-96611198D01*
X203431268Y-96516687D01*
X203274103Y-96451587D01*
X203128293Y-96422584D01*
X202962245Y-96256536D01*
X202939174Y-96228424D01*
X202827012Y-96136375D01*
X202699048Y-96067977D01*
X202560198Y-96025857D01*
X202451985Y-96015199D01*
X202451982Y-96015199D01*
X202415799Y-96011635D01*
X202379616Y-96015199D01*
X199233763Y-96015199D01*
X199197577Y-96011635D01*
X199161391Y-96015199D01*
X199053178Y-96025857D01*
X198914328Y-96067977D01*
X198786364Y-96136375D01*
X198674202Y-96228424D01*
X198651136Y-96256530D01*
X196114408Y-98793259D01*
X196027867Y-98793259D01*
X195861021Y-98826446D01*
X195703856Y-98891546D01*
X195562411Y-98986057D01*
X195442122Y-99106346D01*
X195347611Y-99247791D01*
X195282511Y-99404956D01*
X195249324Y-99571802D01*
X195249324Y-99741916D01*
X195282511Y-99908762D01*
X195347611Y-100065927D01*
X195358397Y-100082069D01*
X195326000Y-100244943D01*
X195326000Y-100415057D01*
X195359187Y-100581903D01*
X195424287Y-100739068D01*
X195518798Y-100880513D01*
X195639087Y-101000802D01*
X195780532Y-101095313D01*
X195937697Y-101160413D01*
X195976846Y-101168200D01*
X193568240Y-101168200D01*
X193525268Y-101139487D01*
X193368103Y-101074387D01*
X193201257Y-101041200D01*
X193031143Y-101041200D01*
X192864297Y-101074387D01*
X192707132Y-101139487D01*
X192565687Y-101233998D01*
X192445398Y-101354287D01*
X192350887Y-101495732D01*
X192285787Y-101652897D01*
X192252600Y-101819743D01*
X192252600Y-101989857D01*
X192285787Y-102156703D01*
X192350887Y-102313868D01*
X192445398Y-102455313D01*
X192565687Y-102575602D01*
X192707132Y-102670113D01*
X192864297Y-102735213D01*
X193031143Y-102768400D01*
X193201257Y-102768400D01*
X193368103Y-102735213D01*
X193525268Y-102670113D01*
X193568240Y-102641400D01*
X195326000Y-102641400D01*
X195326000Y-102675657D01*
X195359187Y-102842503D01*
X195424287Y-102999668D01*
X195518798Y-103141113D01*
X195639087Y-103261402D01*
X195780532Y-103355913D01*
X195937697Y-103421013D01*
X196104543Y-103454200D01*
X196274657Y-103454200D01*
X196441503Y-103421013D01*
X196598668Y-103355913D01*
X196740113Y-103261402D01*
X196860402Y-103141113D01*
X196924884Y-103044610D01*
X199153807Y-103044610D01*
X199189990Y-103048174D01*
X199226173Y-103044610D01*
X199226176Y-103044610D01*
X199334389Y-103033952D01*
X199473239Y-102991832D01*
X199601203Y-102923434D01*
X199713365Y-102831385D01*
X199736435Y-102803274D01*
X199999910Y-102539800D01*
X202227347Y-102539800D01*
X202308332Y-102593913D01*
X202465497Y-102659013D01*
X202632343Y-102692200D01*
X202666600Y-102692200D01*
X202666601Y-105384289D01*
X202604003Y-105446888D01*
X202556713Y-105399598D01*
X202415268Y-105305087D01*
X202258103Y-105239987D01*
X202091257Y-105206800D01*
X201921143Y-105206800D01*
X201754297Y-105239987D01*
X201597132Y-105305087D01*
X201455687Y-105399598D01*
X201335398Y-105519887D01*
X201240887Y-105661332D01*
X201175787Y-105818497D01*
X201165705Y-105869185D01*
X194236690Y-112798201D01*
X192203185Y-112798201D01*
X192244813Y-112697703D01*
X192278000Y-112530857D01*
X192278000Y-112360743D01*
X192244813Y-112193897D01*
X192179713Y-112036732D01*
X192085202Y-111895287D01*
X191964913Y-111774998D01*
X191823468Y-111680487D01*
X191666303Y-111615387D01*
X191615615Y-111605305D01*
X191012865Y-111002555D01*
X191108974Y-110938337D01*
X191253137Y-110794174D01*
X191366405Y-110624656D01*
X191444426Y-110436298D01*
X191484200Y-110236339D01*
X191484200Y-110032461D01*
X191444426Y-109832502D01*
X191366405Y-109644144D01*
X191338200Y-109601932D01*
X191338200Y-108203068D01*
X191366405Y-108160856D01*
X191444426Y-107972498D01*
X191484200Y-107772539D01*
X191484200Y-107568661D01*
X191444426Y-107368702D01*
X191366405Y-107180344D01*
X191338200Y-107138132D01*
X191338200Y-93693809D01*
X195232997Y-93693809D01*
X195419073Y-94034966D01*
X195836409Y-94250713D01*
X196287815Y-94380896D01*
X196755946Y-94420513D01*
X197222811Y-94368042D01*
X197670468Y-94225497D01*
X198026927Y-94034966D01*
X198213003Y-93693809D01*
X196723000Y-92203805D01*
X195232997Y-93693809D01*
X191338200Y-93693809D01*
X191338200Y-92057146D01*
X194326687Y-92057146D01*
X194379158Y-92524011D01*
X194521703Y-92971668D01*
X194712234Y-93328127D01*
X195053391Y-93514203D01*
X196543395Y-92024200D01*
X196902605Y-92024200D01*
X198392609Y-93514203D01*
X198733766Y-93328127D01*
X198949513Y-92910791D01*
X199079696Y-92459385D01*
X199119313Y-91991254D01*
X199066842Y-91524389D01*
X198924297Y-91076732D01*
X198733766Y-90720273D01*
X198392609Y-90534197D01*
X196902605Y-92024200D01*
X196543395Y-92024200D01*
X195053391Y-90534197D01*
X194712234Y-90720273D01*
X194496487Y-91137609D01*
X194366304Y-91589015D01*
X194326687Y-92057146D01*
X191338200Y-92057146D01*
X191338200Y-90354591D01*
X195232997Y-90354591D01*
X196723000Y-91844595D01*
X198213003Y-90354591D01*
X198026927Y-90013434D01*
X197609591Y-89797687D01*
X197158185Y-89667504D01*
X196690054Y-89627887D01*
X196223189Y-89680358D01*
X195775532Y-89822903D01*
X195419073Y-90013434D01*
X195232997Y-90354591D01*
X191338200Y-90354591D01*
X191338200Y-82828468D01*
X191366405Y-82786256D01*
X191444426Y-82597898D01*
X191484200Y-82397939D01*
X191484200Y-82194061D01*
X191444426Y-81994102D01*
X191366405Y-81805744D01*
X191253137Y-81636226D01*
X191108974Y-81492063D01*
X190939456Y-81378795D01*
X190751098Y-81300774D01*
X190551139Y-81261000D01*
X190347261Y-81261000D01*
X190147302Y-81300774D01*
X189958944Y-81378795D01*
X189789426Y-81492063D01*
X189645263Y-81636226D01*
X189531995Y-81805744D01*
X189453974Y-81994102D01*
X189414200Y-82194061D01*
X189414200Y-82397939D01*
X189453974Y-82597898D01*
X189531995Y-82786256D01*
X189560200Y-82828468D01*
X189560200Y-89869054D01*
X189420468Y-89775687D01*
X189263303Y-89710587D01*
X189212615Y-89700505D01*
X184560692Y-85048583D01*
X184537621Y-85020471D01*
X184425459Y-84928422D01*
X184297495Y-84860024D01*
X184158645Y-84817904D01*
X184050432Y-84807246D01*
X184050429Y-84807246D01*
X184014246Y-84803682D01*
X183978063Y-84807246D01*
X173334079Y-84807246D01*
X173339339Y-84802929D01*
X173524911Y-84576809D01*
X173662804Y-84318829D01*
X173747718Y-84038906D01*
X173776390Y-83747795D01*
X173747718Y-83456684D01*
X173662804Y-83176761D01*
X173524911Y-82918781D01*
X173339339Y-82692661D01*
X173113219Y-82507089D01*
X172855239Y-82369196D01*
X172575316Y-82284282D01*
X172357155Y-82262795D01*
X172211255Y-82262795D01*
X171993094Y-82284282D01*
X171713171Y-82369196D01*
X171455191Y-82507089D01*
X171229071Y-82692661D01*
X171043499Y-82918781D01*
X170905606Y-83176761D01*
X170820692Y-83456684D01*
X170792020Y-83747795D01*
X170820692Y-84038906D01*
X170838731Y-84098372D01*
X170779265Y-84080333D01*
X170561104Y-84058846D01*
X170415204Y-84058846D01*
X170197043Y-84080333D01*
X169917120Y-84165247D01*
X169659140Y-84303140D01*
X169433020Y-84488712D01*
X169247448Y-84714832D01*
X169109555Y-84972812D01*
X169024641Y-85252735D01*
X168995969Y-85543846D01*
X169024641Y-85834957D01*
X169042680Y-85894424D01*
X168983213Y-85876385D01*
X168765052Y-85854898D01*
X168619152Y-85854898D01*
X168400991Y-85876385D01*
X168121068Y-85961299D01*
X167863088Y-86099192D01*
X167636968Y-86284764D01*
X167451396Y-86510884D01*
X167313503Y-86768864D01*
X167228589Y-87048787D01*
X167199917Y-87339898D01*
X167228589Y-87631009D01*
X167246628Y-87690475D01*
X167187162Y-87672436D01*
X166969001Y-87650949D01*
X166823101Y-87650949D01*
X166604940Y-87672436D01*
X166325017Y-87757350D01*
X166067037Y-87895243D01*
X165840917Y-88080815D01*
X165655345Y-88306935D01*
X165517452Y-88564915D01*
X165432538Y-88844838D01*
X165403866Y-89135949D01*
X165407647Y-89174340D01*
X165344180Y-89140416D01*
X165224481Y-89104107D01*
X165100000Y-89091847D01*
X164975519Y-89104107D01*
X164855820Y-89140416D01*
X164745506Y-89199380D01*
X164648815Y-89278733D01*
X164252002Y-89679891D01*
X164150990Y-89679891D01*
X165001086Y-88427944D01*
X166210307Y-86920433D01*
X167535477Y-85513761D01*
X168968219Y-84216820D01*
X170499474Y-83037810D01*
X172119561Y-81984187D01*
X173818237Y-81062609D01*
X175584762Y-80278906D01*
X177407969Y-79638030D01*
X179276330Y-79144035D01*
X181178033Y-78800042D01*
X183101054Y-78608228D01*
X185033237Y-78569804D01*
X186962364Y-78685014D01*
G36*
X188170905Y-90742215D02*
G01*
X188180987Y-90792903D01*
X188246087Y-90950068D01*
X188274800Y-90993040D01*
X188274801Y-109854205D01*
X188274800Y-109854215D01*
X188274800Y-110006617D01*
X188271236Y-110042800D01*
X188274800Y-110078983D01*
X188274800Y-110078986D01*
X188285458Y-110187199D01*
X188327578Y-110326049D01*
X188395976Y-110454013D01*
X188438497Y-110505824D01*
X188463405Y-110536174D01*
X188488026Y-110566175D01*
X188516132Y-110589241D01*
X190573905Y-112647015D01*
X190583987Y-112697703D01*
X190625615Y-112798201D01*
X181636664Y-112798201D01*
X181627613Y-112752697D01*
X181562513Y-112595532D01*
X181533800Y-112552560D01*
X181533800Y-109534354D01*
X181541587Y-109573503D01*
X181606687Y-109730668D01*
X181701198Y-109872113D01*
X181821487Y-109992402D01*
X181962932Y-110086913D01*
X182120097Y-110152013D01*
X182286943Y-110185200D01*
X182457057Y-110185200D01*
X182623903Y-110152013D01*
X182781068Y-110086913D01*
X182922513Y-109992402D01*
X183042802Y-109872113D01*
X183137313Y-109730668D01*
X183202413Y-109573503D01*
X183235600Y-109406657D01*
X183235600Y-109236543D01*
X183202413Y-109069697D01*
X183137313Y-108912532D01*
X183042802Y-108771087D01*
X182922513Y-108650798D01*
X182781068Y-108556287D01*
X182623903Y-108491187D01*
X182573214Y-108481105D01*
X182168800Y-108076691D01*
X182168800Y-89936240D01*
X182197513Y-89893268D01*
X182262613Y-89736103D01*
X182295800Y-89569257D01*
X182295800Y-89399143D01*
X182262613Y-89232297D01*
X182197513Y-89075132D01*
X182103002Y-88933687D01*
X181982713Y-88813398D01*
X181841268Y-88718887D01*
X181684103Y-88653787D01*
X181633414Y-88643705D01*
X179834343Y-86844634D01*
X179811273Y-86816523D01*
X179699111Y-86724474D01*
X179571147Y-86656076D01*
X179432297Y-86613956D01*
X179324084Y-86603298D01*
X179324081Y-86603298D01*
X179287898Y-86599734D01*
X179251715Y-86603298D01*
X171538027Y-86603298D01*
X171543288Y-86598980D01*
X171728860Y-86372860D01*
X171778256Y-86280446D01*
X183709137Y-86280446D01*
X188170905Y-90742215D01*
X188170905Y-90742215D01*
G37*
X188170905Y-90742215D02*
X188180987Y-90792903D01*
X188246087Y-90950068D01*
X188274800Y-90993040D01*
X188274801Y-109854205D01*
X188274800Y-109854215D01*
X188274800Y-110006617D01*
X188271236Y-110042800D01*
X188274800Y-110078983D01*
X188274800Y-110078986D01*
X188285458Y-110187199D01*
X188327578Y-110326049D01*
X188395976Y-110454013D01*
X188438497Y-110505824D01*
X188463405Y-110536174D01*
X188488026Y-110566175D01*
X188516132Y-110589241D01*
X190573905Y-112647015D01*
X190583987Y-112697703D01*
X190625615Y-112798201D01*
X181636664Y-112798201D01*
X181627613Y-112752697D01*
X181562513Y-112595532D01*
X181533800Y-112552560D01*
X181533800Y-109534354D01*
X181541587Y-109573503D01*
X181606687Y-109730668D01*
X181701198Y-109872113D01*
X181821487Y-109992402D01*
X181962932Y-110086913D01*
X182120097Y-110152013D01*
X182286943Y-110185200D01*
X182457057Y-110185200D01*
X182623903Y-110152013D01*
X182781068Y-110086913D01*
X182922513Y-109992402D01*
X183042802Y-109872113D01*
X183137313Y-109730668D01*
X183202413Y-109573503D01*
X183235600Y-109406657D01*
X183235600Y-109236543D01*
X183202413Y-109069697D01*
X183137313Y-108912532D01*
X183042802Y-108771087D01*
X182922513Y-108650798D01*
X182781068Y-108556287D01*
X182623903Y-108491187D01*
X182573214Y-108481105D01*
X182168800Y-108076691D01*
X182168800Y-89936240D01*
X182197513Y-89893268D01*
X182262613Y-89736103D01*
X182295800Y-89569257D01*
X182295800Y-89399143D01*
X182262613Y-89232297D01*
X182197513Y-89075132D01*
X182103002Y-88933687D01*
X181982713Y-88813398D01*
X181841268Y-88718887D01*
X181684103Y-88653787D01*
X181633414Y-88643705D01*
X179834343Y-86844634D01*
X179811273Y-86816523D01*
X179699111Y-86724474D01*
X179571147Y-86656076D01*
X179432297Y-86613956D01*
X179324084Y-86603298D01*
X179324081Y-86603298D01*
X179287898Y-86599734D01*
X179251715Y-86603298D01*
X171538027Y-86603298D01*
X171543288Y-86598980D01*
X171728860Y-86372860D01*
X171778256Y-86280446D01*
X183709137Y-86280446D01*
X188170905Y-90742215D01*
G36*
X179422182Y-88515891D02*
G01*
X179302887Y-88452127D01*
X179164037Y-88410007D01*
X179055824Y-88399349D01*
X179055821Y-88399349D01*
X179019638Y-88395785D01*
X178983455Y-88399349D01*
X169741976Y-88399349D01*
X169747236Y-88395032D01*
X169932808Y-88168912D01*
X169982204Y-88076498D01*
X178982789Y-88076498D01*
X179422182Y-88515891D01*
X179422182Y-88515891D01*
G37*
X179422182Y-88515891D02*
X179302887Y-88452127D01*
X179164037Y-88410007D01*
X179055824Y-88399349D01*
X179055821Y-88399349D01*
X179019638Y-88395785D01*
X178983455Y-88399349D01*
X169741976Y-88399349D01*
X169747236Y-88395032D01*
X169932808Y-88168912D01*
X169982204Y-88076498D01*
X178982789Y-88076498D01*
X179422182Y-88515891D01*
M02*
