G04 #@! TF.GenerationSoftware,KiCad,Pcbnew,(5.1.4-0-10_14)*
G04 #@! TF.CreationDate,2019-10-28T14:00:27+08:00*
G04 #@! TF.ProjectId,z2m_partner,7a326d5f-7061-4727-946e-65722e6b6963,rev?*
G04 #@! TF.SameCoordinates,Original*
G04 #@! TF.FileFunction,Legend,Bot*
G04 #@! TF.FilePolarity,Positive*
%FSLAX46Y46*%
G04 Gerber Fmt 4.6, Leading zero omitted, Abs format (unit mm)*
G04 Created by KiCad (PCBNEW (5.1.4-0-10_14)) date 2019-10-28 14:00:27*
%MOMM*%
%LPD*%
G04 APERTURE LIST*
%ADD10C,0.150000*%
G04 APERTURE END LIST*
D10*
X189799261Y-79720380D02*
X189227833Y-79720380D01*
X189513547Y-80720380D02*
X189513547Y-79720380D01*
X189037357Y-79720380D02*
X188465928Y-79720380D01*
X188751642Y-80720380D02*
X188751642Y-79720380D01*
X187942119Y-80244190D02*
X187942119Y-80720380D01*
X188275452Y-79720380D02*
X187942119Y-80244190D01*
X187608785Y-79720380D01*
X186084976Y-80672761D02*
X186180214Y-80720380D01*
X186370690Y-80720380D01*
X186465928Y-80672761D01*
X186513547Y-80625142D01*
X186561166Y-80529904D01*
X186561166Y-80244190D01*
X186513547Y-80148952D01*
X186465928Y-80101333D01*
X186370690Y-80053714D01*
X186180214Y-80053714D01*
X186084976Y-80101333D01*
X185513547Y-80720380D02*
X185608785Y-80672761D01*
X185656404Y-80625142D01*
X185704023Y-80529904D01*
X185704023Y-80244190D01*
X185656404Y-80148952D01*
X185608785Y-80101333D01*
X185513547Y-80053714D01*
X185370690Y-80053714D01*
X185275452Y-80101333D01*
X185227833Y-80148952D01*
X185180214Y-80244190D01*
X185180214Y-80529904D01*
X185227833Y-80625142D01*
X185275452Y-80672761D01*
X185370690Y-80720380D01*
X185513547Y-80720380D01*
X184751642Y-80053714D02*
X184751642Y-80720380D01*
X184751642Y-80148952D02*
X184704023Y-80101333D01*
X184608785Y-80053714D01*
X184465928Y-80053714D01*
X184370690Y-80101333D01*
X184323071Y-80196571D01*
X184323071Y-80720380D01*
X183989738Y-80053714D02*
X183608785Y-80053714D01*
X183846880Y-79720380D02*
X183846880Y-80577523D01*
X183799261Y-80672761D01*
X183704023Y-80720380D01*
X183608785Y-80720380D01*
X183275452Y-80720380D02*
X183275452Y-80053714D01*
X183275452Y-80244190D02*
X183227833Y-80148952D01*
X183180214Y-80101333D01*
X183084976Y-80053714D01*
X182989738Y-80053714D01*
X182513547Y-80720380D02*
X182608785Y-80672761D01*
X182656404Y-80625142D01*
X182704023Y-80529904D01*
X182704023Y-80244190D01*
X182656404Y-80148952D01*
X182608785Y-80101333D01*
X182513547Y-80053714D01*
X182370690Y-80053714D01*
X182275452Y-80101333D01*
X182227833Y-80148952D01*
X182180214Y-80244190D01*
X182180214Y-80529904D01*
X182227833Y-80625142D01*
X182275452Y-80672761D01*
X182370690Y-80720380D01*
X182513547Y-80720380D01*
X181608785Y-80720380D02*
X181704023Y-80672761D01*
X181751642Y-80577523D01*
X181751642Y-79720380D01*
X189465928Y-81370380D02*
X189370690Y-81370380D01*
X189275452Y-81418000D01*
X189227833Y-81465619D01*
X189180214Y-81560857D01*
X189132595Y-81751333D01*
X189132595Y-81989428D01*
X189180214Y-82179904D01*
X189227833Y-82275142D01*
X189275452Y-82322761D01*
X189370690Y-82370380D01*
X189465928Y-82370380D01*
X189561166Y-82322761D01*
X189608785Y-82275142D01*
X189656404Y-82179904D01*
X189704023Y-81989428D01*
X189704023Y-81751333D01*
X189656404Y-81560857D01*
X189608785Y-81465619D01*
X189561166Y-81418000D01*
X189465928Y-81370380D01*
X188513547Y-81370380D02*
X188418309Y-81370380D01*
X188323071Y-81418000D01*
X188275452Y-81465619D01*
X188227833Y-81560857D01*
X188180214Y-81751333D01*
X188180214Y-81989428D01*
X188227833Y-82179904D01*
X188275452Y-82275142D01*
X188323071Y-82322761D01*
X188418309Y-82370380D01*
X188513547Y-82370380D01*
X188608785Y-82322761D01*
X188656404Y-82275142D01*
X188704023Y-82179904D01*
X188751642Y-81989428D01*
X188751642Y-81751333D01*
X188704023Y-81560857D01*
X188656404Y-81465619D01*
X188608785Y-81418000D01*
X188513547Y-81370380D01*
X186989738Y-81370380D02*
X186989738Y-82179904D01*
X186942119Y-82275142D01*
X186894500Y-82322761D01*
X186799261Y-82370380D01*
X186608785Y-82370380D01*
X186513547Y-82322761D01*
X186465928Y-82275142D01*
X186418309Y-82179904D01*
X186418309Y-81370380D01*
X185989738Y-82322761D02*
X185846880Y-82370380D01*
X185608785Y-82370380D01*
X185513547Y-82322761D01*
X185465928Y-82275142D01*
X185418309Y-82179904D01*
X185418309Y-82084666D01*
X185465928Y-81989428D01*
X185513547Y-81941809D01*
X185608785Y-81894190D01*
X185799261Y-81846571D01*
X185894500Y-81798952D01*
X185942119Y-81751333D01*
X185989738Y-81656095D01*
X185989738Y-81560857D01*
X185942119Y-81465619D01*
X185894500Y-81418000D01*
X185799261Y-81370380D01*
X185561166Y-81370380D01*
X185418309Y-81418000D01*
X184656404Y-81846571D02*
X184513547Y-81894190D01*
X184465928Y-81941809D01*
X184418309Y-82037047D01*
X184418309Y-82179904D01*
X184465928Y-82275142D01*
X184513547Y-82322761D01*
X184608785Y-82370380D01*
X184989738Y-82370380D01*
X184989738Y-81370380D01*
X184656404Y-81370380D01*
X184561166Y-81418000D01*
X184513547Y-81465619D01*
X184465928Y-81560857D01*
X184465928Y-81656095D01*
X184513547Y-81751333D01*
X184561166Y-81798952D01*
X184656404Y-81846571D01*
X184989738Y-81846571D01*
X183227833Y-81703714D02*
X183989738Y-81989428D01*
X183227833Y-82275142D01*
X182751642Y-81846571D02*
X181989738Y-81846571D01*
X181989738Y-82132285D02*
X182751642Y-82132285D01*
X181513547Y-81703714D02*
X180751642Y-81989428D01*
X181513547Y-82275142D01*
X180275452Y-81846571D02*
X179942119Y-81846571D01*
X179799261Y-82370380D02*
X180275452Y-82370380D01*
X180275452Y-81370380D01*
X179799261Y-81370380D01*
X179418309Y-82322761D02*
X179275452Y-82370380D01*
X179037357Y-82370380D01*
X178942119Y-82322761D01*
X178894500Y-82275142D01*
X178846880Y-82179904D01*
X178846880Y-82084666D01*
X178894500Y-81989428D01*
X178942119Y-81941809D01*
X179037357Y-81894190D01*
X179227833Y-81846571D01*
X179323071Y-81798952D01*
X179370690Y-81751333D01*
X179418309Y-81656095D01*
X179418309Y-81560857D01*
X179370690Y-81465619D01*
X179323071Y-81418000D01*
X179227833Y-81370380D01*
X178989738Y-81370380D01*
X178846880Y-81418000D01*
X178418309Y-82370380D02*
X178418309Y-81370380D01*
X178037357Y-81370380D01*
X177942119Y-81418000D01*
X177894500Y-81465619D01*
X177846880Y-81560857D01*
X177846880Y-81703714D01*
X177894500Y-81798952D01*
X177942119Y-81846571D01*
X178037357Y-81894190D01*
X178418309Y-81894190D01*
X186704023Y-83020380D02*
X186037357Y-83020380D01*
X186704023Y-84020380D01*
X186037357Y-84020380D01*
X185323071Y-83496571D02*
X185180214Y-83544190D01*
X185132595Y-83591809D01*
X185084976Y-83687047D01*
X185084976Y-83829904D01*
X185132595Y-83925142D01*
X185180214Y-83972761D01*
X185275452Y-84020380D01*
X185656404Y-84020380D01*
X185656404Y-83020380D01*
X185323071Y-83020380D01*
X185227833Y-83068000D01*
X185180214Y-83115619D01*
X185132595Y-83210857D01*
X185132595Y-83306095D01*
X185180214Y-83401333D01*
X185227833Y-83448952D01*
X185323071Y-83496571D01*
X185656404Y-83496571D01*
X183894500Y-83353714D02*
X184656404Y-83639428D01*
X183894500Y-83925142D01*
X183418309Y-83496571D02*
X182656404Y-83496571D01*
X182656404Y-83782285D02*
X183418309Y-83782285D01*
X182180214Y-83353714D02*
X181418309Y-83639428D01*
X182180214Y-83925142D01*
X180942119Y-84020380D02*
X180942119Y-83020380D01*
X180370690Y-84020380D01*
X180370690Y-83020380D01*
X179323071Y-83925142D02*
X179370690Y-83972761D01*
X179513547Y-84020380D01*
X179608785Y-84020380D01*
X179751642Y-83972761D01*
X179846880Y-83877523D01*
X179894500Y-83782285D01*
X179942119Y-83591809D01*
X179942119Y-83448952D01*
X179894500Y-83258476D01*
X179846880Y-83163238D01*
X179751642Y-83068000D01*
X179608785Y-83020380D01*
X179513547Y-83020380D01*
X179370690Y-83068000D01*
X179323071Y-83115619D01*
X189465928Y-84670380D02*
X189370690Y-84670380D01*
X189275452Y-84718000D01*
X189227833Y-84765619D01*
X189180214Y-84860857D01*
X189132595Y-85051333D01*
X189132595Y-85289428D01*
X189180214Y-85479904D01*
X189227833Y-85575142D01*
X189275452Y-85622761D01*
X189370690Y-85670380D01*
X189465928Y-85670380D01*
X189561166Y-85622761D01*
X189608785Y-85575142D01*
X189656404Y-85479904D01*
X189704023Y-85289428D01*
X189704023Y-85051333D01*
X189656404Y-84860857D01*
X189608785Y-84765619D01*
X189561166Y-84718000D01*
X189465928Y-84670380D01*
X188180214Y-85670380D02*
X188751642Y-85670380D01*
X188465928Y-85670380D02*
X188465928Y-84670380D01*
X188561166Y-84813238D01*
X188656404Y-84908476D01*
X188751642Y-84956095D01*
X186989738Y-84670380D02*
X186989738Y-85479904D01*
X186942119Y-85575142D01*
X186894500Y-85622761D01*
X186799261Y-85670380D01*
X186608785Y-85670380D01*
X186513547Y-85622761D01*
X186465928Y-85575142D01*
X186418309Y-85479904D01*
X186418309Y-84670380D01*
X185989738Y-85622761D02*
X185846880Y-85670380D01*
X185608785Y-85670380D01*
X185513547Y-85622761D01*
X185465928Y-85575142D01*
X185418309Y-85479904D01*
X185418309Y-85384666D01*
X185465928Y-85289428D01*
X185513547Y-85241809D01*
X185608785Y-85194190D01*
X185799261Y-85146571D01*
X185894500Y-85098952D01*
X185942119Y-85051333D01*
X185989738Y-84956095D01*
X185989738Y-84860857D01*
X185942119Y-84765619D01*
X185894500Y-84718000D01*
X185799261Y-84670380D01*
X185561166Y-84670380D01*
X185418309Y-84718000D01*
X184656404Y-85146571D02*
X184513547Y-85194190D01*
X184465928Y-85241809D01*
X184418309Y-85337047D01*
X184418309Y-85479904D01*
X184465928Y-85575142D01*
X184513547Y-85622761D01*
X184608785Y-85670380D01*
X184989738Y-85670380D01*
X184989738Y-84670380D01*
X184656404Y-84670380D01*
X184561166Y-84718000D01*
X184513547Y-84765619D01*
X184465928Y-84860857D01*
X184465928Y-84956095D01*
X184513547Y-85051333D01*
X184561166Y-85098952D01*
X184656404Y-85146571D01*
X184989738Y-85146571D01*
X183227833Y-85003714D02*
X183989738Y-85289428D01*
X183227833Y-85575142D01*
X182751642Y-85146571D02*
X181989738Y-85146571D01*
X181989738Y-85432285D02*
X182751642Y-85432285D01*
X181513547Y-85003714D02*
X180751642Y-85289428D01*
X181513547Y-85575142D01*
X180370690Y-84670380D02*
X179704023Y-84670380D01*
X180370690Y-85670380D01*
X179704023Y-85670380D01*
X178989738Y-85146571D02*
X178846880Y-85194190D01*
X178799261Y-85241809D01*
X178751642Y-85337047D01*
X178751642Y-85479904D01*
X178799261Y-85575142D01*
X178846880Y-85622761D01*
X178942119Y-85670380D01*
X179323071Y-85670380D01*
X179323071Y-84670380D01*
X178989738Y-84670380D01*
X178894500Y-84718000D01*
X178846880Y-84765619D01*
X178799261Y-84860857D01*
X178799261Y-84956095D01*
X178846880Y-85051333D01*
X178894500Y-85098952D01*
X178989738Y-85146571D01*
X179323071Y-85146571D01*
X186608785Y-86796571D02*
X186275452Y-86796571D01*
X186132595Y-87320380D02*
X186608785Y-87320380D01*
X186608785Y-86320380D01*
X186132595Y-86320380D01*
X185751642Y-87272761D02*
X185608785Y-87320380D01*
X185370690Y-87320380D01*
X185275452Y-87272761D01*
X185227833Y-87225142D01*
X185180214Y-87129904D01*
X185180214Y-87034666D01*
X185227833Y-86939428D01*
X185275452Y-86891809D01*
X185370690Y-86844190D01*
X185561166Y-86796571D01*
X185656404Y-86748952D01*
X185704023Y-86701333D01*
X185751642Y-86606095D01*
X185751642Y-86510857D01*
X185704023Y-86415619D01*
X185656404Y-86368000D01*
X185561166Y-86320380D01*
X185323071Y-86320380D01*
X185180214Y-86368000D01*
X184751642Y-87320380D02*
X184751642Y-86320380D01*
X184370690Y-86320380D01*
X184275452Y-86368000D01*
X184227833Y-86415619D01*
X184180214Y-86510857D01*
X184180214Y-86653714D01*
X184227833Y-86748952D01*
X184275452Y-86796571D01*
X184370690Y-86844190D01*
X184751642Y-86844190D01*
X182989738Y-86653714D02*
X183751642Y-86939428D01*
X182989738Y-87225142D01*
X182513547Y-86796571D02*
X181751642Y-86796571D01*
X181751642Y-87082285D02*
X182513547Y-87082285D01*
X181275452Y-86653714D02*
X180513547Y-86939428D01*
X181275452Y-87225142D01*
X180037357Y-87320380D02*
X180037357Y-86320380D01*
X179465928Y-87320380D01*
X179465928Y-86320380D01*
X178418309Y-87225142D02*
X178465928Y-87272761D01*
X178608785Y-87320380D01*
X178704023Y-87320380D01*
X178846880Y-87272761D01*
X178942119Y-87177523D01*
X178989738Y-87082285D01*
X179037357Y-86891809D01*
X179037357Y-86748952D01*
X178989738Y-86558476D01*
X178942119Y-86463238D01*
X178846880Y-86368000D01*
X178704023Y-86320380D01*
X178608785Y-86320380D01*
X178465928Y-86368000D01*
X178418309Y-86415619D01*
X189132595Y-88970380D02*
X189704023Y-88970380D01*
X189418309Y-88970380D02*
X189418309Y-87970380D01*
X189513547Y-88113238D01*
X189608785Y-88208476D01*
X189704023Y-88256095D01*
X188513547Y-87970380D02*
X188418309Y-87970380D01*
X188323071Y-88018000D01*
X188275452Y-88065619D01*
X188227833Y-88160857D01*
X188180214Y-88351333D01*
X188180214Y-88589428D01*
X188227833Y-88779904D01*
X188275452Y-88875142D01*
X188323071Y-88922761D01*
X188418309Y-88970380D01*
X188513547Y-88970380D01*
X188608785Y-88922761D01*
X188656404Y-88875142D01*
X188704023Y-88779904D01*
X188751642Y-88589428D01*
X188751642Y-88351333D01*
X188704023Y-88160857D01*
X188656404Y-88065619D01*
X188608785Y-88018000D01*
X188513547Y-87970380D01*
X186989738Y-88446571D02*
X186656404Y-88446571D01*
X186513547Y-88970380D02*
X186989738Y-88970380D01*
X186989738Y-87970380D01*
X186513547Y-87970380D01*
X186132595Y-88922761D02*
X185989738Y-88970380D01*
X185751642Y-88970380D01*
X185656404Y-88922761D01*
X185608785Y-88875142D01*
X185561166Y-88779904D01*
X185561166Y-88684666D01*
X185608785Y-88589428D01*
X185656404Y-88541809D01*
X185751642Y-88494190D01*
X185942119Y-88446571D01*
X186037357Y-88398952D01*
X186084976Y-88351333D01*
X186132595Y-88256095D01*
X186132595Y-88160857D01*
X186084976Y-88065619D01*
X186037357Y-88018000D01*
X185942119Y-87970380D01*
X185704023Y-87970380D01*
X185561166Y-88018000D01*
X185132595Y-88970380D02*
X185132595Y-87970380D01*
X184751642Y-87970380D01*
X184656404Y-88018000D01*
X184608785Y-88065619D01*
X184561166Y-88160857D01*
X184561166Y-88303714D01*
X184608785Y-88398952D01*
X184656404Y-88446571D01*
X184751642Y-88494190D01*
X185132595Y-88494190D01*
X183370690Y-88303714D02*
X184132595Y-88589428D01*
X183370690Y-88875142D01*
X182894500Y-88446571D02*
X182132595Y-88446571D01*
X182132595Y-88732285D02*
X182894500Y-88732285D01*
X181656404Y-88303714D02*
X180894500Y-88589428D01*
X181656404Y-88875142D01*
X180513547Y-87970380D02*
X179846880Y-87970380D01*
X180513547Y-88970380D01*
X179846880Y-88970380D01*
X179132595Y-88446571D02*
X178989738Y-88494190D01*
X178942119Y-88541809D01*
X178894500Y-88637047D01*
X178894500Y-88779904D01*
X178942119Y-88875142D01*
X178989738Y-88922761D01*
X179084976Y-88970380D01*
X179465928Y-88970380D01*
X179465928Y-87970380D01*
X179132595Y-87970380D01*
X179037357Y-88018000D01*
X178989738Y-88065619D01*
X178942119Y-88160857D01*
X178942119Y-88256095D01*
X178989738Y-88351333D01*
X179037357Y-88398952D01*
X179132595Y-88446571D01*
X179465928Y-88446571D01*
X186608785Y-89620380D02*
X186608785Y-90429904D01*
X186561166Y-90525142D01*
X186513547Y-90572761D01*
X186418309Y-90620380D01*
X186227833Y-90620380D01*
X186132595Y-90572761D01*
X186084976Y-90525142D01*
X186037357Y-90429904D01*
X186037357Y-89620380D01*
X185608785Y-90572761D02*
X185465928Y-90620380D01*
X185227833Y-90620380D01*
X185132595Y-90572761D01*
X185084976Y-90525142D01*
X185037357Y-90429904D01*
X185037357Y-90334666D01*
X185084976Y-90239428D01*
X185132595Y-90191809D01*
X185227833Y-90144190D01*
X185418309Y-90096571D01*
X185513547Y-90048952D01*
X185561166Y-90001333D01*
X185608785Y-89906095D01*
X185608785Y-89810857D01*
X185561166Y-89715619D01*
X185513547Y-89668000D01*
X185418309Y-89620380D01*
X185180214Y-89620380D01*
X185037357Y-89668000D01*
X184275452Y-90096571D02*
X184132595Y-90144190D01*
X184084976Y-90191809D01*
X184037357Y-90287047D01*
X184037357Y-90429904D01*
X184084976Y-90525142D01*
X184132595Y-90572761D01*
X184227833Y-90620380D01*
X184608785Y-90620380D01*
X184608785Y-89620380D01*
X184275452Y-89620380D01*
X184180214Y-89668000D01*
X184132595Y-89715619D01*
X184084976Y-89810857D01*
X184084976Y-89906095D01*
X184132595Y-90001333D01*
X184180214Y-90048952D01*
X184275452Y-90096571D01*
X184608785Y-90096571D01*
X182846880Y-89953714D02*
X183608785Y-90239428D01*
X182846880Y-90525142D01*
X182370690Y-90096571D02*
X181608785Y-90096571D01*
X181608785Y-90382285D02*
X182370690Y-90382285D01*
X181132595Y-89953714D02*
X180370690Y-90239428D01*
X181132595Y-90525142D01*
X179894500Y-90620380D02*
X179894500Y-89620380D01*
X179656404Y-89620380D01*
X179513547Y-89668000D01*
X179418309Y-89763238D01*
X179370690Y-89858476D01*
X179323071Y-90048952D01*
X179323071Y-90191809D01*
X179370690Y-90382285D01*
X179418309Y-90477523D01*
X179513547Y-90572761D01*
X179656404Y-90620380D01*
X179894500Y-90620380D01*
X178561166Y-90096571D02*
X178418309Y-90144190D01*
X178370690Y-90191809D01*
X178323071Y-90287047D01*
X178323071Y-90429904D01*
X178370690Y-90525142D01*
X178418309Y-90572761D01*
X178513547Y-90620380D01*
X178894500Y-90620380D01*
X178894500Y-89620380D01*
X178561166Y-89620380D01*
X178465928Y-89668000D01*
X178418309Y-89715619D01*
X178370690Y-89810857D01*
X178370690Y-89906095D01*
X178418309Y-90001333D01*
X178465928Y-90048952D01*
X178561166Y-90096571D01*
X178894500Y-90096571D01*
X177370690Y-89668000D02*
X177465928Y-89620380D01*
X177608785Y-89620380D01*
X177751642Y-89668000D01*
X177846880Y-89763238D01*
X177894500Y-89858476D01*
X177942119Y-90048952D01*
X177942119Y-90191809D01*
X177894500Y-90382285D01*
X177846880Y-90477523D01*
X177751642Y-90572761D01*
X177608785Y-90620380D01*
X177513547Y-90620380D01*
X177370690Y-90572761D01*
X177323071Y-90525142D01*
X177323071Y-90191809D01*
X177513547Y-90191809D01*
X189132595Y-92270380D02*
X189704023Y-92270380D01*
X189418309Y-92270380D02*
X189418309Y-91270380D01*
X189513547Y-91413238D01*
X189608785Y-91508476D01*
X189704023Y-91556095D01*
X188180214Y-92270380D02*
X188751642Y-92270380D01*
X188465928Y-92270380D02*
X188465928Y-91270380D01*
X188561166Y-91413238D01*
X188656404Y-91508476D01*
X188751642Y-91556095D01*
X186989738Y-91746571D02*
X186656404Y-91746571D01*
X186513547Y-92270380D02*
X186989738Y-92270380D01*
X186989738Y-91270380D01*
X186513547Y-91270380D01*
X186132595Y-92222761D02*
X185989738Y-92270380D01*
X185751642Y-92270380D01*
X185656404Y-92222761D01*
X185608785Y-92175142D01*
X185561166Y-92079904D01*
X185561166Y-91984666D01*
X185608785Y-91889428D01*
X185656404Y-91841809D01*
X185751642Y-91794190D01*
X185942119Y-91746571D01*
X186037357Y-91698952D01*
X186084976Y-91651333D01*
X186132595Y-91556095D01*
X186132595Y-91460857D01*
X186084976Y-91365619D01*
X186037357Y-91318000D01*
X185942119Y-91270380D01*
X185704023Y-91270380D01*
X185561166Y-91318000D01*
X185132595Y-92270380D02*
X185132595Y-91270380D01*
X184751642Y-91270380D01*
X184656404Y-91318000D01*
X184608785Y-91365619D01*
X184561166Y-91460857D01*
X184561166Y-91603714D01*
X184608785Y-91698952D01*
X184656404Y-91746571D01*
X184751642Y-91794190D01*
X185132595Y-91794190D01*
X183370690Y-91603714D02*
X184132595Y-91889428D01*
X183370690Y-92175142D01*
X182894500Y-91746571D02*
X182132595Y-91746571D01*
X182132595Y-92032285D02*
X182894500Y-92032285D01*
X181656404Y-91603714D02*
X180894500Y-91889428D01*
X181656404Y-92175142D01*
X180513547Y-91270380D02*
X179846880Y-91270380D01*
X180513547Y-92270380D01*
X179846880Y-92270380D01*
X179132595Y-91746571D02*
X178989738Y-91794190D01*
X178942119Y-91841809D01*
X178894500Y-91937047D01*
X178894500Y-92079904D01*
X178942119Y-92175142D01*
X178989738Y-92222761D01*
X179084976Y-92270380D01*
X179465928Y-92270380D01*
X179465928Y-91270380D01*
X179132595Y-91270380D01*
X179037357Y-91318000D01*
X178989738Y-91365619D01*
X178942119Y-91460857D01*
X178942119Y-91556095D01*
X178989738Y-91651333D01*
X179037357Y-91698952D01*
X179132595Y-91746571D01*
X179465928Y-91746571D01*
X186608785Y-92920380D02*
X186608785Y-93729904D01*
X186561166Y-93825142D01*
X186513547Y-93872761D01*
X186418309Y-93920380D01*
X186227833Y-93920380D01*
X186132595Y-93872761D01*
X186084976Y-93825142D01*
X186037357Y-93729904D01*
X186037357Y-92920380D01*
X185608785Y-93872761D02*
X185465928Y-93920380D01*
X185227833Y-93920380D01*
X185132595Y-93872761D01*
X185084976Y-93825142D01*
X185037357Y-93729904D01*
X185037357Y-93634666D01*
X185084976Y-93539428D01*
X185132595Y-93491809D01*
X185227833Y-93444190D01*
X185418309Y-93396571D01*
X185513547Y-93348952D01*
X185561166Y-93301333D01*
X185608785Y-93206095D01*
X185608785Y-93110857D01*
X185561166Y-93015619D01*
X185513547Y-92968000D01*
X185418309Y-92920380D01*
X185180214Y-92920380D01*
X185037357Y-92968000D01*
X184275452Y-93396571D02*
X184132595Y-93444190D01*
X184084976Y-93491809D01*
X184037357Y-93587047D01*
X184037357Y-93729904D01*
X184084976Y-93825142D01*
X184132595Y-93872761D01*
X184227833Y-93920380D01*
X184608785Y-93920380D01*
X184608785Y-92920380D01*
X184275452Y-92920380D01*
X184180214Y-92968000D01*
X184132595Y-93015619D01*
X184084976Y-93110857D01*
X184084976Y-93206095D01*
X184132595Y-93301333D01*
X184180214Y-93348952D01*
X184275452Y-93396571D01*
X184608785Y-93396571D01*
X182846880Y-93253714D02*
X183608785Y-93539428D01*
X182846880Y-93825142D01*
X182370690Y-93396571D02*
X181608785Y-93396571D01*
X181608785Y-93682285D02*
X182370690Y-93682285D01*
X181132595Y-93253714D02*
X180370690Y-93539428D01*
X181132595Y-93825142D01*
X179894500Y-93920380D02*
X179894500Y-92920380D01*
X179323071Y-93920380D01*
X179323071Y-92920380D01*
X178275452Y-93825142D02*
X178323071Y-93872761D01*
X178465928Y-93920380D01*
X178561166Y-93920380D01*
X178704023Y-93872761D01*
X178799261Y-93777523D01*
X178846880Y-93682285D01*
X178894500Y-93491809D01*
X178894500Y-93348952D01*
X178846880Y-93158476D01*
X178799261Y-93063238D01*
X178704023Y-92968000D01*
X178561166Y-92920380D01*
X178465928Y-92920380D01*
X178323071Y-92968000D01*
X178275452Y-93015619D01*
X193808857Y-125674380D02*
X193808857Y-124674380D01*
X193380285Y-125674380D02*
X193380285Y-125150571D01*
X193427904Y-125055333D01*
X193523142Y-125007714D01*
X193666000Y-125007714D01*
X193761238Y-125055333D01*
X193808857Y-125102952D01*
X193046952Y-125007714D02*
X192666000Y-125007714D01*
X192904095Y-124674380D02*
X192904095Y-125531523D01*
X192856476Y-125626761D01*
X192761238Y-125674380D01*
X192666000Y-125674380D01*
X192475523Y-125007714D02*
X192094571Y-125007714D01*
X192332666Y-124674380D02*
X192332666Y-125531523D01*
X192285047Y-125626761D01*
X192189809Y-125674380D01*
X192094571Y-125674380D01*
X191761238Y-125007714D02*
X191761238Y-126007714D01*
X191761238Y-125055333D02*
X191666000Y-125007714D01*
X191475523Y-125007714D01*
X191380285Y-125055333D01*
X191332666Y-125102952D01*
X191285047Y-125198190D01*
X191285047Y-125483904D01*
X191332666Y-125579142D01*
X191380285Y-125626761D01*
X191475523Y-125674380D01*
X191666000Y-125674380D01*
X191761238Y-125626761D01*
X190904095Y-125626761D02*
X190808857Y-125674380D01*
X190618380Y-125674380D01*
X190523142Y-125626761D01*
X190475523Y-125531523D01*
X190475523Y-125483904D01*
X190523142Y-125388666D01*
X190618380Y-125341047D01*
X190761238Y-125341047D01*
X190856476Y-125293428D01*
X190904095Y-125198190D01*
X190904095Y-125150571D01*
X190856476Y-125055333D01*
X190761238Y-125007714D01*
X190618380Y-125007714D01*
X190523142Y-125055333D01*
X190046952Y-125579142D02*
X189999333Y-125626761D01*
X190046952Y-125674380D01*
X190094571Y-125626761D01*
X190046952Y-125579142D01*
X190046952Y-125674380D01*
X190046952Y-125055333D02*
X189999333Y-125102952D01*
X190046952Y-125150571D01*
X190094571Y-125102952D01*
X190046952Y-125055333D01*
X190046952Y-125150571D01*
X188856476Y-124626761D02*
X189713619Y-125912476D01*
X187808857Y-124626761D02*
X188666000Y-125912476D01*
X187475523Y-125674380D02*
X187475523Y-124674380D01*
X187475523Y-125055333D02*
X187380285Y-125007714D01*
X187189809Y-125007714D01*
X187094571Y-125055333D01*
X187046952Y-125102952D01*
X186999333Y-125198190D01*
X186999333Y-125483904D01*
X187046952Y-125579142D01*
X187094571Y-125626761D01*
X187189809Y-125674380D01*
X187380285Y-125674380D01*
X187475523Y-125626761D01*
X186570761Y-125674380D02*
X186570761Y-124674380D01*
X186570761Y-125055333D02*
X186475523Y-125007714D01*
X186285047Y-125007714D01*
X186189809Y-125055333D01*
X186142190Y-125102952D01*
X186094571Y-125198190D01*
X186094571Y-125483904D01*
X186142190Y-125579142D01*
X186189809Y-125626761D01*
X186285047Y-125674380D01*
X186475523Y-125674380D01*
X186570761Y-125626761D01*
X185713619Y-125626761D02*
X185618380Y-125674380D01*
X185427904Y-125674380D01*
X185332666Y-125626761D01*
X185285047Y-125531523D01*
X185285047Y-125483904D01*
X185332666Y-125388666D01*
X185427904Y-125341047D01*
X185570761Y-125341047D01*
X185666000Y-125293428D01*
X185713619Y-125198190D01*
X185713619Y-125150571D01*
X185666000Y-125055333D01*
X185570761Y-125007714D01*
X185427904Y-125007714D01*
X185332666Y-125055333D01*
X184856476Y-125579142D02*
X184808857Y-125626761D01*
X184856476Y-125674380D01*
X184904095Y-125626761D01*
X184856476Y-125579142D01*
X184856476Y-125674380D01*
X184380285Y-125674380D02*
X184380285Y-125007714D01*
X184380285Y-124674380D02*
X184427904Y-124722000D01*
X184380285Y-124769619D01*
X184332666Y-124722000D01*
X184380285Y-124674380D01*
X184380285Y-124769619D01*
X183761238Y-125674380D02*
X183856476Y-125626761D01*
X183904095Y-125579142D01*
X183951714Y-125483904D01*
X183951714Y-125198190D01*
X183904095Y-125102952D01*
X183856476Y-125055333D01*
X183761238Y-125007714D01*
X183618380Y-125007714D01*
X183523142Y-125055333D01*
X183475523Y-125102952D01*
X183427904Y-125198190D01*
X183427904Y-125483904D01*
X183475523Y-125579142D01*
X183523142Y-125626761D01*
X183618380Y-125674380D01*
X183761238Y-125674380D01*
X182999333Y-125674380D02*
X182999333Y-124674380D01*
X182999333Y-125055333D02*
X182904095Y-125007714D01*
X182713619Y-125007714D01*
X182618380Y-125055333D01*
X182570761Y-125102952D01*
X182523142Y-125198190D01*
X182523142Y-125483904D01*
X182570761Y-125579142D01*
X182618380Y-125626761D01*
X182713619Y-125674380D01*
X182904095Y-125674380D01*
X182999333Y-125626761D01*
X182094571Y-125674380D02*
X182094571Y-125007714D01*
X182094571Y-125198190D02*
X182046952Y-125102952D01*
X181999333Y-125055333D01*
X181904095Y-125007714D01*
X181808857Y-125007714D01*
X181332666Y-125674380D02*
X181427904Y-125626761D01*
X181475523Y-125579142D01*
X181523142Y-125483904D01*
X181523142Y-125198190D01*
X181475523Y-125102952D01*
X181427904Y-125055333D01*
X181332666Y-125007714D01*
X181189809Y-125007714D01*
X181094571Y-125055333D01*
X181046952Y-125102952D01*
X180999333Y-125198190D01*
X180999333Y-125483904D01*
X181046952Y-125579142D01*
X181094571Y-125626761D01*
X181189809Y-125674380D01*
X181332666Y-125674380D01*
X180570761Y-125674380D02*
X180570761Y-124674380D01*
X180475523Y-125293428D02*
X180189809Y-125674380D01*
X180189809Y-125007714D02*
X180570761Y-125388666D01*
X179380285Y-125626761D02*
X179475523Y-125674380D01*
X179666000Y-125674380D01*
X179761238Y-125626761D01*
X179808857Y-125531523D01*
X179808857Y-125150571D01*
X179761238Y-125055333D01*
X179666000Y-125007714D01*
X179475523Y-125007714D01*
X179380285Y-125055333D01*
X179332666Y-125150571D01*
X179332666Y-125245809D01*
X179808857Y-125341047D01*
X178904095Y-125674380D02*
X178904095Y-125007714D01*
X178904095Y-125198190D02*
X178856476Y-125102952D01*
X178808857Y-125055333D01*
X178713619Y-125007714D01*
X178618380Y-125007714D01*
X178285047Y-125579142D02*
X178237428Y-125626761D01*
X178285047Y-125674380D01*
X178332666Y-125626761D01*
X178285047Y-125579142D01*
X178285047Y-125674380D01*
X177380285Y-125626761D02*
X177475523Y-125674380D01*
X177666000Y-125674380D01*
X177761238Y-125626761D01*
X177808857Y-125579142D01*
X177856476Y-125483904D01*
X177856476Y-125198190D01*
X177808857Y-125102952D01*
X177761238Y-125055333D01*
X177666000Y-125007714D01*
X177475523Y-125007714D01*
X177380285Y-125055333D01*
X176951714Y-125007714D02*
X176951714Y-125674380D01*
X176951714Y-125102952D02*
X176904095Y-125055333D01*
X176808857Y-125007714D01*
X176666000Y-125007714D01*
X176570761Y-125055333D01*
X176523142Y-125150571D01*
X176523142Y-125674380D01*
X197626571Y-123642380D02*
X197626571Y-122642380D01*
X197388476Y-122642380D01*
X197245619Y-122690000D01*
X197150380Y-122785238D01*
X197102761Y-122880476D01*
X197055142Y-123070952D01*
X197055142Y-123213809D01*
X197102761Y-123404285D01*
X197150380Y-123499523D01*
X197245619Y-123594761D01*
X197388476Y-123642380D01*
X197626571Y-123642380D01*
X196245619Y-123594761D02*
X196340857Y-123642380D01*
X196531333Y-123642380D01*
X196626571Y-123594761D01*
X196674190Y-123499523D01*
X196674190Y-123118571D01*
X196626571Y-123023333D01*
X196531333Y-122975714D01*
X196340857Y-122975714D01*
X196245619Y-123023333D01*
X196198000Y-123118571D01*
X196198000Y-123213809D01*
X196674190Y-123309047D01*
X195817047Y-123594761D02*
X195721809Y-123642380D01*
X195531333Y-123642380D01*
X195436095Y-123594761D01*
X195388476Y-123499523D01*
X195388476Y-123451904D01*
X195436095Y-123356666D01*
X195531333Y-123309047D01*
X195674190Y-123309047D01*
X195769428Y-123261428D01*
X195817047Y-123166190D01*
X195817047Y-123118571D01*
X195769428Y-123023333D01*
X195674190Y-122975714D01*
X195531333Y-122975714D01*
X195436095Y-123023333D01*
X194959904Y-123642380D02*
X194959904Y-122975714D01*
X194959904Y-122642380D02*
X195007523Y-122690000D01*
X194959904Y-122737619D01*
X194912285Y-122690000D01*
X194959904Y-122642380D01*
X194959904Y-122737619D01*
X194055142Y-122975714D02*
X194055142Y-123785238D01*
X194102761Y-123880476D01*
X194150380Y-123928095D01*
X194245619Y-123975714D01*
X194388476Y-123975714D01*
X194483714Y-123928095D01*
X194055142Y-123594761D02*
X194150380Y-123642380D01*
X194340857Y-123642380D01*
X194436095Y-123594761D01*
X194483714Y-123547142D01*
X194531333Y-123451904D01*
X194531333Y-123166190D01*
X194483714Y-123070952D01*
X194436095Y-123023333D01*
X194340857Y-122975714D01*
X194150380Y-122975714D01*
X194055142Y-123023333D01*
X193578952Y-122975714D02*
X193578952Y-123642380D01*
X193578952Y-123070952D02*
X193531333Y-123023333D01*
X193436095Y-122975714D01*
X193293238Y-122975714D01*
X193198000Y-123023333D01*
X193150380Y-123118571D01*
X193150380Y-123642380D01*
X192293238Y-123594761D02*
X192388476Y-123642380D01*
X192578952Y-123642380D01*
X192674190Y-123594761D01*
X192721809Y-123499523D01*
X192721809Y-123118571D01*
X192674190Y-123023333D01*
X192578952Y-122975714D01*
X192388476Y-122975714D01*
X192293238Y-123023333D01*
X192245619Y-123118571D01*
X192245619Y-123213809D01*
X192721809Y-123309047D01*
X191388476Y-123642380D02*
X191388476Y-122642380D01*
X191388476Y-123594761D02*
X191483714Y-123642380D01*
X191674190Y-123642380D01*
X191769428Y-123594761D01*
X191817047Y-123547142D01*
X191864666Y-123451904D01*
X191864666Y-123166190D01*
X191817047Y-123070952D01*
X191769428Y-123023333D01*
X191674190Y-122975714D01*
X191483714Y-122975714D01*
X191388476Y-123023333D01*
X190150380Y-123642380D02*
X190150380Y-122642380D01*
X190150380Y-123023333D02*
X190055142Y-122975714D01*
X189864666Y-122975714D01*
X189769428Y-123023333D01*
X189721809Y-123070952D01*
X189674190Y-123166190D01*
X189674190Y-123451904D01*
X189721809Y-123547142D01*
X189769428Y-123594761D01*
X189864666Y-123642380D01*
X190055142Y-123642380D01*
X190150380Y-123594761D01*
X189340857Y-122975714D02*
X189102761Y-123642380D01*
X188864666Y-122975714D02*
X189102761Y-123642380D01*
X189198000Y-123880476D01*
X189245619Y-123928095D01*
X189340857Y-123975714D01*
X187769428Y-123594761D02*
X187674190Y-123642380D01*
X187483714Y-123642380D01*
X187388476Y-123594761D01*
X187340857Y-123499523D01*
X187340857Y-123451904D01*
X187388476Y-123356666D01*
X187483714Y-123309047D01*
X187626571Y-123309047D01*
X187721809Y-123261428D01*
X187769428Y-123166190D01*
X187769428Y-123118571D01*
X187721809Y-123023333D01*
X187626571Y-122975714D01*
X187483714Y-122975714D01*
X187388476Y-123023333D01*
X186912285Y-123642380D02*
X186912285Y-122975714D01*
X186912285Y-123070952D02*
X186864666Y-123023333D01*
X186769428Y-122975714D01*
X186626571Y-122975714D01*
X186531333Y-123023333D01*
X186483714Y-123118571D01*
X186483714Y-123642380D01*
X186483714Y-123118571D02*
X186436095Y-123023333D01*
X186340857Y-122975714D01*
X186198000Y-122975714D01*
X186102761Y-123023333D01*
X186055142Y-123118571D01*
X186055142Y-123642380D01*
X185150380Y-123642380D02*
X185150380Y-123118571D01*
X185198000Y-123023333D01*
X185293238Y-122975714D01*
X185483714Y-122975714D01*
X185578952Y-123023333D01*
X185150380Y-123594761D02*
X185245619Y-123642380D01*
X185483714Y-123642380D01*
X185578952Y-123594761D01*
X185626571Y-123499523D01*
X185626571Y-123404285D01*
X185578952Y-123309047D01*
X185483714Y-123261428D01*
X185245619Y-123261428D01*
X185150380Y-123213809D01*
X184674190Y-123642380D02*
X184674190Y-122975714D01*
X184674190Y-123166190D02*
X184626571Y-123070952D01*
X184578952Y-123023333D01*
X184483714Y-122975714D01*
X184388476Y-122975714D01*
X184198000Y-122975714D02*
X183817047Y-122975714D01*
X184055142Y-122642380D02*
X184055142Y-123499523D01*
X184007523Y-123594761D01*
X183912285Y-123642380D01*
X183817047Y-123642380D01*
X183483714Y-123642380D02*
X183483714Y-122642380D01*
X183055142Y-123642380D02*
X183055142Y-123118571D01*
X183102761Y-123023333D01*
X183198000Y-122975714D01*
X183340857Y-122975714D01*
X183436095Y-123023333D01*
X183483714Y-123070952D01*
X182436095Y-123642380D02*
X182531333Y-123594761D01*
X182578952Y-123547142D01*
X182626571Y-123451904D01*
X182626571Y-123166190D01*
X182578952Y-123070952D01*
X182531333Y-123023333D01*
X182436095Y-122975714D01*
X182293238Y-122975714D01*
X182198000Y-123023333D01*
X182150380Y-123070952D01*
X182102761Y-123166190D01*
X182102761Y-123451904D01*
X182150380Y-123547142D01*
X182198000Y-123594761D01*
X182293238Y-123642380D01*
X182436095Y-123642380D01*
X181674190Y-123642380D02*
X181674190Y-122975714D01*
X181674190Y-123070952D02*
X181626571Y-123023333D01*
X181531333Y-122975714D01*
X181388476Y-122975714D01*
X181293238Y-123023333D01*
X181245619Y-123118571D01*
X181245619Y-123642380D01*
X181245619Y-123118571D02*
X181198000Y-123023333D01*
X181102761Y-122975714D01*
X180959904Y-122975714D01*
X180864666Y-123023333D01*
X180817047Y-123118571D01*
X180817047Y-123642380D01*
X179959904Y-123594761D02*
X180055142Y-123642380D01*
X180245619Y-123642380D01*
X180340857Y-123594761D01*
X180388476Y-123499523D01*
X180388476Y-123118571D01*
X180340857Y-123023333D01*
X180245619Y-122975714D01*
X180055142Y-122975714D01*
X179959904Y-123023333D01*
X179912285Y-123118571D01*
X179912285Y-123213809D01*
X180388476Y-123309047D01*
X179626571Y-122975714D02*
X179245619Y-122975714D01*
X179483714Y-123642380D02*
X179483714Y-122785238D01*
X179436095Y-122690000D01*
X179340857Y-122642380D01*
X179245619Y-122642380D01*
X178483714Y-123642380D02*
X178483714Y-123118571D01*
X178531333Y-123023333D01*
X178626571Y-122975714D01*
X178817047Y-122975714D01*
X178912285Y-123023333D01*
X178483714Y-123594761D02*
X178578952Y-123642380D01*
X178817047Y-123642380D01*
X178912285Y-123594761D01*
X178959904Y-123499523D01*
X178959904Y-123404285D01*
X178912285Y-123309047D01*
X178817047Y-123261428D01*
X178578952Y-123261428D01*
X178483714Y-123213809D01*
X178007523Y-122975714D02*
X178007523Y-123642380D01*
X178007523Y-123070952D02*
X177959904Y-123023333D01*
X177864666Y-122975714D01*
X177721809Y-122975714D01*
X177626571Y-123023333D01*
X177578952Y-123118571D01*
X177578952Y-123642380D01*
X177150380Y-123594761D02*
X177055142Y-123642380D01*
X176864666Y-123642380D01*
X176769428Y-123594761D01*
X176721809Y-123499523D01*
X176721809Y-123451904D01*
X176769428Y-123356666D01*
X176864666Y-123309047D01*
X177007523Y-123309047D01*
X177102761Y-123261428D01*
X177150380Y-123166190D01*
X177150380Y-123118571D01*
X177102761Y-123023333D01*
X177007523Y-122975714D01*
X176864666Y-122975714D01*
X176769428Y-123023333D01*
X199738476Y-120943714D02*
X199214666Y-120943714D01*
X199738476Y-121610380D01*
X199214666Y-121610380D01*
X198881333Y-120705619D02*
X198833714Y-120658000D01*
X198738476Y-120610380D01*
X198500380Y-120610380D01*
X198405142Y-120658000D01*
X198357523Y-120705619D01*
X198309904Y-120800857D01*
X198309904Y-120896095D01*
X198357523Y-121038952D01*
X198928952Y-121610380D01*
X198309904Y-121610380D01*
X197881333Y-121610380D02*
X197881333Y-120943714D01*
X197881333Y-121038952D02*
X197833714Y-120991333D01*
X197738476Y-120943714D01*
X197595619Y-120943714D01*
X197500380Y-120991333D01*
X197452761Y-121086571D01*
X197452761Y-121610380D01*
X197452761Y-121086571D02*
X197405142Y-120991333D01*
X197309904Y-120943714D01*
X197167047Y-120943714D01*
X197071809Y-120991333D01*
X197024190Y-121086571D01*
X197024190Y-121610380D01*
X195786095Y-120943714D02*
X195786095Y-121943714D01*
X195786095Y-120991333D02*
X195690857Y-120943714D01*
X195500380Y-120943714D01*
X195405142Y-120991333D01*
X195357523Y-121038952D01*
X195309904Y-121134190D01*
X195309904Y-121419904D01*
X195357523Y-121515142D01*
X195405142Y-121562761D01*
X195500380Y-121610380D01*
X195690857Y-121610380D01*
X195786095Y-121562761D01*
X194452761Y-121610380D02*
X194452761Y-121086571D01*
X194500380Y-120991333D01*
X194595619Y-120943714D01*
X194786095Y-120943714D01*
X194881333Y-120991333D01*
X194452761Y-121562761D02*
X194548000Y-121610380D01*
X194786095Y-121610380D01*
X194881333Y-121562761D01*
X194928952Y-121467523D01*
X194928952Y-121372285D01*
X194881333Y-121277047D01*
X194786095Y-121229428D01*
X194548000Y-121229428D01*
X194452761Y-121181809D01*
X193976571Y-121610380D02*
X193976571Y-120943714D01*
X193976571Y-121134190D02*
X193928952Y-121038952D01*
X193881333Y-120991333D01*
X193786095Y-120943714D01*
X193690857Y-120943714D01*
X193500380Y-120943714D02*
X193119428Y-120943714D01*
X193357523Y-120610380D02*
X193357523Y-121467523D01*
X193309904Y-121562761D01*
X193214666Y-121610380D01*
X193119428Y-121610380D01*
X192786095Y-120943714D02*
X192786095Y-121610380D01*
X192786095Y-121038952D02*
X192738476Y-120991333D01*
X192643238Y-120943714D01*
X192500380Y-120943714D01*
X192405142Y-120991333D01*
X192357523Y-121086571D01*
X192357523Y-121610380D01*
X191500380Y-121562761D02*
X191595619Y-121610380D01*
X191786095Y-121610380D01*
X191881333Y-121562761D01*
X191928952Y-121467523D01*
X191928952Y-121086571D01*
X191881333Y-120991333D01*
X191786095Y-120943714D01*
X191595619Y-120943714D01*
X191500380Y-120991333D01*
X191452761Y-121086571D01*
X191452761Y-121181809D01*
X191928952Y-121277047D01*
X191024190Y-121610380D02*
X191024190Y-120943714D01*
X191024190Y-121134190D02*
X190976571Y-121038952D01*
X190928952Y-120991333D01*
X190833714Y-120943714D01*
X190738476Y-120943714D01*
X189738476Y-120943714D02*
X189500380Y-121610380D01*
X189262285Y-120943714D01*
X188690857Y-120610380D02*
X188595619Y-120610380D01*
X188500380Y-120658000D01*
X188452761Y-120705619D01*
X188405142Y-120800857D01*
X188357523Y-120991333D01*
X188357523Y-121229428D01*
X188405142Y-121419904D01*
X188452761Y-121515142D01*
X188500380Y-121562761D01*
X188595619Y-121610380D01*
X188690857Y-121610380D01*
X188786095Y-121562761D01*
X188833714Y-121515142D01*
X188881333Y-121419904D01*
X188928952Y-121229428D01*
X188928952Y-120991333D01*
X188881333Y-120800857D01*
X188833714Y-120705619D01*
X188786095Y-120658000D01*
X188690857Y-120610380D01*
X187405142Y-121610380D02*
X187976571Y-121610380D01*
X187690857Y-121610380D02*
X187690857Y-120610380D01*
X187786095Y-120753238D01*
X187881333Y-120848476D01*
X187976571Y-120896095D01*
M02*
