G04 #@! TF.GenerationSoftware,KiCad,Pcbnew,(5.1.4-0-10_14)*
G04 #@! TF.CreationDate,2019-10-28T14:00:27+08:00*
G04 #@! TF.ProjectId,z2m_partner,7a326d5f-7061-4727-946e-65722e6b6963,rev?*
G04 #@! TF.SameCoordinates,Original*
G04 #@! TF.FileFunction,Soldermask,Bot*
G04 #@! TF.FilePolarity,Negative*
%FSLAX46Y46*%
G04 Gerber Fmt 4.6, Leading zero omitted, Abs format (unit mm)*
G04 Created by KiCad (PCBNEW (5.1.4-0-10_14)) date 2019-10-28 14:00:27*
%MOMM*%
%LPD*%
G04 APERTURE LIST*
%ADD10C,0.100000*%
G04 APERTURE END LIST*
D10*
G36*
X173765590Y-119909911D02*
G01*
X174138592Y-119984105D01*
X174548248Y-120153790D01*
X174916928Y-120400135D01*
X175230465Y-120713672D01*
X175476810Y-121082352D01*
X175646495Y-121492008D01*
X175732999Y-121926896D01*
X175732999Y-122370304D01*
X175646495Y-122805192D01*
X175476810Y-123214848D01*
X175230465Y-123583528D01*
X174916928Y-123897065D01*
X174548248Y-124143410D01*
X174138592Y-124313095D01*
X173765590Y-124387289D01*
X173703705Y-124399599D01*
X173260295Y-124399599D01*
X173198410Y-124387289D01*
X172825408Y-124313095D01*
X172415752Y-124143410D01*
X172047072Y-123897065D01*
X171733535Y-123583528D01*
X171487190Y-123214848D01*
X171317505Y-122805192D01*
X171231001Y-122370304D01*
X171231001Y-121926896D01*
X171317505Y-121492008D01*
X171487190Y-121082352D01*
X171733535Y-120713672D01*
X172047072Y-120400135D01*
X172415752Y-120153790D01*
X172825408Y-119984105D01*
X173198410Y-119909911D01*
X173260295Y-119897601D01*
X173703705Y-119897601D01*
X173765590Y-119909911D01*
X173765590Y-119909911D01*
G37*
G36*
X161758015Y-106646973D02*
G01*
X161861879Y-106678479D01*
X161889055Y-106693005D01*
X161957600Y-106729643D01*
X162041501Y-106798499D01*
X162110357Y-106882400D01*
X162146995Y-106950945D01*
X162161521Y-106978121D01*
X162193027Y-107081985D01*
X162203666Y-107190000D01*
X162193027Y-107298015D01*
X162161521Y-107401879D01*
X162161519Y-107401882D01*
X162110357Y-107497600D01*
X162041501Y-107581501D01*
X161957600Y-107650357D01*
X161889055Y-107686995D01*
X161861879Y-107701521D01*
X161758015Y-107733027D01*
X161677067Y-107741000D01*
X161022933Y-107741000D01*
X160941985Y-107733027D01*
X160838121Y-107701521D01*
X160810945Y-107686995D01*
X160742400Y-107650357D01*
X160658499Y-107581501D01*
X160589643Y-107497600D01*
X160538481Y-107401882D01*
X160538479Y-107401879D01*
X160506973Y-107298015D01*
X160496334Y-107190000D01*
X160506973Y-107081985D01*
X160538479Y-106978121D01*
X160553005Y-106950945D01*
X160589643Y-106882400D01*
X160658499Y-106798499D01*
X160742400Y-106729643D01*
X160810945Y-106693005D01*
X160838121Y-106678479D01*
X160941985Y-106646973D01*
X161022933Y-106639000D01*
X161677067Y-106639000D01*
X161758015Y-106646973D01*
X161758015Y-106646973D01*
G37*
G36*
X166188015Y-106646973D02*
G01*
X166291879Y-106678479D01*
X166319055Y-106693005D01*
X166387600Y-106729643D01*
X166471501Y-106798499D01*
X166540357Y-106882400D01*
X166576995Y-106950945D01*
X166591521Y-106978121D01*
X166623027Y-107081985D01*
X166633666Y-107190000D01*
X166623027Y-107298015D01*
X166591521Y-107401879D01*
X166591519Y-107401882D01*
X166540357Y-107497600D01*
X166471501Y-107581501D01*
X166387600Y-107650357D01*
X166319055Y-107686995D01*
X166291879Y-107701521D01*
X166188015Y-107733027D01*
X166107067Y-107741000D01*
X164952933Y-107741000D01*
X164871985Y-107733027D01*
X164768121Y-107701521D01*
X164740945Y-107686995D01*
X164672400Y-107650357D01*
X164588499Y-107581501D01*
X164519643Y-107497600D01*
X164468481Y-107401882D01*
X164468479Y-107401879D01*
X164436973Y-107298015D01*
X164426334Y-107190000D01*
X164436973Y-107081985D01*
X164468479Y-106978121D01*
X164483005Y-106950945D01*
X164519643Y-106882400D01*
X164588499Y-106798499D01*
X164672400Y-106729643D01*
X164740945Y-106693005D01*
X164768121Y-106678479D01*
X164871985Y-106646973D01*
X164952933Y-106639000D01*
X166107067Y-106639000D01*
X166188015Y-106646973D01*
X166188015Y-106646973D01*
G37*
G36*
X165109672Y-105398449D02*
G01*
X165109674Y-105398450D01*
X165109675Y-105398450D01*
X165178103Y-105426793D01*
X165239686Y-105467942D01*
X165292058Y-105520314D01*
X165333207Y-105581897D01*
X165361550Y-105650325D01*
X165376000Y-105722967D01*
X165376000Y-105797033D01*
X165361550Y-105869675D01*
X165333207Y-105938103D01*
X165292058Y-105999686D01*
X165239686Y-106052058D01*
X165178103Y-106093207D01*
X165109675Y-106121550D01*
X165109674Y-106121550D01*
X165109672Y-106121551D01*
X165037034Y-106136000D01*
X164962966Y-106136000D01*
X164890328Y-106121551D01*
X164890326Y-106121550D01*
X164890325Y-106121550D01*
X164821897Y-106093207D01*
X164760314Y-106052058D01*
X164707942Y-105999686D01*
X164666793Y-105938103D01*
X164638450Y-105869675D01*
X164624000Y-105797033D01*
X164624000Y-105722967D01*
X164638450Y-105650325D01*
X164666793Y-105581897D01*
X164707942Y-105520314D01*
X164760314Y-105467942D01*
X164821897Y-105426793D01*
X164890325Y-105398450D01*
X164890326Y-105398450D01*
X164890328Y-105398449D01*
X164962966Y-105384000D01*
X165037034Y-105384000D01*
X165109672Y-105398449D01*
X165109672Y-105398449D01*
G37*
G36*
X165109672Y-99618449D02*
G01*
X165109674Y-99618450D01*
X165109675Y-99618450D01*
X165178103Y-99646793D01*
X165239686Y-99687942D01*
X165292058Y-99740314D01*
X165333207Y-99801897D01*
X165361550Y-99870325D01*
X165376000Y-99942967D01*
X165376000Y-100017033D01*
X165361550Y-100089675D01*
X165333207Y-100158103D01*
X165292058Y-100219686D01*
X165239686Y-100272058D01*
X165178103Y-100313207D01*
X165109675Y-100341550D01*
X165109674Y-100341550D01*
X165109672Y-100341551D01*
X165037034Y-100356000D01*
X164962966Y-100356000D01*
X164890328Y-100341551D01*
X164890326Y-100341550D01*
X164890325Y-100341550D01*
X164821897Y-100313207D01*
X164760314Y-100272058D01*
X164707942Y-100219686D01*
X164666793Y-100158103D01*
X164638450Y-100089675D01*
X164624000Y-100017033D01*
X164624000Y-99942967D01*
X164638450Y-99870325D01*
X164666793Y-99801897D01*
X164707942Y-99740314D01*
X164760314Y-99687942D01*
X164821897Y-99646793D01*
X164890325Y-99618450D01*
X164890326Y-99618450D01*
X164890328Y-99618449D01*
X164962966Y-99604000D01*
X165037034Y-99604000D01*
X165109672Y-99618449D01*
X165109672Y-99618449D01*
G37*
G36*
X166188015Y-98006973D02*
G01*
X166291879Y-98038479D01*
X166319055Y-98053005D01*
X166387600Y-98089643D01*
X166471501Y-98158499D01*
X166540357Y-98242400D01*
X166576995Y-98310945D01*
X166591521Y-98338121D01*
X166623027Y-98441985D01*
X166633666Y-98550000D01*
X166623027Y-98658015D01*
X166591521Y-98761879D01*
X166591519Y-98761882D01*
X166540357Y-98857600D01*
X166471501Y-98941501D01*
X166387600Y-99010357D01*
X166319055Y-99046995D01*
X166291879Y-99061521D01*
X166188015Y-99093027D01*
X166107067Y-99101000D01*
X164952933Y-99101000D01*
X164871985Y-99093027D01*
X164768121Y-99061521D01*
X164740945Y-99046995D01*
X164672400Y-99010357D01*
X164588499Y-98941501D01*
X164519643Y-98857600D01*
X164468481Y-98761882D01*
X164468479Y-98761879D01*
X164436973Y-98658015D01*
X164426334Y-98550000D01*
X164436973Y-98441985D01*
X164468479Y-98338121D01*
X164483005Y-98310945D01*
X164519643Y-98242400D01*
X164588499Y-98158499D01*
X164672400Y-98089643D01*
X164740945Y-98053005D01*
X164768121Y-98038479D01*
X164871985Y-98006973D01*
X164952933Y-97999000D01*
X166107067Y-97999000D01*
X166188015Y-98006973D01*
X166188015Y-98006973D01*
G37*
G36*
X161758015Y-98006973D02*
G01*
X161861879Y-98038479D01*
X161889055Y-98053005D01*
X161957600Y-98089643D01*
X162041501Y-98158499D01*
X162110357Y-98242400D01*
X162146995Y-98310945D01*
X162161521Y-98338121D01*
X162193027Y-98441985D01*
X162203666Y-98550000D01*
X162193027Y-98658015D01*
X162161521Y-98761879D01*
X162161519Y-98761882D01*
X162110357Y-98857600D01*
X162041501Y-98941501D01*
X161957600Y-99010357D01*
X161889055Y-99046995D01*
X161861879Y-99061521D01*
X161758015Y-99093027D01*
X161677067Y-99101000D01*
X161022933Y-99101000D01*
X160941985Y-99093027D01*
X160838121Y-99061521D01*
X160810945Y-99046995D01*
X160742400Y-99010357D01*
X160658499Y-98941501D01*
X160589643Y-98857600D01*
X160538481Y-98761882D01*
X160538479Y-98761879D01*
X160506973Y-98658015D01*
X160496334Y-98550000D01*
X160506973Y-98441985D01*
X160538479Y-98338121D01*
X160553005Y-98310945D01*
X160589643Y-98242400D01*
X160658499Y-98158499D01*
X160742400Y-98089643D01*
X160810945Y-98053005D01*
X160838121Y-98038479D01*
X160941985Y-98006973D01*
X161022933Y-97999000D01*
X161677067Y-97999000D01*
X161758015Y-98006973D01*
X161758015Y-98006973D01*
G37*
G36*
X197248331Y-90292411D02*
G01*
X197576092Y-90428174D01*
X197871070Y-90625272D01*
X198121928Y-90876130D01*
X198319026Y-91171108D01*
X198454789Y-91498869D01*
X198524000Y-91846816D01*
X198524000Y-92201584D01*
X198454789Y-92549531D01*
X198319026Y-92877292D01*
X198121928Y-93172270D01*
X197871070Y-93423128D01*
X197576092Y-93620226D01*
X197248331Y-93755989D01*
X196900384Y-93825200D01*
X196545616Y-93825200D01*
X196197669Y-93755989D01*
X195869908Y-93620226D01*
X195574930Y-93423128D01*
X195324072Y-93172270D01*
X195126974Y-92877292D01*
X194991211Y-92549531D01*
X194922000Y-92201584D01*
X194922000Y-91846816D01*
X194991211Y-91498869D01*
X195126974Y-91171108D01*
X195324072Y-90876130D01*
X195574930Y-90625272D01*
X195869908Y-90428174D01*
X196197669Y-90292411D01*
X196545616Y-90223200D01*
X196900384Y-90223200D01*
X197248331Y-90292411D01*
X197248331Y-90292411D01*
G37*
G36*
X166374206Y-90932000D02*
G01*
X165100000Y-92206206D01*
X163825794Y-90932000D01*
X165100000Y-89657794D01*
X166374206Y-90932000D01*
X166374206Y-90932000D01*
G37*
G36*
X167000711Y-88240898D02*
G01*
X167072678Y-88247986D01*
X167242517Y-88299506D01*
X167399042Y-88383171D01*
X167434780Y-88412501D01*
X167536237Y-88495763D01*
X167619499Y-88597220D01*
X167648829Y-88632958D01*
X167732494Y-88789483D01*
X167784014Y-88959322D01*
X167801410Y-89135949D01*
X167784014Y-89312576D01*
X167732494Y-89482415D01*
X167648829Y-89638940D01*
X167633356Y-89657794D01*
X167536237Y-89776135D01*
X167434780Y-89859397D01*
X167399042Y-89888727D01*
X167242517Y-89972392D01*
X167072678Y-90023912D01*
X167006493Y-90030431D01*
X166940311Y-90036949D01*
X166851791Y-90036949D01*
X166785609Y-90030431D01*
X166719424Y-90023912D01*
X166549585Y-89972392D01*
X166393060Y-89888727D01*
X166357322Y-89859397D01*
X166255865Y-89776135D01*
X166158746Y-89657794D01*
X166143273Y-89638940D01*
X166059608Y-89482415D01*
X166008088Y-89312576D01*
X165990692Y-89135949D01*
X166008088Y-88959322D01*
X166059608Y-88789483D01*
X166143273Y-88632958D01*
X166172603Y-88597220D01*
X166255865Y-88495763D01*
X166357322Y-88412501D01*
X166393060Y-88383171D01*
X166549585Y-88299506D01*
X166719424Y-88247986D01*
X166791391Y-88240898D01*
X166851791Y-88234949D01*
X166940311Y-88234949D01*
X167000711Y-88240898D01*
X167000711Y-88240898D01*
G37*
G36*
X168796752Y-86444846D02*
G01*
X168868729Y-86451935D01*
X169038568Y-86503455D01*
X169195093Y-86587120D01*
X169230831Y-86616450D01*
X169332288Y-86699712D01*
X169415550Y-86801169D01*
X169444880Y-86836907D01*
X169528545Y-86993432D01*
X169580065Y-87163271D01*
X169597461Y-87339898D01*
X169580065Y-87516525D01*
X169528545Y-87686364D01*
X169444880Y-87842889D01*
X169415550Y-87878627D01*
X169332288Y-87980084D01*
X169230831Y-88063346D01*
X169195093Y-88092676D01*
X169038568Y-88176341D01*
X168868729Y-88227861D01*
X168802545Y-88234379D01*
X168736362Y-88240898D01*
X168647842Y-88240898D01*
X168581659Y-88234379D01*
X168515475Y-88227861D01*
X168345636Y-88176341D01*
X168189111Y-88092676D01*
X168153373Y-88063346D01*
X168051916Y-87980084D01*
X167968654Y-87878627D01*
X167939324Y-87842889D01*
X167855659Y-87686364D01*
X167804139Y-87516525D01*
X167786743Y-87339898D01*
X167804139Y-87163271D01*
X167855659Y-86993432D01*
X167939324Y-86836907D01*
X167968654Y-86801169D01*
X168051916Y-86699712D01*
X168153373Y-86616450D01*
X168189111Y-86587120D01*
X168345636Y-86503455D01*
X168515475Y-86451935D01*
X168587452Y-86444846D01*
X168647842Y-86438898D01*
X168736362Y-86438898D01*
X168796752Y-86444846D01*
X168796752Y-86444846D01*
G37*
G36*
X170592814Y-84648795D02*
G01*
X170664781Y-84655883D01*
X170834620Y-84707403D01*
X170991145Y-84791068D01*
X171026883Y-84820398D01*
X171128340Y-84903660D01*
X171211602Y-85005117D01*
X171240932Y-85040855D01*
X171324597Y-85197380D01*
X171376117Y-85367219D01*
X171393513Y-85543846D01*
X171376117Y-85720473D01*
X171324597Y-85890312D01*
X171240932Y-86046837D01*
X171211602Y-86082575D01*
X171128340Y-86184032D01*
X171026883Y-86267294D01*
X170991145Y-86296624D01*
X170834620Y-86380289D01*
X170664781Y-86431809D01*
X170598597Y-86438327D01*
X170532414Y-86444846D01*
X170443894Y-86444846D01*
X170377711Y-86438327D01*
X170311527Y-86431809D01*
X170141688Y-86380289D01*
X169985163Y-86296624D01*
X169949425Y-86267294D01*
X169847968Y-86184032D01*
X169764706Y-86082575D01*
X169735376Y-86046837D01*
X169651711Y-85890312D01*
X169600191Y-85720473D01*
X169582795Y-85543846D01*
X169600191Y-85367219D01*
X169651711Y-85197380D01*
X169735376Y-85040855D01*
X169764706Y-85005117D01*
X169847968Y-84903660D01*
X169949425Y-84820398D01*
X169985163Y-84791068D01*
X170141688Y-84707403D01*
X170311527Y-84655883D01*
X170383494Y-84648795D01*
X170443894Y-84642846D01*
X170532414Y-84642846D01*
X170592814Y-84648795D01*
X170592814Y-84648795D01*
G37*
G36*
X172394648Y-82853314D02*
G01*
X172460832Y-82859832D01*
X172630671Y-82911352D01*
X172787196Y-82995017D01*
X172822934Y-83024347D01*
X172924391Y-83107609D01*
X173007653Y-83209066D01*
X173036983Y-83244804D01*
X173120648Y-83401329D01*
X173172168Y-83571168D01*
X173189564Y-83747795D01*
X173172168Y-83924422D01*
X173120648Y-84094261D01*
X173036983Y-84250786D01*
X173007653Y-84286524D01*
X172924391Y-84387981D01*
X172822934Y-84471243D01*
X172787196Y-84500573D01*
X172630671Y-84584238D01*
X172460832Y-84635758D01*
X172394647Y-84642277D01*
X172328465Y-84648795D01*
X172239945Y-84648795D01*
X172173763Y-84642277D01*
X172107578Y-84635758D01*
X171937739Y-84584238D01*
X171781214Y-84500573D01*
X171745476Y-84471243D01*
X171644019Y-84387981D01*
X171560757Y-84286524D01*
X171531427Y-84250786D01*
X171447762Y-84094261D01*
X171396242Y-83924422D01*
X171378846Y-83747795D01*
X171396242Y-83571168D01*
X171447762Y-83401329D01*
X171531427Y-83244804D01*
X171560757Y-83209066D01*
X171644019Y-83107609D01*
X171745476Y-83024347D01*
X171781214Y-82995017D01*
X171937739Y-82911352D01*
X172107578Y-82859832D01*
X172173762Y-82853314D01*
X172239945Y-82846795D01*
X172328465Y-82846795D01*
X172394648Y-82853314D01*
X172394648Y-82853314D01*
G37*
M02*
