M48
; DRILL file {KiCad (5.1.4-0-10_14)} date 2019 November 19, Tuesday 00:54:02
; FORMAT={-:-/ absolute / metric / decimal}
; #@! TF.CreationDate,2019-11-19T00:54:02+08:00
; #@! TF.GenerationSoftware,Kicad,Pcbnew,(5.1.4-0-10_14)
; #@! TF.FileFunction,Plated,1,2,PTH
FMAT,2
METRIC
T1C0.254
T2C0.400
T3C0.600
T4C1.000
%
G90
G05
T1
X160.59Y-101.98
X160.77Y-102.79
X161.42Y-102.01
X161.56Y-102.77
X162.86Y-110.42
X163.9Y-95.32
X164.08Y-96.13
X164.73Y-95.35
X164.87Y-96.11
X167.19Y-90.87
X168.26Y-116.74
X168.68Y-95.17
X169.12Y-117.67
X169.29Y-99.89
X169.46Y-106.8
X169.48Y-99.06
X170.69Y-108.0
X172.62Y-118.85
X172.74Y-106.86
X172.98Y-113.82
X173.43Y-85.0
X173.62Y-94.28
X173.79Y-114.8
X174.78Y-83.56
X174.95Y-111.56
X174.96Y-84.37
X174.97Y-85.76
X174.99Y-96.8
X175.463Y-91.093
X175.61Y-83.59
X175.75Y-84.35
X176.113Y-91.193
X176.14Y-80.41
X176.32Y-81.22
X176.97Y-80.44
X177.11Y-81.2
X177.32Y-91.37
X177.43Y-88.13
X177.61Y-88.94
X177.73Y-97.42
X177.75Y-104.94
X177.77Y-118.2
X178.03Y-105.82
X178.06Y-115.34
X178.26Y-88.16
X178.33Y-84.88
X178.38Y-112.23
X178.4Y-88.92
X178.65Y-109.76
X178.98Y-84.1
X179.261Y-112.476
X179.8Y-111.599
X180.25Y-95.67
X180.32Y-97.88
X180.38Y-87.89
X180.43Y-96.48
X180.5Y-98.69
X180.56Y-88.7
X180.7Y-118.5
X180.72Y-86.2
X180.88Y-119.31
X180.9Y-87.01
X180.92Y-113.24
X181.08Y-95.7
X181.15Y-97.91
X181.21Y-87.92
X181.22Y-96.46
X181.29Y-98.67
X181.35Y-88.68
X181.53Y-118.53
X181.54Y-114.08
X181.55Y-86.23
X181.67Y-119.29
X181.69Y-86.99
X182.44Y-116.28
X182.53Y-108.21
X182.54Y-109.06
X182.54Y-118.52
X182.72Y-119.33
X182.83Y-87.29
X182.86Y-95.74
X182.86Y-97.84
X183.01Y-85.49
X183.01Y-88.1
X183.04Y-96.55
X183.04Y-98.65
X183.19Y-86.3
X183.28Y-108.2
X183.33Y-108.99
X183.37Y-118.55
X183.51Y-119.31
X183.66Y-87.32
X183.69Y-95.77
X183.69Y-97.87
X183.8Y-88.08
X183.83Y-96.53
X183.83Y-98.63
X183.84Y-85.52
X183.98Y-86.28
X184.08Y-108.19
X184.19Y-109.01
X184.37Y-116.27
X184.55Y-118.48
X184.73Y-119.29
X184.88Y-108.2
X185.06Y-109.01
X185.18Y-81.49
X185.36Y-99.43
X185.36Y-100.8
X185.37Y-87.0
X185.38Y-118.51
X185.52Y-119.27
X185.55Y-87.81
X185.58Y-94.93
X185.71Y-108.23
X185.85Y-108.99
X185.97Y-81.47
X186.2Y-87.03
X186.34Y-87.79
X186.47Y-118.44
X186.6Y-116.23
X186.65Y-119.25
X187.01Y-109.55
X187.3Y-118.47
X187.36Y-92.05
X187.44Y-119.23
X187.96Y-95.49
X187.96Y-115.6
X188.01Y-93.71
X188.14Y-96.3
X188.19Y-94.52
X188.25Y-107.69
X188.27Y-97.26
X188.43Y-108.5
X188.45Y-98.07
X188.66Y-118.46
X188.69Y-101.06
X188.79Y-95.52
X188.84Y-93.74
X188.84Y-119.27
X188.92Y-84.24
X188.93Y-96.28
X188.98Y-94.5
X189.08Y-107.72
X189.1Y-85.05
X189.1Y-97.29
X189.22Y-108.48
X189.22Y-115.27
X189.24Y-98.05
X189.49Y-118.49
X189.63Y-119.25
X189.75Y-84.27
X189.89Y-85.03
X190.01Y-115.25
X190.65Y-86.34
X190.69Y-109.1
X190.83Y-87.15
X190.86Y-100.19
X191.01Y-84.16
X191.19Y-84.97
X191.48Y-86.37
X191.51Y-115.32
X191.62Y-87.13
X191.81Y-80.43
X191.84Y-84.19
X191.98Y-84.95
X191.99Y-81.24
X192.64Y-80.46
X192.78Y-81.22
X192.85Y-110.42
X192.98Y-88.85
X193.24Y-85.15
X194.021Y-98.197
X194.18Y-92.55
X195.27Y-98.12
X195.4Y-93.36
X195.5Y-97.5
X195.76Y-113.49
X195.93Y-85.13
X196.07Y-112.26
X196.63Y-94.6
X196.69Y-101.44
X197.07Y-83.94
X197.41Y-106.75
X197.54Y-95.26
X197.72Y-87.96
X197.85Y-104.7
X198.03Y-105.51
X198.15Y-112.71
X198.217Y-99.718
X198.68Y-104.73
X198.82Y-105.49
X199.01Y-90.14
X199.08Y-83.51
X199.28Y-115.08
X199.72Y-104.7
X199.75Y-95.84
X199.9Y-105.51
X200.55Y-104.73
X200.58Y-95.79
X200.69Y-105.49
X200.84Y-119.58
X201.41Y-110.235
X201.63Y-100.26
X202.1Y-95.71
X202.2Y-88.49
X202.35Y-86.78
X202.36Y-105.62
X203.42Y-94.5
X204.17Y-100.14
X204.7Y-92.7
X206.49Y-111.97
X206.7Y-101.36
T2
X162.56Y-106.426
X162.738Y-100.965
X162.763Y-104.8
X163.576Y-106.426
X163.858Y-104.064
X165.075Y-101.918
X168.05Y-92.53
X174.81Y-98.85
X205.105Y-114.173
T4
X179.45Y-79.9
X181.99Y-79.9
X184.53Y-79.9
X187.07Y-79.9
X189.61Y-79.9
T3
X161.65Y-98.55
X161.45Y-98.55
X161.25Y-98.55
X161.05Y-98.55
X161.65Y-107.19
X161.45Y-107.19
X161.25Y-107.19
X161.05Y-107.19
X166.08Y-98.55
X165.88Y-98.55
X165.68Y-98.55
X165.48Y-98.55
X165.28Y-98.55
X165.08Y-98.55
X164.98Y-98.55
X166.08Y-107.19
X165.88Y-107.19
X165.68Y-107.19
X165.48Y-107.19
X165.28Y-107.19
X165.08Y-107.19
X164.98Y-107.19
T0
M30
