%TF.GenerationSoftware,KiCad,Pcbnew,(5.1.4-0-10_14)*%
%TF.CreationDate,2019-11-29T01:48:41+08:00*%
%TF.ProjectId,z2m_partner,7a326d5f-7061-4727-946e-65722e6b6963,rev?*%
%TF.SameCoordinates,Original*%
%TF.FileFunction,Legend,Top*%
%TF.FilePolarity,Positive*%
%FSLAX46Y46*%
G04 Gerber Fmt 4.6, Leading zero omitted, Abs format (unit mm)*
G04 Created by KiCad (PCBNEW (5.1.4-0-10_14)) date 2019-11-29 01:48:41*
%MOMM*%
%LPD*%
G04 APERTURE LIST*
%ADD10C,0.150000*%
%ADD11C,0.152400*%
%ADD12C,0.120000*%
G04 APERTURE END LIST*
D10*
X204697153Y-90766129D02*
X205033870Y-91102846D01*
X204427779Y-90900816D02*
X205370588Y-90429411D01*
X204899183Y-91372220D01*
X203917652Y-91983363D02*
X203984995Y-92118050D01*
X203984995Y-92185393D01*
X203951324Y-92286408D01*
X203850308Y-92387424D01*
X203749293Y-92421095D01*
X203681949Y-92421095D01*
X203580934Y-92387424D01*
X203311560Y-92118050D01*
X204018667Y-91410943D01*
X204254369Y-91646645D01*
X204288041Y-91747660D01*
X204288041Y-91815004D01*
X204254369Y-91916019D01*
X204187026Y-91983363D01*
X204086011Y-92017034D01*
X204018667Y-92017034D01*
X203917652Y-91983363D01*
X203681949Y-91747660D01*
D11*
X176466500Y-125730000D02*
X194437000Y-125730000D01*
X194437000Y-105727500D02*
X176453800Y-105727500D01*
X176453800Y-125730000D02*
X176453800Y-119545000D01*
X194437000Y-106145000D02*
X194437000Y-105765600D01*
X176453800Y-106145000D02*
X176453800Y-105765600D01*
X194437000Y-125730000D02*
X194437000Y-119545000D01*
D12*
X163799520Y-112151729D02*
X164041729Y-111909520D01*
X163078271Y-111430480D02*
X163320480Y-111188271D01*
X197133733Y-116090000D02*
X197476267Y-116090000D01*
X197133733Y-115070000D02*
X197476267Y-115070000D01*
X167370000Y-93525000D02*
X167370000Y-89140000D01*
X164350000Y-93525000D02*
X167370000Y-93525000D01*
X164350000Y-89140000D02*
X164350000Y-93525000D01*
X168615000Y-88870000D02*
X173000000Y-88870000D01*
X168615000Y-85850000D02*
X168615000Y-88870000D01*
X173000000Y-85850000D02*
X168615000Y-85850000D01*
X175450000Y-88701267D02*
X175450000Y-88358733D01*
X174430000Y-88701267D02*
X174430000Y-88358733D01*
X165846252Y-94020000D02*
X163073748Y-94020000D01*
X165846252Y-97440000D02*
X163073748Y-97440000D01*
X178120000Y-81230000D02*
X178120000Y-79900000D01*
X179450000Y-81230000D02*
X178120000Y-81230000D01*
X180720000Y-81230000D02*
X180720000Y-78570000D01*
X180720000Y-78570000D02*
X190940000Y-78570000D01*
X180720000Y-81230000D02*
X190940000Y-81230000D01*
X190940000Y-81230000D02*
X190940000Y-78570000D01*
X193480000Y-84868733D02*
X193480000Y-85211267D01*
X194500000Y-84868733D02*
X194500000Y-85211267D01*
X206070000Y-105558733D02*
X206070000Y-105901267D01*
X207090000Y-105558733D02*
X207090000Y-105901267D01*
X196890000Y-118036267D02*
X196890000Y-117693733D01*
X195870000Y-118036267D02*
X195870000Y-117693733D01*
X198730000Y-118026267D02*
X198730000Y-117683733D01*
X197710000Y-118026267D02*
X197710000Y-117683733D01*
X196230000Y-111948733D02*
X196230000Y-112291267D01*
X197250000Y-111948733D02*
X197250000Y-112291267D01*
X198945824Y-85059946D02*
X199843850Y-84161920D01*
X202849054Y-88963176D02*
X203747080Y-88065150D01*
X197064920Y-86940850D02*
X197962239Y-86043532D01*
X200968150Y-90844080D02*
X197064920Y-86940850D01*
X200968150Y-90844080D02*
X201427769Y-90384460D01*
X202735917Y-91692608D02*
X201427769Y-90384460D01*
X203747080Y-88065150D02*
X199843850Y-84161920D01*
X202664553Y-113828284D02*
X199553284Y-116939553D01*
X199553284Y-116939553D02*
X199638136Y-117024406D01*
X200352314Y-117738584D02*
X201158416Y-118544686D01*
X201872594Y-119258864D02*
X201957447Y-119343716D01*
X201957447Y-119343716D02*
X205068716Y-116232447D01*
X205068716Y-116232447D02*
X204983864Y-116147594D01*
X204269686Y-115433416D02*
X203463584Y-114627314D01*
X202749406Y-113913136D02*
X202664553Y-113828284D01*
X205331553Y-107986284D02*
X202220284Y-111097553D01*
X202220284Y-111097553D02*
X202305136Y-111182406D01*
X203019314Y-111896584D02*
X203825416Y-112702686D01*
X204539594Y-113416864D02*
X204624447Y-113501716D01*
X204624447Y-113501716D02*
X207735716Y-110390447D01*
X207735716Y-110390447D02*
X207650864Y-110305594D01*
X206936686Y-109591416D02*
X206130584Y-108785314D01*
X205416406Y-108071136D02*
X205331553Y-107986284D01*
X172233960Y-119020960D02*
X174673479Y-116581442D01*
X172233960Y-119020960D02*
X170855102Y-120399819D01*
X165078040Y-111865040D02*
X166456898Y-110486181D01*
X165078040Y-111865040D02*
X163699181Y-113243898D01*
X195930000Y-99730000D02*
X195930000Y-103180000D01*
X195930000Y-99730000D02*
X195930000Y-97780000D01*
X206050000Y-99730000D02*
X206050000Y-101680000D01*
X206050000Y-99730000D02*
X206050000Y-97780000D01*
X176537000Y-81361000D02*
X176537000Y-92021000D01*
X192777000Y-81361000D02*
X176537000Y-81361000D01*
X192777000Y-92011000D02*
X192777000Y-81361000D01*
X192767000Y-104101000D02*
X192767000Y-102531000D01*
X190877000Y-104101000D02*
X192767000Y-104101000D01*
X176537000Y-104101000D02*
X178427000Y-104101000D01*
X176537000Y-104101000D02*
X176537000Y-102531000D01*
X200210000Y-93970000D02*
X200210000Y-92570000D01*
X197890000Y-92570000D02*
X197890000Y-94470000D01*
X202390000Y-93970000D02*
X202390000Y-92570000D01*
X200070000Y-92570000D02*
X200070000Y-94470000D01*
X167786000Y-98207000D02*
X167786000Y-92197000D01*
X174606000Y-95957000D02*
X174606000Y-92197000D01*
X167786000Y-92197000D02*
X169046000Y-92197000D01*
X174606000Y-92197000D02*
X173346000Y-92197000D01*
X169570480Y-100518271D02*
X169328271Y-100760480D01*
X170291729Y-101239520D02*
X170049520Y-101481729D01*
X170311729Y-104995480D02*
X170069520Y-104753271D01*
X169590480Y-105716729D02*
X169348271Y-105474520D01*
X200211267Y-112690000D02*
X199868733Y-112690000D01*
X200211267Y-113710000D02*
X199868733Y-113710000D01*
X202456267Y-107870000D02*
X202113733Y-107870000D01*
X202456267Y-108890000D02*
X202113733Y-108890000D01*
X171409899Y-110108528D02*
X171692742Y-109825685D01*
X171268478Y-109967107D02*
X171551320Y-109684264D01*
X168722893Y-107421522D02*
X169005736Y-107138680D01*
X169995685Y-111522742D02*
X171409899Y-110108528D01*
X170844214Y-108977157D02*
X171127056Y-108694315D01*
X170844214Y-108977157D02*
X171551320Y-109684264D01*
X171268478Y-109967107D02*
X169854264Y-111381320D01*
X169854264Y-111381320D02*
X169147157Y-110674214D01*
X167874365Y-109401421D02*
X167308680Y-108835736D01*
X167308680Y-108835736D02*
X168722893Y-107421522D01*
X169005736Y-107138680D02*
X169571421Y-107704365D01*
X200850000Y-104620000D02*
X200850000Y-107050000D01*
X200860000Y-104600000D02*
X201860000Y-104600000D01*
X203910000Y-104600000D02*
X203910000Y-106450000D01*
X202860000Y-104600000D02*
X203910000Y-104600000D01*
X200150000Y-109080000D02*
X201200000Y-109080000D01*
X201200000Y-109080000D02*
X201200000Y-110930000D01*
X198150000Y-109080000D02*
X199150000Y-109080000D01*
X198140000Y-109100000D02*
X198140000Y-111530000D01*
X195870000Y-84868733D02*
X195870000Y-85211267D01*
X194850000Y-84868733D02*
X194850000Y-85211267D01*
D10*
X162234687Y-110370389D02*
X162234687Y-110437732D01*
X162167343Y-110572419D01*
X162100000Y-110639763D01*
X161965312Y-110707106D01*
X161830625Y-110707106D01*
X161729610Y-110673435D01*
X161561251Y-110572419D01*
X161460236Y-110471404D01*
X161359221Y-110303045D01*
X161325549Y-110202030D01*
X161325549Y-110067343D01*
X161392893Y-109932656D01*
X161460236Y-109865312D01*
X161594923Y-109797969D01*
X161662267Y-109797969D01*
X161830625Y-109494923D02*
X162268358Y-109057190D01*
X162302030Y-109562267D01*
X162403045Y-109461251D01*
X162504061Y-109427580D01*
X162571404Y-109427580D01*
X162672419Y-109461251D01*
X162840778Y-109629610D01*
X162874450Y-109730625D01*
X162874450Y-109797969D01*
X162840778Y-109898984D01*
X162638748Y-110101015D01*
X162537732Y-110134687D01*
X162470389Y-110134687D01*
X196266666Y-120285714D02*
X196228571Y-120323809D01*
X196114285Y-120361904D01*
X196038095Y-120361904D01*
X195923809Y-120323809D01*
X195847619Y-120247619D01*
X195809523Y-120171428D01*
X195771428Y-120019047D01*
X195771428Y-119904761D01*
X195809523Y-119752380D01*
X195847619Y-119676190D01*
X195923809Y-119600000D01*
X196038095Y-119561904D01*
X196114285Y-119561904D01*
X196228571Y-119600000D01*
X196266666Y-119638095D01*
X196952380Y-119828571D02*
X196952380Y-120361904D01*
X196761904Y-119523809D02*
X196571428Y-120095238D01*
X197066666Y-120095238D01*
X163757142Y-92666666D02*
X163804761Y-92714285D01*
X163852380Y-92857142D01*
X163852380Y-92952380D01*
X163804761Y-93095238D01*
X163709523Y-93190476D01*
X163614285Y-93238095D01*
X163423809Y-93285714D01*
X163280952Y-93285714D01*
X163090476Y-93238095D01*
X162995238Y-93190476D01*
X162900000Y-93095238D01*
X162852380Y-92952380D01*
X162852380Y-92857142D01*
X162900000Y-92714285D01*
X162947619Y-92666666D01*
X162852380Y-91761904D02*
X162852380Y-92238095D01*
X163328571Y-92285714D01*
X163280952Y-92238095D01*
X163233333Y-92142857D01*
X163233333Y-91904761D01*
X163280952Y-91809523D01*
X163328571Y-91761904D01*
X163423809Y-91714285D01*
X163661904Y-91714285D01*
X163757142Y-91761904D01*
X163804761Y-91809523D01*
X163852380Y-91904761D01*
X163852380Y-92142857D01*
X163804761Y-92238095D01*
X163757142Y-92285714D01*
X171033333Y-85257142D02*
X170985714Y-85304761D01*
X170842857Y-85352380D01*
X170747619Y-85352380D01*
X170604761Y-85304761D01*
X170509523Y-85209523D01*
X170461904Y-85114285D01*
X170414285Y-84923809D01*
X170414285Y-84780952D01*
X170461904Y-84590476D01*
X170509523Y-84495238D01*
X170604761Y-84400000D01*
X170747619Y-84352380D01*
X170842857Y-84352380D01*
X170985714Y-84400000D01*
X171033333Y-84447619D01*
X171890476Y-84352380D02*
X171700000Y-84352380D01*
X171604761Y-84400000D01*
X171557142Y-84447619D01*
X171461904Y-84590476D01*
X171414285Y-84780952D01*
X171414285Y-85161904D01*
X171461904Y-85257142D01*
X171509523Y-85304761D01*
X171604761Y-85352380D01*
X171795238Y-85352380D01*
X171890476Y-85304761D01*
X171938095Y-85257142D01*
X171985714Y-85161904D01*
X171985714Y-84923809D01*
X171938095Y-84828571D01*
X171890476Y-84780952D01*
X171795238Y-84733333D01*
X171604761Y-84733333D01*
X171509523Y-84780952D01*
X171461904Y-84828571D01*
X171414285Y-84923809D01*
X175357142Y-85866666D02*
X175404761Y-85914285D01*
X175452380Y-86057142D01*
X175452380Y-86152380D01*
X175404761Y-86295238D01*
X175309523Y-86390476D01*
X175214285Y-86438095D01*
X175023809Y-86485714D01*
X174880952Y-86485714D01*
X174690476Y-86438095D01*
X174595238Y-86390476D01*
X174500000Y-86295238D01*
X174452380Y-86152380D01*
X174452380Y-86057142D01*
X174500000Y-85914285D01*
X174547619Y-85866666D01*
X174452380Y-85533333D02*
X174452380Y-84866666D01*
X175452380Y-85295238D01*
X194352380Y-82566666D02*
X193876190Y-82900000D01*
X194352380Y-83138095D02*
X193352380Y-83138095D01*
X193352380Y-82757142D01*
X193400000Y-82661904D01*
X193447619Y-82614285D01*
X193542857Y-82566666D01*
X193685714Y-82566666D01*
X193780952Y-82614285D01*
X193828571Y-82661904D01*
X193876190Y-82757142D01*
X193876190Y-83138095D01*
X193685714Y-81709523D02*
X194352380Y-81709523D01*
X193304761Y-81947619D02*
X194019047Y-82185714D01*
X194019047Y-81566666D01*
X208552380Y-105166666D02*
X208076190Y-105500000D01*
X208552380Y-105738095D02*
X207552380Y-105738095D01*
X207552380Y-105357142D01*
X207600000Y-105261904D01*
X207647619Y-105214285D01*
X207742857Y-105166666D01*
X207885714Y-105166666D01*
X207980952Y-105214285D01*
X208028571Y-105261904D01*
X208076190Y-105357142D01*
X208076190Y-105738095D01*
X207552380Y-104833333D02*
X207552380Y-104166666D01*
X208552380Y-104595238D01*
X196361904Y-122014285D02*
X195980952Y-122280952D01*
X196361904Y-122471428D02*
X195561904Y-122471428D01*
X195561904Y-122166666D01*
X195600000Y-122090476D01*
X195638095Y-122052380D01*
X195714285Y-122014285D01*
X195828571Y-122014285D01*
X195904761Y-122052380D01*
X195942857Y-122090476D01*
X195980952Y-122166666D01*
X195980952Y-122471428D01*
X196361904Y-121252380D02*
X196361904Y-121709523D01*
X196361904Y-121480952D02*
X195561904Y-121480952D01*
X195676190Y-121557142D01*
X195752380Y-121633333D01*
X195790476Y-121709523D01*
X195561904Y-120757142D02*
X195561904Y-120680952D01*
X195600000Y-120604761D01*
X195638095Y-120566666D01*
X195714285Y-120528571D01*
X195866666Y-120490476D01*
X196057142Y-120490476D01*
X196209523Y-120528571D01*
X196285714Y-120566666D01*
X196323809Y-120604761D01*
X196361904Y-120680952D01*
X196361904Y-120757142D01*
X196323809Y-120833333D01*
X196285714Y-120871428D01*
X196209523Y-120909523D01*
X196057142Y-120947619D01*
X195866666Y-120947619D01*
X195714285Y-120909523D01*
X195638095Y-120871428D01*
X195600000Y-120833333D01*
X195561904Y-120757142D01*
X197361904Y-122014285D02*
X196980952Y-122280952D01*
X197361904Y-122471428D02*
X196561904Y-122471428D01*
X196561904Y-122166666D01*
X196600000Y-122090476D01*
X196638095Y-122052380D01*
X196714285Y-122014285D01*
X196828571Y-122014285D01*
X196904761Y-122052380D01*
X196942857Y-122090476D01*
X196980952Y-122166666D01*
X196980952Y-122471428D01*
X197361904Y-121252380D02*
X197361904Y-121709523D01*
X197361904Y-121480952D02*
X196561904Y-121480952D01*
X196676190Y-121557142D01*
X196752380Y-121633333D01*
X196790476Y-121709523D01*
X197361904Y-120490476D02*
X197361904Y-120947619D01*
X197361904Y-120719047D02*
X196561904Y-120719047D01*
X196676190Y-120795238D01*
X196752380Y-120871428D01*
X196790476Y-120947619D01*
X196752380Y-108242857D02*
X196276190Y-108576190D01*
X196752380Y-108814285D02*
X195752380Y-108814285D01*
X195752380Y-108433333D01*
X195800000Y-108338095D01*
X195847619Y-108290476D01*
X195942857Y-108242857D01*
X196085714Y-108242857D01*
X196180952Y-108290476D01*
X196228571Y-108338095D01*
X196276190Y-108433333D01*
X196276190Y-108814285D01*
X196752380Y-107290476D02*
X196752380Y-107861904D01*
X196752380Y-107576190D02*
X195752380Y-107576190D01*
X195895238Y-107671428D01*
X195990476Y-107766666D01*
X196038095Y-107861904D01*
X195847619Y-106909523D02*
X195800000Y-106861904D01*
X195752380Y-106766666D01*
X195752380Y-106528571D01*
X195800000Y-106433333D01*
X195847619Y-106385714D01*
X195942857Y-106338095D01*
X196038095Y-106338095D01*
X196180952Y-106385714D01*
X196752380Y-106957142D01*
X196752380Y-106338095D01*
D12*
X197174348Y-88386158D02*
X196851099Y-88062910D01*
X197012723Y-88224534D02*
X197578409Y-87658849D01*
X197443722Y-87685786D01*
X197335972Y-87685786D01*
X197255160Y-87658849D01*
X199814213Y-89894653D02*
X199868088Y-89948528D01*
X199895025Y-90029340D01*
X199895025Y-90083215D01*
X199868088Y-90164027D01*
X199787276Y-90298714D01*
X199652589Y-90433401D01*
X199517902Y-90514213D01*
X199437089Y-90541150D01*
X199383215Y-90541150D01*
X199302402Y-90514213D01*
X199248528Y-90460338D01*
X199221590Y-90379526D01*
X199221590Y-90325651D01*
X199248528Y-90244839D01*
X199329340Y-90110152D01*
X199464027Y-89975465D01*
X199598714Y-89894653D01*
X199679526Y-89867715D01*
X199733401Y-89867715D01*
X199814213Y-89894653D01*
D10*
X199849906Y-116002902D02*
X199472783Y-115625779D01*
X199580532Y-115733528D02*
X199553595Y-115652716D01*
X199553595Y-115598841D01*
X199580532Y-115518029D01*
X199634407Y-115464154D01*
X200146218Y-115652716D02*
X200227030Y-115625779D01*
X200334780Y-115518029D01*
X200361717Y-115437217D01*
X200334780Y-115356405D01*
X200307842Y-115329467D01*
X200227030Y-115302530D01*
X200146218Y-115329467D01*
X200065406Y-115410279D01*
X199984593Y-115437217D01*
X199903781Y-115410279D01*
X199876844Y-115383342D01*
X199849906Y-115302530D01*
X199876844Y-115221718D01*
X199957656Y-115140905D01*
X200038468Y-115113968D01*
X200200093Y-114898469D02*
X200415592Y-114682970D01*
X200092343Y-114629095D02*
X200577216Y-115113968D01*
X200658028Y-115140905D01*
X200738841Y-115113968D01*
X200792715Y-115060093D01*
X202014688Y-110790122D02*
X201449003Y-110224436D01*
X201853064Y-110520748D02*
X202230187Y-110574622D01*
X201853064Y-110197499D02*
X201853064Y-110628497D01*
X202661186Y-110089749D02*
X202634248Y-110170561D01*
X202526499Y-110278311D01*
X202445687Y-110305248D01*
X202364874Y-110278311D01*
X202149375Y-110062812D01*
X202122438Y-109982000D01*
X202149375Y-109901187D01*
X202257125Y-109793438D01*
X202337937Y-109766500D01*
X202418749Y-109793438D01*
X202472624Y-109847312D01*
X202257125Y-110170561D01*
X202526499Y-109524064D02*
X203038309Y-109766500D01*
X202795873Y-109254690D02*
X203038309Y-109766500D01*
X203119122Y-109955062D01*
X203119122Y-110008937D01*
X203092184Y-110089749D01*
X164974026Y-109651522D02*
X165546446Y-110223942D01*
X165647461Y-110257614D01*
X165714805Y-110257614D01*
X165815820Y-110223942D01*
X165950507Y-110089255D01*
X165984179Y-109988240D01*
X165984179Y-109920896D01*
X165950507Y-109819881D01*
X165378087Y-109247461D01*
X166792301Y-109247461D02*
X166388240Y-109651522D01*
X166590270Y-109449492D02*
X165883164Y-108742385D01*
X165916835Y-108910744D01*
X165916835Y-109045431D01*
X165883164Y-109146446D01*
X206411380Y-101888904D02*
X207220904Y-101888904D01*
X207316142Y-101841285D01*
X207363761Y-101793666D01*
X207411380Y-101698428D01*
X207411380Y-101507952D01*
X207363761Y-101412714D01*
X207316142Y-101365095D01*
X207220904Y-101317476D01*
X206411380Y-101317476D01*
X206506619Y-100888904D02*
X206459000Y-100841285D01*
X206411380Y-100746047D01*
X206411380Y-100507952D01*
X206459000Y-100412714D01*
X206506619Y-100365095D01*
X206601857Y-100317476D01*
X206697095Y-100317476D01*
X206839952Y-100365095D01*
X207411380Y-100936523D01*
X207411380Y-100317476D01*
X170702030Y-102537732D02*
X170129610Y-102436717D01*
X170297969Y-102941793D02*
X169590862Y-102234687D01*
X169860236Y-101965312D01*
X169961251Y-101931641D01*
X170028595Y-101931641D01*
X170129610Y-101965312D01*
X170230625Y-102066328D01*
X170264297Y-102167343D01*
X170264297Y-102234687D01*
X170230625Y-102335702D01*
X169961251Y-102605076D01*
X171375465Y-101864297D02*
X170971404Y-102268358D01*
X171173435Y-102066328D02*
X170466328Y-101359221D01*
X170500000Y-101527580D01*
X170500000Y-101662267D01*
X170466328Y-101763282D01*
X170262266Y-104402030D02*
X170363281Y-103829610D01*
X169858205Y-103997969D02*
X170565311Y-103290862D01*
X170834686Y-103560236D01*
X170868357Y-103661251D01*
X170868357Y-103728595D01*
X170834686Y-103829610D01*
X170733670Y-103930625D01*
X170632655Y-103964297D01*
X170565311Y-103964297D01*
X170464296Y-103930625D01*
X170194922Y-103661251D01*
X171171403Y-104031641D02*
X171238747Y-104031641D01*
X171339762Y-104065312D01*
X171508121Y-104233671D01*
X171541792Y-104334687D01*
X171541792Y-104402030D01*
X171508121Y-104503045D01*
X171440777Y-104570389D01*
X171306090Y-104637732D01*
X170497968Y-104637732D01*
X170935701Y-105075465D01*
X197623333Y-108772380D02*
X197290000Y-108296190D01*
X197051904Y-108772380D02*
X197051904Y-107772380D01*
X197432857Y-107772380D01*
X197528095Y-107820000D01*
X197575714Y-107867619D01*
X197623333Y-107962857D01*
X197623333Y-108105714D01*
X197575714Y-108200952D01*
X197528095Y-108248571D01*
X197432857Y-108296190D01*
X197051904Y-108296190D01*
X198528095Y-107772380D02*
X198051904Y-107772380D01*
X198004285Y-108248571D01*
X198051904Y-108200952D01*
X198147142Y-108153333D01*
X198385238Y-108153333D01*
X198480476Y-108200952D01*
X198528095Y-108248571D01*
X198575714Y-108343809D01*
X198575714Y-108581904D01*
X198528095Y-108677142D01*
X198480476Y-108724761D01*
X198385238Y-108772380D01*
X198147142Y-108772380D01*
X198051904Y-108724761D01*
X198004285Y-108677142D01*
X199533333Y-107462380D02*
X199200000Y-106986190D01*
X198961904Y-107462380D02*
X198961904Y-106462380D01*
X199342857Y-106462380D01*
X199438095Y-106510000D01*
X199485714Y-106557619D01*
X199533333Y-106652857D01*
X199533333Y-106795714D01*
X199485714Y-106890952D01*
X199438095Y-106938571D01*
X199342857Y-106986190D01*
X198961904Y-106986190D01*
X200009523Y-107462380D02*
X200200000Y-107462380D01*
X200295238Y-107414761D01*
X200342857Y-107367142D01*
X200438095Y-107224285D01*
X200485714Y-107033809D01*
X200485714Y-106652857D01*
X200438095Y-106557619D01*
X200390476Y-106510000D01*
X200295238Y-106462380D01*
X200104761Y-106462380D01*
X200009523Y-106510000D01*
X199961904Y-106557619D01*
X199914285Y-106652857D01*
X199914285Y-106890952D01*
X199961904Y-106986190D01*
X200009523Y-107033809D01*
X200104761Y-107081428D01*
X200295238Y-107081428D01*
X200390476Y-107033809D01*
X200438095Y-106986190D01*
X200485714Y-106890952D01*
X199584761Y-106257619D02*
X199489523Y-106210000D01*
X199394285Y-106114761D01*
X199251428Y-105971904D01*
X199156190Y-105924285D01*
X199060952Y-105924285D01*
X199108571Y-106162380D02*
X199013333Y-106114761D01*
X198918095Y-106019523D01*
X198870476Y-105829047D01*
X198870476Y-105495714D01*
X198918095Y-105305238D01*
X199013333Y-105210000D01*
X199108571Y-105162380D01*
X199299047Y-105162380D01*
X199394285Y-105210000D01*
X199489523Y-105305238D01*
X199537142Y-105495714D01*
X199537142Y-105829047D01*
X199489523Y-106019523D01*
X199394285Y-106114761D01*
X199299047Y-106162380D01*
X199108571Y-106162380D01*
X200489523Y-106162380D02*
X199918095Y-106162380D01*
X200203809Y-106162380D02*
X200203809Y-105162380D01*
X200108571Y-105305238D01*
X200013333Y-105400476D01*
X199918095Y-105448095D01*
X197704761Y-107507619D02*
X197609523Y-107460000D01*
X197514285Y-107364761D01*
X197371428Y-107221904D01*
X197276190Y-107174285D01*
X197180952Y-107174285D01*
X197228571Y-107412380D02*
X197133333Y-107364761D01*
X197038095Y-107269523D01*
X196990476Y-107079047D01*
X196990476Y-106745714D01*
X197038095Y-106555238D01*
X197133333Y-106460000D01*
X197228571Y-106412380D01*
X197419047Y-106412380D01*
X197514285Y-106460000D01*
X197609523Y-106555238D01*
X197657142Y-106745714D01*
X197657142Y-107079047D01*
X197609523Y-107269523D01*
X197514285Y-107364761D01*
X197419047Y-107412380D01*
X197228571Y-107412380D01*
X198038095Y-106507619D02*
X198085714Y-106460000D01*
X198180952Y-106412380D01*
X198419047Y-106412380D01*
X198514285Y-106460000D01*
X198561904Y-106507619D01*
X198609523Y-106602857D01*
X198609523Y-106698095D01*
X198561904Y-106840952D01*
X197990476Y-107412380D01*
X198609523Y-107412380D01*
X195802380Y-82576666D02*
X195326190Y-82910000D01*
X195802380Y-83148095D02*
X194802380Y-83148095D01*
X194802380Y-82767142D01*
X194850000Y-82671904D01*
X194897619Y-82624285D01*
X194992857Y-82576666D01*
X195135714Y-82576666D01*
X195230952Y-82624285D01*
X195278571Y-82671904D01*
X195326190Y-82767142D01*
X195326190Y-83148095D01*
X194802380Y-82243333D02*
X194802380Y-81624285D01*
X195183333Y-81957619D01*
X195183333Y-81814761D01*
X195230952Y-81719523D01*
X195278571Y-81671904D01*
X195373809Y-81624285D01*
X195611904Y-81624285D01*
X195707142Y-81671904D01*
X195754761Y-81719523D01*
X195802380Y-81814761D01*
X195802380Y-82100476D01*
X195754761Y-82195714D01*
X195707142Y-82243333D01*
M02*
