G04 #@! TF.GenerationSoftware,KiCad,Pcbnew,(5.1.4-0-10_14)*
G04 #@! TF.CreationDate,2019-11-19T00:31:21+08:00*
G04 #@! TF.ProjectId,z2m_partner,7a326d5f-7061-4727-946e-65722e6b6963,rev?*
G04 #@! TF.SameCoordinates,Original*
G04 #@! TF.FileFunction,Soldermask,Top*
G04 #@! TF.FilePolarity,Negative*
%FSLAX46Y46*%
G04 Gerber Fmt 4.6, Leading zero omitted, Abs format (unit mm)*
G04 Created by KiCad (PCBNEW (5.1.4-0-10_14)) date 2019-11-19 00:31:21*
%MOMM*%
%LPD*%
G04 APERTURE LIST*
%ADD10C,0.100000*%
G04 APERTURE END LIST*
D10*
G36*
X170548225Y-119412063D02*
G01*
X170569306Y-119418459D01*
X170588742Y-119428847D01*
X170610539Y-119446735D01*
X170938444Y-119774640D01*
X170956332Y-119796437D01*
X170966720Y-119815873D01*
X170973116Y-119836954D01*
X170975275Y-119858882D01*
X170973116Y-119880810D01*
X170966720Y-119901891D01*
X170956332Y-119921327D01*
X170938444Y-119943124D01*
X169655945Y-121225623D01*
X169634148Y-121243511D01*
X169614712Y-121253899D01*
X169593631Y-121260295D01*
X169571703Y-121262454D01*
X169549775Y-121260295D01*
X169528694Y-121253899D01*
X169509258Y-121243511D01*
X169487461Y-121225623D01*
X169159556Y-120897718D01*
X169141668Y-120875921D01*
X169131280Y-120856485D01*
X169124884Y-120835404D01*
X169122725Y-120813476D01*
X169124884Y-120791548D01*
X169131280Y-120770467D01*
X169141668Y-120751031D01*
X169159556Y-120729234D01*
X170442055Y-119446735D01*
X170463852Y-119428847D01*
X170483288Y-119418459D01*
X170504369Y-119412063D01*
X170526297Y-119409904D01*
X170548225Y-119412063D01*
X170548225Y-119412063D01*
G37*
G36*
X169650200Y-118514037D02*
G01*
X169671281Y-118520433D01*
X169690717Y-118530821D01*
X169712514Y-118548709D01*
X170040419Y-118876614D01*
X170058307Y-118898411D01*
X170068695Y-118917847D01*
X170075091Y-118938928D01*
X170077250Y-118960856D01*
X170075091Y-118982784D01*
X170068695Y-119003865D01*
X170058307Y-119023301D01*
X170040419Y-119045098D01*
X168757920Y-120327597D01*
X168736123Y-120345485D01*
X168716687Y-120355873D01*
X168695606Y-120362269D01*
X168673678Y-120364428D01*
X168651750Y-120362269D01*
X168630669Y-120355873D01*
X168611233Y-120345485D01*
X168589436Y-120327597D01*
X168261531Y-119999692D01*
X168243643Y-119977895D01*
X168233255Y-119958459D01*
X168226859Y-119937378D01*
X168224700Y-119915450D01*
X168226859Y-119893522D01*
X168233255Y-119872441D01*
X168243643Y-119853005D01*
X168261531Y-119831208D01*
X169544030Y-118548709D01*
X169565827Y-118530821D01*
X169585263Y-118520433D01*
X169606344Y-118514037D01*
X169628272Y-118511878D01*
X169650200Y-118514037D01*
X169650200Y-118514037D01*
G37*
G36*
X202277059Y-118671965D02*
G01*
X201462472Y-119486552D01*
X200930727Y-118954807D01*
X201745314Y-118140220D01*
X202277059Y-118671965D01*
X202277059Y-118671965D01*
G37*
G36*
X168752174Y-117616012D02*
G01*
X168773255Y-117622408D01*
X168792691Y-117632796D01*
X168814488Y-117650684D01*
X169142393Y-117978589D01*
X169160281Y-118000386D01*
X169170669Y-118019822D01*
X169177065Y-118040903D01*
X169179224Y-118062831D01*
X169177065Y-118084759D01*
X169170669Y-118105840D01*
X169160281Y-118125276D01*
X169142393Y-118147073D01*
X167859894Y-119429572D01*
X167838097Y-119447460D01*
X167818661Y-119457848D01*
X167797580Y-119464244D01*
X167775652Y-119466403D01*
X167753724Y-119464244D01*
X167732643Y-119457848D01*
X167713207Y-119447460D01*
X167691410Y-119429572D01*
X167363505Y-119101667D01*
X167345617Y-119079870D01*
X167335229Y-119060434D01*
X167328833Y-119039353D01*
X167326674Y-119017425D01*
X167328833Y-118995497D01*
X167335229Y-118974416D01*
X167345617Y-118954980D01*
X167363505Y-118933183D01*
X168646004Y-117650684D01*
X168667801Y-117632796D01*
X168687237Y-117622408D01*
X168708318Y-117616012D01*
X168730246Y-117613853D01*
X168752174Y-117616012D01*
X168752174Y-117616012D01*
G37*
G36*
X196744499Y-118168445D02*
G01*
X196781995Y-118179820D01*
X196816554Y-118198292D01*
X196846847Y-118223153D01*
X196871708Y-118253446D01*
X196890180Y-118288005D01*
X196901555Y-118325501D01*
X196906000Y-118370638D01*
X196906000Y-119109362D01*
X196901555Y-119154499D01*
X196890180Y-119191995D01*
X196871708Y-119226554D01*
X196846847Y-119256847D01*
X196816554Y-119281708D01*
X196781995Y-119300180D01*
X196744499Y-119311555D01*
X196699362Y-119316000D01*
X196060638Y-119316000D01*
X196015501Y-119311555D01*
X195978005Y-119300180D01*
X195943446Y-119281708D01*
X195913153Y-119256847D01*
X195888292Y-119226554D01*
X195869820Y-119191995D01*
X195858445Y-119154499D01*
X195854000Y-119109362D01*
X195854000Y-118370638D01*
X195858445Y-118325501D01*
X195869820Y-118288005D01*
X195888292Y-118253446D01*
X195913153Y-118223153D01*
X195943446Y-118198292D01*
X195978005Y-118179820D01*
X196015501Y-118168445D01*
X196060638Y-118164000D01*
X196699362Y-118164000D01*
X196744499Y-118168445D01*
X196744499Y-118168445D01*
G37*
G36*
X198584499Y-118158445D02*
G01*
X198621995Y-118169820D01*
X198656554Y-118188292D01*
X198686847Y-118213153D01*
X198711708Y-118243446D01*
X198730180Y-118278005D01*
X198741555Y-118315501D01*
X198746000Y-118360638D01*
X198746000Y-119099362D01*
X198741555Y-119144499D01*
X198730180Y-119181995D01*
X198711708Y-119216554D01*
X198686847Y-119246847D01*
X198656554Y-119271708D01*
X198621995Y-119290180D01*
X198584499Y-119301555D01*
X198539362Y-119306000D01*
X197900638Y-119306000D01*
X197855501Y-119301555D01*
X197818005Y-119290180D01*
X197783446Y-119271708D01*
X197753153Y-119246847D01*
X197728292Y-119216554D01*
X197709820Y-119181995D01*
X197698445Y-119144499D01*
X197694000Y-119099362D01*
X197694000Y-118360638D01*
X197698445Y-118315501D01*
X197709820Y-118278005D01*
X197728292Y-118243446D01*
X197753153Y-118213153D01*
X197783446Y-118188292D01*
X197818005Y-118169820D01*
X197855501Y-118158445D01*
X197900638Y-118154000D01*
X198539362Y-118154000D01*
X198584499Y-118158445D01*
X198584499Y-118158445D01*
G37*
G36*
X177085213Y-118251249D02*
G01*
X177179652Y-118279897D01*
X177266687Y-118326418D01*
X177342975Y-118389025D01*
X177405582Y-118465313D01*
X177452103Y-118552348D01*
X177480751Y-118646787D01*
X177490424Y-118745000D01*
X177480751Y-118843213D01*
X177452103Y-118937652D01*
X177405582Y-119024687D01*
X177342975Y-119100975D01*
X177266687Y-119163582D01*
X177179652Y-119210103D01*
X177085213Y-119238751D01*
X177011612Y-119246000D01*
X175862388Y-119246000D01*
X175788787Y-119238751D01*
X175694348Y-119210103D01*
X175607313Y-119163582D01*
X175531025Y-119100975D01*
X175468418Y-119024687D01*
X175421897Y-118937652D01*
X175393249Y-118843213D01*
X175383576Y-118745000D01*
X175393249Y-118646787D01*
X175421897Y-118552348D01*
X175468418Y-118465313D01*
X175531025Y-118389025D01*
X175607313Y-118326418D01*
X175694348Y-118279897D01*
X175788787Y-118251249D01*
X175862388Y-118244000D01*
X177011612Y-118244000D01*
X177085213Y-118251249D01*
X177085213Y-118251249D01*
G37*
G36*
X195488000Y-119246000D02*
G01*
X193386000Y-119246000D01*
X193386000Y-118244000D01*
X195488000Y-118244000D01*
X195488000Y-119246000D01*
X195488000Y-119246000D01*
G37*
G36*
X167854149Y-116717986D02*
G01*
X167875230Y-116724382D01*
X167894666Y-116734770D01*
X167916463Y-116752658D01*
X168244368Y-117080563D01*
X168262256Y-117102360D01*
X168272644Y-117121796D01*
X168279040Y-117142877D01*
X168281199Y-117164805D01*
X168279040Y-117186733D01*
X168272644Y-117207814D01*
X168262256Y-117227250D01*
X168244368Y-117249047D01*
X166961869Y-118531546D01*
X166940072Y-118549434D01*
X166920636Y-118559822D01*
X166899555Y-118566218D01*
X166877627Y-118568377D01*
X166855699Y-118566218D01*
X166834618Y-118559822D01*
X166815182Y-118549434D01*
X166793385Y-118531546D01*
X166465480Y-118203641D01*
X166447592Y-118181844D01*
X166437204Y-118162408D01*
X166430808Y-118141327D01*
X166428649Y-118119399D01*
X166430808Y-118097471D01*
X166437204Y-118076390D01*
X166447592Y-118056954D01*
X166465480Y-118035157D01*
X167747979Y-116752658D01*
X167769776Y-116734770D01*
X167789212Y-116724382D01*
X167810293Y-116717986D01*
X167832221Y-116715827D01*
X167854149Y-116717986D01*
X167854149Y-116717986D01*
G37*
G36*
X200756780Y-117151686D02*
G01*
X199942193Y-117966273D01*
X199410448Y-117434528D01*
X200225035Y-116619941D01*
X200756780Y-117151686D01*
X200756780Y-117151686D01*
G37*
G36*
X174048404Y-115911884D02*
G01*
X174069485Y-115918280D01*
X174088921Y-115928668D01*
X174110718Y-115946556D01*
X174438623Y-116274461D01*
X174456511Y-116296258D01*
X174466899Y-116315694D01*
X174473295Y-116336775D01*
X174475454Y-116358703D01*
X174473295Y-116380631D01*
X174466899Y-116401712D01*
X174456511Y-116421148D01*
X174438623Y-116442945D01*
X173156124Y-117725444D01*
X173134327Y-117743332D01*
X173114891Y-117753720D01*
X173093810Y-117760116D01*
X173071882Y-117762275D01*
X173049954Y-117760116D01*
X173028873Y-117753720D01*
X173009437Y-117743332D01*
X172987640Y-117725444D01*
X172659735Y-117397539D01*
X172641847Y-117375742D01*
X172631459Y-117356306D01*
X172625063Y-117335225D01*
X172622904Y-117313297D01*
X172625063Y-117291369D01*
X172631459Y-117270288D01*
X172641847Y-117250852D01*
X172659735Y-117229055D01*
X173942234Y-115946556D01*
X173964031Y-115928668D01*
X173983467Y-115918280D01*
X174004548Y-115911884D01*
X174026476Y-115909725D01*
X174048404Y-115911884D01*
X174048404Y-115911884D01*
G37*
G36*
X177085213Y-116751249D02*
G01*
X177179652Y-116779897D01*
X177266687Y-116826418D01*
X177342975Y-116889025D01*
X177405582Y-116965313D01*
X177452103Y-117052348D01*
X177480751Y-117146787D01*
X177490424Y-117245000D01*
X177480751Y-117343213D01*
X177452103Y-117437652D01*
X177405582Y-117524687D01*
X177342975Y-117600975D01*
X177266687Y-117663582D01*
X177179652Y-117710103D01*
X177085213Y-117738751D01*
X177011612Y-117746000D01*
X175862388Y-117746000D01*
X175788787Y-117738751D01*
X175694348Y-117710103D01*
X175607313Y-117663582D01*
X175531025Y-117600975D01*
X175468418Y-117524687D01*
X175421897Y-117437652D01*
X175393249Y-117343213D01*
X175383576Y-117245000D01*
X175393249Y-117146787D01*
X175421897Y-117052348D01*
X175468418Y-116965313D01*
X175531025Y-116889025D01*
X175607313Y-116826418D01*
X175694348Y-116779897D01*
X175788787Y-116751249D01*
X175862388Y-116744000D01*
X177011612Y-116744000D01*
X177085213Y-116751249D01*
X177085213Y-116751249D01*
G37*
G36*
X195085213Y-116751249D02*
G01*
X195179652Y-116779897D01*
X195266687Y-116826418D01*
X195342975Y-116889025D01*
X195405582Y-116965313D01*
X195452103Y-117052348D01*
X195480751Y-117146787D01*
X195490424Y-117245000D01*
X195480751Y-117343213D01*
X195452103Y-117437652D01*
X195405582Y-117524687D01*
X195342975Y-117600975D01*
X195266687Y-117663582D01*
X195179652Y-117710103D01*
X195085213Y-117738751D01*
X195011612Y-117746000D01*
X193862388Y-117746000D01*
X193788787Y-117738751D01*
X193694348Y-117710103D01*
X193607313Y-117663582D01*
X193531025Y-117600975D01*
X193468418Y-117524687D01*
X193421897Y-117437652D01*
X193393249Y-117343213D01*
X193383576Y-117245000D01*
X193393249Y-117146787D01*
X193421897Y-117052348D01*
X193468418Y-116965313D01*
X193531025Y-116889025D01*
X193607313Y-116826418D01*
X193694348Y-116779897D01*
X193788787Y-116751249D01*
X193862388Y-116744000D01*
X195011612Y-116744000D01*
X195085213Y-116751249D01*
X195085213Y-116751249D01*
G37*
G36*
X166956123Y-115819960D02*
G01*
X166977204Y-115826356D01*
X166996640Y-115836744D01*
X167018437Y-115854632D01*
X167346342Y-116182537D01*
X167364230Y-116204334D01*
X167374618Y-116223770D01*
X167381014Y-116244851D01*
X167383173Y-116266779D01*
X167381014Y-116288707D01*
X167374618Y-116309788D01*
X167364230Y-116329224D01*
X167346342Y-116351021D01*
X166063843Y-117633520D01*
X166042046Y-117651408D01*
X166022610Y-117661796D01*
X166001529Y-117668192D01*
X165979601Y-117670351D01*
X165957673Y-117668192D01*
X165936592Y-117661796D01*
X165917156Y-117651408D01*
X165895359Y-117633520D01*
X165567454Y-117305615D01*
X165549566Y-117283818D01*
X165539178Y-117264382D01*
X165532782Y-117243301D01*
X165530623Y-117221373D01*
X165532782Y-117199445D01*
X165539178Y-117178364D01*
X165549566Y-117158928D01*
X165567454Y-117137131D01*
X166849953Y-115854632D01*
X166871750Y-115836744D01*
X166891186Y-115826356D01*
X166912267Y-115819960D01*
X166934195Y-115817801D01*
X166956123Y-115819960D01*
X166956123Y-115819960D01*
G37*
G36*
X196744499Y-116418445D02*
G01*
X196781995Y-116429820D01*
X196816554Y-116448292D01*
X196846847Y-116473153D01*
X196871708Y-116503446D01*
X196890180Y-116538005D01*
X196901555Y-116575501D01*
X196906000Y-116620638D01*
X196906000Y-117359362D01*
X196901555Y-117404499D01*
X196890180Y-117441995D01*
X196871708Y-117476554D01*
X196846847Y-117506847D01*
X196816554Y-117531708D01*
X196781995Y-117550180D01*
X196744499Y-117561555D01*
X196699362Y-117566000D01*
X196060638Y-117566000D01*
X196015501Y-117561555D01*
X195978005Y-117550180D01*
X195943446Y-117531708D01*
X195913153Y-117506847D01*
X195888292Y-117476554D01*
X195869820Y-117441995D01*
X195858445Y-117404499D01*
X195854000Y-117359362D01*
X195854000Y-116620638D01*
X195858445Y-116575501D01*
X195869820Y-116538005D01*
X195888292Y-116503446D01*
X195913153Y-116473153D01*
X195943446Y-116448292D01*
X195978005Y-116429820D01*
X196015501Y-116418445D01*
X196060638Y-116414000D01*
X196699362Y-116414000D01*
X196744499Y-116418445D01*
X196744499Y-116418445D01*
G37*
G36*
X198584499Y-116408445D02*
G01*
X198621995Y-116419820D01*
X198656554Y-116438292D01*
X198686847Y-116463153D01*
X198711708Y-116493446D01*
X198730180Y-116528005D01*
X198741555Y-116565501D01*
X198746000Y-116610638D01*
X198746000Y-117349362D01*
X198741555Y-117394499D01*
X198730180Y-117431995D01*
X198711708Y-117466554D01*
X198686847Y-117496847D01*
X198656554Y-117521708D01*
X198621995Y-117540180D01*
X198584499Y-117551555D01*
X198539362Y-117556000D01*
X197900638Y-117556000D01*
X197855501Y-117551555D01*
X197818005Y-117540180D01*
X197783446Y-117521708D01*
X197753153Y-117496847D01*
X197728292Y-117466554D01*
X197709820Y-117431995D01*
X197698445Y-117394499D01*
X197694000Y-117349362D01*
X197694000Y-116610638D01*
X197698445Y-116565501D01*
X197709820Y-116528005D01*
X197728292Y-116493446D01*
X197753153Y-116463153D01*
X197783446Y-116438292D01*
X197818005Y-116419820D01*
X197855501Y-116408445D01*
X197900638Y-116404000D01*
X198539362Y-116404000D01*
X198584499Y-116408445D01*
X198584499Y-116408445D01*
G37*
G36*
X173150378Y-115013859D02*
G01*
X173171459Y-115020255D01*
X173190895Y-115030643D01*
X173212692Y-115048531D01*
X173540597Y-115376436D01*
X173558485Y-115398233D01*
X173568873Y-115417669D01*
X173575269Y-115438750D01*
X173577428Y-115460678D01*
X173575269Y-115482606D01*
X173568873Y-115503687D01*
X173558485Y-115523123D01*
X173540597Y-115544920D01*
X172258098Y-116827419D01*
X172236301Y-116845307D01*
X172216865Y-116855695D01*
X172195784Y-116862091D01*
X172173856Y-116864250D01*
X172151928Y-116862091D01*
X172130847Y-116855695D01*
X172111411Y-116845307D01*
X172089614Y-116827419D01*
X171761709Y-116499514D01*
X171743821Y-116477717D01*
X171733433Y-116458281D01*
X171727037Y-116437200D01*
X171724878Y-116415272D01*
X171727037Y-116393344D01*
X171733433Y-116372263D01*
X171743821Y-116352827D01*
X171761709Y-116331030D01*
X173044208Y-115048531D01*
X173066005Y-115030643D01*
X173085441Y-115020255D01*
X173106522Y-115013859D01*
X173128450Y-115011700D01*
X173150378Y-115013859D01*
X173150378Y-115013859D01*
G37*
G36*
X166058097Y-114921935D02*
G01*
X166079178Y-114928331D01*
X166098614Y-114938719D01*
X166120411Y-114956607D01*
X166448316Y-115284512D01*
X166466204Y-115306309D01*
X166476592Y-115325745D01*
X166482988Y-115346826D01*
X166485147Y-115368754D01*
X166482988Y-115390682D01*
X166476592Y-115411763D01*
X166466204Y-115431199D01*
X166448316Y-115452996D01*
X165165817Y-116735495D01*
X165144020Y-116753383D01*
X165124584Y-116763771D01*
X165103503Y-116770167D01*
X165081575Y-116772326D01*
X165059647Y-116770167D01*
X165038566Y-116763771D01*
X165019130Y-116753383D01*
X164997333Y-116735495D01*
X164669428Y-116407590D01*
X164651540Y-116385793D01*
X164641152Y-116366357D01*
X164634756Y-116345276D01*
X164632597Y-116323348D01*
X164634756Y-116301420D01*
X164641152Y-116280339D01*
X164651540Y-116260903D01*
X164669428Y-116239106D01*
X165951927Y-114956607D01*
X165973724Y-114938719D01*
X165993160Y-114928331D01*
X166014241Y-114921935D01*
X166036169Y-114919776D01*
X166058097Y-114921935D01*
X166058097Y-114921935D01*
G37*
G36*
X205211552Y-115737472D02*
G01*
X204396965Y-116552059D01*
X203865220Y-116020314D01*
X204679807Y-115205727D01*
X205211552Y-115737472D01*
X205211552Y-115737472D01*
G37*
G36*
X177085213Y-115251249D02*
G01*
X177179652Y-115279897D01*
X177266687Y-115326418D01*
X177342975Y-115389025D01*
X177405582Y-115465313D01*
X177452103Y-115552348D01*
X177480751Y-115646787D01*
X177490424Y-115745000D01*
X177480751Y-115843213D01*
X177452103Y-115937652D01*
X177405582Y-116024687D01*
X177342975Y-116100975D01*
X177266687Y-116163582D01*
X177179652Y-116210103D01*
X177085213Y-116238751D01*
X177011612Y-116246000D01*
X175862388Y-116246000D01*
X175788787Y-116238751D01*
X175694348Y-116210103D01*
X175607313Y-116163582D01*
X175531025Y-116100975D01*
X175468418Y-116024687D01*
X175421897Y-115937652D01*
X175393249Y-115843213D01*
X175383576Y-115745000D01*
X175393249Y-115646787D01*
X175421897Y-115552348D01*
X175468418Y-115465313D01*
X175531025Y-115389025D01*
X175607313Y-115326418D01*
X175694348Y-115279897D01*
X175788787Y-115251249D01*
X175862388Y-115244000D01*
X177011612Y-115244000D01*
X177085213Y-115251249D01*
X177085213Y-115251249D01*
G37*
G36*
X195085213Y-115251249D02*
G01*
X195179652Y-115279897D01*
X195266687Y-115326418D01*
X195342975Y-115389025D01*
X195405582Y-115465313D01*
X195452103Y-115552348D01*
X195480751Y-115646787D01*
X195490424Y-115745000D01*
X195480751Y-115843213D01*
X195452103Y-115937652D01*
X195405582Y-116024687D01*
X195342975Y-116100975D01*
X195266687Y-116163582D01*
X195179652Y-116210103D01*
X195085213Y-116238751D01*
X195011612Y-116246000D01*
X193862388Y-116246000D01*
X193788787Y-116238751D01*
X193694348Y-116210103D01*
X193607313Y-116163582D01*
X193531025Y-116100975D01*
X193468418Y-116024687D01*
X193421897Y-115937652D01*
X193393249Y-115843213D01*
X193383576Y-115745000D01*
X193393249Y-115646787D01*
X193421897Y-115552348D01*
X193468418Y-115465313D01*
X193531025Y-115389025D01*
X193607313Y-115326418D01*
X193694348Y-115279897D01*
X193788787Y-115251249D01*
X193862388Y-115244000D01*
X195011612Y-115244000D01*
X195085213Y-115251249D01*
X195085213Y-115251249D01*
G37*
G36*
X196844499Y-115058445D02*
G01*
X196881995Y-115069820D01*
X196916554Y-115088292D01*
X196946847Y-115113153D01*
X196971708Y-115143446D01*
X196990180Y-115178005D01*
X197001555Y-115215501D01*
X197006000Y-115260638D01*
X197006000Y-115899362D01*
X197001555Y-115944499D01*
X196990180Y-115981995D01*
X196971708Y-116016554D01*
X196946847Y-116046847D01*
X196916554Y-116071708D01*
X196881995Y-116090180D01*
X196844499Y-116101555D01*
X196799362Y-116106000D01*
X196060638Y-116106000D01*
X196015501Y-116101555D01*
X195978005Y-116090180D01*
X195943446Y-116071708D01*
X195913153Y-116046847D01*
X195888292Y-116016554D01*
X195869820Y-115981995D01*
X195858445Y-115944499D01*
X195854000Y-115899362D01*
X195854000Y-115260638D01*
X195858445Y-115215501D01*
X195869820Y-115178005D01*
X195888292Y-115143446D01*
X195913153Y-115113153D01*
X195943446Y-115088292D01*
X195978005Y-115069820D01*
X196015501Y-115058445D01*
X196060638Y-115054000D01*
X196799362Y-115054000D01*
X196844499Y-115058445D01*
X196844499Y-115058445D01*
G37*
G36*
X198594499Y-115058445D02*
G01*
X198631995Y-115069820D01*
X198666554Y-115088292D01*
X198696847Y-115113153D01*
X198721708Y-115143446D01*
X198740180Y-115178005D01*
X198751555Y-115215501D01*
X198756000Y-115260638D01*
X198756000Y-115899362D01*
X198751555Y-115944499D01*
X198740180Y-115981995D01*
X198721708Y-116016554D01*
X198696847Y-116046847D01*
X198666554Y-116071708D01*
X198631995Y-116090180D01*
X198594499Y-116101555D01*
X198549362Y-116106000D01*
X197810638Y-116106000D01*
X197765501Y-116101555D01*
X197728005Y-116090180D01*
X197693446Y-116071708D01*
X197663153Y-116046847D01*
X197638292Y-116016554D01*
X197619820Y-115981995D01*
X197608445Y-115944499D01*
X197604000Y-115899362D01*
X197604000Y-115260638D01*
X197608445Y-115215501D01*
X197619820Y-115178005D01*
X197638292Y-115143446D01*
X197663153Y-115113153D01*
X197693446Y-115088292D01*
X197728005Y-115069820D01*
X197765501Y-115058445D01*
X197810638Y-115054000D01*
X198549362Y-115054000D01*
X198594499Y-115058445D01*
X198594499Y-115058445D01*
G37*
G36*
X172252353Y-114115833D02*
G01*
X172273434Y-114122229D01*
X172292870Y-114132617D01*
X172314667Y-114150505D01*
X172642572Y-114478410D01*
X172660460Y-114500207D01*
X172670848Y-114519643D01*
X172677244Y-114540724D01*
X172679403Y-114562652D01*
X172677244Y-114584580D01*
X172670848Y-114605661D01*
X172660460Y-114625097D01*
X172642572Y-114646894D01*
X171360073Y-115929393D01*
X171338276Y-115947281D01*
X171318840Y-115957669D01*
X171297759Y-115964065D01*
X171275831Y-115966224D01*
X171253903Y-115964065D01*
X171232822Y-115957669D01*
X171213386Y-115947281D01*
X171191589Y-115929393D01*
X170863684Y-115601488D01*
X170845796Y-115579691D01*
X170835408Y-115560255D01*
X170829012Y-115539174D01*
X170826853Y-115517246D01*
X170829012Y-115495318D01*
X170835408Y-115474237D01*
X170845796Y-115454801D01*
X170863684Y-115433004D01*
X172146183Y-114150505D01*
X172167980Y-114132617D01*
X172187416Y-114122229D01*
X172208497Y-114115833D01*
X172230425Y-114113674D01*
X172252353Y-114115833D01*
X172252353Y-114115833D01*
G37*
G36*
X165160072Y-114023909D02*
G01*
X165181153Y-114030305D01*
X165200589Y-114040693D01*
X165222386Y-114058581D01*
X165550291Y-114386486D01*
X165568179Y-114408283D01*
X165578567Y-114427719D01*
X165584963Y-114448800D01*
X165587122Y-114470728D01*
X165584963Y-114492656D01*
X165578567Y-114513737D01*
X165568179Y-114533173D01*
X165550291Y-114554970D01*
X164267792Y-115837469D01*
X164245995Y-115855357D01*
X164226559Y-115865745D01*
X164205478Y-115872141D01*
X164183550Y-115874300D01*
X164161622Y-115872141D01*
X164140541Y-115865745D01*
X164121105Y-115855357D01*
X164099308Y-115837469D01*
X163771403Y-115509564D01*
X163753515Y-115487767D01*
X163743127Y-115468331D01*
X163736731Y-115447250D01*
X163734572Y-115425322D01*
X163736731Y-115403394D01*
X163743127Y-115382313D01*
X163753515Y-115362877D01*
X163771403Y-115341080D01*
X165053902Y-114058581D01*
X165075699Y-114040693D01*
X165095135Y-114030305D01*
X165116216Y-114023909D01*
X165138144Y-114021750D01*
X165160072Y-114023909D01*
X165160072Y-114023909D01*
G37*
G36*
X171354327Y-113217808D02*
G01*
X171375408Y-113224204D01*
X171394844Y-113234592D01*
X171416641Y-113252480D01*
X171744546Y-113580385D01*
X171762434Y-113602182D01*
X171772822Y-113621618D01*
X171779218Y-113642699D01*
X171781377Y-113664627D01*
X171779218Y-113686555D01*
X171772822Y-113707636D01*
X171762434Y-113727072D01*
X171744546Y-113748869D01*
X170462047Y-115031368D01*
X170440250Y-115049256D01*
X170420814Y-115059644D01*
X170399733Y-115066040D01*
X170377805Y-115068199D01*
X170355877Y-115066040D01*
X170334796Y-115059644D01*
X170315360Y-115049256D01*
X170293563Y-115031368D01*
X169965658Y-114703463D01*
X169947770Y-114681666D01*
X169937382Y-114662230D01*
X169930986Y-114641149D01*
X169928827Y-114619221D01*
X169930986Y-114597293D01*
X169937382Y-114576212D01*
X169947770Y-114556776D01*
X169965658Y-114534979D01*
X171248157Y-113252480D01*
X171269954Y-113234592D01*
X171289390Y-113224204D01*
X171310471Y-113217808D01*
X171332399Y-113215649D01*
X171354327Y-113217808D01*
X171354327Y-113217808D01*
G37*
G36*
X203691273Y-114217193D02*
G01*
X202876686Y-115031780D01*
X202344941Y-114500035D01*
X203159528Y-113685448D01*
X203691273Y-114217193D01*
X203691273Y-114217193D01*
G37*
G36*
X164262046Y-113125884D02*
G01*
X164283127Y-113132280D01*
X164302563Y-113142668D01*
X164324360Y-113160556D01*
X164652265Y-113488461D01*
X164670153Y-113510258D01*
X164680541Y-113529694D01*
X164686937Y-113550775D01*
X164689096Y-113572703D01*
X164686937Y-113594631D01*
X164680541Y-113615712D01*
X164670153Y-113635148D01*
X164652265Y-113656945D01*
X163369766Y-114939444D01*
X163347969Y-114957332D01*
X163328533Y-114967720D01*
X163307452Y-114974116D01*
X163285524Y-114976275D01*
X163263596Y-114974116D01*
X163242515Y-114967720D01*
X163223079Y-114957332D01*
X163201282Y-114939444D01*
X162873377Y-114611539D01*
X162855489Y-114589742D01*
X162845101Y-114570306D01*
X162838705Y-114549225D01*
X162836546Y-114527297D01*
X162838705Y-114505369D01*
X162845101Y-114484288D01*
X162855489Y-114464852D01*
X162873377Y-114443055D01*
X164155876Y-113160556D01*
X164177673Y-113142668D01*
X164197109Y-113132280D01*
X164218190Y-113125884D01*
X164240118Y-113123725D01*
X164262046Y-113125884D01*
X164262046Y-113125884D01*
G37*
G36*
X177085213Y-113751249D02*
G01*
X177179652Y-113779897D01*
X177266687Y-113826418D01*
X177342975Y-113889025D01*
X177405582Y-113965313D01*
X177452103Y-114052348D01*
X177480751Y-114146787D01*
X177490424Y-114245000D01*
X177480751Y-114343213D01*
X177452103Y-114437652D01*
X177405582Y-114524687D01*
X177342975Y-114600975D01*
X177266687Y-114663582D01*
X177179652Y-114710103D01*
X177085213Y-114738751D01*
X177011612Y-114746000D01*
X175862388Y-114746000D01*
X175788787Y-114738751D01*
X175694348Y-114710103D01*
X175607313Y-114663582D01*
X175531025Y-114600975D01*
X175468418Y-114524687D01*
X175421897Y-114437652D01*
X175393249Y-114343213D01*
X175383576Y-114245000D01*
X175393249Y-114146787D01*
X175421897Y-114052348D01*
X175468418Y-113965313D01*
X175531025Y-113889025D01*
X175607313Y-113826418D01*
X175694348Y-113779897D01*
X175788787Y-113751249D01*
X175862388Y-113744000D01*
X177011612Y-113744000D01*
X177085213Y-113751249D01*
X177085213Y-113751249D01*
G37*
G36*
X195085213Y-113751249D02*
G01*
X195179652Y-113779897D01*
X195266687Y-113826418D01*
X195342975Y-113889025D01*
X195405582Y-113965313D01*
X195452103Y-114052348D01*
X195480751Y-114146787D01*
X195490424Y-114245000D01*
X195480751Y-114343213D01*
X195452103Y-114437652D01*
X195405582Y-114524687D01*
X195342975Y-114600975D01*
X195266687Y-114663582D01*
X195179652Y-114710103D01*
X195085213Y-114738751D01*
X195011612Y-114746000D01*
X193862388Y-114746000D01*
X193788787Y-114738751D01*
X193694348Y-114710103D01*
X193607313Y-114663582D01*
X193531025Y-114600975D01*
X193468418Y-114524687D01*
X193421897Y-114437652D01*
X193393249Y-114343213D01*
X193383576Y-114245000D01*
X193393249Y-114146787D01*
X193421897Y-114052348D01*
X193468418Y-113965313D01*
X193531025Y-113889025D01*
X193607313Y-113826418D01*
X193694348Y-113779897D01*
X193788787Y-113751249D01*
X193862388Y-113744000D01*
X195011612Y-113744000D01*
X195085213Y-113751249D01*
X195085213Y-113751249D01*
G37*
G36*
X197101938Y-113871716D02*
G01*
X197122557Y-113877971D01*
X197141553Y-113888124D01*
X197158208Y-113901792D01*
X197171876Y-113918447D01*
X197182029Y-113937443D01*
X197188284Y-113958062D01*
X197191000Y-113985640D01*
X197191000Y-114494360D01*
X197188284Y-114521938D01*
X197182029Y-114542557D01*
X197171876Y-114561553D01*
X197158208Y-114578208D01*
X197141553Y-114591876D01*
X197122557Y-114602029D01*
X197101938Y-114608284D01*
X197074360Y-114611000D01*
X196615640Y-114611000D01*
X196588062Y-114608284D01*
X196567443Y-114602029D01*
X196548447Y-114591876D01*
X196531792Y-114578208D01*
X196518124Y-114561553D01*
X196507971Y-114542557D01*
X196501716Y-114521938D01*
X196499000Y-114494360D01*
X196499000Y-113985640D01*
X196501716Y-113958062D01*
X196507971Y-113937443D01*
X196518124Y-113918447D01*
X196531792Y-113901792D01*
X196548447Y-113888124D01*
X196567443Y-113877971D01*
X196588062Y-113871716D01*
X196615640Y-113869000D01*
X197074360Y-113869000D01*
X197101938Y-113871716D01*
X197101938Y-113871716D01*
G37*
G36*
X198071938Y-113871716D02*
G01*
X198092557Y-113877971D01*
X198111553Y-113888124D01*
X198128208Y-113901792D01*
X198141876Y-113918447D01*
X198152029Y-113937443D01*
X198158284Y-113958062D01*
X198161000Y-113985640D01*
X198161000Y-114494360D01*
X198158284Y-114521938D01*
X198152029Y-114542557D01*
X198141876Y-114561553D01*
X198128208Y-114578208D01*
X198111553Y-114591876D01*
X198092557Y-114602029D01*
X198071938Y-114608284D01*
X198044360Y-114611000D01*
X197585640Y-114611000D01*
X197558062Y-114608284D01*
X197537443Y-114602029D01*
X197518447Y-114591876D01*
X197501792Y-114578208D01*
X197488124Y-114561553D01*
X197477971Y-114542557D01*
X197471716Y-114521938D01*
X197469000Y-114494360D01*
X197469000Y-113985640D01*
X197471716Y-113958062D01*
X197477971Y-113937443D01*
X197488124Y-113918447D01*
X197501792Y-113901792D01*
X197518447Y-113888124D01*
X197537443Y-113877971D01*
X197558062Y-113871716D01*
X197585640Y-113869000D01*
X198044360Y-113869000D01*
X198071938Y-113871716D01*
X198071938Y-113871716D01*
G37*
G36*
X186518000Y-114366000D02*
G01*
X182116000Y-114366000D01*
X182116000Y-109964000D01*
X186518000Y-109964000D01*
X186518000Y-114366000D01*
X186518000Y-114366000D01*
G37*
G36*
X170456301Y-112319782D02*
G01*
X170477382Y-112326178D01*
X170496818Y-112336566D01*
X170518615Y-112354454D01*
X170846520Y-112682359D01*
X170864408Y-112704156D01*
X170874796Y-112723592D01*
X170881192Y-112744673D01*
X170883351Y-112766601D01*
X170881192Y-112788529D01*
X170874796Y-112809610D01*
X170864408Y-112829046D01*
X170846520Y-112850843D01*
X169564021Y-114133342D01*
X169542224Y-114151230D01*
X169522788Y-114161618D01*
X169501707Y-114168014D01*
X169479779Y-114170173D01*
X169457851Y-114168014D01*
X169436770Y-114161618D01*
X169417334Y-114151230D01*
X169395537Y-114133342D01*
X169067632Y-113805437D01*
X169049744Y-113783640D01*
X169039356Y-113764204D01*
X169032960Y-113743123D01*
X169030801Y-113721195D01*
X169032960Y-113699267D01*
X169039356Y-113678186D01*
X169049744Y-113658750D01*
X169067632Y-113636953D01*
X170350131Y-112354454D01*
X170371928Y-112336566D01*
X170391364Y-112326178D01*
X170412445Y-112319782D01*
X170434373Y-112317623D01*
X170456301Y-112319782D01*
X170456301Y-112319782D01*
G37*
G36*
X201329499Y-112678445D02*
G01*
X201366995Y-112689820D01*
X201401554Y-112708292D01*
X201431847Y-112733153D01*
X201456708Y-112763446D01*
X201475180Y-112798005D01*
X201486555Y-112835501D01*
X201491000Y-112880638D01*
X201491000Y-113519362D01*
X201486555Y-113564499D01*
X201475180Y-113601995D01*
X201456708Y-113636554D01*
X201431847Y-113666847D01*
X201401554Y-113691708D01*
X201366995Y-113710180D01*
X201329499Y-113721555D01*
X201284362Y-113726000D01*
X200545638Y-113726000D01*
X200500501Y-113721555D01*
X200463005Y-113710180D01*
X200428446Y-113691708D01*
X200398153Y-113666847D01*
X200373292Y-113636554D01*
X200354820Y-113601995D01*
X200343445Y-113564499D01*
X200339000Y-113519362D01*
X200339000Y-112880638D01*
X200343445Y-112835501D01*
X200354820Y-112798005D01*
X200373292Y-112763446D01*
X200398153Y-112733153D01*
X200428446Y-112708292D01*
X200463005Y-112689820D01*
X200500501Y-112678445D01*
X200545638Y-112674000D01*
X201284362Y-112674000D01*
X201329499Y-112678445D01*
X201329499Y-112678445D01*
G37*
G36*
X199579499Y-112678445D02*
G01*
X199616995Y-112689820D01*
X199651554Y-112708292D01*
X199681847Y-112733153D01*
X199706708Y-112763446D01*
X199725180Y-112798005D01*
X199736555Y-112835501D01*
X199741000Y-112880638D01*
X199741000Y-113519362D01*
X199736555Y-113564499D01*
X199725180Y-113601995D01*
X199706708Y-113636554D01*
X199681847Y-113666847D01*
X199651554Y-113691708D01*
X199616995Y-113710180D01*
X199579499Y-113721555D01*
X199534362Y-113726000D01*
X198795638Y-113726000D01*
X198750501Y-113721555D01*
X198713005Y-113710180D01*
X198678446Y-113691708D01*
X198648153Y-113666847D01*
X198623292Y-113636554D01*
X198604820Y-113601995D01*
X198593445Y-113564499D01*
X198589000Y-113519362D01*
X198589000Y-112880638D01*
X198593445Y-112835501D01*
X198604820Y-112798005D01*
X198623292Y-112763446D01*
X198648153Y-112733153D01*
X198678446Y-112708292D01*
X198713005Y-112689820D01*
X198750501Y-112678445D01*
X198795638Y-112674000D01*
X199534362Y-112674000D01*
X199579499Y-112678445D01*
X199579499Y-112678445D01*
G37*
G36*
X204944059Y-112829965D02*
G01*
X204129472Y-113644552D01*
X203597727Y-113112807D01*
X204412314Y-112298220D01*
X204944059Y-112829965D01*
X204944059Y-112829965D01*
G37*
G36*
X197104499Y-112423445D02*
G01*
X197141995Y-112434820D01*
X197176554Y-112453292D01*
X197206847Y-112478153D01*
X197231708Y-112508446D01*
X197250180Y-112543005D01*
X197261555Y-112580501D01*
X197266000Y-112625638D01*
X197266000Y-113364362D01*
X197261555Y-113409499D01*
X197250180Y-113446995D01*
X197231708Y-113481554D01*
X197206847Y-113511847D01*
X197176554Y-113536708D01*
X197141995Y-113555180D01*
X197104499Y-113566555D01*
X197059362Y-113571000D01*
X196420638Y-113571000D01*
X196375501Y-113566555D01*
X196338005Y-113555180D01*
X196303446Y-113536708D01*
X196273153Y-113511847D01*
X196248292Y-113481554D01*
X196229820Y-113446995D01*
X196218445Y-113409499D01*
X196214000Y-113364362D01*
X196214000Y-112625638D01*
X196218445Y-112580501D01*
X196229820Y-112543005D01*
X196248292Y-112508446D01*
X196273153Y-112478153D01*
X196303446Y-112453292D01*
X196338005Y-112434820D01*
X196375501Y-112423445D01*
X196420638Y-112419000D01*
X197059362Y-112419000D01*
X197104499Y-112423445D01*
X197104499Y-112423445D01*
G37*
G36*
X169558276Y-111421756D02*
G01*
X169579357Y-111428152D01*
X169598793Y-111438540D01*
X169620590Y-111456428D01*
X169948495Y-111784333D01*
X169966383Y-111806130D01*
X169976771Y-111825566D01*
X169983167Y-111846647D01*
X169985326Y-111868575D01*
X169983167Y-111890503D01*
X169976771Y-111911584D01*
X169966383Y-111931020D01*
X169948495Y-111952817D01*
X168665996Y-113235316D01*
X168644199Y-113253204D01*
X168624763Y-113263592D01*
X168603682Y-113269988D01*
X168581754Y-113272147D01*
X168559826Y-113269988D01*
X168538745Y-113263592D01*
X168519309Y-113253204D01*
X168497512Y-113235316D01*
X168169607Y-112907411D01*
X168151719Y-112885614D01*
X168141331Y-112866178D01*
X168134935Y-112845097D01*
X168132776Y-112823169D01*
X168134935Y-112801241D01*
X168141331Y-112780160D01*
X168151719Y-112760724D01*
X168169607Y-112738927D01*
X169452106Y-111456428D01*
X169473903Y-111438540D01*
X169493339Y-111428152D01*
X169514420Y-111421756D01*
X169536348Y-111419597D01*
X169558276Y-111421756D01*
X169558276Y-111421756D01*
G37*
G36*
X177085213Y-112251249D02*
G01*
X177179652Y-112279897D01*
X177266687Y-112326418D01*
X177342975Y-112389025D01*
X177405582Y-112465313D01*
X177452103Y-112552348D01*
X177480751Y-112646787D01*
X177490424Y-112745000D01*
X177480751Y-112843213D01*
X177452103Y-112937652D01*
X177405582Y-113024687D01*
X177342975Y-113100975D01*
X177266687Y-113163582D01*
X177179652Y-113210103D01*
X177085213Y-113238751D01*
X177011612Y-113246000D01*
X175862388Y-113246000D01*
X175788787Y-113238751D01*
X175694348Y-113210103D01*
X175607313Y-113163582D01*
X175531025Y-113100975D01*
X175468418Y-113024687D01*
X175421897Y-112937652D01*
X175393249Y-112843213D01*
X175383576Y-112745000D01*
X175393249Y-112646787D01*
X175421897Y-112552348D01*
X175468418Y-112465313D01*
X175531025Y-112389025D01*
X175607313Y-112326418D01*
X175694348Y-112279897D01*
X175788787Y-112251249D01*
X175862388Y-112244000D01*
X177011612Y-112244000D01*
X177085213Y-112251249D01*
X177085213Y-112251249D01*
G37*
G36*
X195085213Y-112251249D02*
G01*
X195179652Y-112279897D01*
X195266687Y-112326418D01*
X195342975Y-112389025D01*
X195405582Y-112465313D01*
X195452103Y-112552348D01*
X195480751Y-112646787D01*
X195490424Y-112745000D01*
X195480751Y-112843213D01*
X195452103Y-112937652D01*
X195405582Y-113024687D01*
X195342975Y-113100975D01*
X195266687Y-113163582D01*
X195179652Y-113210103D01*
X195085213Y-113238751D01*
X195011612Y-113246000D01*
X193862388Y-113246000D01*
X193788787Y-113238751D01*
X193694348Y-113210103D01*
X193607313Y-113163582D01*
X193531025Y-113100975D01*
X193468418Y-113024687D01*
X193421897Y-112937652D01*
X193393249Y-112843213D01*
X193383576Y-112745000D01*
X193393249Y-112646787D01*
X193421897Y-112552348D01*
X193468418Y-112465313D01*
X193531025Y-112389025D01*
X193607313Y-112326418D01*
X193694348Y-112279897D01*
X193788787Y-112251249D01*
X193862388Y-112244000D01*
X195011612Y-112244000D01*
X195085213Y-112251249D01*
X195085213Y-112251249D01*
G37*
G36*
X163015636Y-111596981D02*
G01*
X163053132Y-111608356D01*
X163087691Y-111626828D01*
X163122755Y-111655604D01*
X163574396Y-112107245D01*
X163603172Y-112142309D01*
X163621644Y-112176868D01*
X163633019Y-112214364D01*
X163636859Y-112253363D01*
X163633019Y-112292362D01*
X163621644Y-112329858D01*
X163603172Y-112364417D01*
X163574396Y-112399481D01*
X163052045Y-112921832D01*
X163016981Y-112950608D01*
X162982422Y-112969080D01*
X162944926Y-112980455D01*
X162905927Y-112984295D01*
X162866928Y-112980455D01*
X162829432Y-112969080D01*
X162794873Y-112950608D01*
X162759809Y-112921832D01*
X162308168Y-112470191D01*
X162279392Y-112435127D01*
X162260920Y-112400568D01*
X162249545Y-112363072D01*
X162245705Y-112324073D01*
X162249545Y-112285074D01*
X162260920Y-112247578D01*
X162279392Y-112213019D01*
X162308168Y-112177955D01*
X162830519Y-111655604D01*
X162865583Y-111626828D01*
X162900142Y-111608356D01*
X162937638Y-111596981D01*
X162976637Y-111593141D01*
X163015636Y-111596981D01*
X163015636Y-111596981D01*
G37*
G36*
X168660250Y-110523731D02*
G01*
X168681331Y-110530127D01*
X168700767Y-110540515D01*
X168722564Y-110558403D01*
X169050469Y-110886308D01*
X169068357Y-110908105D01*
X169078745Y-110927541D01*
X169085141Y-110948622D01*
X169087300Y-110970550D01*
X169085141Y-110992478D01*
X169078745Y-111013559D01*
X169068357Y-111032995D01*
X169050469Y-111054792D01*
X167767970Y-112337291D01*
X167746173Y-112355179D01*
X167726737Y-112365567D01*
X167705656Y-112371963D01*
X167683728Y-112374122D01*
X167661800Y-112371963D01*
X167640719Y-112365567D01*
X167621283Y-112355179D01*
X167599486Y-112337291D01*
X167271581Y-112009386D01*
X167253693Y-111987589D01*
X167243305Y-111968153D01*
X167236909Y-111947072D01*
X167234750Y-111925144D01*
X167236909Y-111903216D01*
X167243305Y-111882135D01*
X167253693Y-111862699D01*
X167271581Y-111840902D01*
X168554080Y-110558403D01*
X168575877Y-110540515D01*
X168595313Y-110530127D01*
X168616394Y-110523731D01*
X168638322Y-110521572D01*
X168660250Y-110523731D01*
X168660250Y-110523731D01*
G37*
G36*
X203423780Y-111309686D02*
G01*
X202609193Y-112124273D01*
X202077448Y-111592528D01*
X202892035Y-110777941D01*
X203423780Y-111309686D01*
X203423780Y-111309686D01*
G37*
G36*
X200976000Y-112001000D02*
G01*
X200224000Y-112001000D01*
X200224000Y-110679000D01*
X200976000Y-110679000D01*
X200976000Y-112001000D01*
X200976000Y-112001000D01*
G37*
G36*
X199076000Y-112001000D02*
G01*
X198324000Y-112001000D01*
X198324000Y-110679000D01*
X199076000Y-110679000D01*
X199076000Y-112001000D01*
X199076000Y-112001000D01*
G37*
G36*
X197104499Y-110673445D02*
G01*
X197141995Y-110684820D01*
X197176554Y-110703292D01*
X197206847Y-110728153D01*
X197231708Y-110758446D01*
X197250180Y-110793005D01*
X197261555Y-110830501D01*
X197266000Y-110875638D01*
X197266000Y-111614362D01*
X197261555Y-111659499D01*
X197250180Y-111696995D01*
X197231708Y-111731554D01*
X197206847Y-111761847D01*
X197176554Y-111786708D01*
X197141995Y-111805180D01*
X197104499Y-111816555D01*
X197059362Y-111821000D01*
X196420638Y-111821000D01*
X196375501Y-111816555D01*
X196338005Y-111805180D01*
X196303446Y-111786708D01*
X196273153Y-111761847D01*
X196248292Y-111731554D01*
X196229820Y-111696995D01*
X196218445Y-111659499D01*
X196214000Y-111614362D01*
X196214000Y-110875638D01*
X196218445Y-110830501D01*
X196229820Y-110793005D01*
X196248292Y-110758446D01*
X196273153Y-110728153D01*
X196303446Y-110703292D01*
X196338005Y-110684820D01*
X196375501Y-110673445D01*
X196420638Y-110669000D01*
X197059362Y-110669000D01*
X197104499Y-110673445D01*
X197104499Y-110673445D01*
G37*
G36*
X164253072Y-110359545D02*
G01*
X164290568Y-110370920D01*
X164325127Y-110389392D01*
X164360191Y-110418168D01*
X164811832Y-110869809D01*
X164840608Y-110904873D01*
X164859080Y-110939432D01*
X164870455Y-110976928D01*
X164874295Y-111015927D01*
X164870455Y-111054926D01*
X164859080Y-111092422D01*
X164840608Y-111126981D01*
X164811832Y-111162045D01*
X164289481Y-111684396D01*
X164254417Y-111713172D01*
X164219858Y-111731644D01*
X164182362Y-111743019D01*
X164143363Y-111746859D01*
X164104364Y-111743019D01*
X164066868Y-111731644D01*
X164032309Y-111713172D01*
X163997245Y-111684396D01*
X163545604Y-111232755D01*
X163516828Y-111197691D01*
X163498356Y-111163132D01*
X163486981Y-111125636D01*
X163483141Y-111086637D01*
X163486981Y-111047638D01*
X163498356Y-111010142D01*
X163516828Y-110975583D01*
X163545604Y-110940519D01*
X164067955Y-110418168D01*
X164103019Y-110389392D01*
X164137578Y-110370920D01*
X164175074Y-110359545D01*
X164214073Y-110355705D01*
X164253072Y-110359545D01*
X164253072Y-110359545D01*
G37*
G36*
X195085213Y-110751249D02*
G01*
X195179652Y-110779897D01*
X195266687Y-110826418D01*
X195342975Y-110889025D01*
X195405582Y-110965313D01*
X195452103Y-111052348D01*
X195480751Y-111146787D01*
X195490424Y-111245000D01*
X195480751Y-111343213D01*
X195452103Y-111437652D01*
X195405582Y-111524687D01*
X195342975Y-111600975D01*
X195266687Y-111663582D01*
X195179652Y-111710103D01*
X195085213Y-111738751D01*
X195011612Y-111746000D01*
X193862388Y-111746000D01*
X193788787Y-111738751D01*
X193694348Y-111710103D01*
X193607313Y-111663582D01*
X193531025Y-111600975D01*
X193468418Y-111524687D01*
X193421897Y-111437652D01*
X193393249Y-111343213D01*
X193383576Y-111245000D01*
X193393249Y-111146787D01*
X193421897Y-111052348D01*
X193468418Y-110965313D01*
X193531025Y-110889025D01*
X193607313Y-110826418D01*
X193694348Y-110779897D01*
X193788787Y-110751249D01*
X193862388Y-110744000D01*
X195011612Y-110744000D01*
X195085213Y-110751249D01*
X195085213Y-110751249D01*
G37*
G36*
X177085213Y-110751249D02*
G01*
X177179652Y-110779897D01*
X177266687Y-110826418D01*
X177342975Y-110889025D01*
X177405582Y-110965313D01*
X177452103Y-111052348D01*
X177480751Y-111146787D01*
X177490424Y-111245000D01*
X177480751Y-111343213D01*
X177452103Y-111437652D01*
X177405582Y-111524687D01*
X177342975Y-111600975D01*
X177266687Y-111663582D01*
X177179652Y-111710103D01*
X177085213Y-111738751D01*
X177011612Y-111746000D01*
X175862388Y-111746000D01*
X175788787Y-111738751D01*
X175694348Y-111710103D01*
X175607313Y-111663582D01*
X175531025Y-111600975D01*
X175468418Y-111524687D01*
X175421897Y-111437652D01*
X175393249Y-111343213D01*
X175383576Y-111245000D01*
X175393249Y-111146787D01*
X175421897Y-111052348D01*
X175468418Y-110965313D01*
X175531025Y-110889025D01*
X175607313Y-110826418D01*
X175694348Y-110779897D01*
X175788787Y-110751249D01*
X175862388Y-110744000D01*
X177011612Y-110744000D01*
X177085213Y-110751249D01*
X177085213Y-110751249D01*
G37*
G36*
X167762225Y-109625705D02*
G01*
X167783306Y-109632101D01*
X167802742Y-109642489D01*
X167824539Y-109660377D01*
X168152444Y-109988282D01*
X168170332Y-110010079D01*
X168180720Y-110029515D01*
X168187116Y-110050596D01*
X168189275Y-110072524D01*
X168187116Y-110094452D01*
X168180720Y-110115533D01*
X168170332Y-110134969D01*
X168152444Y-110156766D01*
X166869945Y-111439265D01*
X166848148Y-111457153D01*
X166828712Y-111467541D01*
X166807631Y-111473937D01*
X166785703Y-111476096D01*
X166763775Y-111473937D01*
X166742694Y-111467541D01*
X166723258Y-111457153D01*
X166701461Y-111439265D01*
X166373556Y-111111360D01*
X166355668Y-111089563D01*
X166345280Y-111070127D01*
X166338884Y-111049046D01*
X166336725Y-111027118D01*
X166338884Y-111005190D01*
X166345280Y-110984109D01*
X166355668Y-110964673D01*
X166373556Y-110942876D01*
X167656055Y-109660377D01*
X167677852Y-109642489D01*
X167697288Y-109632101D01*
X167718369Y-109625705D01*
X167740297Y-109623546D01*
X167762225Y-109625705D01*
X167762225Y-109625705D01*
G37*
G36*
X171163826Y-109578198D02*
G01*
X169748198Y-110993826D01*
X169393230Y-110638858D01*
X170808858Y-109223230D01*
X171163826Y-109578198D01*
X171163826Y-109578198D01*
G37*
G36*
X207878552Y-109895472D02*
G01*
X207063965Y-110710059D01*
X206532220Y-110178314D01*
X207346807Y-109363727D01*
X207878552Y-109895472D01*
X207878552Y-109895472D01*
G37*
G36*
X195085213Y-109251249D02*
G01*
X195179652Y-109279897D01*
X195266687Y-109326418D01*
X195342975Y-109389025D01*
X195405582Y-109465313D01*
X195452103Y-109552348D01*
X195480751Y-109646787D01*
X195490424Y-109745000D01*
X195480751Y-109843213D01*
X195452103Y-109937652D01*
X195405582Y-110024687D01*
X195342975Y-110100975D01*
X195266687Y-110163582D01*
X195179652Y-110210103D01*
X195085213Y-110238751D01*
X195011612Y-110246000D01*
X193862388Y-110246000D01*
X193788787Y-110238751D01*
X193694348Y-110210103D01*
X193607313Y-110163582D01*
X193531025Y-110100975D01*
X193468418Y-110024687D01*
X193421897Y-109937652D01*
X193393249Y-109843213D01*
X193383576Y-109745000D01*
X193393249Y-109646787D01*
X193421897Y-109552348D01*
X193468418Y-109465313D01*
X193531025Y-109389025D01*
X193607313Y-109326418D01*
X193694348Y-109279897D01*
X193788787Y-109251249D01*
X193862388Y-109244000D01*
X195011612Y-109244000D01*
X195085213Y-109251249D01*
X195085213Y-109251249D01*
G37*
G36*
X177085213Y-109251249D02*
G01*
X177179652Y-109279897D01*
X177266687Y-109326418D01*
X177342975Y-109389025D01*
X177405582Y-109465313D01*
X177452103Y-109552348D01*
X177480751Y-109646787D01*
X177490424Y-109745000D01*
X177480751Y-109843213D01*
X177452103Y-109937652D01*
X177405582Y-110024687D01*
X177342975Y-110100975D01*
X177266687Y-110163582D01*
X177179652Y-110210103D01*
X177085213Y-110238751D01*
X177011612Y-110246000D01*
X175862388Y-110246000D01*
X175788787Y-110238751D01*
X175694348Y-110210103D01*
X175607313Y-110163582D01*
X175531025Y-110100975D01*
X175468418Y-110024687D01*
X175421897Y-109937652D01*
X175393249Y-109843213D01*
X175383576Y-109745000D01*
X175393249Y-109646787D01*
X175421897Y-109552348D01*
X175468418Y-109465313D01*
X175531025Y-109389025D01*
X175607313Y-109326418D01*
X175694348Y-109279897D01*
X175788787Y-109251249D01*
X175862388Y-109244000D01*
X177011612Y-109244000D01*
X177085213Y-109251249D01*
X177085213Y-109251249D01*
G37*
G36*
X170315298Y-108729670D02*
G01*
X168899670Y-110145298D01*
X168544702Y-109790330D01*
X169960330Y-108374702D01*
X170315298Y-108729670D01*
X170315298Y-108729670D01*
G37*
G36*
X200026000Y-109381000D02*
G01*
X199274000Y-109381000D01*
X199274000Y-108059000D01*
X200026000Y-108059000D01*
X200026000Y-109381000D01*
X200026000Y-109381000D01*
G37*
G36*
X169466770Y-107881142D02*
G01*
X168051142Y-109296770D01*
X167696174Y-108941802D01*
X169111802Y-107526174D01*
X169466770Y-107881142D01*
X169466770Y-107881142D01*
G37*
G36*
X206358273Y-108375193D02*
G01*
X205543686Y-109189780D01*
X205011941Y-108658035D01*
X205826528Y-107843448D01*
X206358273Y-108375193D01*
X206358273Y-108375193D01*
G37*
G36*
X203574499Y-107858445D02*
G01*
X203611995Y-107869820D01*
X203646554Y-107888292D01*
X203676847Y-107913153D01*
X203701708Y-107943446D01*
X203720180Y-107978005D01*
X203731555Y-108015501D01*
X203736000Y-108060638D01*
X203736000Y-108699362D01*
X203731555Y-108744499D01*
X203720180Y-108781995D01*
X203701708Y-108816554D01*
X203676847Y-108846847D01*
X203646554Y-108871708D01*
X203611995Y-108890180D01*
X203574499Y-108901555D01*
X203529362Y-108906000D01*
X202790638Y-108906000D01*
X202745501Y-108901555D01*
X202708005Y-108890180D01*
X202673446Y-108871708D01*
X202643153Y-108846847D01*
X202618292Y-108816554D01*
X202599820Y-108781995D01*
X202588445Y-108744499D01*
X202584000Y-108699362D01*
X202584000Y-108060638D01*
X202588445Y-108015501D01*
X202599820Y-107978005D01*
X202618292Y-107943446D01*
X202643153Y-107913153D01*
X202673446Y-107888292D01*
X202708005Y-107869820D01*
X202745501Y-107858445D01*
X202790638Y-107854000D01*
X203529362Y-107854000D01*
X203574499Y-107858445D01*
X203574499Y-107858445D01*
G37*
G36*
X201824499Y-107858445D02*
G01*
X201861995Y-107869820D01*
X201896554Y-107888292D01*
X201926847Y-107913153D01*
X201951708Y-107943446D01*
X201970180Y-107978005D01*
X201981555Y-108015501D01*
X201986000Y-108060638D01*
X201986000Y-108699362D01*
X201981555Y-108744499D01*
X201970180Y-108781995D01*
X201951708Y-108816554D01*
X201926847Y-108846847D01*
X201896554Y-108871708D01*
X201861995Y-108890180D01*
X201824499Y-108901555D01*
X201779362Y-108906000D01*
X201040638Y-108906000D01*
X200995501Y-108901555D01*
X200958005Y-108890180D01*
X200923446Y-108871708D01*
X200893153Y-108846847D01*
X200868292Y-108816554D01*
X200849820Y-108781995D01*
X200838445Y-108744499D01*
X200834000Y-108699362D01*
X200834000Y-108060638D01*
X200838445Y-108015501D01*
X200849820Y-107978005D01*
X200868292Y-107943446D01*
X200893153Y-107913153D01*
X200923446Y-107888292D01*
X200958005Y-107869820D01*
X200995501Y-107858445D01*
X201040638Y-107854000D01*
X201779362Y-107854000D01*
X201824499Y-107858445D01*
X201824499Y-107858445D01*
G37*
G36*
X195085213Y-107751249D02*
G01*
X195179652Y-107779897D01*
X195266687Y-107826418D01*
X195342975Y-107889025D01*
X195405582Y-107965313D01*
X195452103Y-108052348D01*
X195480751Y-108146787D01*
X195490424Y-108245000D01*
X195480751Y-108343213D01*
X195452103Y-108437652D01*
X195405582Y-108524687D01*
X195342975Y-108600975D01*
X195266687Y-108663582D01*
X195179652Y-108710103D01*
X195085213Y-108738751D01*
X195011612Y-108746000D01*
X193862388Y-108746000D01*
X193788787Y-108738751D01*
X193694348Y-108710103D01*
X193607313Y-108663582D01*
X193531025Y-108600975D01*
X193468418Y-108524687D01*
X193421897Y-108437652D01*
X193393249Y-108343213D01*
X193383576Y-108245000D01*
X193393249Y-108146787D01*
X193421897Y-108052348D01*
X193468418Y-107965313D01*
X193531025Y-107889025D01*
X193607313Y-107826418D01*
X193694348Y-107779897D01*
X193788787Y-107751249D01*
X193862388Y-107744000D01*
X195011612Y-107744000D01*
X195085213Y-107751249D01*
X195085213Y-107751249D01*
G37*
G36*
X177085213Y-107751249D02*
G01*
X177179652Y-107779897D01*
X177266687Y-107826418D01*
X177342975Y-107889025D01*
X177405582Y-107965313D01*
X177452103Y-108052348D01*
X177480751Y-108146787D01*
X177490424Y-108245000D01*
X177480751Y-108343213D01*
X177452103Y-108437652D01*
X177405582Y-108524687D01*
X177342975Y-108600975D01*
X177266687Y-108663582D01*
X177179652Y-108710103D01*
X177085213Y-108738751D01*
X177011612Y-108746000D01*
X175862388Y-108746000D01*
X175788787Y-108738751D01*
X175694348Y-108710103D01*
X175607313Y-108663582D01*
X175531025Y-108600975D01*
X175468418Y-108524687D01*
X175421897Y-108437652D01*
X175393249Y-108343213D01*
X175383576Y-108245000D01*
X175393249Y-108146787D01*
X175421897Y-108052348D01*
X175468418Y-107965313D01*
X175531025Y-107889025D01*
X175607313Y-107826418D01*
X175694348Y-107779897D01*
X175788787Y-107751249D01*
X175862388Y-107744000D01*
X177011612Y-107744000D01*
X177085213Y-107751249D01*
X177085213Y-107751249D01*
G37*
G36*
X203686000Y-107521000D02*
G01*
X202934000Y-107521000D01*
X202934000Y-106199000D01*
X203686000Y-106199000D01*
X203686000Y-107521000D01*
X203686000Y-107521000D01*
G37*
G36*
X201786000Y-107521000D02*
G01*
X201034000Y-107521000D01*
X201034000Y-106199000D01*
X201786000Y-106199000D01*
X201786000Y-107521000D01*
X201786000Y-107521000D01*
G37*
G36*
X205591938Y-106591716D02*
G01*
X205612557Y-106597971D01*
X205631553Y-106608124D01*
X205648208Y-106621792D01*
X205661876Y-106638447D01*
X205672029Y-106657443D01*
X205678284Y-106678062D01*
X205681000Y-106705640D01*
X205681000Y-107164360D01*
X205678284Y-107191938D01*
X205672029Y-107212557D01*
X205661876Y-107231553D01*
X205648208Y-107248208D01*
X205631553Y-107261876D01*
X205612557Y-107272029D01*
X205591938Y-107278284D01*
X205564360Y-107281000D01*
X205055640Y-107281000D01*
X205028062Y-107278284D01*
X205007443Y-107272029D01*
X204988447Y-107261876D01*
X204971792Y-107248208D01*
X204958124Y-107231553D01*
X204947971Y-107212557D01*
X204941716Y-107191938D01*
X204939000Y-107164360D01*
X204939000Y-106705640D01*
X204941716Y-106678062D01*
X204947971Y-106657443D01*
X204958124Y-106638447D01*
X204971792Y-106621792D01*
X204988447Y-106608124D01*
X205007443Y-106597971D01*
X205028062Y-106591716D01*
X205055640Y-106589000D01*
X205564360Y-106589000D01*
X205591938Y-106591716D01*
X205591938Y-106591716D01*
G37*
G36*
X195085213Y-106251249D02*
G01*
X195179652Y-106279897D01*
X195266687Y-106326418D01*
X195342975Y-106389025D01*
X195405582Y-106465313D01*
X195452103Y-106552348D01*
X195480751Y-106646787D01*
X195490424Y-106745000D01*
X195480751Y-106843213D01*
X195452103Y-106937652D01*
X195405582Y-107024687D01*
X195342975Y-107100975D01*
X195266687Y-107163582D01*
X195179652Y-107210103D01*
X195085213Y-107238751D01*
X195011612Y-107246000D01*
X193862388Y-107246000D01*
X193788787Y-107238751D01*
X193694348Y-107210103D01*
X193607313Y-107163582D01*
X193531025Y-107100975D01*
X193468418Y-107024687D01*
X193421897Y-106937652D01*
X193393249Y-106843213D01*
X193383576Y-106745000D01*
X193393249Y-106646787D01*
X193421897Y-106552348D01*
X193468418Y-106465313D01*
X193531025Y-106389025D01*
X193607313Y-106326418D01*
X193694348Y-106279897D01*
X193788787Y-106251249D01*
X193862388Y-106244000D01*
X195011612Y-106244000D01*
X195085213Y-106251249D01*
X195085213Y-106251249D01*
G37*
G36*
X177085213Y-106251249D02*
G01*
X177179652Y-106279897D01*
X177266687Y-106326418D01*
X177342975Y-106389025D01*
X177405582Y-106465313D01*
X177452103Y-106552348D01*
X177480751Y-106646787D01*
X177490424Y-106745000D01*
X177480751Y-106843213D01*
X177452103Y-106937652D01*
X177405582Y-107024687D01*
X177342975Y-107100975D01*
X177266687Y-107163582D01*
X177179652Y-107210103D01*
X177085213Y-107238751D01*
X177011612Y-107246000D01*
X175862388Y-107246000D01*
X175788787Y-107238751D01*
X175694348Y-107210103D01*
X175607313Y-107163582D01*
X175531025Y-107100975D01*
X175468418Y-107024687D01*
X175421897Y-106937652D01*
X175393249Y-106843213D01*
X175383576Y-106745000D01*
X175393249Y-106646787D01*
X175421897Y-106552348D01*
X175468418Y-106465313D01*
X175531025Y-106389025D01*
X175607313Y-106326418D01*
X175694348Y-106279897D01*
X175788787Y-106251249D01*
X175862388Y-106244000D01*
X177011612Y-106244000D01*
X177085213Y-106251249D01*
X177085213Y-106251249D01*
G37*
G36*
X206944499Y-106033445D02*
G01*
X206981995Y-106044820D01*
X207016554Y-106063292D01*
X207046847Y-106088153D01*
X207071708Y-106118446D01*
X207090180Y-106153005D01*
X207101555Y-106190501D01*
X207106000Y-106235638D01*
X207106000Y-106974362D01*
X207101555Y-107019499D01*
X207090180Y-107056995D01*
X207071708Y-107091554D01*
X207046847Y-107121847D01*
X207016554Y-107146708D01*
X206981995Y-107165180D01*
X206944499Y-107176555D01*
X206899362Y-107181000D01*
X206260638Y-107181000D01*
X206215501Y-107176555D01*
X206178005Y-107165180D01*
X206143446Y-107146708D01*
X206113153Y-107121847D01*
X206088292Y-107091554D01*
X206069820Y-107056995D01*
X206058445Y-107019499D01*
X206054000Y-106974362D01*
X206054000Y-106235638D01*
X206058445Y-106190501D01*
X206069820Y-106153005D01*
X206088292Y-106118446D01*
X206113153Y-106088153D01*
X206143446Y-106063292D01*
X206178005Y-106044820D01*
X206215501Y-106033445D01*
X206260638Y-106029000D01*
X206899362Y-106029000D01*
X206944499Y-106033445D01*
X206944499Y-106033445D01*
G37*
G36*
X170452362Y-105161981D02*
G01*
X170489858Y-105173356D01*
X170524417Y-105191828D01*
X170559481Y-105220604D01*
X171081832Y-105742955D01*
X171110608Y-105778019D01*
X171129080Y-105812578D01*
X171140455Y-105850074D01*
X171144295Y-105889073D01*
X171140455Y-105928072D01*
X171129080Y-105965568D01*
X171110608Y-106000127D01*
X171081832Y-106035191D01*
X170630191Y-106486832D01*
X170595127Y-106515608D01*
X170560568Y-106534080D01*
X170523072Y-106545455D01*
X170484073Y-106549295D01*
X170445074Y-106545455D01*
X170407578Y-106534080D01*
X170373019Y-106515608D01*
X170337955Y-106486832D01*
X169815604Y-105964481D01*
X169786828Y-105929417D01*
X169768356Y-105894858D01*
X169756981Y-105857362D01*
X169753141Y-105818363D01*
X169756981Y-105779364D01*
X169768356Y-105741868D01*
X169786828Y-105707309D01*
X169815604Y-105672245D01*
X170267245Y-105220604D01*
X170302309Y-105191828D01*
X170336868Y-105173356D01*
X170374364Y-105161981D01*
X170413363Y-105158141D01*
X170452362Y-105161981D01*
X170452362Y-105161981D01*
G37*
G36*
X168221000Y-106446000D02*
G01*
X165669000Y-106446000D01*
X165669000Y-99294000D01*
X168221000Y-99294000D01*
X168221000Y-106446000D01*
X168221000Y-106446000D01*
G37*
G36*
X205591938Y-105621716D02*
G01*
X205612557Y-105627971D01*
X205631553Y-105638124D01*
X205648208Y-105651792D01*
X205661876Y-105668447D01*
X205672029Y-105687443D01*
X205678284Y-105708062D01*
X205681000Y-105735640D01*
X205681000Y-106194360D01*
X205678284Y-106221938D01*
X205672029Y-106242557D01*
X205661876Y-106261553D01*
X205648208Y-106278208D01*
X205631553Y-106291876D01*
X205612557Y-106302029D01*
X205591938Y-106308284D01*
X205564360Y-106311000D01*
X205055640Y-106311000D01*
X205028062Y-106308284D01*
X205007443Y-106302029D01*
X204988447Y-106291876D01*
X204971792Y-106278208D01*
X204958124Y-106261553D01*
X204947971Y-106242557D01*
X204941716Y-106221938D01*
X204939000Y-106194360D01*
X204939000Y-105735640D01*
X204941716Y-105708062D01*
X204947971Y-105687443D01*
X204958124Y-105668447D01*
X204971792Y-105651792D01*
X204988447Y-105638124D01*
X205007443Y-105627971D01*
X205028062Y-105621716D01*
X205055640Y-105619000D01*
X205564360Y-105619000D01*
X205591938Y-105621716D01*
X205591938Y-105621716D01*
G37*
G36*
X165109672Y-105398449D02*
G01*
X165109674Y-105398450D01*
X165109675Y-105398450D01*
X165178103Y-105426793D01*
X165239686Y-105467942D01*
X165292058Y-105520314D01*
X165333207Y-105581897D01*
X165361550Y-105650325D01*
X165361551Y-105650328D01*
X165376000Y-105722966D01*
X165376000Y-105797034D01*
X165364000Y-105857362D01*
X165361550Y-105869675D01*
X165333207Y-105938103D01*
X165292058Y-105999686D01*
X165239686Y-106052058D01*
X165178103Y-106093207D01*
X165109675Y-106121550D01*
X165109674Y-106121550D01*
X165109672Y-106121551D01*
X165037034Y-106136000D01*
X164962966Y-106136000D01*
X164890328Y-106121551D01*
X164890326Y-106121550D01*
X164890325Y-106121550D01*
X164821897Y-106093207D01*
X164760314Y-106052058D01*
X164707942Y-105999686D01*
X164666793Y-105938103D01*
X164638450Y-105869675D01*
X164636001Y-105857362D01*
X164624000Y-105797034D01*
X164624000Y-105722966D01*
X164638449Y-105650328D01*
X164638450Y-105650325D01*
X164666793Y-105581897D01*
X164707942Y-105520314D01*
X164760314Y-105467942D01*
X164821897Y-105426793D01*
X164890325Y-105398450D01*
X164890326Y-105398450D01*
X164890328Y-105398449D01*
X164962966Y-105384000D01*
X165037034Y-105384000D01*
X165109672Y-105398449D01*
X165109672Y-105398449D01*
G37*
G36*
X206944499Y-104283445D02*
G01*
X206981995Y-104294820D01*
X207016554Y-104313292D01*
X207046847Y-104338153D01*
X207071708Y-104368446D01*
X207090180Y-104403005D01*
X207101555Y-104440501D01*
X207106000Y-104485638D01*
X207106000Y-105224362D01*
X207101555Y-105269499D01*
X207090180Y-105306995D01*
X207071708Y-105341554D01*
X207046847Y-105371847D01*
X207016554Y-105396708D01*
X206981995Y-105415180D01*
X206944499Y-105426555D01*
X206899362Y-105431000D01*
X206260638Y-105431000D01*
X206215501Y-105426555D01*
X206178005Y-105415180D01*
X206143446Y-105396708D01*
X206113153Y-105371847D01*
X206088292Y-105341554D01*
X206069820Y-105306995D01*
X206058445Y-105269499D01*
X206054000Y-105224362D01*
X206054000Y-104485638D01*
X206058445Y-104440501D01*
X206069820Y-104403005D01*
X206088292Y-104368446D01*
X206113153Y-104338153D01*
X206143446Y-104313292D01*
X206178005Y-104294820D01*
X206215501Y-104283445D01*
X206260638Y-104279000D01*
X206899362Y-104279000D01*
X206944499Y-104283445D01*
X206944499Y-104283445D01*
G37*
G36*
X169214926Y-103924545D02*
G01*
X169252422Y-103935920D01*
X169286981Y-103954392D01*
X169322045Y-103983168D01*
X169844396Y-104505519D01*
X169873172Y-104540583D01*
X169891644Y-104575142D01*
X169903019Y-104612638D01*
X169906859Y-104651637D01*
X169903019Y-104690636D01*
X169891644Y-104728132D01*
X169873172Y-104762691D01*
X169844396Y-104797755D01*
X169392755Y-105249396D01*
X169357691Y-105278172D01*
X169323132Y-105296644D01*
X169285636Y-105308019D01*
X169246637Y-105311859D01*
X169207638Y-105308019D01*
X169170142Y-105296644D01*
X169135583Y-105278172D01*
X169100519Y-105249396D01*
X168578168Y-104727045D01*
X168549392Y-104691981D01*
X168530920Y-104657422D01*
X168519545Y-104619926D01*
X168515705Y-104580927D01*
X168519545Y-104541928D01*
X168530920Y-104504432D01*
X168549392Y-104469873D01*
X168578168Y-104434809D01*
X169029809Y-103983168D01*
X169064873Y-103954392D01*
X169099432Y-103935920D01*
X169136928Y-103924545D01*
X169175927Y-103920705D01*
X169214926Y-103924545D01*
X169214926Y-103924545D01*
G37*
G36*
X186958000Y-105032000D02*
G01*
X186156000Y-105032000D01*
X186156000Y-102930000D01*
X186958000Y-102930000D01*
X186958000Y-105032000D01*
X186958000Y-105032000D01*
G37*
G36*
X185688000Y-105032000D02*
G01*
X184886000Y-105032000D01*
X184886000Y-102930000D01*
X185688000Y-102930000D01*
X185688000Y-105032000D01*
X185688000Y-105032000D01*
G37*
G36*
X184418000Y-105032000D02*
G01*
X183616000Y-105032000D01*
X183616000Y-102930000D01*
X184418000Y-102930000D01*
X184418000Y-105032000D01*
X184418000Y-105032000D01*
G37*
G36*
X183148000Y-105032000D02*
G01*
X182346000Y-105032000D01*
X182346000Y-102930000D01*
X183148000Y-102930000D01*
X183148000Y-105032000D01*
X183148000Y-105032000D01*
G37*
G36*
X181878000Y-105032000D02*
G01*
X181076000Y-105032000D01*
X181076000Y-102930000D01*
X181878000Y-102930000D01*
X181878000Y-105032000D01*
X181878000Y-105032000D01*
G37*
G36*
X180608000Y-105032000D02*
G01*
X179806000Y-105032000D01*
X179806000Y-102930000D01*
X180608000Y-102930000D01*
X180608000Y-105032000D01*
X180608000Y-105032000D01*
G37*
G36*
X189498000Y-105032000D02*
G01*
X188696000Y-105032000D01*
X188696000Y-102930000D01*
X189498000Y-102930000D01*
X189498000Y-105032000D01*
X189498000Y-105032000D01*
G37*
G36*
X188228000Y-105032000D02*
G01*
X187426000Y-105032000D01*
X187426000Y-102930000D01*
X188228000Y-102930000D01*
X188228000Y-105032000D01*
X188228000Y-105032000D01*
G37*
G36*
X202736000Y-104901000D02*
G01*
X201984000Y-104901000D01*
X201984000Y-103579000D01*
X202736000Y-103579000D01*
X202736000Y-104901000D01*
X202736000Y-104901000D01*
G37*
G36*
X173403360Y-101256997D02*
G01*
X173581579Y-101292447D01*
X173882042Y-101416903D01*
X174152451Y-101597585D01*
X174382415Y-101827549D01*
X174563097Y-102097958D01*
X174646405Y-102299080D01*
X174687553Y-102398422D01*
X174751000Y-102717389D01*
X174751000Y-103042611D01*
X174714077Y-103228236D01*
X174687553Y-103361579D01*
X174563097Y-103662042D01*
X174382415Y-103932451D01*
X174152451Y-104162415D01*
X173882042Y-104343097D01*
X173581579Y-104467553D01*
X173517591Y-104480281D01*
X173262611Y-104531000D01*
X172937389Y-104531000D01*
X172682409Y-104480281D01*
X172618421Y-104467553D01*
X172317958Y-104343097D01*
X172047549Y-104162415D01*
X171817585Y-103932451D01*
X171636903Y-103662042D01*
X171512447Y-103361579D01*
X171485923Y-103228236D01*
X171449000Y-103042611D01*
X171449000Y-102717389D01*
X171512447Y-102398422D01*
X171553596Y-102299080D01*
X171636903Y-102097958D01*
X171817585Y-101827549D01*
X172047549Y-101597585D01*
X172317958Y-101416903D01*
X172618421Y-101292447D01*
X172796640Y-101256997D01*
X172937389Y-101229000D01*
X173262611Y-101229000D01*
X173403360Y-101256997D01*
X173403360Y-101256997D01*
G37*
G36*
X205694928Y-101181764D02*
G01*
X205716009Y-101188160D01*
X205735445Y-101198548D01*
X205752476Y-101212524D01*
X205766452Y-101229555D01*
X205776840Y-101248991D01*
X205783236Y-101270072D01*
X205786000Y-101298140D01*
X205786000Y-103111860D01*
X205783236Y-103139928D01*
X205776840Y-103161009D01*
X205766452Y-103180445D01*
X205752476Y-103197476D01*
X205735445Y-103211452D01*
X205716009Y-103221840D01*
X205694928Y-103228236D01*
X205666860Y-103231000D01*
X205203140Y-103231000D01*
X205175072Y-103228236D01*
X205153991Y-103221840D01*
X205134555Y-103211452D01*
X205117524Y-103197476D01*
X205103548Y-103180445D01*
X205093160Y-103161009D01*
X205086764Y-103139928D01*
X205084000Y-103111860D01*
X205084000Y-101298140D01*
X205086764Y-101270072D01*
X205093160Y-101248991D01*
X205103548Y-101229555D01*
X205117524Y-101212524D01*
X205134555Y-101198548D01*
X205153991Y-101188160D01*
X205175072Y-101181764D01*
X205203140Y-101179000D01*
X205666860Y-101179000D01*
X205694928Y-101181764D01*
X205694928Y-101181764D01*
G37*
G36*
X204424928Y-101181764D02*
G01*
X204446009Y-101188160D01*
X204465445Y-101198548D01*
X204482476Y-101212524D01*
X204496452Y-101229555D01*
X204506840Y-101248991D01*
X204513236Y-101270072D01*
X204516000Y-101298140D01*
X204516000Y-103111860D01*
X204513236Y-103139928D01*
X204506840Y-103161009D01*
X204496452Y-103180445D01*
X204482476Y-103197476D01*
X204465445Y-103211452D01*
X204446009Y-103221840D01*
X204424928Y-103228236D01*
X204396860Y-103231000D01*
X203933140Y-103231000D01*
X203905072Y-103228236D01*
X203883991Y-103221840D01*
X203864555Y-103211452D01*
X203847524Y-103197476D01*
X203833548Y-103180445D01*
X203823160Y-103161009D01*
X203816764Y-103139928D01*
X203814000Y-103111860D01*
X203814000Y-101298140D01*
X203816764Y-101270072D01*
X203823160Y-101248991D01*
X203833548Y-101229555D01*
X203847524Y-101212524D01*
X203864555Y-101198548D01*
X203883991Y-101188160D01*
X203905072Y-101181764D01*
X203933140Y-101179000D01*
X204396860Y-101179000D01*
X204424928Y-101181764D01*
X204424928Y-101181764D01*
G37*
G36*
X203154928Y-101181764D02*
G01*
X203176009Y-101188160D01*
X203195445Y-101198548D01*
X203212476Y-101212524D01*
X203226452Y-101229555D01*
X203236840Y-101248991D01*
X203243236Y-101270072D01*
X203246000Y-101298140D01*
X203246000Y-103111860D01*
X203243236Y-103139928D01*
X203236840Y-103161009D01*
X203226452Y-103180445D01*
X203212476Y-103197476D01*
X203195445Y-103211452D01*
X203176009Y-103221840D01*
X203154928Y-103228236D01*
X203126860Y-103231000D01*
X202663140Y-103231000D01*
X202635072Y-103228236D01*
X202613991Y-103221840D01*
X202594555Y-103211452D01*
X202577524Y-103197476D01*
X202563548Y-103180445D01*
X202553160Y-103161009D01*
X202546764Y-103139928D01*
X202544000Y-103111860D01*
X202544000Y-101298140D01*
X202546764Y-101270072D01*
X202553160Y-101248991D01*
X202563548Y-101229555D01*
X202577524Y-101212524D01*
X202594555Y-101198548D01*
X202613991Y-101188160D01*
X202635072Y-101181764D01*
X202663140Y-101179000D01*
X203126860Y-101179000D01*
X203154928Y-101181764D01*
X203154928Y-101181764D01*
G37*
G36*
X201884928Y-101181764D02*
G01*
X201906009Y-101188160D01*
X201925445Y-101198548D01*
X201942476Y-101212524D01*
X201956452Y-101229555D01*
X201966840Y-101248991D01*
X201973236Y-101270072D01*
X201976000Y-101298140D01*
X201976000Y-103111860D01*
X201973236Y-103139928D01*
X201966840Y-103161009D01*
X201956452Y-103180445D01*
X201942476Y-103197476D01*
X201925445Y-103211452D01*
X201906009Y-103221840D01*
X201884928Y-103228236D01*
X201856860Y-103231000D01*
X201393140Y-103231000D01*
X201365072Y-103228236D01*
X201343991Y-103221840D01*
X201324555Y-103211452D01*
X201307524Y-103197476D01*
X201293548Y-103180445D01*
X201283160Y-103161009D01*
X201276764Y-103139928D01*
X201274000Y-103111860D01*
X201274000Y-101298140D01*
X201276764Y-101270072D01*
X201283160Y-101248991D01*
X201293548Y-101229555D01*
X201307524Y-101212524D01*
X201324555Y-101198548D01*
X201343991Y-101188160D01*
X201365072Y-101181764D01*
X201393140Y-101179000D01*
X201856860Y-101179000D01*
X201884928Y-101181764D01*
X201884928Y-101181764D01*
G37*
G36*
X200614928Y-101181764D02*
G01*
X200636009Y-101188160D01*
X200655445Y-101198548D01*
X200672476Y-101212524D01*
X200686452Y-101229555D01*
X200696840Y-101248991D01*
X200703236Y-101270072D01*
X200706000Y-101298140D01*
X200706000Y-103111860D01*
X200703236Y-103139928D01*
X200696840Y-103161009D01*
X200686452Y-103180445D01*
X200672476Y-103197476D01*
X200655445Y-103211452D01*
X200636009Y-103221840D01*
X200614928Y-103228236D01*
X200586860Y-103231000D01*
X200123140Y-103231000D01*
X200095072Y-103228236D01*
X200073991Y-103221840D01*
X200054555Y-103211452D01*
X200037524Y-103197476D01*
X200023548Y-103180445D01*
X200013160Y-103161009D01*
X200006764Y-103139928D01*
X200004000Y-103111860D01*
X200004000Y-101298140D01*
X200006764Y-101270072D01*
X200013160Y-101248991D01*
X200023548Y-101229555D01*
X200037524Y-101212524D01*
X200054555Y-101198548D01*
X200073991Y-101188160D01*
X200095072Y-101181764D01*
X200123140Y-101179000D01*
X200586860Y-101179000D01*
X200614928Y-101181764D01*
X200614928Y-101181764D01*
G37*
G36*
X199344928Y-101181764D02*
G01*
X199366009Y-101188160D01*
X199385445Y-101198548D01*
X199402476Y-101212524D01*
X199416452Y-101229555D01*
X199426840Y-101248991D01*
X199433236Y-101270072D01*
X199436000Y-101298140D01*
X199436000Y-103111860D01*
X199433236Y-103139928D01*
X199426840Y-103161009D01*
X199416452Y-103180445D01*
X199402476Y-103197476D01*
X199385445Y-103211452D01*
X199366009Y-103221840D01*
X199344928Y-103228236D01*
X199316860Y-103231000D01*
X198853140Y-103231000D01*
X198825072Y-103228236D01*
X198803991Y-103221840D01*
X198784555Y-103211452D01*
X198767524Y-103197476D01*
X198753548Y-103180445D01*
X198743160Y-103161009D01*
X198736764Y-103139928D01*
X198734000Y-103111860D01*
X198734000Y-101298140D01*
X198736764Y-101270072D01*
X198743160Y-101248991D01*
X198753548Y-101229555D01*
X198767524Y-101212524D01*
X198784555Y-101198548D01*
X198803991Y-101188160D01*
X198825072Y-101181764D01*
X198853140Y-101179000D01*
X199316860Y-101179000D01*
X199344928Y-101181764D01*
X199344928Y-101181764D01*
G37*
G36*
X198074928Y-101181764D02*
G01*
X198096009Y-101188160D01*
X198115445Y-101198548D01*
X198132476Y-101212524D01*
X198146452Y-101229555D01*
X198156840Y-101248991D01*
X198163236Y-101270072D01*
X198166000Y-101298140D01*
X198166000Y-103111860D01*
X198163236Y-103139928D01*
X198156840Y-103161009D01*
X198146452Y-103180445D01*
X198132476Y-103197476D01*
X198115445Y-103211452D01*
X198096009Y-103221840D01*
X198074928Y-103228236D01*
X198046860Y-103231000D01*
X197583140Y-103231000D01*
X197555072Y-103228236D01*
X197533991Y-103221840D01*
X197514555Y-103211452D01*
X197497524Y-103197476D01*
X197483548Y-103180445D01*
X197473160Y-103161009D01*
X197466764Y-103139928D01*
X197464000Y-103111860D01*
X197464000Y-101298140D01*
X197466764Y-101270072D01*
X197473160Y-101248991D01*
X197483548Y-101229555D01*
X197497524Y-101212524D01*
X197514555Y-101198548D01*
X197533991Y-101188160D01*
X197555072Y-101181764D01*
X197583140Y-101179000D01*
X198046860Y-101179000D01*
X198074928Y-101181764D01*
X198074928Y-101181764D01*
G37*
G36*
X196804928Y-101181764D02*
G01*
X196826009Y-101188160D01*
X196845445Y-101198548D01*
X196862476Y-101212524D01*
X196876452Y-101229555D01*
X196886840Y-101248991D01*
X196893236Y-101270072D01*
X196896000Y-101298140D01*
X196896000Y-103111860D01*
X196893236Y-103139928D01*
X196886840Y-103161009D01*
X196876452Y-103180445D01*
X196862476Y-103197476D01*
X196845445Y-103211452D01*
X196826009Y-103221840D01*
X196804928Y-103228236D01*
X196776860Y-103231000D01*
X196313140Y-103231000D01*
X196285072Y-103228236D01*
X196263991Y-103221840D01*
X196244555Y-103211452D01*
X196227524Y-103197476D01*
X196213548Y-103180445D01*
X196203160Y-103161009D01*
X196196764Y-103139928D01*
X196194000Y-103111860D01*
X196194000Y-101298140D01*
X196196764Y-101270072D01*
X196203160Y-101248991D01*
X196213548Y-101229555D01*
X196227524Y-101212524D01*
X196244555Y-101198548D01*
X196263991Y-101188160D01*
X196285072Y-101181764D01*
X196313140Y-101179000D01*
X196776860Y-101179000D01*
X196804928Y-101181764D01*
X196804928Y-101181764D01*
G37*
G36*
X169265636Y-100926981D02*
G01*
X169303132Y-100938356D01*
X169337691Y-100956828D01*
X169372755Y-100985604D01*
X169824396Y-101437245D01*
X169853172Y-101472309D01*
X169871644Y-101506868D01*
X169883019Y-101544364D01*
X169886859Y-101583363D01*
X169883019Y-101622362D01*
X169871644Y-101659858D01*
X169853172Y-101694417D01*
X169824396Y-101729481D01*
X169302045Y-102251832D01*
X169266981Y-102280608D01*
X169232422Y-102299080D01*
X169194926Y-102310455D01*
X169155927Y-102314295D01*
X169116928Y-102310455D01*
X169079432Y-102299080D01*
X169044873Y-102280608D01*
X169009809Y-102251832D01*
X168558168Y-101800191D01*
X168529392Y-101765127D01*
X168510920Y-101730568D01*
X168499545Y-101693072D01*
X168495705Y-101654073D01*
X168499545Y-101615074D01*
X168510920Y-101577578D01*
X168529392Y-101543019D01*
X168558168Y-101507955D01*
X169080519Y-100985604D01*
X169115583Y-100956828D01*
X169150142Y-100938356D01*
X169187638Y-100926981D01*
X169226637Y-100923141D01*
X169265636Y-100926981D01*
X169265636Y-100926981D01*
G37*
G36*
X177708000Y-101832000D02*
G01*
X175606000Y-101832000D01*
X175606000Y-101030000D01*
X177708000Y-101030000D01*
X177708000Y-101832000D01*
X177708000Y-101832000D01*
G37*
G36*
X193708000Y-101832000D02*
G01*
X191606000Y-101832000D01*
X191606000Y-101030000D01*
X193708000Y-101030000D01*
X193708000Y-101832000D01*
X193708000Y-101832000D01*
G37*
G36*
X170503072Y-99689545D02*
G01*
X170540568Y-99700920D01*
X170575127Y-99719392D01*
X170610191Y-99748168D01*
X171061832Y-100199809D01*
X171090608Y-100234873D01*
X171109080Y-100269432D01*
X171120455Y-100306928D01*
X171124295Y-100345927D01*
X171120455Y-100384926D01*
X171109080Y-100422422D01*
X171090608Y-100456981D01*
X171061832Y-100492045D01*
X170539481Y-101014396D01*
X170504417Y-101043172D01*
X170469858Y-101061644D01*
X170432362Y-101073019D01*
X170393363Y-101076859D01*
X170354364Y-101073019D01*
X170316868Y-101061644D01*
X170282309Y-101043172D01*
X170247245Y-101014396D01*
X169795604Y-100562755D01*
X169766828Y-100527691D01*
X169748356Y-100493132D01*
X169736981Y-100455636D01*
X169733141Y-100416637D01*
X169736981Y-100377638D01*
X169748356Y-100340142D01*
X169766828Y-100305583D01*
X169795604Y-100270519D01*
X170317955Y-99748168D01*
X170353019Y-99719392D01*
X170387578Y-99700920D01*
X170425074Y-99689545D01*
X170464073Y-99685705D01*
X170503072Y-99689545D01*
X170503072Y-99689545D01*
G37*
G36*
X193708000Y-100562000D02*
G01*
X191606000Y-100562000D01*
X191606000Y-99760000D01*
X193708000Y-99760000D01*
X193708000Y-100562000D01*
X193708000Y-100562000D01*
G37*
G36*
X177708000Y-100562000D02*
G01*
X175606000Y-100562000D01*
X175606000Y-99760000D01*
X177708000Y-99760000D01*
X177708000Y-100562000D01*
X177708000Y-100562000D01*
G37*
G36*
X165109672Y-99618449D02*
G01*
X165109674Y-99618450D01*
X165109675Y-99618450D01*
X165178103Y-99646793D01*
X165239686Y-99687942D01*
X165292058Y-99740314D01*
X165333207Y-99801897D01*
X165361550Y-99870325D01*
X165376000Y-99942967D01*
X165376000Y-100017033D01*
X165361550Y-100089675D01*
X165333207Y-100158103D01*
X165292058Y-100219686D01*
X165239686Y-100272058D01*
X165178103Y-100313207D01*
X165109675Y-100341550D01*
X165109674Y-100341550D01*
X165109672Y-100341551D01*
X165037034Y-100356000D01*
X164962966Y-100356000D01*
X164890328Y-100341551D01*
X164890326Y-100341550D01*
X164890325Y-100341550D01*
X164821897Y-100313207D01*
X164760314Y-100272058D01*
X164707942Y-100219686D01*
X164666793Y-100158103D01*
X164638450Y-100089675D01*
X164624000Y-100017033D01*
X164624000Y-99942967D01*
X164638450Y-99870325D01*
X164666793Y-99801897D01*
X164707942Y-99740314D01*
X164760314Y-99687942D01*
X164821897Y-99646793D01*
X164890325Y-99618450D01*
X164890326Y-99618450D01*
X164890328Y-99618449D01*
X164962966Y-99604000D01*
X165037034Y-99604000D01*
X165109672Y-99618449D01*
X165109672Y-99618449D01*
G37*
G36*
X193708000Y-99292000D02*
G01*
X191606000Y-99292000D01*
X191606000Y-98490000D01*
X193708000Y-98490000D01*
X193708000Y-99292000D01*
X193708000Y-99292000D01*
G37*
G36*
X177708000Y-99292000D02*
G01*
X175606000Y-99292000D01*
X175606000Y-98490000D01*
X177708000Y-98490000D01*
X177708000Y-99292000D01*
X177708000Y-99292000D01*
G37*
G36*
X171997000Y-98308000D02*
G01*
X170395000Y-98308000D01*
X170395000Y-96206000D01*
X171997000Y-96206000D01*
X171997000Y-98308000D01*
X171997000Y-98308000D01*
G37*
G36*
X174297000Y-98308000D02*
G01*
X172695000Y-98308000D01*
X172695000Y-96206000D01*
X174297000Y-96206000D01*
X174297000Y-98308000D01*
X174297000Y-98308000D01*
G37*
G36*
X169697000Y-98308000D02*
G01*
X168095000Y-98308000D01*
X168095000Y-96206000D01*
X169697000Y-96206000D01*
X169697000Y-98308000D01*
X169697000Y-98308000D01*
G37*
G36*
X199344928Y-96231764D02*
G01*
X199366009Y-96238160D01*
X199385445Y-96248548D01*
X199402476Y-96262524D01*
X199416452Y-96279555D01*
X199426840Y-96298991D01*
X199433236Y-96320072D01*
X199436000Y-96348140D01*
X199436000Y-98161860D01*
X199433236Y-98189928D01*
X199426840Y-98211009D01*
X199416452Y-98230445D01*
X199402476Y-98247476D01*
X199385445Y-98261452D01*
X199366009Y-98271840D01*
X199344928Y-98278236D01*
X199316860Y-98281000D01*
X198853140Y-98281000D01*
X198825072Y-98278236D01*
X198803991Y-98271840D01*
X198784555Y-98261452D01*
X198767524Y-98247476D01*
X198753548Y-98230445D01*
X198743160Y-98211009D01*
X198736764Y-98189928D01*
X198734000Y-98161860D01*
X198734000Y-96348140D01*
X198736764Y-96320072D01*
X198743160Y-96298991D01*
X198753548Y-96279555D01*
X198767524Y-96262524D01*
X198784555Y-96248548D01*
X198803991Y-96238160D01*
X198825072Y-96231764D01*
X198853140Y-96229000D01*
X199316860Y-96229000D01*
X199344928Y-96231764D01*
X199344928Y-96231764D01*
G37*
G36*
X200614928Y-96231764D02*
G01*
X200636009Y-96238160D01*
X200655445Y-96248548D01*
X200672476Y-96262524D01*
X200686452Y-96279555D01*
X200696840Y-96298991D01*
X200703236Y-96320072D01*
X200706000Y-96348140D01*
X200706000Y-98161860D01*
X200703236Y-98189928D01*
X200696840Y-98211009D01*
X200686452Y-98230445D01*
X200672476Y-98247476D01*
X200655445Y-98261452D01*
X200636009Y-98271840D01*
X200614928Y-98278236D01*
X200586860Y-98281000D01*
X200123140Y-98281000D01*
X200095072Y-98278236D01*
X200073991Y-98271840D01*
X200054555Y-98261452D01*
X200037524Y-98247476D01*
X200023548Y-98230445D01*
X200013160Y-98211009D01*
X200006764Y-98189928D01*
X200004000Y-98161860D01*
X200004000Y-96348140D01*
X200006764Y-96320072D01*
X200013160Y-96298991D01*
X200023548Y-96279555D01*
X200037524Y-96262524D01*
X200054555Y-96248548D01*
X200073991Y-96238160D01*
X200095072Y-96231764D01*
X200123140Y-96229000D01*
X200586860Y-96229000D01*
X200614928Y-96231764D01*
X200614928Y-96231764D01*
G37*
G36*
X201884928Y-96231764D02*
G01*
X201906009Y-96238160D01*
X201925445Y-96248548D01*
X201942476Y-96262524D01*
X201956452Y-96279555D01*
X201966840Y-96298991D01*
X201973236Y-96320072D01*
X201976000Y-96348140D01*
X201976000Y-98161860D01*
X201973236Y-98189928D01*
X201966840Y-98211009D01*
X201956452Y-98230445D01*
X201942476Y-98247476D01*
X201925445Y-98261452D01*
X201906009Y-98271840D01*
X201884928Y-98278236D01*
X201856860Y-98281000D01*
X201393140Y-98281000D01*
X201365072Y-98278236D01*
X201343991Y-98271840D01*
X201324555Y-98261452D01*
X201307524Y-98247476D01*
X201293548Y-98230445D01*
X201283160Y-98211009D01*
X201276764Y-98189928D01*
X201274000Y-98161860D01*
X201274000Y-96348140D01*
X201276764Y-96320072D01*
X201283160Y-96298991D01*
X201293548Y-96279555D01*
X201307524Y-96262524D01*
X201324555Y-96248548D01*
X201343991Y-96238160D01*
X201365072Y-96231764D01*
X201393140Y-96229000D01*
X201856860Y-96229000D01*
X201884928Y-96231764D01*
X201884928Y-96231764D01*
G37*
G36*
X203154928Y-96231764D02*
G01*
X203176009Y-96238160D01*
X203195445Y-96248548D01*
X203212476Y-96262524D01*
X203226452Y-96279555D01*
X203236840Y-96298991D01*
X203243236Y-96320072D01*
X203246000Y-96348140D01*
X203246000Y-98161860D01*
X203243236Y-98189928D01*
X203236840Y-98211009D01*
X203226452Y-98230445D01*
X203212476Y-98247476D01*
X203195445Y-98261452D01*
X203176009Y-98271840D01*
X203154928Y-98278236D01*
X203126860Y-98281000D01*
X202663140Y-98281000D01*
X202635072Y-98278236D01*
X202613991Y-98271840D01*
X202594555Y-98261452D01*
X202577524Y-98247476D01*
X202563548Y-98230445D01*
X202553160Y-98211009D01*
X202546764Y-98189928D01*
X202544000Y-98161860D01*
X202544000Y-96348140D01*
X202546764Y-96320072D01*
X202553160Y-96298991D01*
X202563548Y-96279555D01*
X202577524Y-96262524D01*
X202594555Y-96248548D01*
X202613991Y-96238160D01*
X202635072Y-96231764D01*
X202663140Y-96229000D01*
X203126860Y-96229000D01*
X203154928Y-96231764D01*
X203154928Y-96231764D01*
G37*
G36*
X204424928Y-96231764D02*
G01*
X204446009Y-96238160D01*
X204465445Y-96248548D01*
X204482476Y-96262524D01*
X204496452Y-96279555D01*
X204506840Y-96298991D01*
X204513236Y-96320072D01*
X204516000Y-96348140D01*
X204516000Y-98161860D01*
X204513236Y-98189928D01*
X204506840Y-98211009D01*
X204496452Y-98230445D01*
X204482476Y-98247476D01*
X204465445Y-98261452D01*
X204446009Y-98271840D01*
X204424928Y-98278236D01*
X204396860Y-98281000D01*
X203933140Y-98281000D01*
X203905072Y-98278236D01*
X203883991Y-98271840D01*
X203864555Y-98261452D01*
X203847524Y-98247476D01*
X203833548Y-98230445D01*
X203823160Y-98211009D01*
X203816764Y-98189928D01*
X203814000Y-98161860D01*
X203814000Y-96348140D01*
X203816764Y-96320072D01*
X203823160Y-96298991D01*
X203833548Y-96279555D01*
X203847524Y-96262524D01*
X203864555Y-96248548D01*
X203883991Y-96238160D01*
X203905072Y-96231764D01*
X203933140Y-96229000D01*
X204396860Y-96229000D01*
X204424928Y-96231764D01*
X204424928Y-96231764D01*
G37*
G36*
X205694928Y-96231764D02*
G01*
X205716009Y-96238160D01*
X205735445Y-96248548D01*
X205752476Y-96262524D01*
X205766452Y-96279555D01*
X205776840Y-96298991D01*
X205783236Y-96320072D01*
X205786000Y-96348140D01*
X205786000Y-98161860D01*
X205783236Y-98189928D01*
X205776840Y-98211009D01*
X205766452Y-98230445D01*
X205752476Y-98247476D01*
X205735445Y-98261452D01*
X205716009Y-98271840D01*
X205694928Y-98278236D01*
X205666860Y-98281000D01*
X205203140Y-98281000D01*
X205175072Y-98278236D01*
X205153991Y-98271840D01*
X205134555Y-98261452D01*
X205117524Y-98247476D01*
X205103548Y-98230445D01*
X205093160Y-98211009D01*
X205086764Y-98189928D01*
X205084000Y-98161860D01*
X205084000Y-96348140D01*
X205086764Y-96320072D01*
X205093160Y-96298991D01*
X205103548Y-96279555D01*
X205117524Y-96262524D01*
X205134555Y-96248548D01*
X205153991Y-96238160D01*
X205175072Y-96231764D01*
X205203140Y-96229000D01*
X205666860Y-96229000D01*
X205694928Y-96231764D01*
X205694928Y-96231764D01*
G37*
G36*
X198074928Y-96231764D02*
G01*
X198096009Y-96238160D01*
X198115445Y-96248548D01*
X198132476Y-96262524D01*
X198146452Y-96279555D01*
X198156840Y-96298991D01*
X198163236Y-96320072D01*
X198166000Y-96348140D01*
X198166000Y-98161860D01*
X198163236Y-98189928D01*
X198156840Y-98211009D01*
X198146452Y-98230445D01*
X198132476Y-98247476D01*
X198115445Y-98261452D01*
X198096009Y-98271840D01*
X198074928Y-98278236D01*
X198046860Y-98281000D01*
X197583140Y-98281000D01*
X197555072Y-98278236D01*
X197533991Y-98271840D01*
X197514555Y-98261452D01*
X197497524Y-98247476D01*
X197483548Y-98230445D01*
X197473160Y-98211009D01*
X197466764Y-98189928D01*
X197464000Y-98161860D01*
X197464000Y-96348140D01*
X197466764Y-96320072D01*
X197473160Y-96298991D01*
X197483548Y-96279555D01*
X197497524Y-96262524D01*
X197514555Y-96248548D01*
X197533991Y-96238160D01*
X197555072Y-96231764D01*
X197583140Y-96229000D01*
X198046860Y-96229000D01*
X198074928Y-96231764D01*
X198074928Y-96231764D01*
G37*
G36*
X196804928Y-96231764D02*
G01*
X196826009Y-96238160D01*
X196845445Y-96248548D01*
X196862476Y-96262524D01*
X196876452Y-96279555D01*
X196886840Y-96298991D01*
X196893236Y-96320072D01*
X196896000Y-96348140D01*
X196896000Y-98161860D01*
X196893236Y-98189928D01*
X196886840Y-98211009D01*
X196876452Y-98230445D01*
X196862476Y-98247476D01*
X196845445Y-98261452D01*
X196826009Y-98271840D01*
X196804928Y-98278236D01*
X196776860Y-98281000D01*
X196313140Y-98281000D01*
X196285072Y-98278236D01*
X196263991Y-98271840D01*
X196244555Y-98261452D01*
X196227524Y-98247476D01*
X196213548Y-98230445D01*
X196203160Y-98211009D01*
X196196764Y-98189928D01*
X196194000Y-98161860D01*
X196194000Y-96348140D01*
X196196764Y-96320072D01*
X196203160Y-96298991D01*
X196213548Y-96279555D01*
X196227524Y-96262524D01*
X196244555Y-96248548D01*
X196263991Y-96238160D01*
X196285072Y-96231764D01*
X196313140Y-96229000D01*
X196776860Y-96229000D01*
X196804928Y-96231764D01*
X196804928Y-96231764D01*
G37*
G36*
X177708000Y-98022000D02*
G01*
X175606000Y-98022000D01*
X175606000Y-97220000D01*
X177708000Y-97220000D01*
X177708000Y-98022000D01*
X177708000Y-98022000D01*
G37*
G36*
X193708000Y-98022000D02*
G01*
X191606000Y-98022000D01*
X191606000Y-97220000D01*
X193708000Y-97220000D01*
X193708000Y-98022000D01*
X193708000Y-98022000D01*
G37*
G36*
X167230781Y-93983295D02*
G01*
X167266816Y-93994227D01*
X167300024Y-94011977D01*
X167329134Y-94035866D01*
X167353023Y-94064976D01*
X167370773Y-94098184D01*
X167381705Y-94134219D01*
X167386000Y-94177831D01*
X167386000Y-97282169D01*
X167381705Y-97325781D01*
X167370773Y-97361816D01*
X167353023Y-97395024D01*
X167329134Y-97424134D01*
X167300024Y-97448023D01*
X167266816Y-97465773D01*
X167230781Y-97476705D01*
X167187169Y-97481000D01*
X166182831Y-97481000D01*
X166139219Y-97476705D01*
X166103184Y-97465773D01*
X166069976Y-97448023D01*
X166040866Y-97424134D01*
X166016977Y-97395024D01*
X165999227Y-97361816D01*
X165988295Y-97325781D01*
X165984000Y-97282169D01*
X165984000Y-94177831D01*
X165988295Y-94134219D01*
X165999227Y-94098184D01*
X166016977Y-94064976D01*
X166040866Y-94035866D01*
X166069976Y-94011977D01*
X166103184Y-93994227D01*
X166139219Y-93983295D01*
X166182831Y-93979000D01*
X167187169Y-93979000D01*
X167230781Y-93983295D01*
X167230781Y-93983295D01*
G37*
G36*
X162780781Y-93983295D02*
G01*
X162816816Y-93994227D01*
X162850024Y-94011977D01*
X162879134Y-94035866D01*
X162903023Y-94064976D01*
X162920773Y-94098184D01*
X162931705Y-94134219D01*
X162936000Y-94177831D01*
X162936000Y-97282169D01*
X162931705Y-97325781D01*
X162920773Y-97361816D01*
X162903023Y-97395024D01*
X162879134Y-97424134D01*
X162850024Y-97448023D01*
X162816816Y-97465773D01*
X162780781Y-97476705D01*
X162737169Y-97481000D01*
X161732831Y-97481000D01*
X161689219Y-97476705D01*
X161653184Y-97465773D01*
X161619976Y-97448023D01*
X161590866Y-97424134D01*
X161566977Y-97395024D01*
X161549227Y-97361816D01*
X161538295Y-97325781D01*
X161534000Y-97282169D01*
X161534000Y-94177831D01*
X161538295Y-94134219D01*
X161549227Y-94098184D01*
X161566977Y-94064976D01*
X161590866Y-94035866D01*
X161619976Y-94011977D01*
X161653184Y-93994227D01*
X161689219Y-93983295D01*
X161732831Y-93979000D01*
X162737169Y-93979000D01*
X162780781Y-93983295D01*
X162780781Y-93983295D01*
G37*
G36*
X193708000Y-96752000D02*
G01*
X191606000Y-96752000D01*
X191606000Y-95950000D01*
X193708000Y-95950000D01*
X193708000Y-96752000D01*
X193708000Y-96752000D01*
G37*
G36*
X177708000Y-96752000D02*
G01*
X175606000Y-96752000D01*
X175606000Y-95950000D01*
X177708000Y-95950000D01*
X177708000Y-96752000D01*
X177708000Y-96752000D01*
G37*
G36*
X177708000Y-95482000D02*
G01*
X175606000Y-95482000D01*
X175606000Y-94680000D01*
X177708000Y-94680000D01*
X177708000Y-95482000D01*
X177708000Y-95482000D01*
G37*
G36*
X193708000Y-95482000D02*
G01*
X191606000Y-95482000D01*
X191606000Y-94680000D01*
X193708000Y-94680000D01*
X193708000Y-95482000D01*
X193708000Y-95482000D01*
G37*
G36*
X202131000Y-95401000D02*
G01*
X200329000Y-95401000D01*
X200329000Y-93799000D01*
X202131000Y-93799000D01*
X202131000Y-95401000D01*
X202131000Y-95401000D01*
G37*
G36*
X199951000Y-95401000D02*
G01*
X198149000Y-95401000D01*
X198149000Y-93799000D01*
X199951000Y-93799000D01*
X199951000Y-95401000D01*
X199951000Y-95401000D01*
G37*
G36*
X177708000Y-94212000D02*
G01*
X175606000Y-94212000D01*
X175606000Y-93410000D01*
X177708000Y-93410000D01*
X177708000Y-94212000D01*
X177708000Y-94212000D01*
G37*
G36*
X193708000Y-94212000D02*
G01*
X191606000Y-94212000D01*
X191606000Y-93410000D01*
X193708000Y-93410000D01*
X193708000Y-94212000D01*
X193708000Y-94212000D01*
G37*
G36*
X166938048Y-91718122D02*
G01*
X166972387Y-91728539D01*
X167004036Y-91745456D01*
X167031778Y-91768222D01*
X167054544Y-91795964D01*
X167071461Y-91827613D01*
X167081878Y-91861952D01*
X167086000Y-91903807D01*
X167086000Y-93126193D01*
X167081878Y-93168048D01*
X167071461Y-93202387D01*
X167054544Y-93234036D01*
X167031778Y-93261778D01*
X167004036Y-93284544D01*
X166972387Y-93301461D01*
X166938048Y-93311878D01*
X166896193Y-93316000D01*
X164823807Y-93316000D01*
X164781952Y-93311878D01*
X164747613Y-93301461D01*
X164715964Y-93284544D01*
X164688222Y-93261778D01*
X164665456Y-93234036D01*
X164648539Y-93202387D01*
X164638122Y-93168048D01*
X164634000Y-93126193D01*
X164634000Y-91903807D01*
X164638122Y-91861952D01*
X164648539Y-91827613D01*
X164665456Y-91795964D01*
X164688222Y-91768222D01*
X164715964Y-91745456D01*
X164747613Y-91728539D01*
X164781952Y-91718122D01*
X164823807Y-91714000D01*
X166896193Y-91714000D01*
X166938048Y-91718122D01*
X166938048Y-91718122D01*
G37*
G36*
X177708000Y-92942000D02*
G01*
X175606000Y-92942000D01*
X175606000Y-92140000D01*
X177708000Y-92140000D01*
X177708000Y-92942000D01*
X177708000Y-92942000D01*
G37*
G36*
X193708000Y-92942000D02*
G01*
X191606000Y-92942000D01*
X191606000Y-92140000D01*
X193708000Y-92140000D01*
X193708000Y-92942000D01*
X193708000Y-92942000D01*
G37*
G36*
X202131000Y-92741000D02*
G01*
X201629000Y-92741000D01*
X201629000Y-91139000D01*
X202131000Y-91139000D01*
X202131000Y-92741000D01*
X202131000Y-92741000D01*
G37*
G36*
X198651000Y-92741000D02*
G01*
X198149000Y-92741000D01*
X198149000Y-91139000D01*
X198651000Y-91139000D01*
X198651000Y-92741000D01*
X198651000Y-92741000D01*
G37*
G36*
X199951000Y-92741000D02*
G01*
X199449000Y-92741000D01*
X199449000Y-91139000D01*
X199951000Y-91139000D01*
X199951000Y-92741000D01*
X199951000Y-92741000D01*
G37*
G36*
X200831000Y-92741000D02*
G01*
X200329000Y-92741000D01*
X200329000Y-91139000D01*
X200831000Y-91139000D01*
X200831000Y-92741000D01*
X200831000Y-92741000D01*
G37*
G36*
X196455256Y-88751298D02*
G01*
X196561579Y-88772447D01*
X196862042Y-88896903D01*
X197132451Y-89077585D01*
X197362415Y-89307549D01*
X197543097Y-89577958D01*
X197656232Y-89851089D01*
X197667553Y-89878422D01*
X197731000Y-90197389D01*
X197731000Y-90522611D01*
X197688702Y-90735256D01*
X197667553Y-90841579D01*
X197543097Y-91142042D01*
X197362415Y-91412451D01*
X197132451Y-91642415D01*
X196862042Y-91823097D01*
X196862041Y-91823098D01*
X196862040Y-91823098D01*
X196838948Y-91832663D01*
X196561579Y-91947553D01*
X196455256Y-91968702D01*
X196242611Y-92011000D01*
X195917389Y-92011000D01*
X195704744Y-91968702D01*
X195598421Y-91947553D01*
X195321052Y-91832663D01*
X195297960Y-91823098D01*
X195297959Y-91823098D01*
X195297958Y-91823097D01*
X195027549Y-91642415D01*
X194797585Y-91412451D01*
X194616903Y-91142042D01*
X194492447Y-90841579D01*
X194471298Y-90735256D01*
X194429000Y-90522611D01*
X194429000Y-90197389D01*
X194492447Y-89878422D01*
X194503769Y-89851089D01*
X194616903Y-89577958D01*
X194797585Y-89307549D01*
X195027549Y-89077585D01*
X195297958Y-88896903D01*
X195598421Y-88772447D01*
X195704744Y-88751298D01*
X195917389Y-88709000D01*
X196242611Y-88709000D01*
X196455256Y-88751298D01*
X196455256Y-88751298D01*
G37*
G36*
X173147000Y-92008000D02*
G01*
X169245000Y-92008000D01*
X169245000Y-89906000D01*
X173147000Y-89906000D01*
X173147000Y-92008000D01*
X173147000Y-92008000D01*
G37*
G36*
X203557575Y-90943075D02*
G01*
X202948049Y-91552601D01*
X202344381Y-90948933D01*
X202331576Y-90938424D01*
X202321067Y-90925619D01*
X201744553Y-90349105D01*
X202354079Y-89739579D01*
X203557575Y-90943075D01*
X203557575Y-90943075D01*
G37*
G36*
X204455601Y-90045049D02*
G01*
X203846075Y-90654575D01*
X202642579Y-89451079D01*
X203252105Y-88841553D01*
X204455601Y-90045049D01*
X204455601Y-90045049D01*
G37*
G36*
X166938048Y-88468122D02*
G01*
X166972387Y-88478539D01*
X167004036Y-88495456D01*
X167031778Y-88518222D01*
X167054544Y-88545964D01*
X167071461Y-88577613D01*
X167081878Y-88611952D01*
X167086000Y-88653807D01*
X167086000Y-89876193D01*
X167081878Y-89918048D01*
X167071461Y-89952387D01*
X167054544Y-89984036D01*
X167031778Y-90011778D01*
X167004036Y-90034544D01*
X166972387Y-90051461D01*
X166938048Y-90061878D01*
X166896193Y-90066000D01*
X164823807Y-90066000D01*
X164781952Y-90061878D01*
X164747613Y-90051461D01*
X164715964Y-90034544D01*
X164688222Y-90011778D01*
X164665456Y-89984036D01*
X164648539Y-89952387D01*
X164638122Y-89918048D01*
X164634000Y-89876193D01*
X164634000Y-88653807D01*
X164638122Y-88611952D01*
X164648539Y-88577613D01*
X164665456Y-88545964D01*
X164688222Y-88518222D01*
X164715964Y-88495456D01*
X164747613Y-88478539D01*
X164781952Y-88468122D01*
X164823807Y-88464000D01*
X166896193Y-88464000D01*
X166938048Y-88468122D01*
X166938048Y-88468122D01*
G37*
G36*
X175304499Y-88833445D02*
G01*
X175341995Y-88844820D01*
X175376554Y-88863292D01*
X175406847Y-88888153D01*
X175431708Y-88918446D01*
X175450180Y-88953005D01*
X175461555Y-88990501D01*
X175466000Y-89035638D01*
X175466000Y-89774362D01*
X175461555Y-89819499D01*
X175450180Y-89856995D01*
X175431708Y-89891554D01*
X175406847Y-89921847D01*
X175376554Y-89946708D01*
X175341995Y-89965180D01*
X175304499Y-89976555D01*
X175259362Y-89981000D01*
X174620638Y-89981000D01*
X174575501Y-89976555D01*
X174538005Y-89965180D01*
X174503446Y-89946708D01*
X174473153Y-89921847D01*
X174448292Y-89891554D01*
X174429820Y-89856995D01*
X174418445Y-89819499D01*
X174414000Y-89774362D01*
X174414000Y-89035638D01*
X174418445Y-88990501D01*
X174429820Y-88953005D01*
X174448292Y-88918446D01*
X174473153Y-88888153D01*
X174503446Y-88863292D01*
X174538005Y-88844820D01*
X174575501Y-88833445D01*
X174620638Y-88829000D01*
X175259362Y-88829000D01*
X175304499Y-88833445D01*
X175304499Y-88833445D01*
G37*
G36*
X173528048Y-86138122D02*
G01*
X173562387Y-86148539D01*
X173594036Y-86165456D01*
X173621778Y-86188222D01*
X173644544Y-86215964D01*
X173661461Y-86247613D01*
X173671878Y-86281952D01*
X173676000Y-86323807D01*
X173676000Y-88396193D01*
X173671878Y-88438048D01*
X173661461Y-88472387D01*
X173644544Y-88504036D01*
X173621778Y-88531778D01*
X173594036Y-88554544D01*
X173562387Y-88571461D01*
X173528048Y-88581878D01*
X173486193Y-88586000D01*
X172263807Y-88586000D01*
X172221952Y-88581878D01*
X172187613Y-88571461D01*
X172155964Y-88554544D01*
X172128222Y-88531778D01*
X172105456Y-88504036D01*
X172088539Y-88472387D01*
X172078122Y-88438048D01*
X172074000Y-88396193D01*
X172074000Y-86323807D01*
X172078122Y-86281952D01*
X172088539Y-86247613D01*
X172105456Y-86215964D01*
X172128222Y-86188222D01*
X172155964Y-86165456D01*
X172187613Y-86148539D01*
X172221952Y-86138122D01*
X172263807Y-86134000D01*
X173486193Y-86134000D01*
X173528048Y-86138122D01*
X173528048Y-86138122D01*
G37*
G36*
X170278048Y-86138122D02*
G01*
X170312387Y-86148539D01*
X170344036Y-86165456D01*
X170371778Y-86188222D01*
X170394544Y-86215964D01*
X170411461Y-86247613D01*
X170421878Y-86281952D01*
X170426000Y-86323807D01*
X170426000Y-88396193D01*
X170421878Y-88438048D01*
X170411461Y-88472387D01*
X170394544Y-88504036D01*
X170371778Y-88531778D01*
X170344036Y-88554544D01*
X170312387Y-88571461D01*
X170278048Y-88581878D01*
X170236193Y-88586000D01*
X169013807Y-88586000D01*
X168971952Y-88581878D01*
X168937613Y-88571461D01*
X168905964Y-88554544D01*
X168878222Y-88531778D01*
X168855456Y-88504036D01*
X168838539Y-88472387D01*
X168828122Y-88438048D01*
X168824000Y-88396193D01*
X168824000Y-86323807D01*
X168828122Y-86281952D01*
X168838539Y-86247613D01*
X168855456Y-86215964D01*
X168878222Y-86188222D01*
X168905964Y-86165456D01*
X168937613Y-86148539D01*
X168971952Y-86138122D01*
X169013807Y-86134000D01*
X170236193Y-86134000D01*
X170278048Y-86138122D01*
X170278048Y-86138122D01*
G37*
G36*
X175304499Y-87083445D02*
G01*
X175341995Y-87094820D01*
X175376554Y-87113292D01*
X175406847Y-87138153D01*
X175431708Y-87168446D01*
X175450180Y-87203005D01*
X175461555Y-87240501D01*
X175466000Y-87285638D01*
X175466000Y-88024362D01*
X175461555Y-88069499D01*
X175450180Y-88106995D01*
X175431708Y-88141554D01*
X175406847Y-88171847D01*
X175376554Y-88196708D01*
X175341995Y-88215180D01*
X175304499Y-88226555D01*
X175259362Y-88231000D01*
X174620638Y-88231000D01*
X174575501Y-88226555D01*
X174538005Y-88215180D01*
X174503446Y-88196708D01*
X174473153Y-88171847D01*
X174448292Y-88141554D01*
X174429820Y-88106995D01*
X174418445Y-88069499D01*
X174414000Y-88024362D01*
X174414000Y-87285638D01*
X174418445Y-87240501D01*
X174429820Y-87203005D01*
X174448292Y-87168446D01*
X174473153Y-87138153D01*
X174503446Y-87113292D01*
X174538005Y-87094820D01*
X174575501Y-87083445D01*
X174620638Y-87079000D01*
X175259362Y-87079000D01*
X175304499Y-87083445D01*
X175304499Y-87083445D01*
G37*
G36*
X196691938Y-86841716D02*
G01*
X196712557Y-86847971D01*
X196731553Y-86858124D01*
X196748208Y-86871792D01*
X196761876Y-86888447D01*
X196772029Y-86907443D01*
X196778284Y-86928062D01*
X196781000Y-86955640D01*
X196781000Y-87464360D01*
X196778284Y-87491938D01*
X196772029Y-87512557D01*
X196761876Y-87531553D01*
X196748208Y-87548208D01*
X196731553Y-87561876D01*
X196712557Y-87572029D01*
X196691938Y-87578284D01*
X196664360Y-87581000D01*
X196205640Y-87581000D01*
X196178062Y-87578284D01*
X196157443Y-87572029D01*
X196138447Y-87561876D01*
X196121792Y-87548208D01*
X196108124Y-87531553D01*
X196097971Y-87512557D01*
X196091716Y-87491938D01*
X196089000Y-87464360D01*
X196089000Y-86955640D01*
X196091716Y-86928062D01*
X196097971Y-86907443D01*
X196108124Y-86888447D01*
X196121792Y-86871792D01*
X196138447Y-86858124D01*
X196157443Y-86847971D01*
X196178062Y-86841716D01*
X196205640Y-86839000D01*
X196664360Y-86839000D01*
X196691938Y-86841716D01*
X196691938Y-86841716D01*
G37*
G36*
X195721938Y-86841716D02*
G01*
X195742557Y-86847971D01*
X195761553Y-86858124D01*
X195778208Y-86871792D01*
X195791876Y-86888447D01*
X195802029Y-86907443D01*
X195808284Y-86928062D01*
X195811000Y-86955640D01*
X195811000Y-87464360D01*
X195808284Y-87491938D01*
X195802029Y-87512557D01*
X195791876Y-87531553D01*
X195778208Y-87548208D01*
X195761553Y-87561876D01*
X195742557Y-87572029D01*
X195721938Y-87578284D01*
X195694360Y-87581000D01*
X195235640Y-87581000D01*
X195208062Y-87578284D01*
X195187443Y-87572029D01*
X195168447Y-87561876D01*
X195151792Y-87548208D01*
X195138124Y-87531553D01*
X195127971Y-87512557D01*
X195121716Y-87491938D01*
X195119000Y-87464360D01*
X195119000Y-86955640D01*
X195121716Y-86928062D01*
X195127971Y-86907443D01*
X195138124Y-86888447D01*
X195151792Y-86871792D01*
X195168447Y-86858124D01*
X195187443Y-86847971D01*
X195208062Y-86841716D01*
X195235640Y-86839000D01*
X195694360Y-86839000D01*
X195721938Y-86841716D01*
X195721938Y-86841716D01*
G37*
G36*
X194721938Y-86831716D02*
G01*
X194742557Y-86837971D01*
X194761553Y-86848124D01*
X194778208Y-86861792D01*
X194791876Y-86878447D01*
X194802029Y-86897443D01*
X194808284Y-86918062D01*
X194811000Y-86945640D01*
X194811000Y-87454360D01*
X194808284Y-87481938D01*
X194802029Y-87502557D01*
X194791876Y-87521553D01*
X194778208Y-87538208D01*
X194761553Y-87551876D01*
X194742557Y-87562029D01*
X194721938Y-87568284D01*
X194694360Y-87571000D01*
X194235640Y-87571000D01*
X194208062Y-87568284D01*
X194187443Y-87562029D01*
X194168447Y-87551876D01*
X194151792Y-87538208D01*
X194138124Y-87521553D01*
X194127971Y-87502557D01*
X194121716Y-87481938D01*
X194119000Y-87454360D01*
X194119000Y-86945640D01*
X194121716Y-86918062D01*
X194127971Y-86897443D01*
X194138124Y-86878447D01*
X194151792Y-86861792D01*
X194168447Y-86848124D01*
X194187443Y-86837971D01*
X194208062Y-86831716D01*
X194235640Y-86829000D01*
X194694360Y-86829000D01*
X194721938Y-86831716D01*
X194721938Y-86831716D01*
G37*
G36*
X193751938Y-86831716D02*
G01*
X193772557Y-86837971D01*
X193791553Y-86848124D01*
X193808208Y-86861792D01*
X193821876Y-86878447D01*
X193832029Y-86897443D01*
X193838284Y-86918062D01*
X193841000Y-86945640D01*
X193841000Y-87454360D01*
X193838284Y-87481938D01*
X193832029Y-87502557D01*
X193821876Y-87521553D01*
X193808208Y-87538208D01*
X193791553Y-87551876D01*
X193772557Y-87562029D01*
X193751938Y-87568284D01*
X193724360Y-87571000D01*
X193265640Y-87571000D01*
X193238062Y-87568284D01*
X193217443Y-87562029D01*
X193198447Y-87551876D01*
X193181792Y-87538208D01*
X193168124Y-87521553D01*
X193157971Y-87502557D01*
X193151716Y-87481938D01*
X193149000Y-87454360D01*
X193149000Y-86945640D01*
X193151716Y-86918062D01*
X193157971Y-86897443D01*
X193168124Y-86878447D01*
X193181792Y-86861792D01*
X193198447Y-86848124D01*
X193217443Y-86837971D01*
X193238062Y-86831716D01*
X193265640Y-86829000D01*
X193724360Y-86829000D01*
X193751938Y-86831716D01*
X193751938Y-86831716D01*
G37*
G36*
X194354499Y-85343445D02*
G01*
X194391995Y-85354820D01*
X194426554Y-85373292D01*
X194456847Y-85398153D01*
X194481708Y-85428446D01*
X194500180Y-85463005D01*
X194511555Y-85500501D01*
X194516000Y-85545638D01*
X194516000Y-86284362D01*
X194511555Y-86329499D01*
X194500180Y-86366995D01*
X194481708Y-86401554D01*
X194456847Y-86431847D01*
X194426554Y-86456708D01*
X194391995Y-86475180D01*
X194354499Y-86486555D01*
X194309362Y-86491000D01*
X193670638Y-86491000D01*
X193625501Y-86486555D01*
X193588005Y-86475180D01*
X193553446Y-86456708D01*
X193523153Y-86431847D01*
X193498292Y-86401554D01*
X193479820Y-86366995D01*
X193468445Y-86329499D01*
X193464000Y-86284362D01*
X193464000Y-85545638D01*
X193468445Y-85500501D01*
X193479820Y-85463005D01*
X193498292Y-85428446D01*
X193523153Y-85398153D01*
X193553446Y-85373292D01*
X193588005Y-85354820D01*
X193625501Y-85343445D01*
X193670638Y-85339000D01*
X194309362Y-85339000D01*
X194354499Y-85343445D01*
X194354499Y-85343445D01*
G37*
G36*
X195724499Y-85343445D02*
G01*
X195761995Y-85354820D01*
X195796554Y-85373292D01*
X195826847Y-85398153D01*
X195851708Y-85428446D01*
X195870180Y-85463005D01*
X195881555Y-85500501D01*
X195886000Y-85545638D01*
X195886000Y-86284362D01*
X195881555Y-86329499D01*
X195870180Y-86366995D01*
X195851708Y-86401554D01*
X195826847Y-86431847D01*
X195796554Y-86456708D01*
X195761995Y-86475180D01*
X195724499Y-86486555D01*
X195679362Y-86491000D01*
X195040638Y-86491000D01*
X194995501Y-86486555D01*
X194958005Y-86475180D01*
X194923446Y-86456708D01*
X194893153Y-86431847D01*
X194868292Y-86401554D01*
X194849820Y-86366995D01*
X194838445Y-86329499D01*
X194834000Y-86284362D01*
X194834000Y-85545638D01*
X194838445Y-85500501D01*
X194849820Y-85463005D01*
X194868292Y-85428446D01*
X194893153Y-85398153D01*
X194923446Y-85373292D01*
X194958005Y-85354820D01*
X194995501Y-85343445D01*
X195040638Y-85339000D01*
X195679362Y-85339000D01*
X195724499Y-85343445D01*
X195724499Y-85343445D01*
G37*
G36*
X198169421Y-85554921D02*
G01*
X197559895Y-86164447D01*
X196356399Y-84960951D01*
X196965925Y-84351425D01*
X198169421Y-85554921D01*
X198169421Y-85554921D01*
G37*
G36*
X199067447Y-84656895D02*
G01*
X198457921Y-85266421D01*
X197254425Y-84062925D01*
X197863951Y-83453399D01*
X199067447Y-84656895D01*
X199067447Y-84656895D01*
G37*
G36*
X194354499Y-83593445D02*
G01*
X194391995Y-83604820D01*
X194426554Y-83623292D01*
X194456847Y-83648153D01*
X194481708Y-83678446D01*
X194500180Y-83713005D01*
X194511555Y-83750501D01*
X194516000Y-83795638D01*
X194516000Y-84534362D01*
X194511555Y-84579499D01*
X194500180Y-84616995D01*
X194481708Y-84651554D01*
X194456847Y-84681847D01*
X194426554Y-84706708D01*
X194391995Y-84725180D01*
X194354499Y-84736555D01*
X194309362Y-84741000D01*
X193670638Y-84741000D01*
X193625501Y-84736555D01*
X193588005Y-84725180D01*
X193553446Y-84706708D01*
X193523153Y-84681847D01*
X193498292Y-84651554D01*
X193479820Y-84616995D01*
X193468445Y-84579499D01*
X193464000Y-84534362D01*
X193464000Y-83795638D01*
X193468445Y-83750501D01*
X193479820Y-83713005D01*
X193498292Y-83678446D01*
X193523153Y-83648153D01*
X193553446Y-83623292D01*
X193588005Y-83604820D01*
X193625501Y-83593445D01*
X193670638Y-83589000D01*
X194309362Y-83589000D01*
X194354499Y-83593445D01*
X194354499Y-83593445D01*
G37*
G36*
X195724499Y-83593445D02*
G01*
X195761995Y-83604820D01*
X195796554Y-83623292D01*
X195826847Y-83648153D01*
X195851708Y-83678446D01*
X195870180Y-83713005D01*
X195881555Y-83750501D01*
X195886000Y-83795638D01*
X195886000Y-84534362D01*
X195881555Y-84579499D01*
X195870180Y-84616995D01*
X195851708Y-84651554D01*
X195826847Y-84681847D01*
X195796554Y-84706708D01*
X195761995Y-84725180D01*
X195724499Y-84736555D01*
X195679362Y-84741000D01*
X195040638Y-84741000D01*
X194995501Y-84736555D01*
X194958005Y-84725180D01*
X194923446Y-84706708D01*
X194893153Y-84681847D01*
X194868292Y-84651554D01*
X194849820Y-84616995D01*
X194838445Y-84579499D01*
X194834000Y-84534362D01*
X194834000Y-83795638D01*
X194838445Y-83750501D01*
X194849820Y-83713005D01*
X194868292Y-83678446D01*
X194893153Y-83648153D01*
X194923446Y-83623292D01*
X194958005Y-83604820D01*
X194995501Y-83593445D01*
X195040638Y-83589000D01*
X195679362Y-83589000D01*
X195724499Y-83593445D01*
X195724499Y-83593445D01*
G37*
G36*
X180351000Y-80801000D02*
G01*
X178549000Y-80801000D01*
X178549000Y-78999000D01*
X180351000Y-78999000D01*
X180351000Y-80801000D01*
X180351000Y-80801000D01*
G37*
G36*
X182100442Y-79005518D02*
G01*
X182166627Y-79012037D01*
X182336466Y-79063557D01*
X182492991Y-79147222D01*
X182528729Y-79176552D01*
X182630186Y-79259814D01*
X182713448Y-79361271D01*
X182742778Y-79397009D01*
X182826443Y-79553534D01*
X182877963Y-79723373D01*
X182895359Y-79900000D01*
X182877963Y-80076627D01*
X182826443Y-80246466D01*
X182742778Y-80402991D01*
X182713448Y-80438729D01*
X182630186Y-80540186D01*
X182528729Y-80623448D01*
X182492991Y-80652778D01*
X182336466Y-80736443D01*
X182166627Y-80787963D01*
X182100442Y-80794482D01*
X182034260Y-80801000D01*
X181945740Y-80801000D01*
X181879558Y-80794482D01*
X181813373Y-80787963D01*
X181643534Y-80736443D01*
X181487009Y-80652778D01*
X181451271Y-80623448D01*
X181349814Y-80540186D01*
X181266552Y-80438729D01*
X181237222Y-80402991D01*
X181153557Y-80246466D01*
X181102037Y-80076627D01*
X181084641Y-79900000D01*
X181102037Y-79723373D01*
X181153557Y-79553534D01*
X181237222Y-79397009D01*
X181266552Y-79361271D01*
X181349814Y-79259814D01*
X181451271Y-79176552D01*
X181487009Y-79147222D01*
X181643534Y-79063557D01*
X181813373Y-79012037D01*
X181879558Y-79005518D01*
X181945740Y-78999000D01*
X182034260Y-78999000D01*
X182100442Y-79005518D01*
X182100442Y-79005518D01*
G37*
G36*
X184640442Y-79005518D02*
G01*
X184706627Y-79012037D01*
X184876466Y-79063557D01*
X185032991Y-79147222D01*
X185068729Y-79176552D01*
X185170186Y-79259814D01*
X185253448Y-79361271D01*
X185282778Y-79397009D01*
X185366443Y-79553534D01*
X185417963Y-79723373D01*
X185435359Y-79900000D01*
X185417963Y-80076627D01*
X185366443Y-80246466D01*
X185282778Y-80402991D01*
X185253448Y-80438729D01*
X185170186Y-80540186D01*
X185068729Y-80623448D01*
X185032991Y-80652778D01*
X184876466Y-80736443D01*
X184706627Y-80787963D01*
X184640442Y-80794482D01*
X184574260Y-80801000D01*
X184485740Y-80801000D01*
X184419558Y-80794482D01*
X184353373Y-80787963D01*
X184183534Y-80736443D01*
X184027009Y-80652778D01*
X183991271Y-80623448D01*
X183889814Y-80540186D01*
X183806552Y-80438729D01*
X183777222Y-80402991D01*
X183693557Y-80246466D01*
X183642037Y-80076627D01*
X183624641Y-79900000D01*
X183642037Y-79723373D01*
X183693557Y-79553534D01*
X183777222Y-79397009D01*
X183806552Y-79361271D01*
X183889814Y-79259814D01*
X183991271Y-79176552D01*
X184027009Y-79147222D01*
X184183534Y-79063557D01*
X184353373Y-79012037D01*
X184419558Y-79005518D01*
X184485740Y-78999000D01*
X184574260Y-78999000D01*
X184640442Y-79005518D01*
X184640442Y-79005518D01*
G37*
G36*
X187180442Y-79005518D02*
G01*
X187246627Y-79012037D01*
X187416466Y-79063557D01*
X187572991Y-79147222D01*
X187608729Y-79176552D01*
X187710186Y-79259814D01*
X187793448Y-79361271D01*
X187822778Y-79397009D01*
X187906443Y-79553534D01*
X187957963Y-79723373D01*
X187975359Y-79900000D01*
X187957963Y-80076627D01*
X187906443Y-80246466D01*
X187822778Y-80402991D01*
X187793448Y-80438729D01*
X187710186Y-80540186D01*
X187608729Y-80623448D01*
X187572991Y-80652778D01*
X187416466Y-80736443D01*
X187246627Y-80787963D01*
X187180442Y-80794482D01*
X187114260Y-80801000D01*
X187025740Y-80801000D01*
X186959558Y-80794482D01*
X186893373Y-80787963D01*
X186723534Y-80736443D01*
X186567009Y-80652778D01*
X186531271Y-80623448D01*
X186429814Y-80540186D01*
X186346552Y-80438729D01*
X186317222Y-80402991D01*
X186233557Y-80246466D01*
X186182037Y-80076627D01*
X186164641Y-79900000D01*
X186182037Y-79723373D01*
X186233557Y-79553534D01*
X186317222Y-79397009D01*
X186346552Y-79361271D01*
X186429814Y-79259814D01*
X186531271Y-79176552D01*
X186567009Y-79147222D01*
X186723534Y-79063557D01*
X186893373Y-79012037D01*
X186959558Y-79005518D01*
X187025740Y-78999000D01*
X187114260Y-78999000D01*
X187180442Y-79005518D01*
X187180442Y-79005518D01*
G37*
G36*
X189720442Y-79005518D02*
G01*
X189786627Y-79012037D01*
X189956466Y-79063557D01*
X190112991Y-79147222D01*
X190148729Y-79176552D01*
X190250186Y-79259814D01*
X190333448Y-79361271D01*
X190362778Y-79397009D01*
X190446443Y-79553534D01*
X190497963Y-79723373D01*
X190515359Y-79900000D01*
X190497963Y-80076627D01*
X190446443Y-80246466D01*
X190362778Y-80402991D01*
X190333448Y-80438729D01*
X190250186Y-80540186D01*
X190148729Y-80623448D01*
X190112991Y-80652778D01*
X189956466Y-80736443D01*
X189786627Y-80787963D01*
X189720442Y-80794482D01*
X189654260Y-80801000D01*
X189565740Y-80801000D01*
X189499558Y-80794482D01*
X189433373Y-80787963D01*
X189263534Y-80736443D01*
X189107009Y-80652778D01*
X189071271Y-80623448D01*
X188969814Y-80540186D01*
X188886552Y-80438729D01*
X188857222Y-80402991D01*
X188773557Y-80246466D01*
X188722037Y-80076627D01*
X188704641Y-79900000D01*
X188722037Y-79723373D01*
X188773557Y-79553534D01*
X188857222Y-79397009D01*
X188886552Y-79361271D01*
X188969814Y-79259814D01*
X189071271Y-79176552D01*
X189107009Y-79147222D01*
X189263534Y-79063557D01*
X189433373Y-79012037D01*
X189499558Y-79005518D01*
X189565740Y-78999000D01*
X189654260Y-78999000D01*
X189720442Y-79005518D01*
X189720442Y-79005518D01*
G37*
M02*
