G04 #@! TF.GenerationSoftware,KiCad,Pcbnew,(5.1.4-0-10_14)*
G04 #@! TF.CreationDate,2019-10-28T14:00:27+08:00*
G04 #@! TF.ProjectId,z2m_partner,7a326d5f-7061-4727-946e-65722e6b6963,rev?*
G04 #@! TF.SameCoordinates,Original*
G04 #@! TF.FileFunction,Soldermask,Top*
G04 #@! TF.FilePolarity,Negative*
%FSLAX46Y46*%
G04 Gerber Fmt 4.6, Leading zero omitted, Abs format (unit mm)*
G04 Created by KiCad (PCBNEW (5.1.4-0-10_14)) date 2019-10-28 14:00:27*
%MOMM*%
%LPD*%
G04 APERTURE LIST*
%ADD10C,0.100000*%
G04 APERTURE END LIST*
D10*
G36*
X173749167Y-119906644D02*
G01*
X174138592Y-119984105D01*
X174548248Y-120153790D01*
X174916928Y-120400135D01*
X175230465Y-120713672D01*
X175476810Y-121082352D01*
X175646495Y-121492008D01*
X175732999Y-121926896D01*
X175732999Y-122370304D01*
X175646495Y-122805192D01*
X175476810Y-123214848D01*
X175230465Y-123583528D01*
X174916928Y-123897065D01*
X174548248Y-124143410D01*
X174138592Y-124313095D01*
X173765590Y-124387289D01*
X173703705Y-124399599D01*
X173260295Y-124399599D01*
X173198410Y-124387289D01*
X172825408Y-124313095D01*
X172415752Y-124143410D01*
X172047072Y-123897065D01*
X171733535Y-123583528D01*
X171487190Y-123214848D01*
X171317505Y-122805192D01*
X171231001Y-122370304D01*
X171231001Y-121926896D01*
X171317505Y-121492008D01*
X171487190Y-121082352D01*
X171733535Y-120713672D01*
X172047072Y-120400135D01*
X172415752Y-120153790D01*
X172825408Y-119984105D01*
X173214833Y-119906644D01*
X173260295Y-119897601D01*
X173703705Y-119897601D01*
X173749167Y-119906644D01*
X173749167Y-119906644D01*
G37*
G36*
X199992217Y-120715727D02*
G01*
X200029713Y-120727102D01*
X200064272Y-120745574D01*
X200094565Y-120770435D01*
X200119426Y-120800728D01*
X200137898Y-120835287D01*
X200149273Y-120872783D01*
X200153718Y-120917920D01*
X200153718Y-121656644D01*
X200149273Y-121701781D01*
X200137898Y-121739277D01*
X200119426Y-121773836D01*
X200094565Y-121804129D01*
X200064272Y-121828990D01*
X200029713Y-121847462D01*
X199992217Y-121858837D01*
X199947080Y-121863282D01*
X199308356Y-121863282D01*
X199263219Y-121858837D01*
X199225723Y-121847462D01*
X199191164Y-121828990D01*
X199160871Y-121804129D01*
X199136010Y-121773836D01*
X199117538Y-121739277D01*
X199106163Y-121701781D01*
X199101718Y-121656644D01*
X199101718Y-120917920D01*
X199106163Y-120872783D01*
X199117538Y-120835287D01*
X199136010Y-120800728D01*
X199160871Y-120770435D01*
X199191164Y-120745574D01*
X199225723Y-120727102D01*
X199263219Y-120715727D01*
X199308356Y-120711282D01*
X199947080Y-120711282D01*
X199992217Y-120715727D01*
X199992217Y-120715727D01*
G37*
G36*
X170548225Y-119412063D02*
G01*
X170569306Y-119418459D01*
X170588742Y-119428847D01*
X170610539Y-119446735D01*
X170938444Y-119774640D01*
X170956332Y-119796437D01*
X170966720Y-119815873D01*
X170973116Y-119836954D01*
X170975275Y-119858882D01*
X170973116Y-119880810D01*
X170966720Y-119901891D01*
X170956332Y-119921327D01*
X170938444Y-119943124D01*
X169655945Y-121225623D01*
X169634148Y-121243511D01*
X169614712Y-121253899D01*
X169593631Y-121260295D01*
X169571703Y-121262454D01*
X169549775Y-121260295D01*
X169528694Y-121253899D01*
X169509258Y-121243511D01*
X169487461Y-121225623D01*
X169159556Y-120897718D01*
X169141668Y-120875921D01*
X169131280Y-120856485D01*
X169124884Y-120835404D01*
X169122725Y-120813476D01*
X169124884Y-120791548D01*
X169131280Y-120770467D01*
X169141668Y-120751031D01*
X169159556Y-120729234D01*
X170442055Y-119446735D01*
X170463852Y-119428847D01*
X170483288Y-119418459D01*
X170504369Y-119412063D01*
X170526297Y-119409904D01*
X170548225Y-119412063D01*
X170548225Y-119412063D01*
G37*
G36*
X169650200Y-118514037D02*
G01*
X169671281Y-118520433D01*
X169690717Y-118530821D01*
X169712514Y-118548709D01*
X170040419Y-118876614D01*
X170058307Y-118898411D01*
X170068695Y-118917847D01*
X170075091Y-118938928D01*
X170077250Y-118960856D01*
X170075091Y-118982784D01*
X170068695Y-119003865D01*
X170058307Y-119023301D01*
X170040419Y-119045098D01*
X168757920Y-120327597D01*
X168736123Y-120345485D01*
X168716687Y-120355873D01*
X168695606Y-120362269D01*
X168673678Y-120364428D01*
X168651750Y-120362269D01*
X168630669Y-120355873D01*
X168611233Y-120345485D01*
X168589436Y-120327597D01*
X168261531Y-119999692D01*
X168243643Y-119977895D01*
X168233255Y-119958459D01*
X168226859Y-119937378D01*
X168224700Y-119915450D01*
X168226859Y-119893522D01*
X168233255Y-119872441D01*
X168243643Y-119853005D01*
X168261531Y-119831208D01*
X169544030Y-118548709D01*
X169565827Y-118530821D01*
X169585263Y-118520433D01*
X169606344Y-118514037D01*
X169628272Y-118511878D01*
X169650200Y-118514037D01*
X169650200Y-118514037D01*
G37*
G36*
X199992217Y-118965727D02*
G01*
X200029713Y-118977102D01*
X200064272Y-118995574D01*
X200094565Y-119020435D01*
X200119426Y-119050728D01*
X200137898Y-119085287D01*
X200149273Y-119122783D01*
X200153718Y-119167920D01*
X200153718Y-119906644D01*
X200149273Y-119951781D01*
X200137898Y-119989277D01*
X200119426Y-120023836D01*
X200094565Y-120054129D01*
X200064272Y-120078990D01*
X200029713Y-120097462D01*
X199992217Y-120108837D01*
X199947080Y-120113282D01*
X199308356Y-120113282D01*
X199263219Y-120108837D01*
X199225723Y-120097462D01*
X199191164Y-120078990D01*
X199160871Y-120054129D01*
X199136010Y-120023836D01*
X199117538Y-119989277D01*
X199106163Y-119951781D01*
X199101718Y-119906644D01*
X199101718Y-119167920D01*
X199106163Y-119122783D01*
X199117538Y-119085287D01*
X199136010Y-119050728D01*
X199160871Y-119020435D01*
X199191164Y-118995574D01*
X199225723Y-118977102D01*
X199263219Y-118965727D01*
X199308356Y-118961282D01*
X199947080Y-118961282D01*
X199992217Y-118965727D01*
X199992217Y-118965727D01*
G37*
G36*
X202277059Y-118671965D02*
G01*
X201462472Y-119486552D01*
X200930727Y-118954807D01*
X201745314Y-118140220D01*
X202277059Y-118671965D01*
X202277059Y-118671965D01*
G37*
G36*
X168752174Y-117616012D02*
G01*
X168773255Y-117622408D01*
X168792691Y-117632796D01*
X168814488Y-117650684D01*
X169142393Y-117978589D01*
X169160281Y-118000386D01*
X169170669Y-118019822D01*
X169177065Y-118040903D01*
X169179224Y-118062831D01*
X169177065Y-118084759D01*
X169170669Y-118105840D01*
X169160281Y-118125276D01*
X169142393Y-118147073D01*
X167859894Y-119429572D01*
X167838097Y-119447460D01*
X167818661Y-119457848D01*
X167797580Y-119464244D01*
X167775652Y-119466403D01*
X167753724Y-119464244D01*
X167732643Y-119457848D01*
X167713207Y-119447460D01*
X167691410Y-119429572D01*
X167363505Y-119101667D01*
X167345617Y-119079870D01*
X167335229Y-119060434D01*
X167328833Y-119039353D01*
X167326674Y-119017425D01*
X167328833Y-118995497D01*
X167335229Y-118974416D01*
X167345617Y-118954980D01*
X167363505Y-118933183D01*
X168646004Y-117650684D01*
X168667801Y-117632796D01*
X168687237Y-117622408D01*
X168708318Y-117616012D01*
X168730246Y-117613853D01*
X168752174Y-117616012D01*
X168752174Y-117616012D01*
G37*
G36*
X195615000Y-119246000D02*
G01*
X193513000Y-119246000D01*
X193513000Y-118244000D01*
X195615000Y-118244000D01*
X195615000Y-119246000D01*
X195615000Y-119246000D01*
G37*
G36*
X177212213Y-118251249D02*
G01*
X177306652Y-118279897D01*
X177393687Y-118326418D01*
X177469975Y-118389025D01*
X177532582Y-118465313D01*
X177579103Y-118552348D01*
X177607751Y-118646787D01*
X177617424Y-118745000D01*
X177607751Y-118843213D01*
X177579103Y-118937652D01*
X177532582Y-119024687D01*
X177469975Y-119100975D01*
X177393687Y-119163582D01*
X177306652Y-119210103D01*
X177212213Y-119238751D01*
X177138612Y-119246000D01*
X175989388Y-119246000D01*
X175915787Y-119238751D01*
X175821348Y-119210103D01*
X175734313Y-119163582D01*
X175658025Y-119100975D01*
X175595418Y-119024687D01*
X175548897Y-118937652D01*
X175520249Y-118843213D01*
X175510576Y-118745000D01*
X175520249Y-118646787D01*
X175548897Y-118552348D01*
X175595418Y-118465313D01*
X175658025Y-118389025D01*
X175734313Y-118326418D01*
X175821348Y-118279897D01*
X175915787Y-118251249D01*
X175989388Y-118244000D01*
X177138612Y-118244000D01*
X177212213Y-118251249D01*
X177212213Y-118251249D01*
G37*
G36*
X167854149Y-116717986D02*
G01*
X167875230Y-116724382D01*
X167894666Y-116734770D01*
X167916463Y-116752658D01*
X168244368Y-117080563D01*
X168262256Y-117102360D01*
X168272644Y-117121796D01*
X168279040Y-117142877D01*
X168281199Y-117164805D01*
X168279040Y-117186733D01*
X168272644Y-117207814D01*
X168262256Y-117227250D01*
X168244368Y-117249047D01*
X166961869Y-118531546D01*
X166940072Y-118549434D01*
X166920636Y-118559822D01*
X166899555Y-118566218D01*
X166877627Y-118568377D01*
X166855699Y-118566218D01*
X166834618Y-118559822D01*
X166815182Y-118549434D01*
X166793385Y-118531546D01*
X166465480Y-118203641D01*
X166447592Y-118181844D01*
X166437204Y-118162408D01*
X166430808Y-118141327D01*
X166428649Y-118119399D01*
X166430808Y-118097471D01*
X166437204Y-118076390D01*
X166447592Y-118056954D01*
X166465480Y-118035157D01*
X167747979Y-116752658D01*
X167769776Y-116734770D01*
X167789212Y-116724382D01*
X167810293Y-116717986D01*
X167832221Y-116715827D01*
X167854149Y-116717986D01*
X167854149Y-116717986D01*
G37*
G36*
X200756780Y-117151686D02*
G01*
X199942193Y-117966273D01*
X199410448Y-117434528D01*
X200225035Y-116619941D01*
X200756780Y-117151686D01*
X200756780Y-117151686D01*
G37*
G36*
X174048404Y-115911884D02*
G01*
X174069485Y-115918280D01*
X174088921Y-115928668D01*
X174110718Y-115946556D01*
X174438623Y-116274461D01*
X174456511Y-116296258D01*
X174466899Y-116315694D01*
X174473295Y-116336775D01*
X174475454Y-116358703D01*
X174473295Y-116380631D01*
X174466899Y-116401712D01*
X174456511Y-116421148D01*
X174438623Y-116442945D01*
X173156124Y-117725444D01*
X173134327Y-117743332D01*
X173114891Y-117753720D01*
X173093810Y-117760116D01*
X173071882Y-117762275D01*
X173049954Y-117760116D01*
X173028873Y-117753720D01*
X173009437Y-117743332D01*
X172987640Y-117725444D01*
X172659735Y-117397539D01*
X172641847Y-117375742D01*
X172631459Y-117356306D01*
X172625063Y-117335225D01*
X172622904Y-117313297D01*
X172625063Y-117291369D01*
X172631459Y-117270288D01*
X172641847Y-117250852D01*
X172659735Y-117229055D01*
X173942234Y-115946556D01*
X173964031Y-115928668D01*
X173983467Y-115918280D01*
X174004548Y-115911884D01*
X174026476Y-115909725D01*
X174048404Y-115911884D01*
X174048404Y-115911884D01*
G37*
G36*
X195212213Y-116751249D02*
G01*
X195306652Y-116779897D01*
X195393687Y-116826418D01*
X195469975Y-116889025D01*
X195532582Y-116965313D01*
X195579103Y-117052348D01*
X195607751Y-117146787D01*
X195617424Y-117245000D01*
X195607751Y-117343213D01*
X195579103Y-117437652D01*
X195532582Y-117524687D01*
X195469975Y-117600975D01*
X195393687Y-117663582D01*
X195306652Y-117710103D01*
X195212213Y-117738751D01*
X195138612Y-117746000D01*
X193989388Y-117746000D01*
X193915787Y-117738751D01*
X193821348Y-117710103D01*
X193734313Y-117663582D01*
X193658025Y-117600975D01*
X193595418Y-117524687D01*
X193548897Y-117437652D01*
X193520249Y-117343213D01*
X193510576Y-117245000D01*
X193520249Y-117146787D01*
X193548897Y-117052348D01*
X193595418Y-116965313D01*
X193658025Y-116889025D01*
X193734313Y-116826418D01*
X193821348Y-116779897D01*
X193915787Y-116751249D01*
X193989388Y-116744000D01*
X195138612Y-116744000D01*
X195212213Y-116751249D01*
X195212213Y-116751249D01*
G37*
G36*
X177212213Y-116751249D02*
G01*
X177306652Y-116779897D01*
X177393687Y-116826418D01*
X177469975Y-116889025D01*
X177532582Y-116965313D01*
X177579103Y-117052348D01*
X177607751Y-117146787D01*
X177617424Y-117245000D01*
X177607751Y-117343213D01*
X177579103Y-117437652D01*
X177532582Y-117524687D01*
X177469975Y-117600975D01*
X177393687Y-117663582D01*
X177306652Y-117710103D01*
X177212213Y-117738751D01*
X177138612Y-117746000D01*
X175989388Y-117746000D01*
X175915787Y-117738751D01*
X175821348Y-117710103D01*
X175734313Y-117663582D01*
X175658025Y-117600975D01*
X175595418Y-117524687D01*
X175548897Y-117437652D01*
X175520249Y-117343213D01*
X175510576Y-117245000D01*
X175520249Y-117146787D01*
X175548897Y-117052348D01*
X175595418Y-116965313D01*
X175658025Y-116889025D01*
X175734313Y-116826418D01*
X175821348Y-116779897D01*
X175915787Y-116751249D01*
X175989388Y-116744000D01*
X177138612Y-116744000D01*
X177212213Y-116751249D01*
X177212213Y-116751249D01*
G37*
G36*
X166956123Y-115819960D02*
G01*
X166977204Y-115826356D01*
X166996640Y-115836744D01*
X167018437Y-115854632D01*
X167346342Y-116182537D01*
X167364230Y-116204334D01*
X167374618Y-116223770D01*
X167381014Y-116244851D01*
X167383173Y-116266779D01*
X167381014Y-116288707D01*
X167374618Y-116309788D01*
X167364230Y-116329224D01*
X167346342Y-116351021D01*
X166063843Y-117633520D01*
X166042046Y-117651408D01*
X166022610Y-117661796D01*
X166001529Y-117668192D01*
X165979601Y-117670351D01*
X165957673Y-117668192D01*
X165936592Y-117661796D01*
X165917156Y-117651408D01*
X165895359Y-117633520D01*
X165567454Y-117305615D01*
X165549566Y-117283818D01*
X165539178Y-117264382D01*
X165532782Y-117243301D01*
X165530623Y-117221373D01*
X165532782Y-117199445D01*
X165539178Y-117178364D01*
X165549566Y-117158928D01*
X165567454Y-117137131D01*
X166849953Y-115854632D01*
X166871750Y-115836744D01*
X166891186Y-115826356D01*
X166912267Y-115819960D01*
X166934195Y-115817801D01*
X166956123Y-115819960D01*
X166956123Y-115819960D01*
G37*
G36*
X173150378Y-115013859D02*
G01*
X173171459Y-115020255D01*
X173190895Y-115030643D01*
X173212692Y-115048531D01*
X173540597Y-115376436D01*
X173558485Y-115398233D01*
X173568873Y-115417669D01*
X173575269Y-115438750D01*
X173577428Y-115460678D01*
X173575269Y-115482606D01*
X173568873Y-115503687D01*
X173558485Y-115523123D01*
X173540597Y-115544920D01*
X172258098Y-116827419D01*
X172236301Y-116845307D01*
X172216865Y-116855695D01*
X172195784Y-116862091D01*
X172173856Y-116864250D01*
X172151928Y-116862091D01*
X172130847Y-116855695D01*
X172111411Y-116845307D01*
X172089614Y-116827419D01*
X171761709Y-116499514D01*
X171743821Y-116477717D01*
X171733433Y-116458281D01*
X171727037Y-116437200D01*
X171724878Y-116415272D01*
X171727037Y-116393344D01*
X171733433Y-116372263D01*
X171743821Y-116352827D01*
X171761709Y-116331030D01*
X173044208Y-115048531D01*
X173066005Y-115030643D01*
X173085441Y-115020255D01*
X173106522Y-115013859D01*
X173128450Y-115011700D01*
X173150378Y-115013859D01*
X173150378Y-115013859D01*
G37*
G36*
X166058097Y-114921935D02*
G01*
X166079178Y-114928331D01*
X166098614Y-114938719D01*
X166120411Y-114956607D01*
X166448316Y-115284512D01*
X166466204Y-115306309D01*
X166476592Y-115325745D01*
X166482988Y-115346826D01*
X166485147Y-115368754D01*
X166482988Y-115390682D01*
X166476592Y-115411763D01*
X166466204Y-115431199D01*
X166448316Y-115452996D01*
X165165817Y-116735495D01*
X165144020Y-116753383D01*
X165124584Y-116763771D01*
X165103503Y-116770167D01*
X165081575Y-116772326D01*
X165059647Y-116770167D01*
X165038566Y-116763771D01*
X165019130Y-116753383D01*
X164997333Y-116735495D01*
X164669428Y-116407590D01*
X164651540Y-116385793D01*
X164641152Y-116366357D01*
X164634756Y-116345276D01*
X164632597Y-116323348D01*
X164634756Y-116301420D01*
X164641152Y-116280339D01*
X164651540Y-116260903D01*
X164669428Y-116239106D01*
X165951927Y-114956607D01*
X165973724Y-114938719D01*
X165993160Y-114928331D01*
X166014241Y-114921935D01*
X166036169Y-114919776D01*
X166058097Y-114921935D01*
X166058097Y-114921935D01*
G37*
G36*
X205211552Y-115737472D02*
G01*
X204396965Y-116552059D01*
X203865220Y-116020314D01*
X204679807Y-115205727D01*
X205211552Y-115737472D01*
X205211552Y-115737472D01*
G37*
G36*
X177212213Y-115251249D02*
G01*
X177306652Y-115279897D01*
X177393687Y-115326418D01*
X177469975Y-115389025D01*
X177532582Y-115465313D01*
X177579103Y-115552348D01*
X177607751Y-115646787D01*
X177617424Y-115745000D01*
X177607751Y-115843213D01*
X177579103Y-115937652D01*
X177532582Y-116024687D01*
X177469975Y-116100975D01*
X177393687Y-116163582D01*
X177306652Y-116210103D01*
X177212213Y-116238751D01*
X177138612Y-116246000D01*
X175989388Y-116246000D01*
X175915787Y-116238751D01*
X175821348Y-116210103D01*
X175734313Y-116163582D01*
X175658025Y-116100975D01*
X175595418Y-116024687D01*
X175548897Y-115937652D01*
X175520249Y-115843213D01*
X175510576Y-115745000D01*
X175520249Y-115646787D01*
X175548897Y-115552348D01*
X175595418Y-115465313D01*
X175658025Y-115389025D01*
X175734313Y-115326418D01*
X175821348Y-115279897D01*
X175915787Y-115251249D01*
X175989388Y-115244000D01*
X177138612Y-115244000D01*
X177212213Y-115251249D01*
X177212213Y-115251249D01*
G37*
G36*
X195212213Y-115251249D02*
G01*
X195306652Y-115279897D01*
X195393687Y-115326418D01*
X195469975Y-115389025D01*
X195532582Y-115465313D01*
X195579103Y-115552348D01*
X195607751Y-115646787D01*
X195617424Y-115745000D01*
X195607751Y-115843213D01*
X195579103Y-115937652D01*
X195532582Y-116024687D01*
X195469975Y-116100975D01*
X195393687Y-116163582D01*
X195306652Y-116210103D01*
X195212213Y-116238751D01*
X195138612Y-116246000D01*
X193989388Y-116246000D01*
X193915787Y-116238751D01*
X193821348Y-116210103D01*
X193734313Y-116163582D01*
X193658025Y-116100975D01*
X193595418Y-116024687D01*
X193548897Y-115937652D01*
X193520249Y-115843213D01*
X193510576Y-115745000D01*
X193520249Y-115646787D01*
X193548897Y-115552348D01*
X193595418Y-115465313D01*
X193658025Y-115389025D01*
X193734313Y-115326418D01*
X193821348Y-115279897D01*
X193915787Y-115251249D01*
X193989388Y-115244000D01*
X195138612Y-115244000D01*
X195212213Y-115251249D01*
X195212213Y-115251249D01*
G37*
G36*
X172252353Y-114115833D02*
G01*
X172273434Y-114122229D01*
X172292870Y-114132617D01*
X172314667Y-114150505D01*
X172642572Y-114478410D01*
X172660460Y-114500207D01*
X172670848Y-114519643D01*
X172677244Y-114540724D01*
X172679403Y-114562652D01*
X172677244Y-114584580D01*
X172670848Y-114605661D01*
X172660460Y-114625097D01*
X172642572Y-114646894D01*
X171360073Y-115929393D01*
X171338276Y-115947281D01*
X171318840Y-115957669D01*
X171297759Y-115964065D01*
X171275831Y-115966224D01*
X171253903Y-115964065D01*
X171232822Y-115957669D01*
X171213386Y-115947281D01*
X171191589Y-115929393D01*
X170863684Y-115601488D01*
X170845796Y-115579691D01*
X170835408Y-115560255D01*
X170829012Y-115539174D01*
X170826853Y-115517246D01*
X170829012Y-115495318D01*
X170835408Y-115474237D01*
X170845796Y-115454801D01*
X170863684Y-115433004D01*
X172146183Y-114150505D01*
X172167980Y-114132617D01*
X172187416Y-114122229D01*
X172208497Y-114115833D01*
X172230425Y-114113674D01*
X172252353Y-114115833D01*
X172252353Y-114115833D01*
G37*
G36*
X165160072Y-114023909D02*
G01*
X165181153Y-114030305D01*
X165200589Y-114040693D01*
X165222386Y-114058581D01*
X165550291Y-114386486D01*
X165568179Y-114408283D01*
X165578567Y-114427719D01*
X165584963Y-114448800D01*
X165587122Y-114470728D01*
X165584963Y-114492656D01*
X165578567Y-114513737D01*
X165568179Y-114533173D01*
X165550291Y-114554970D01*
X164267792Y-115837469D01*
X164245995Y-115855357D01*
X164226559Y-115865745D01*
X164205478Y-115872141D01*
X164183550Y-115874300D01*
X164161622Y-115872141D01*
X164140541Y-115865745D01*
X164121105Y-115855357D01*
X164099308Y-115837469D01*
X163771403Y-115509564D01*
X163753515Y-115487767D01*
X163743127Y-115468331D01*
X163736731Y-115447250D01*
X163734572Y-115425322D01*
X163736731Y-115403394D01*
X163743127Y-115382313D01*
X163753515Y-115362877D01*
X163771403Y-115341080D01*
X165053902Y-114058581D01*
X165075699Y-114040693D01*
X165095135Y-114030305D01*
X165116216Y-114023909D01*
X165138144Y-114021750D01*
X165160072Y-114023909D01*
X165160072Y-114023909D01*
G37*
G36*
X171354327Y-113217808D02*
G01*
X171375408Y-113224204D01*
X171394844Y-113234592D01*
X171416641Y-113252480D01*
X171744546Y-113580385D01*
X171762434Y-113602182D01*
X171772822Y-113621618D01*
X171779218Y-113642699D01*
X171781377Y-113664627D01*
X171779218Y-113686555D01*
X171772822Y-113707636D01*
X171762434Y-113727072D01*
X171744546Y-113748869D01*
X170462047Y-115031368D01*
X170440250Y-115049256D01*
X170420814Y-115059644D01*
X170399733Y-115066040D01*
X170377805Y-115068199D01*
X170355877Y-115066040D01*
X170334796Y-115059644D01*
X170315360Y-115049256D01*
X170293563Y-115031368D01*
X169965658Y-114703463D01*
X169947770Y-114681666D01*
X169937382Y-114662230D01*
X169930986Y-114641149D01*
X169928827Y-114619221D01*
X169930986Y-114597293D01*
X169937382Y-114576212D01*
X169947770Y-114556776D01*
X169965658Y-114534979D01*
X171248157Y-113252480D01*
X171269954Y-113234592D01*
X171289390Y-113224204D01*
X171310471Y-113217808D01*
X171332399Y-113215649D01*
X171354327Y-113217808D01*
X171354327Y-113217808D01*
G37*
G36*
X203691273Y-114217193D02*
G01*
X202876686Y-115031780D01*
X202344941Y-114500035D01*
X203159528Y-113685448D01*
X203691273Y-114217193D01*
X203691273Y-114217193D01*
G37*
G36*
X164262046Y-113125884D02*
G01*
X164283127Y-113132280D01*
X164302563Y-113142668D01*
X164324360Y-113160556D01*
X164652265Y-113488461D01*
X164670153Y-113510258D01*
X164680541Y-113529694D01*
X164686937Y-113550775D01*
X164689096Y-113572703D01*
X164686937Y-113594631D01*
X164680541Y-113615712D01*
X164670153Y-113635148D01*
X164652265Y-113656945D01*
X163369766Y-114939444D01*
X163347969Y-114957332D01*
X163328533Y-114967720D01*
X163307452Y-114974116D01*
X163285524Y-114976275D01*
X163263596Y-114974116D01*
X163242515Y-114967720D01*
X163223079Y-114957332D01*
X163201282Y-114939444D01*
X162873377Y-114611539D01*
X162855489Y-114589742D01*
X162845101Y-114570306D01*
X162838705Y-114549225D01*
X162836546Y-114527297D01*
X162838705Y-114505369D01*
X162845101Y-114484288D01*
X162855489Y-114464852D01*
X162873377Y-114443055D01*
X164155876Y-113160556D01*
X164177673Y-113142668D01*
X164197109Y-113132280D01*
X164218190Y-113125884D01*
X164240118Y-113123725D01*
X164262046Y-113125884D01*
X164262046Y-113125884D01*
G37*
G36*
X177212213Y-113751249D02*
G01*
X177306652Y-113779897D01*
X177393687Y-113826418D01*
X177469975Y-113889025D01*
X177532582Y-113965313D01*
X177579103Y-114052348D01*
X177607751Y-114146787D01*
X177617424Y-114245000D01*
X177607751Y-114343213D01*
X177579103Y-114437652D01*
X177532582Y-114524687D01*
X177469975Y-114600975D01*
X177393687Y-114663582D01*
X177306652Y-114710103D01*
X177212213Y-114738751D01*
X177138612Y-114746000D01*
X175989388Y-114746000D01*
X175915787Y-114738751D01*
X175821348Y-114710103D01*
X175734313Y-114663582D01*
X175658025Y-114600975D01*
X175595418Y-114524687D01*
X175548897Y-114437652D01*
X175520249Y-114343213D01*
X175510576Y-114245000D01*
X175520249Y-114146787D01*
X175548897Y-114052348D01*
X175595418Y-113965313D01*
X175658025Y-113889025D01*
X175734313Y-113826418D01*
X175821348Y-113779897D01*
X175915787Y-113751249D01*
X175989388Y-113744000D01*
X177138612Y-113744000D01*
X177212213Y-113751249D01*
X177212213Y-113751249D01*
G37*
G36*
X195212213Y-113751249D02*
G01*
X195306652Y-113779897D01*
X195393687Y-113826418D01*
X195469975Y-113889025D01*
X195532582Y-113965313D01*
X195579103Y-114052348D01*
X195607751Y-114146787D01*
X195617424Y-114245000D01*
X195607751Y-114343213D01*
X195579103Y-114437652D01*
X195532582Y-114524687D01*
X195469975Y-114600975D01*
X195393687Y-114663582D01*
X195306652Y-114710103D01*
X195212213Y-114738751D01*
X195138612Y-114746000D01*
X193989388Y-114746000D01*
X193915787Y-114738751D01*
X193821348Y-114710103D01*
X193734313Y-114663582D01*
X193658025Y-114600975D01*
X193595418Y-114524687D01*
X193548897Y-114437652D01*
X193520249Y-114343213D01*
X193510576Y-114245000D01*
X193520249Y-114146787D01*
X193548897Y-114052348D01*
X193595418Y-113965313D01*
X193658025Y-113889025D01*
X193734313Y-113826418D01*
X193821348Y-113779897D01*
X193915787Y-113751249D01*
X193989388Y-113744000D01*
X195138612Y-113744000D01*
X195212213Y-113751249D01*
X195212213Y-113751249D01*
G37*
G36*
X199246499Y-113460445D02*
G01*
X199283995Y-113471820D01*
X199318554Y-113490292D01*
X199348847Y-113515153D01*
X199373708Y-113545446D01*
X199392180Y-113580005D01*
X199403555Y-113617501D01*
X199408000Y-113662638D01*
X199408000Y-114401362D01*
X199403555Y-114446499D01*
X199392180Y-114483995D01*
X199373708Y-114518554D01*
X199348847Y-114548847D01*
X199318554Y-114573708D01*
X199283995Y-114592180D01*
X199246499Y-114603555D01*
X199201362Y-114608000D01*
X198562638Y-114608000D01*
X198517501Y-114603555D01*
X198480005Y-114592180D01*
X198445446Y-114573708D01*
X198415153Y-114548847D01*
X198390292Y-114518554D01*
X198371820Y-114483995D01*
X198360445Y-114446499D01*
X198356000Y-114401362D01*
X198356000Y-113662638D01*
X198360445Y-113617501D01*
X198371820Y-113580005D01*
X198390292Y-113545446D01*
X198415153Y-113515153D01*
X198445446Y-113490292D01*
X198480005Y-113471820D01*
X198517501Y-113460445D01*
X198562638Y-113456000D01*
X199201362Y-113456000D01*
X199246499Y-113460445D01*
X199246499Y-113460445D01*
G37*
G36*
X201024499Y-113446445D02*
G01*
X201061995Y-113457820D01*
X201096554Y-113476292D01*
X201126847Y-113501153D01*
X201151708Y-113531446D01*
X201170180Y-113566005D01*
X201181555Y-113603501D01*
X201186000Y-113648638D01*
X201186000Y-114387362D01*
X201181555Y-114432499D01*
X201170180Y-114469995D01*
X201151708Y-114504554D01*
X201126847Y-114534847D01*
X201096554Y-114559708D01*
X201061995Y-114578180D01*
X201024499Y-114589555D01*
X200979362Y-114594000D01*
X200340638Y-114594000D01*
X200295501Y-114589555D01*
X200258005Y-114578180D01*
X200223446Y-114559708D01*
X200193153Y-114534847D01*
X200168292Y-114504554D01*
X200149820Y-114469995D01*
X200138445Y-114432499D01*
X200134000Y-114387362D01*
X200134000Y-113648638D01*
X200138445Y-113603501D01*
X200149820Y-113566005D01*
X200168292Y-113531446D01*
X200193153Y-113501153D01*
X200223446Y-113476292D01*
X200258005Y-113457820D01*
X200295501Y-113446445D01*
X200340638Y-113442000D01*
X200979362Y-113442000D01*
X201024499Y-113446445D01*
X201024499Y-113446445D01*
G37*
G36*
X186644999Y-114365999D02*
G01*
X182243001Y-114365999D01*
X182243001Y-109964001D01*
X186644999Y-109964001D01*
X186644999Y-114365999D01*
X186644999Y-114365999D01*
G37*
G36*
X170456301Y-112319782D02*
G01*
X170477382Y-112326178D01*
X170496818Y-112336566D01*
X170518615Y-112354454D01*
X170846520Y-112682359D01*
X170864408Y-112704156D01*
X170874796Y-112723592D01*
X170881192Y-112744673D01*
X170883351Y-112766601D01*
X170881192Y-112788529D01*
X170874796Y-112809610D01*
X170864408Y-112829046D01*
X170846520Y-112850843D01*
X169564021Y-114133342D01*
X169542224Y-114151230D01*
X169522788Y-114161618D01*
X169501707Y-114168014D01*
X169479779Y-114170173D01*
X169457851Y-114168014D01*
X169436770Y-114161618D01*
X169417334Y-114151230D01*
X169395537Y-114133342D01*
X169067632Y-113805437D01*
X169049744Y-113783640D01*
X169039356Y-113764204D01*
X169032960Y-113743123D01*
X169030801Y-113721195D01*
X169032960Y-113699267D01*
X169039356Y-113678186D01*
X169049744Y-113658750D01*
X169067632Y-113636953D01*
X170350131Y-112354454D01*
X170371928Y-112336566D01*
X170391364Y-112326178D01*
X170412445Y-112319782D01*
X170434373Y-112317623D01*
X170456301Y-112319782D01*
X170456301Y-112319782D01*
G37*
G36*
X204944059Y-112829965D02*
G01*
X204129472Y-113644552D01*
X203597727Y-113112807D01*
X204412314Y-112298220D01*
X204944059Y-112829965D01*
X204944059Y-112829965D01*
G37*
G36*
X169558276Y-111421756D02*
G01*
X169579357Y-111428152D01*
X169598793Y-111438540D01*
X169620590Y-111456428D01*
X169948495Y-111784333D01*
X169966383Y-111806130D01*
X169976771Y-111825566D01*
X169983167Y-111846647D01*
X169985326Y-111868575D01*
X169983167Y-111890503D01*
X169976771Y-111911584D01*
X169966383Y-111931020D01*
X169948495Y-111952817D01*
X168665996Y-113235316D01*
X168644199Y-113253204D01*
X168624763Y-113263592D01*
X168603682Y-113269988D01*
X168581754Y-113272147D01*
X168559826Y-113269988D01*
X168538745Y-113263592D01*
X168519309Y-113253204D01*
X168497512Y-113235316D01*
X168169607Y-112907411D01*
X168151719Y-112885614D01*
X168141331Y-112866178D01*
X168134935Y-112845097D01*
X168132776Y-112823169D01*
X168134935Y-112801241D01*
X168141331Y-112780160D01*
X168151719Y-112760724D01*
X168169607Y-112738927D01*
X169452106Y-111456428D01*
X169473903Y-111438540D01*
X169493339Y-111428152D01*
X169514420Y-111421756D01*
X169536348Y-111419597D01*
X169558276Y-111421756D01*
X169558276Y-111421756D01*
G37*
G36*
X195212213Y-112251249D02*
G01*
X195306652Y-112279897D01*
X195393687Y-112326418D01*
X195469975Y-112389025D01*
X195532582Y-112465313D01*
X195579103Y-112552348D01*
X195607751Y-112646787D01*
X195617424Y-112745000D01*
X195607751Y-112843213D01*
X195579103Y-112937652D01*
X195532582Y-113024687D01*
X195469975Y-113100975D01*
X195393687Y-113163582D01*
X195306652Y-113210103D01*
X195212213Y-113238751D01*
X195138612Y-113246000D01*
X193989388Y-113246000D01*
X193915787Y-113238751D01*
X193821348Y-113210103D01*
X193734313Y-113163582D01*
X193658025Y-113100975D01*
X193595418Y-113024687D01*
X193548897Y-112937652D01*
X193520249Y-112843213D01*
X193510576Y-112745000D01*
X193520249Y-112646787D01*
X193548897Y-112552348D01*
X193595418Y-112465313D01*
X193658025Y-112389025D01*
X193734313Y-112326418D01*
X193821348Y-112279897D01*
X193915787Y-112251249D01*
X193989388Y-112244000D01*
X195138612Y-112244000D01*
X195212213Y-112251249D01*
X195212213Y-112251249D01*
G37*
G36*
X177212213Y-112251249D02*
G01*
X177306652Y-112279897D01*
X177393687Y-112326418D01*
X177469975Y-112389025D01*
X177532582Y-112465313D01*
X177579103Y-112552348D01*
X177607751Y-112646787D01*
X177617424Y-112745000D01*
X177607751Y-112843213D01*
X177579103Y-112937652D01*
X177532582Y-113024687D01*
X177469975Y-113100975D01*
X177393687Y-113163582D01*
X177306652Y-113210103D01*
X177212213Y-113238751D01*
X177138612Y-113246000D01*
X175989388Y-113246000D01*
X175915787Y-113238751D01*
X175821348Y-113210103D01*
X175734313Y-113163582D01*
X175658025Y-113100975D01*
X175595418Y-113024687D01*
X175548897Y-112937652D01*
X175520249Y-112843213D01*
X175510576Y-112745000D01*
X175520249Y-112646787D01*
X175548897Y-112552348D01*
X175595418Y-112465313D01*
X175658025Y-112389025D01*
X175734313Y-112326418D01*
X175821348Y-112279897D01*
X175915787Y-112251249D01*
X175989388Y-112244000D01*
X177138612Y-112244000D01*
X177212213Y-112251249D01*
X177212213Y-112251249D01*
G37*
G36*
X174884499Y-112127445D02*
G01*
X174921995Y-112138820D01*
X174956554Y-112157292D01*
X174986847Y-112182153D01*
X175011708Y-112212446D01*
X175030180Y-112247005D01*
X175041555Y-112284501D01*
X175046000Y-112329638D01*
X175046000Y-112968362D01*
X175041555Y-113013499D01*
X175030180Y-113050995D01*
X175011708Y-113085554D01*
X174986847Y-113115847D01*
X174956554Y-113140708D01*
X174921995Y-113159180D01*
X174884499Y-113170555D01*
X174839362Y-113175000D01*
X174100638Y-113175000D01*
X174055501Y-113170555D01*
X174018005Y-113159180D01*
X173983446Y-113140708D01*
X173953153Y-113115847D01*
X173928292Y-113085554D01*
X173909820Y-113050995D01*
X173898445Y-113013499D01*
X173894000Y-112968362D01*
X173894000Y-112329638D01*
X173898445Y-112284501D01*
X173909820Y-112247005D01*
X173928292Y-112212446D01*
X173953153Y-112182153D01*
X173983446Y-112157292D01*
X174018005Y-112138820D01*
X174055501Y-112127445D01*
X174100638Y-112123000D01*
X174839362Y-112123000D01*
X174884499Y-112127445D01*
X174884499Y-112127445D01*
G37*
G36*
X173134499Y-112127445D02*
G01*
X173171995Y-112138820D01*
X173206554Y-112157292D01*
X173236847Y-112182153D01*
X173261708Y-112212446D01*
X173280180Y-112247005D01*
X173291555Y-112284501D01*
X173296000Y-112329638D01*
X173296000Y-112968362D01*
X173291555Y-113013499D01*
X173280180Y-113050995D01*
X173261708Y-113085554D01*
X173236847Y-113115847D01*
X173206554Y-113140708D01*
X173171995Y-113159180D01*
X173134499Y-113170555D01*
X173089362Y-113175000D01*
X172350638Y-113175000D01*
X172305501Y-113170555D01*
X172268005Y-113159180D01*
X172233446Y-113140708D01*
X172203153Y-113115847D01*
X172178292Y-113085554D01*
X172159820Y-113050995D01*
X172148445Y-113013499D01*
X172144000Y-112968362D01*
X172144000Y-112329638D01*
X172148445Y-112284501D01*
X172159820Y-112247005D01*
X172178292Y-112212446D01*
X172203153Y-112182153D01*
X172233446Y-112157292D01*
X172268005Y-112138820D01*
X172305501Y-112127445D01*
X172350638Y-112123000D01*
X173089362Y-112123000D01*
X173134499Y-112127445D01*
X173134499Y-112127445D01*
G37*
G36*
X199246499Y-111710445D02*
G01*
X199283995Y-111721820D01*
X199318554Y-111740292D01*
X199348847Y-111765153D01*
X199373708Y-111795446D01*
X199392180Y-111830005D01*
X199403555Y-111867501D01*
X199408000Y-111912638D01*
X199408000Y-112651362D01*
X199403555Y-112696499D01*
X199392180Y-112733995D01*
X199373708Y-112768554D01*
X199348847Y-112798847D01*
X199318554Y-112823708D01*
X199283995Y-112842180D01*
X199246499Y-112853555D01*
X199201362Y-112858000D01*
X198562638Y-112858000D01*
X198517501Y-112853555D01*
X198480005Y-112842180D01*
X198445446Y-112823708D01*
X198415153Y-112798847D01*
X198390292Y-112768554D01*
X198371820Y-112733995D01*
X198360445Y-112696499D01*
X198356000Y-112651362D01*
X198356000Y-111912638D01*
X198360445Y-111867501D01*
X198371820Y-111830005D01*
X198390292Y-111795446D01*
X198415153Y-111765153D01*
X198445446Y-111740292D01*
X198480005Y-111721820D01*
X198517501Y-111710445D01*
X198562638Y-111706000D01*
X199201362Y-111706000D01*
X199246499Y-111710445D01*
X199246499Y-111710445D01*
G37*
G36*
X201024499Y-111696445D02*
G01*
X201061995Y-111707820D01*
X201096554Y-111726292D01*
X201126847Y-111751153D01*
X201151708Y-111781446D01*
X201170180Y-111816005D01*
X201181555Y-111853501D01*
X201186000Y-111898638D01*
X201186000Y-112637362D01*
X201181555Y-112682499D01*
X201170180Y-112719995D01*
X201151708Y-112754554D01*
X201126847Y-112784847D01*
X201096554Y-112809708D01*
X201061995Y-112828180D01*
X201024499Y-112839555D01*
X200979362Y-112844000D01*
X200340638Y-112844000D01*
X200295501Y-112839555D01*
X200258005Y-112828180D01*
X200223446Y-112809708D01*
X200193153Y-112784847D01*
X200168292Y-112754554D01*
X200149820Y-112719995D01*
X200138445Y-112682499D01*
X200134000Y-112637362D01*
X200134000Y-111898638D01*
X200138445Y-111853501D01*
X200149820Y-111816005D01*
X200168292Y-111781446D01*
X200193153Y-111751153D01*
X200223446Y-111726292D01*
X200258005Y-111707820D01*
X200295501Y-111696445D01*
X200340638Y-111692000D01*
X200979362Y-111692000D01*
X201024499Y-111696445D01*
X201024499Y-111696445D01*
G37*
G36*
X163904917Y-112368949D02*
G01*
X163549949Y-112723917D01*
X161215083Y-110389051D01*
X161570051Y-110034083D01*
X163904917Y-112368949D01*
X163904917Y-112368949D01*
G37*
G36*
X168660250Y-110523731D02*
G01*
X168681331Y-110530127D01*
X168700767Y-110540515D01*
X168722564Y-110558403D01*
X169050469Y-110886308D01*
X169068357Y-110908105D01*
X169078745Y-110927541D01*
X169085141Y-110948622D01*
X169087300Y-110970550D01*
X169085141Y-110992478D01*
X169078745Y-111013559D01*
X169068357Y-111032995D01*
X169050469Y-111054792D01*
X167767970Y-112337291D01*
X167746173Y-112355179D01*
X167726737Y-112365567D01*
X167705656Y-112371963D01*
X167683728Y-112374122D01*
X167661800Y-112371963D01*
X167640719Y-112365567D01*
X167621283Y-112355179D01*
X167599486Y-112337291D01*
X167271581Y-112009386D01*
X167253693Y-111987589D01*
X167243305Y-111968153D01*
X167236909Y-111947072D01*
X167234750Y-111925144D01*
X167236909Y-111903216D01*
X167243305Y-111882135D01*
X167253693Y-111862699D01*
X167271581Y-111840902D01*
X168554080Y-110558403D01*
X168575877Y-110540515D01*
X168595313Y-110530127D01*
X168616394Y-110523731D01*
X168638322Y-110521572D01*
X168660250Y-110523731D01*
X168660250Y-110523731D01*
G37*
G36*
X203423780Y-111309686D02*
G01*
X202609193Y-112124273D01*
X202077448Y-111592528D01*
X202892035Y-110777941D01*
X203423780Y-111309686D01*
X203423780Y-111309686D01*
G37*
G36*
X164753445Y-111520421D02*
G01*
X164398477Y-111875389D01*
X162063611Y-109540523D01*
X162418579Y-109185555D01*
X164753445Y-111520421D01*
X164753445Y-111520421D01*
G37*
G36*
X177212213Y-110751249D02*
G01*
X177306652Y-110779897D01*
X177393687Y-110826418D01*
X177469975Y-110889025D01*
X177532582Y-110965313D01*
X177579103Y-111052348D01*
X177607751Y-111146787D01*
X177617424Y-111245000D01*
X177607751Y-111343213D01*
X177579103Y-111437652D01*
X177532582Y-111524687D01*
X177469975Y-111600975D01*
X177393687Y-111663582D01*
X177306652Y-111710103D01*
X177212213Y-111738751D01*
X177138612Y-111746000D01*
X175989388Y-111746000D01*
X175915787Y-111738751D01*
X175821348Y-111710103D01*
X175734313Y-111663582D01*
X175658025Y-111600975D01*
X175595418Y-111524687D01*
X175548897Y-111437652D01*
X175520249Y-111343213D01*
X175510576Y-111245000D01*
X175520249Y-111146787D01*
X175548897Y-111052348D01*
X175595418Y-110965313D01*
X175658025Y-110889025D01*
X175734313Y-110826418D01*
X175821348Y-110779897D01*
X175915787Y-110751249D01*
X175989388Y-110744000D01*
X177138612Y-110744000D01*
X177212213Y-110751249D01*
X177212213Y-110751249D01*
G37*
G36*
X195212213Y-110751249D02*
G01*
X195306652Y-110779897D01*
X195393687Y-110826418D01*
X195469975Y-110889025D01*
X195532582Y-110965313D01*
X195579103Y-111052348D01*
X195607751Y-111146787D01*
X195617424Y-111245000D01*
X195607751Y-111343213D01*
X195579103Y-111437652D01*
X195532582Y-111524687D01*
X195469975Y-111600975D01*
X195393687Y-111663582D01*
X195306652Y-111710103D01*
X195212213Y-111738751D01*
X195138612Y-111746000D01*
X193989388Y-111746000D01*
X193915787Y-111738751D01*
X193821348Y-111710103D01*
X193734313Y-111663582D01*
X193658025Y-111600975D01*
X193595418Y-111524687D01*
X193548897Y-111437652D01*
X193520249Y-111343213D01*
X193510576Y-111245000D01*
X193520249Y-111146787D01*
X193548897Y-111052348D01*
X193595418Y-110965313D01*
X193658025Y-110889025D01*
X193734313Y-110826418D01*
X193821348Y-110779897D01*
X193915787Y-110751249D01*
X193989388Y-110744000D01*
X195138612Y-110744000D01*
X195212213Y-110751249D01*
X195212213Y-110751249D01*
G37*
G36*
X173137099Y-110501845D02*
G01*
X173174595Y-110513220D01*
X173209154Y-110531692D01*
X173239447Y-110556553D01*
X173264308Y-110586846D01*
X173282780Y-110621405D01*
X173294155Y-110658901D01*
X173298600Y-110704038D01*
X173298600Y-111342762D01*
X173294155Y-111387899D01*
X173282780Y-111425395D01*
X173264308Y-111459954D01*
X173239447Y-111490247D01*
X173209154Y-111515108D01*
X173174595Y-111533580D01*
X173137099Y-111544955D01*
X173091962Y-111549400D01*
X172353238Y-111549400D01*
X172308101Y-111544955D01*
X172270605Y-111533580D01*
X172236046Y-111515108D01*
X172205753Y-111490247D01*
X172180892Y-111459954D01*
X172162420Y-111425395D01*
X172151045Y-111387899D01*
X172146600Y-111342762D01*
X172146600Y-110704038D01*
X172151045Y-110658901D01*
X172162420Y-110621405D01*
X172180892Y-110586846D01*
X172205753Y-110556553D01*
X172236046Y-110531692D01*
X172270605Y-110513220D01*
X172308101Y-110501845D01*
X172353238Y-110497400D01*
X173091962Y-110497400D01*
X173137099Y-110501845D01*
X173137099Y-110501845D01*
G37*
G36*
X174887099Y-110501845D02*
G01*
X174924595Y-110513220D01*
X174959154Y-110531692D01*
X174989447Y-110556553D01*
X175014308Y-110586846D01*
X175032780Y-110621405D01*
X175044155Y-110658901D01*
X175048600Y-110704038D01*
X175048600Y-111342762D01*
X175044155Y-111387899D01*
X175032780Y-111425395D01*
X175014308Y-111459954D01*
X174989447Y-111490247D01*
X174959154Y-111515108D01*
X174924595Y-111533580D01*
X174887099Y-111544955D01*
X174841962Y-111549400D01*
X174103238Y-111549400D01*
X174058101Y-111544955D01*
X174020605Y-111533580D01*
X173986046Y-111515108D01*
X173955753Y-111490247D01*
X173930892Y-111459954D01*
X173912420Y-111425395D01*
X173901045Y-111387899D01*
X173896600Y-111342762D01*
X173896600Y-110704038D01*
X173901045Y-110658901D01*
X173912420Y-110621405D01*
X173930892Y-110586846D01*
X173955753Y-110556553D01*
X173986046Y-110531692D01*
X174020605Y-110513220D01*
X174058101Y-110501845D01*
X174103238Y-110497400D01*
X174841962Y-110497400D01*
X174887099Y-110501845D01*
X174887099Y-110501845D01*
G37*
G36*
X167762225Y-109625705D02*
G01*
X167783306Y-109632101D01*
X167802742Y-109642489D01*
X167824539Y-109660377D01*
X168152444Y-109988282D01*
X168170332Y-110010079D01*
X168180720Y-110029515D01*
X168187116Y-110050596D01*
X168189275Y-110072524D01*
X168187116Y-110094452D01*
X168180720Y-110115533D01*
X168170332Y-110134969D01*
X168152444Y-110156766D01*
X166869945Y-111439265D01*
X166848148Y-111457153D01*
X166828712Y-111467541D01*
X166807631Y-111473937D01*
X166785703Y-111476096D01*
X166763775Y-111473937D01*
X166742694Y-111467541D01*
X166723258Y-111457153D01*
X166701461Y-111439265D01*
X166373556Y-111111360D01*
X166355668Y-111089563D01*
X166345280Y-111070127D01*
X166338884Y-111049046D01*
X166336725Y-111027118D01*
X166338884Y-111005190D01*
X166345280Y-110984109D01*
X166355668Y-110964673D01*
X166373556Y-110942876D01*
X167656055Y-109660377D01*
X167677852Y-109642489D01*
X167697288Y-109632101D01*
X167718369Y-109625705D01*
X167740297Y-109623546D01*
X167762225Y-109625705D01*
X167762225Y-109625705D01*
G37*
G36*
X201046499Y-110095445D02*
G01*
X201083995Y-110106820D01*
X201118554Y-110125292D01*
X201148847Y-110150153D01*
X201173708Y-110180446D01*
X201192180Y-110215005D01*
X201203555Y-110252501D01*
X201208000Y-110297638D01*
X201208000Y-110936362D01*
X201203555Y-110981499D01*
X201192180Y-111018995D01*
X201173708Y-111053554D01*
X201148847Y-111083847D01*
X201118554Y-111108708D01*
X201083995Y-111127180D01*
X201046499Y-111138555D01*
X201001362Y-111143000D01*
X200262638Y-111143000D01*
X200217501Y-111138555D01*
X200180005Y-111127180D01*
X200145446Y-111108708D01*
X200115153Y-111083847D01*
X200090292Y-111053554D01*
X200071820Y-111018995D01*
X200060445Y-110981499D01*
X200056000Y-110936362D01*
X200056000Y-110297638D01*
X200060445Y-110252501D01*
X200071820Y-110215005D01*
X200090292Y-110180446D01*
X200115153Y-110150153D01*
X200145446Y-110125292D01*
X200180005Y-110106820D01*
X200217501Y-110095445D01*
X200262638Y-110091000D01*
X201001362Y-110091000D01*
X201046499Y-110095445D01*
X201046499Y-110095445D01*
G37*
G36*
X199296499Y-110095445D02*
G01*
X199333995Y-110106820D01*
X199368554Y-110125292D01*
X199398847Y-110150153D01*
X199423708Y-110180446D01*
X199442180Y-110215005D01*
X199453555Y-110252501D01*
X199458000Y-110297638D01*
X199458000Y-110936362D01*
X199453555Y-110981499D01*
X199442180Y-111018995D01*
X199423708Y-111053554D01*
X199398847Y-111083847D01*
X199368554Y-111108708D01*
X199333995Y-111127180D01*
X199296499Y-111138555D01*
X199251362Y-111143000D01*
X198512638Y-111143000D01*
X198467501Y-111138555D01*
X198430005Y-111127180D01*
X198395446Y-111108708D01*
X198365153Y-111083847D01*
X198340292Y-111053554D01*
X198321820Y-111018995D01*
X198310445Y-110981499D01*
X198306000Y-110936362D01*
X198306000Y-110297638D01*
X198310445Y-110252501D01*
X198321820Y-110215005D01*
X198340292Y-110180446D01*
X198365153Y-110150153D01*
X198395446Y-110125292D01*
X198430005Y-110106820D01*
X198467501Y-110095445D01*
X198512638Y-110091000D01*
X199251362Y-110091000D01*
X199296499Y-110095445D01*
X199296499Y-110095445D01*
G37*
G36*
X165601973Y-110671893D02*
G01*
X165247005Y-111026861D01*
X162912139Y-108691995D01*
X163267107Y-108337027D01*
X165601973Y-110671893D01*
X165601973Y-110671893D01*
G37*
G36*
X207878552Y-109895472D02*
G01*
X207063965Y-110710059D01*
X206532220Y-110178314D01*
X207346807Y-109363727D01*
X207878552Y-109895472D01*
X207878552Y-109895472D01*
G37*
G36*
X177212213Y-109251249D02*
G01*
X177306652Y-109279897D01*
X177393687Y-109326418D01*
X177469975Y-109389025D01*
X177532582Y-109465313D01*
X177579103Y-109552348D01*
X177607751Y-109646787D01*
X177617424Y-109745000D01*
X177607751Y-109843213D01*
X177579103Y-109937652D01*
X177532582Y-110024687D01*
X177469975Y-110100975D01*
X177393687Y-110163582D01*
X177306652Y-110210103D01*
X177212213Y-110238751D01*
X177138612Y-110246000D01*
X175989388Y-110246000D01*
X175915787Y-110238751D01*
X175821348Y-110210103D01*
X175734313Y-110163582D01*
X175658025Y-110100975D01*
X175595418Y-110024687D01*
X175548897Y-109937652D01*
X175520249Y-109843213D01*
X175510576Y-109745000D01*
X175520249Y-109646787D01*
X175548897Y-109552348D01*
X175595418Y-109465313D01*
X175658025Y-109389025D01*
X175734313Y-109326418D01*
X175821348Y-109279897D01*
X175915787Y-109251249D01*
X175989388Y-109244000D01*
X177138612Y-109244000D01*
X177212213Y-109251249D01*
X177212213Y-109251249D01*
G37*
G36*
X195212213Y-109251249D02*
G01*
X195306652Y-109279897D01*
X195393687Y-109326418D01*
X195469975Y-109389025D01*
X195532582Y-109465313D01*
X195579103Y-109552348D01*
X195607751Y-109646787D01*
X195617424Y-109745000D01*
X195607751Y-109843213D01*
X195579103Y-109937652D01*
X195532582Y-110024687D01*
X195469975Y-110100975D01*
X195393687Y-110163582D01*
X195306652Y-110210103D01*
X195212213Y-110238751D01*
X195138612Y-110246000D01*
X193989388Y-110246000D01*
X193915787Y-110238751D01*
X193821348Y-110210103D01*
X193734313Y-110163582D01*
X193658025Y-110100975D01*
X193595418Y-110024687D01*
X193548897Y-109937652D01*
X193520249Y-109843213D01*
X193510576Y-109745000D01*
X193520249Y-109646787D01*
X193548897Y-109552348D01*
X193595418Y-109465313D01*
X193658025Y-109389025D01*
X193734313Y-109326418D01*
X193821348Y-109279897D01*
X193915787Y-109251249D01*
X193989388Y-109244000D01*
X195138612Y-109244000D01*
X195212213Y-109251249D01*
X195212213Y-109251249D01*
G37*
G36*
X173134499Y-108876245D02*
G01*
X173171995Y-108887620D01*
X173206554Y-108906092D01*
X173236847Y-108930953D01*
X173261708Y-108961246D01*
X173280180Y-108995805D01*
X173291555Y-109033301D01*
X173296000Y-109078438D01*
X173296000Y-109717162D01*
X173291555Y-109762299D01*
X173280180Y-109799795D01*
X173261708Y-109834354D01*
X173236847Y-109864647D01*
X173206554Y-109889508D01*
X173171995Y-109907980D01*
X173134499Y-109919355D01*
X173089362Y-109923800D01*
X172350638Y-109923800D01*
X172305501Y-109919355D01*
X172268005Y-109907980D01*
X172233446Y-109889508D01*
X172203153Y-109864647D01*
X172178292Y-109834354D01*
X172159820Y-109799795D01*
X172148445Y-109762299D01*
X172144000Y-109717162D01*
X172144000Y-109078438D01*
X172148445Y-109033301D01*
X172159820Y-108995805D01*
X172178292Y-108961246D01*
X172203153Y-108930953D01*
X172233446Y-108906092D01*
X172268005Y-108887620D01*
X172305501Y-108876245D01*
X172350638Y-108871800D01*
X173089362Y-108871800D01*
X173134499Y-108876245D01*
X173134499Y-108876245D01*
G37*
G36*
X174884499Y-108876245D02*
G01*
X174921995Y-108887620D01*
X174956554Y-108906092D01*
X174986847Y-108930953D01*
X175011708Y-108961246D01*
X175030180Y-108995805D01*
X175041555Y-109033301D01*
X175046000Y-109078438D01*
X175046000Y-109717162D01*
X175041555Y-109762299D01*
X175030180Y-109799795D01*
X175011708Y-109834354D01*
X174986847Y-109864647D01*
X174956554Y-109889508D01*
X174921995Y-109907980D01*
X174884499Y-109919355D01*
X174839362Y-109923800D01*
X174100638Y-109923800D01*
X174055501Y-109919355D01*
X174018005Y-109907980D01*
X173983446Y-109889508D01*
X173953153Y-109864647D01*
X173928292Y-109834354D01*
X173909820Y-109799795D01*
X173898445Y-109762299D01*
X173894000Y-109717162D01*
X173894000Y-109078438D01*
X173898445Y-109033301D01*
X173909820Y-108995805D01*
X173928292Y-108961246D01*
X173953153Y-108930953D01*
X173983446Y-108906092D01*
X174018005Y-108887620D01*
X174055501Y-108876245D01*
X174100638Y-108871800D01*
X174839362Y-108871800D01*
X174884499Y-108876245D01*
X174884499Y-108876245D01*
G37*
G36*
X206358273Y-108375193D02*
G01*
X205543686Y-109189780D01*
X205011941Y-108658035D01*
X205826528Y-107843448D01*
X206358273Y-108375193D01*
X206358273Y-108375193D01*
G37*
G36*
X177212213Y-107751249D02*
G01*
X177306652Y-107779897D01*
X177393687Y-107826418D01*
X177469975Y-107889025D01*
X177532582Y-107965313D01*
X177579103Y-108052348D01*
X177607751Y-108146787D01*
X177617424Y-108245000D01*
X177607751Y-108343213D01*
X177579103Y-108437652D01*
X177532582Y-108524687D01*
X177469975Y-108600975D01*
X177393687Y-108663582D01*
X177306652Y-108710103D01*
X177212213Y-108738751D01*
X177138612Y-108746000D01*
X175989388Y-108746000D01*
X175915787Y-108738751D01*
X175821348Y-108710103D01*
X175734313Y-108663582D01*
X175658025Y-108600975D01*
X175595418Y-108524687D01*
X175548897Y-108437652D01*
X175520249Y-108343213D01*
X175510576Y-108245000D01*
X175520249Y-108146787D01*
X175548897Y-108052348D01*
X175595418Y-107965313D01*
X175658025Y-107889025D01*
X175734313Y-107826418D01*
X175821348Y-107779897D01*
X175915787Y-107751249D01*
X175989388Y-107744000D01*
X177138612Y-107744000D01*
X177212213Y-107751249D01*
X177212213Y-107751249D01*
G37*
G36*
X195212213Y-107751249D02*
G01*
X195306652Y-107779897D01*
X195393687Y-107826418D01*
X195469975Y-107889025D01*
X195532582Y-107965313D01*
X195579103Y-108052348D01*
X195607751Y-108146787D01*
X195617424Y-108245000D01*
X195607751Y-108343213D01*
X195579103Y-108437652D01*
X195532582Y-108524687D01*
X195469975Y-108600975D01*
X195393687Y-108663582D01*
X195306652Y-108710103D01*
X195212213Y-108738751D01*
X195138612Y-108746000D01*
X193989388Y-108746000D01*
X193915787Y-108738751D01*
X193821348Y-108710103D01*
X193734313Y-108663582D01*
X193658025Y-108600975D01*
X193595418Y-108524687D01*
X193548897Y-108437652D01*
X193520249Y-108343213D01*
X193510576Y-108245000D01*
X193520249Y-108146787D01*
X193548897Y-108052348D01*
X193595418Y-107965313D01*
X193658025Y-107889025D01*
X193734313Y-107826418D01*
X193821348Y-107779897D01*
X193915787Y-107751249D01*
X193989388Y-107744000D01*
X195138612Y-107744000D01*
X195212213Y-107751249D01*
X195212213Y-107751249D01*
G37*
G36*
X174474781Y-104298295D02*
G01*
X174510816Y-104309227D01*
X174544024Y-104326977D01*
X174573134Y-104350866D01*
X174597023Y-104379976D01*
X174614773Y-104413184D01*
X174625705Y-104449219D01*
X174630000Y-104492831D01*
X174630000Y-107597169D01*
X174625705Y-107640781D01*
X174614773Y-107676816D01*
X174597023Y-107710024D01*
X174573134Y-107739134D01*
X174544024Y-107763023D01*
X174510816Y-107780773D01*
X174474781Y-107791705D01*
X174431169Y-107796000D01*
X173426831Y-107796000D01*
X173383219Y-107791705D01*
X173347184Y-107780773D01*
X173313976Y-107763023D01*
X173284866Y-107739134D01*
X173260977Y-107710024D01*
X173243227Y-107676816D01*
X173232295Y-107640781D01*
X173228000Y-107597169D01*
X173228000Y-104492831D01*
X173232295Y-104449219D01*
X173243227Y-104413184D01*
X173260977Y-104379976D01*
X173284866Y-104350866D01*
X173313976Y-104326977D01*
X173347184Y-104309227D01*
X173383219Y-104298295D01*
X173426831Y-104294000D01*
X174431169Y-104294000D01*
X174474781Y-104298295D01*
X174474781Y-104298295D01*
G37*
G36*
X170024781Y-104298295D02*
G01*
X170060816Y-104309227D01*
X170094024Y-104326977D01*
X170123134Y-104350866D01*
X170147023Y-104379976D01*
X170164773Y-104413184D01*
X170175705Y-104449219D01*
X170180000Y-104492831D01*
X170180000Y-107597169D01*
X170175705Y-107640781D01*
X170164773Y-107676816D01*
X170147023Y-107710024D01*
X170123134Y-107739134D01*
X170094024Y-107763023D01*
X170060816Y-107780773D01*
X170024781Y-107791705D01*
X169981169Y-107796000D01*
X168976831Y-107796000D01*
X168933219Y-107791705D01*
X168897184Y-107780773D01*
X168863976Y-107763023D01*
X168834866Y-107739134D01*
X168810977Y-107710024D01*
X168793227Y-107676816D01*
X168782295Y-107640781D01*
X168778000Y-107597169D01*
X168778000Y-104492831D01*
X168782295Y-104449219D01*
X168793227Y-104413184D01*
X168810977Y-104379976D01*
X168834866Y-104350866D01*
X168863976Y-104326977D01*
X168897184Y-104309227D01*
X168933219Y-104298295D01*
X168976831Y-104294000D01*
X169981169Y-104294000D01*
X170024781Y-104298295D01*
X170024781Y-104298295D01*
G37*
G36*
X177212213Y-106251249D02*
G01*
X177306652Y-106279897D01*
X177393687Y-106326418D01*
X177469975Y-106389025D01*
X177532582Y-106465313D01*
X177579103Y-106552348D01*
X177607751Y-106646787D01*
X177617424Y-106745000D01*
X177607751Y-106843213D01*
X177579103Y-106937652D01*
X177532582Y-107024687D01*
X177469975Y-107100975D01*
X177393687Y-107163582D01*
X177306652Y-107210103D01*
X177212213Y-107238751D01*
X177138612Y-107246000D01*
X175989388Y-107246000D01*
X175915787Y-107238751D01*
X175821348Y-107210103D01*
X175734313Y-107163582D01*
X175658025Y-107100975D01*
X175595418Y-107024687D01*
X175548897Y-106937652D01*
X175520249Y-106843213D01*
X175510576Y-106745000D01*
X175520249Y-106646787D01*
X175548897Y-106552348D01*
X175595418Y-106465313D01*
X175658025Y-106389025D01*
X175734313Y-106326418D01*
X175821348Y-106279897D01*
X175915787Y-106251249D01*
X175989388Y-106244000D01*
X177138612Y-106244000D01*
X177212213Y-106251249D01*
X177212213Y-106251249D01*
G37*
G36*
X195212213Y-106251249D02*
G01*
X195306652Y-106279897D01*
X195393687Y-106326418D01*
X195469975Y-106389025D01*
X195532582Y-106465313D01*
X195579103Y-106552348D01*
X195607751Y-106646787D01*
X195617424Y-106745000D01*
X195607751Y-106843213D01*
X195579103Y-106937652D01*
X195532582Y-107024687D01*
X195469975Y-107100975D01*
X195393687Y-107163582D01*
X195306652Y-107210103D01*
X195212213Y-107238751D01*
X195138612Y-107246000D01*
X193989388Y-107246000D01*
X193915787Y-107238751D01*
X193821348Y-107210103D01*
X193734313Y-107163582D01*
X193658025Y-107100975D01*
X193595418Y-107024687D01*
X193548897Y-106937652D01*
X193520249Y-106843213D01*
X193510576Y-106745000D01*
X193520249Y-106646787D01*
X193548897Y-106552348D01*
X193595418Y-106465313D01*
X193658025Y-106389025D01*
X193734313Y-106326418D01*
X193821348Y-106279897D01*
X193915787Y-106251249D01*
X193989388Y-106244000D01*
X195138612Y-106244000D01*
X195212213Y-106251249D01*
X195212213Y-106251249D01*
G37*
G36*
X205215499Y-105953445D02*
G01*
X205252995Y-105964820D01*
X205287554Y-105983292D01*
X205317847Y-106008153D01*
X205342708Y-106038446D01*
X205361180Y-106073005D01*
X205372555Y-106110501D01*
X205377000Y-106155638D01*
X205377000Y-106894362D01*
X205372555Y-106939499D01*
X205361180Y-106976995D01*
X205342708Y-107011554D01*
X205317847Y-107041847D01*
X205287554Y-107066708D01*
X205252995Y-107085180D01*
X205215499Y-107096555D01*
X205170362Y-107101000D01*
X204531638Y-107101000D01*
X204486501Y-107096555D01*
X204449005Y-107085180D01*
X204414446Y-107066708D01*
X204384153Y-107041847D01*
X204359292Y-107011554D01*
X204340820Y-106976995D01*
X204329445Y-106939499D01*
X204325000Y-106894362D01*
X204325000Y-106155638D01*
X204329445Y-106110501D01*
X204340820Y-106073005D01*
X204359292Y-106038446D01*
X204384153Y-106008153D01*
X204414446Y-105983292D01*
X204449005Y-105964820D01*
X204486501Y-105953445D01*
X204531638Y-105949000D01*
X205170362Y-105949000D01*
X205215499Y-105953445D01*
X205215499Y-105953445D01*
G37*
G36*
X206739499Y-105953445D02*
G01*
X206776995Y-105964820D01*
X206811554Y-105983292D01*
X206841847Y-106008153D01*
X206866708Y-106038446D01*
X206885180Y-106073005D01*
X206896555Y-106110501D01*
X206901000Y-106155638D01*
X206901000Y-106894362D01*
X206896555Y-106939499D01*
X206885180Y-106976995D01*
X206866708Y-107011554D01*
X206841847Y-107041847D01*
X206811554Y-107066708D01*
X206776995Y-107085180D01*
X206739499Y-107096555D01*
X206694362Y-107101000D01*
X206055638Y-107101000D01*
X206010501Y-107096555D01*
X205973005Y-107085180D01*
X205938446Y-107066708D01*
X205908153Y-107041847D01*
X205883292Y-107011554D01*
X205864820Y-106976995D01*
X205853445Y-106939499D01*
X205849000Y-106894362D01*
X205849000Y-106155638D01*
X205853445Y-106110501D01*
X205864820Y-106073005D01*
X205883292Y-106038446D01*
X205908153Y-106008153D01*
X205938446Y-105983292D01*
X205973005Y-105964820D01*
X206010501Y-105953445D01*
X206055638Y-105949000D01*
X206694362Y-105949000D01*
X206739499Y-105953445D01*
X206739499Y-105953445D01*
G37*
G36*
X203691499Y-105942045D02*
G01*
X203728995Y-105953420D01*
X203763554Y-105971892D01*
X203793847Y-105996753D01*
X203818708Y-106027046D01*
X203837180Y-106061605D01*
X203848555Y-106099101D01*
X203853000Y-106144238D01*
X203853000Y-106882962D01*
X203848555Y-106928099D01*
X203837180Y-106965595D01*
X203818708Y-107000154D01*
X203793847Y-107030447D01*
X203763554Y-107055308D01*
X203728995Y-107073780D01*
X203691499Y-107085155D01*
X203646362Y-107089600D01*
X203007638Y-107089600D01*
X202962501Y-107085155D01*
X202925005Y-107073780D01*
X202890446Y-107055308D01*
X202860153Y-107030447D01*
X202835292Y-107000154D01*
X202816820Y-106965595D01*
X202805445Y-106928099D01*
X202801000Y-106882962D01*
X202801000Y-106144238D01*
X202805445Y-106099101D01*
X202816820Y-106061605D01*
X202835292Y-106027046D01*
X202860153Y-105996753D01*
X202890446Y-105971892D01*
X202925005Y-105953420D01*
X202962501Y-105942045D01*
X203007638Y-105937600D01*
X203646362Y-105937600D01*
X203691499Y-105942045D01*
X203691499Y-105942045D01*
G37*
G36*
X168221000Y-106446000D02*
G01*
X165669000Y-106446000D01*
X165669000Y-99294000D01*
X168221000Y-99294000D01*
X168221000Y-106446000D01*
X168221000Y-106446000D01*
G37*
G36*
X165109672Y-105398449D02*
G01*
X165109674Y-105398450D01*
X165109675Y-105398450D01*
X165178103Y-105426793D01*
X165239686Y-105467942D01*
X165292058Y-105520314D01*
X165333207Y-105581897D01*
X165361550Y-105650325D01*
X165376000Y-105722967D01*
X165376000Y-105797033D01*
X165361550Y-105869675D01*
X165333207Y-105938103D01*
X165292058Y-105999686D01*
X165239686Y-106052058D01*
X165178103Y-106093207D01*
X165109675Y-106121550D01*
X165109674Y-106121550D01*
X165109672Y-106121551D01*
X165037034Y-106136000D01*
X164962966Y-106136000D01*
X164890328Y-106121551D01*
X164890326Y-106121550D01*
X164890325Y-106121550D01*
X164821897Y-106093207D01*
X164760314Y-106052058D01*
X164707942Y-105999686D01*
X164666793Y-105938103D01*
X164638450Y-105869675D01*
X164624000Y-105797033D01*
X164624000Y-105722967D01*
X164638450Y-105650325D01*
X164666793Y-105581897D01*
X164707942Y-105520314D01*
X164760314Y-105467942D01*
X164821897Y-105426793D01*
X164890325Y-105398450D01*
X164890326Y-105398450D01*
X164890328Y-105398449D01*
X164962966Y-105384000D01*
X165037034Y-105384000D01*
X165109672Y-105398449D01*
X165109672Y-105398449D01*
G37*
G36*
X205215499Y-104203445D02*
G01*
X205252995Y-104214820D01*
X205287554Y-104233292D01*
X205317847Y-104258153D01*
X205342708Y-104288446D01*
X205361180Y-104323005D01*
X205372555Y-104360501D01*
X205377000Y-104405638D01*
X205377000Y-105144362D01*
X205372555Y-105189499D01*
X205361180Y-105226995D01*
X205342708Y-105261554D01*
X205317847Y-105291847D01*
X205287554Y-105316708D01*
X205252995Y-105335180D01*
X205215499Y-105346555D01*
X205170362Y-105351000D01*
X204531638Y-105351000D01*
X204486501Y-105346555D01*
X204449005Y-105335180D01*
X204414446Y-105316708D01*
X204384153Y-105291847D01*
X204359292Y-105261554D01*
X204340820Y-105226995D01*
X204329445Y-105189499D01*
X204325000Y-105144362D01*
X204325000Y-104405638D01*
X204329445Y-104360501D01*
X204340820Y-104323005D01*
X204359292Y-104288446D01*
X204384153Y-104258153D01*
X204414446Y-104233292D01*
X204449005Y-104214820D01*
X204486501Y-104203445D01*
X204531638Y-104199000D01*
X205170362Y-104199000D01*
X205215499Y-104203445D01*
X205215499Y-104203445D01*
G37*
G36*
X206739499Y-104203445D02*
G01*
X206776995Y-104214820D01*
X206811554Y-104233292D01*
X206841847Y-104258153D01*
X206866708Y-104288446D01*
X206885180Y-104323005D01*
X206896555Y-104360501D01*
X206901000Y-104405638D01*
X206901000Y-105144362D01*
X206896555Y-105189499D01*
X206885180Y-105226995D01*
X206866708Y-105261554D01*
X206841847Y-105291847D01*
X206811554Y-105316708D01*
X206776995Y-105335180D01*
X206739499Y-105346555D01*
X206694362Y-105351000D01*
X206055638Y-105351000D01*
X206010501Y-105346555D01*
X205973005Y-105335180D01*
X205938446Y-105316708D01*
X205908153Y-105291847D01*
X205883292Y-105261554D01*
X205864820Y-105226995D01*
X205853445Y-105189499D01*
X205849000Y-105144362D01*
X205849000Y-104405638D01*
X205853445Y-104360501D01*
X205864820Y-104323005D01*
X205883292Y-104288446D01*
X205908153Y-104258153D01*
X205938446Y-104233292D01*
X205973005Y-104214820D01*
X206010501Y-104203445D01*
X206055638Y-104199000D01*
X206694362Y-104199000D01*
X206739499Y-104203445D01*
X206739499Y-104203445D01*
G37*
G36*
X203691499Y-104192045D02*
G01*
X203728995Y-104203420D01*
X203763554Y-104221892D01*
X203793847Y-104246753D01*
X203818708Y-104277046D01*
X203837180Y-104311605D01*
X203848555Y-104349101D01*
X203853000Y-104394238D01*
X203853000Y-105132962D01*
X203848555Y-105178099D01*
X203837180Y-105215595D01*
X203818708Y-105250154D01*
X203793847Y-105280447D01*
X203763554Y-105305308D01*
X203728995Y-105323780D01*
X203691499Y-105335155D01*
X203646362Y-105339600D01*
X203007638Y-105339600D01*
X202962501Y-105335155D01*
X202925005Y-105323780D01*
X202890446Y-105305308D01*
X202860153Y-105280447D01*
X202835292Y-105250154D01*
X202816820Y-105215595D01*
X202805445Y-105178099D01*
X202801000Y-105132962D01*
X202801000Y-104394238D01*
X202805445Y-104349101D01*
X202816820Y-104311605D01*
X202835292Y-104277046D01*
X202860153Y-104246753D01*
X202890446Y-104221892D01*
X202925005Y-104203420D01*
X202962501Y-104192045D01*
X203007638Y-104187600D01*
X203646362Y-104187600D01*
X203691499Y-104192045D01*
X203691499Y-104192045D01*
G37*
G36*
X198854000Y-104152000D02*
G01*
X197252000Y-104152000D01*
X197252000Y-103650000D01*
X198854000Y-103650000D01*
X198854000Y-104152000D01*
X198854000Y-104152000D01*
G37*
G36*
X196194000Y-104152000D02*
G01*
X194592000Y-104152000D01*
X194592000Y-102350000D01*
X196194000Y-102350000D01*
X196194000Y-104152000D01*
X196194000Y-104152000D01*
G37*
G36*
X171258048Y-102148122D02*
G01*
X171292387Y-102158539D01*
X171324036Y-102175456D01*
X171351778Y-102198222D01*
X171374544Y-102225964D01*
X171391461Y-102257613D01*
X171401878Y-102291952D01*
X171406000Y-102333807D01*
X171406000Y-103556193D01*
X171401878Y-103598048D01*
X171391461Y-103632387D01*
X171374544Y-103664036D01*
X171351778Y-103691778D01*
X171324036Y-103714544D01*
X171292387Y-103731461D01*
X171258048Y-103741878D01*
X171216193Y-103746000D01*
X169143807Y-103746000D01*
X169101952Y-103741878D01*
X169067613Y-103731461D01*
X169035964Y-103714544D01*
X169008222Y-103691778D01*
X168985456Y-103664036D01*
X168968539Y-103632387D01*
X168958122Y-103598048D01*
X168954000Y-103556193D01*
X168954000Y-102333807D01*
X168958122Y-102291952D01*
X168968539Y-102257613D01*
X168985456Y-102225964D01*
X169008222Y-102198222D01*
X169035964Y-102175456D01*
X169067613Y-102158539D01*
X169101952Y-102148122D01*
X169143807Y-102144000D01*
X171216193Y-102144000D01*
X171258048Y-102148122D01*
X171258048Y-102148122D01*
G37*
G36*
X174687048Y-102148122D02*
G01*
X174721387Y-102158539D01*
X174753036Y-102175456D01*
X174780778Y-102198222D01*
X174803544Y-102225964D01*
X174820461Y-102257613D01*
X174830878Y-102291952D01*
X174835000Y-102333807D01*
X174835000Y-103556193D01*
X174830878Y-103598048D01*
X174820461Y-103632387D01*
X174803544Y-103664036D01*
X174780778Y-103691778D01*
X174753036Y-103714544D01*
X174721387Y-103731461D01*
X174687048Y-103741878D01*
X174645193Y-103746000D01*
X172572807Y-103746000D01*
X172530952Y-103741878D01*
X172496613Y-103731461D01*
X172464964Y-103714544D01*
X172437222Y-103691778D01*
X172414456Y-103664036D01*
X172397539Y-103632387D01*
X172387122Y-103598048D01*
X172383000Y-103556193D01*
X172383000Y-102333807D01*
X172387122Y-102291952D01*
X172397539Y-102257613D01*
X172414456Y-102225964D01*
X172437222Y-102198222D01*
X172464964Y-102175456D01*
X172496613Y-102158539D01*
X172530952Y-102148122D01*
X172572807Y-102144000D01*
X174645193Y-102144000D01*
X174687048Y-102148122D01*
X174687048Y-102148122D01*
G37*
G36*
X188228000Y-103032000D02*
G01*
X187426000Y-103032000D01*
X187426000Y-100930000D01*
X188228000Y-100930000D01*
X188228000Y-103032000D01*
X188228000Y-103032000D01*
G37*
G36*
X189498000Y-103032000D02*
G01*
X188696000Y-103032000D01*
X188696000Y-100930000D01*
X189498000Y-100930000D01*
X189498000Y-103032000D01*
X189498000Y-103032000D01*
G37*
G36*
X184418000Y-103032000D02*
G01*
X183616000Y-103032000D01*
X183616000Y-100930000D01*
X184418000Y-100930000D01*
X184418000Y-103032000D01*
X184418000Y-103032000D01*
G37*
G36*
X186958000Y-103032000D02*
G01*
X186156000Y-103032000D01*
X186156000Y-100930000D01*
X186958000Y-100930000D01*
X186958000Y-103032000D01*
X186958000Y-103032000D01*
G37*
G36*
X185688000Y-103032000D02*
G01*
X184886000Y-103032000D01*
X184886000Y-100930000D01*
X185688000Y-100930000D01*
X185688000Y-103032000D01*
X185688000Y-103032000D01*
G37*
G36*
X183148000Y-103032000D02*
G01*
X182346000Y-103032000D01*
X182346000Y-100930000D01*
X183148000Y-100930000D01*
X183148000Y-103032000D01*
X183148000Y-103032000D01*
G37*
G36*
X181878000Y-103032000D02*
G01*
X181076000Y-103032000D01*
X181076000Y-100930000D01*
X181878000Y-100930000D01*
X181878000Y-103032000D01*
X181878000Y-103032000D01*
G37*
G36*
X180608000Y-103032000D02*
G01*
X179806000Y-103032000D01*
X179806000Y-100930000D01*
X180608000Y-100930000D01*
X180608000Y-103032000D01*
X180608000Y-103032000D01*
G37*
G36*
X198854000Y-102852000D02*
G01*
X197252000Y-102852000D01*
X197252000Y-102350000D01*
X198854000Y-102350000D01*
X198854000Y-102852000D01*
X198854000Y-102852000D01*
G37*
G36*
X206736928Y-102013764D02*
G01*
X206758009Y-102020160D01*
X206777445Y-102030548D01*
X206794476Y-102044524D01*
X206808452Y-102061555D01*
X206818840Y-102080991D01*
X206825236Y-102102072D01*
X206828000Y-102130140D01*
X206828000Y-102593860D01*
X206825236Y-102621928D01*
X206818840Y-102643009D01*
X206808452Y-102662445D01*
X206794476Y-102679476D01*
X206777445Y-102693452D01*
X206758009Y-102703840D01*
X206736928Y-102710236D01*
X206708860Y-102713000D01*
X204895140Y-102713000D01*
X204867072Y-102710236D01*
X204845991Y-102703840D01*
X204826555Y-102693452D01*
X204809524Y-102679476D01*
X204795548Y-102662445D01*
X204785160Y-102643009D01*
X204778764Y-102621928D01*
X204776000Y-102593860D01*
X204776000Y-102130140D01*
X204778764Y-102102072D01*
X204785160Y-102080991D01*
X204795548Y-102061555D01*
X204809524Y-102044524D01*
X204826555Y-102030548D01*
X204845991Y-102020160D01*
X204867072Y-102013764D01*
X204895140Y-102011000D01*
X206708860Y-102011000D01*
X206736928Y-102013764D01*
X206736928Y-102013764D01*
G37*
G36*
X201786928Y-102013764D02*
G01*
X201808009Y-102020160D01*
X201827445Y-102030548D01*
X201844476Y-102044524D01*
X201858452Y-102061555D01*
X201868840Y-102080991D01*
X201875236Y-102102072D01*
X201878000Y-102130140D01*
X201878000Y-102593860D01*
X201875236Y-102621928D01*
X201868840Y-102643009D01*
X201858452Y-102662445D01*
X201844476Y-102679476D01*
X201827445Y-102693452D01*
X201808009Y-102703840D01*
X201786928Y-102710236D01*
X201758860Y-102713000D01*
X199945140Y-102713000D01*
X199917072Y-102710236D01*
X199895991Y-102703840D01*
X199876555Y-102693452D01*
X199859524Y-102679476D01*
X199845548Y-102662445D01*
X199835160Y-102643009D01*
X199828764Y-102621928D01*
X199826000Y-102593860D01*
X199826000Y-102130140D01*
X199828764Y-102102072D01*
X199835160Y-102080991D01*
X199845548Y-102061555D01*
X199859524Y-102044524D01*
X199876555Y-102030548D01*
X199895991Y-102020160D01*
X199917072Y-102013764D01*
X199945140Y-102011000D01*
X201758860Y-102011000D01*
X201786928Y-102013764D01*
X201786928Y-102013764D01*
G37*
G36*
X206736928Y-100743764D02*
G01*
X206758009Y-100750160D01*
X206777445Y-100760548D01*
X206794476Y-100774524D01*
X206808452Y-100791555D01*
X206818840Y-100810991D01*
X206825236Y-100832072D01*
X206828000Y-100860140D01*
X206828000Y-101323860D01*
X206825236Y-101351928D01*
X206818840Y-101373009D01*
X206808452Y-101392445D01*
X206794476Y-101409476D01*
X206777445Y-101423452D01*
X206758009Y-101433840D01*
X206736928Y-101440236D01*
X206708860Y-101443000D01*
X204895140Y-101443000D01*
X204867072Y-101440236D01*
X204845991Y-101433840D01*
X204826555Y-101423452D01*
X204809524Y-101409476D01*
X204795548Y-101392445D01*
X204785160Y-101373009D01*
X204778764Y-101351928D01*
X204776000Y-101323860D01*
X204776000Y-100860140D01*
X204778764Y-100832072D01*
X204785160Y-100810991D01*
X204795548Y-100791555D01*
X204809524Y-100774524D01*
X204826555Y-100760548D01*
X204845991Y-100750160D01*
X204867072Y-100743764D01*
X204895140Y-100741000D01*
X206708860Y-100741000D01*
X206736928Y-100743764D01*
X206736928Y-100743764D01*
G37*
G36*
X201786928Y-100743764D02*
G01*
X201808009Y-100750160D01*
X201827445Y-100760548D01*
X201844476Y-100774524D01*
X201858452Y-100791555D01*
X201868840Y-100810991D01*
X201875236Y-100832072D01*
X201878000Y-100860140D01*
X201878000Y-101323860D01*
X201875236Y-101351928D01*
X201868840Y-101373009D01*
X201858452Y-101392445D01*
X201844476Y-101409476D01*
X201827445Y-101423452D01*
X201808009Y-101433840D01*
X201786928Y-101440236D01*
X201758860Y-101443000D01*
X199945140Y-101443000D01*
X199917072Y-101440236D01*
X199895991Y-101433840D01*
X199876555Y-101423452D01*
X199859524Y-101409476D01*
X199845548Y-101392445D01*
X199835160Y-101373009D01*
X199828764Y-101351928D01*
X199826000Y-101323860D01*
X199826000Y-100860140D01*
X199828764Y-100832072D01*
X199835160Y-100810991D01*
X199845548Y-100791555D01*
X199859524Y-100774524D01*
X199876555Y-100760548D01*
X199895991Y-100750160D01*
X199917072Y-100743764D01*
X199945140Y-100741000D01*
X201758860Y-100741000D01*
X201786928Y-100743764D01*
X201786928Y-100743764D01*
G37*
G36*
X198854000Y-101231000D02*
G01*
X197252000Y-101231000D01*
X197252000Y-100729000D01*
X198854000Y-100729000D01*
X198854000Y-101231000D01*
X198854000Y-101231000D01*
G37*
G36*
X196194000Y-101231000D02*
G01*
X194592000Y-101231000D01*
X194592000Y-99429000D01*
X196194000Y-99429000D01*
X196194000Y-101231000D01*
X196194000Y-101231000D01*
G37*
G36*
X171258048Y-98898122D02*
G01*
X171292387Y-98908539D01*
X171324036Y-98925456D01*
X171351778Y-98948222D01*
X171374544Y-98975964D01*
X171391461Y-99007613D01*
X171401878Y-99041952D01*
X171406000Y-99083807D01*
X171406000Y-100306193D01*
X171401878Y-100348048D01*
X171391461Y-100382387D01*
X171374544Y-100414036D01*
X171351778Y-100441778D01*
X171324036Y-100464544D01*
X171292387Y-100481461D01*
X171258048Y-100491878D01*
X171216193Y-100496000D01*
X169143807Y-100496000D01*
X169101952Y-100491878D01*
X169067613Y-100481461D01*
X169035964Y-100464544D01*
X169008222Y-100441778D01*
X168985456Y-100414036D01*
X168968539Y-100382387D01*
X168958122Y-100348048D01*
X168954000Y-100306193D01*
X168954000Y-99083807D01*
X168958122Y-99041952D01*
X168968539Y-99007613D01*
X168985456Y-98975964D01*
X169008222Y-98948222D01*
X169035964Y-98925456D01*
X169067613Y-98908539D01*
X169101952Y-98898122D01*
X169143807Y-98894000D01*
X171216193Y-98894000D01*
X171258048Y-98898122D01*
X171258048Y-98898122D01*
G37*
G36*
X174687048Y-98898122D02*
G01*
X174721387Y-98908539D01*
X174753036Y-98925456D01*
X174780778Y-98948222D01*
X174803544Y-98975964D01*
X174820461Y-99007613D01*
X174830878Y-99041952D01*
X174835000Y-99083807D01*
X174835000Y-100306193D01*
X174830878Y-100348048D01*
X174820461Y-100382387D01*
X174803544Y-100414036D01*
X174780778Y-100441778D01*
X174753036Y-100464544D01*
X174721387Y-100481461D01*
X174687048Y-100491878D01*
X174645193Y-100496000D01*
X172572807Y-100496000D01*
X172530952Y-100491878D01*
X172496613Y-100481461D01*
X172464964Y-100464544D01*
X172437222Y-100441778D01*
X172414456Y-100414036D01*
X172397539Y-100382387D01*
X172387122Y-100348048D01*
X172383000Y-100306193D01*
X172383000Y-99083807D01*
X172387122Y-99041952D01*
X172397539Y-99007613D01*
X172414456Y-98975964D01*
X172437222Y-98948222D01*
X172464964Y-98925456D01*
X172496613Y-98908539D01*
X172530952Y-98898122D01*
X172572807Y-98894000D01*
X174645193Y-98894000D01*
X174687048Y-98898122D01*
X174687048Y-98898122D01*
G37*
G36*
X165109672Y-99618449D02*
G01*
X165109674Y-99618450D01*
X165109675Y-99618450D01*
X165178103Y-99646793D01*
X165239686Y-99687942D01*
X165292058Y-99740314D01*
X165333207Y-99801897D01*
X165361550Y-99870325D01*
X165361551Y-99870328D01*
X165376000Y-99942966D01*
X165376000Y-100017034D01*
X165363674Y-100079000D01*
X165361550Y-100089675D01*
X165333207Y-100158103D01*
X165292058Y-100219686D01*
X165239686Y-100272058D01*
X165178103Y-100313207D01*
X165109675Y-100341550D01*
X165109674Y-100341550D01*
X165109672Y-100341551D01*
X165037034Y-100356000D01*
X164962966Y-100356000D01*
X164890328Y-100341551D01*
X164890326Y-100341550D01*
X164890325Y-100341550D01*
X164821897Y-100313207D01*
X164760314Y-100272058D01*
X164707942Y-100219686D01*
X164666793Y-100158103D01*
X164638450Y-100089675D01*
X164636327Y-100079000D01*
X164624000Y-100017034D01*
X164624000Y-99942966D01*
X164638449Y-99870328D01*
X164638450Y-99870325D01*
X164666793Y-99801897D01*
X164707942Y-99740314D01*
X164760314Y-99687942D01*
X164821897Y-99646793D01*
X164890325Y-99618450D01*
X164890326Y-99618450D01*
X164890328Y-99618449D01*
X164962966Y-99604000D01*
X165037034Y-99604000D01*
X165109672Y-99618449D01*
X165109672Y-99618449D01*
G37*
G36*
X206736928Y-99473764D02*
G01*
X206758009Y-99480160D01*
X206777445Y-99490548D01*
X206794476Y-99504524D01*
X206808452Y-99521555D01*
X206818840Y-99540991D01*
X206825236Y-99562072D01*
X206828000Y-99590140D01*
X206828000Y-100053860D01*
X206825236Y-100081928D01*
X206818840Y-100103009D01*
X206808452Y-100122445D01*
X206794476Y-100139476D01*
X206777445Y-100153452D01*
X206758009Y-100163840D01*
X206736928Y-100170236D01*
X206708860Y-100173000D01*
X204895140Y-100173000D01*
X204867072Y-100170236D01*
X204845991Y-100163840D01*
X204826555Y-100153452D01*
X204809524Y-100139476D01*
X204795548Y-100122445D01*
X204785160Y-100103009D01*
X204778764Y-100081928D01*
X204776000Y-100053860D01*
X204776000Y-99590140D01*
X204778764Y-99562072D01*
X204785160Y-99540991D01*
X204795548Y-99521555D01*
X204809524Y-99504524D01*
X204826555Y-99490548D01*
X204845991Y-99480160D01*
X204867072Y-99473764D01*
X204895140Y-99471000D01*
X206708860Y-99471000D01*
X206736928Y-99473764D01*
X206736928Y-99473764D01*
G37*
G36*
X201786928Y-99473764D02*
G01*
X201808009Y-99480160D01*
X201827445Y-99490548D01*
X201844476Y-99504524D01*
X201858452Y-99521555D01*
X201868840Y-99540991D01*
X201875236Y-99562072D01*
X201878000Y-99590140D01*
X201878000Y-100053860D01*
X201875236Y-100081928D01*
X201868840Y-100103009D01*
X201858452Y-100122445D01*
X201844476Y-100139476D01*
X201827445Y-100153452D01*
X201808009Y-100163840D01*
X201786928Y-100170236D01*
X201758860Y-100173000D01*
X199945140Y-100173000D01*
X199917072Y-100170236D01*
X199895991Y-100163840D01*
X199876555Y-100153452D01*
X199859524Y-100139476D01*
X199845548Y-100122445D01*
X199835160Y-100103009D01*
X199828764Y-100081928D01*
X199826000Y-100053860D01*
X199826000Y-99590140D01*
X199828764Y-99562072D01*
X199835160Y-99540991D01*
X199845548Y-99521555D01*
X199859524Y-99504524D01*
X199876555Y-99490548D01*
X199895991Y-99480160D01*
X199917072Y-99473764D01*
X199945140Y-99471000D01*
X201758860Y-99471000D01*
X201786928Y-99473764D01*
X201786928Y-99473764D01*
G37*
G36*
X198854000Y-99931000D02*
G01*
X197252000Y-99931000D01*
X197252000Y-99429000D01*
X198854000Y-99429000D01*
X198854000Y-99931000D01*
X198854000Y-99931000D01*
G37*
G36*
X193708000Y-99832000D02*
G01*
X191606000Y-99832000D01*
X191606000Y-99030000D01*
X193708000Y-99030000D01*
X193708000Y-99832000D01*
X193708000Y-99832000D01*
G37*
G36*
X177708000Y-99832000D02*
G01*
X175606000Y-99832000D01*
X175606000Y-99030000D01*
X177708000Y-99030000D01*
X177708000Y-99832000D01*
X177708000Y-99832000D01*
G37*
G36*
X206736928Y-98203764D02*
G01*
X206758009Y-98210160D01*
X206777445Y-98220548D01*
X206794476Y-98234524D01*
X206808452Y-98251555D01*
X206818840Y-98270991D01*
X206825236Y-98292072D01*
X206828000Y-98320140D01*
X206828000Y-98783860D01*
X206825236Y-98811928D01*
X206818840Y-98833009D01*
X206808452Y-98852445D01*
X206794476Y-98869476D01*
X206777445Y-98883452D01*
X206758009Y-98893840D01*
X206736928Y-98900236D01*
X206708860Y-98903000D01*
X204895140Y-98903000D01*
X204867072Y-98900236D01*
X204845991Y-98893840D01*
X204826555Y-98883452D01*
X204809524Y-98869476D01*
X204795548Y-98852445D01*
X204785160Y-98833009D01*
X204778764Y-98811928D01*
X204776000Y-98783860D01*
X204776000Y-98320140D01*
X204778764Y-98292072D01*
X204785160Y-98270991D01*
X204795548Y-98251555D01*
X204809524Y-98234524D01*
X204826555Y-98220548D01*
X204845991Y-98210160D01*
X204867072Y-98203764D01*
X204895140Y-98201000D01*
X206708860Y-98201000D01*
X206736928Y-98203764D01*
X206736928Y-98203764D01*
G37*
G36*
X201786928Y-98203764D02*
G01*
X201808009Y-98210160D01*
X201827445Y-98220548D01*
X201844476Y-98234524D01*
X201858452Y-98251555D01*
X201868840Y-98270991D01*
X201875236Y-98292072D01*
X201878000Y-98320140D01*
X201878000Y-98783860D01*
X201875236Y-98811928D01*
X201868840Y-98833009D01*
X201858452Y-98852445D01*
X201844476Y-98869476D01*
X201827445Y-98883452D01*
X201808009Y-98893840D01*
X201786928Y-98900236D01*
X201758860Y-98903000D01*
X199945140Y-98903000D01*
X199917072Y-98900236D01*
X199895991Y-98893840D01*
X199876555Y-98883452D01*
X199859524Y-98869476D01*
X199845548Y-98852445D01*
X199835160Y-98833009D01*
X199828764Y-98811928D01*
X199826000Y-98783860D01*
X199826000Y-98320140D01*
X199828764Y-98292072D01*
X199835160Y-98270991D01*
X199845548Y-98251555D01*
X199859524Y-98234524D01*
X199876555Y-98220548D01*
X199895991Y-98210160D01*
X199917072Y-98203764D01*
X199945140Y-98201000D01*
X201758860Y-98201000D01*
X201786928Y-98203764D01*
X201786928Y-98203764D01*
G37*
G36*
X177708000Y-98562000D02*
G01*
X175606000Y-98562000D01*
X175606000Y-97760000D01*
X177708000Y-97760000D01*
X177708000Y-98562000D01*
X177708000Y-98562000D01*
G37*
G36*
X193708000Y-98562000D02*
G01*
X191606000Y-98562000D01*
X191606000Y-97760000D01*
X193708000Y-97760000D01*
X193708000Y-98562000D01*
X193708000Y-98562000D01*
G37*
G36*
X197035899Y-97395445D02*
G01*
X197073395Y-97406820D01*
X197107954Y-97425292D01*
X197138247Y-97450153D01*
X197163108Y-97480446D01*
X197181580Y-97515005D01*
X197192955Y-97552501D01*
X197197400Y-97597638D01*
X197197400Y-98236362D01*
X197192955Y-98281499D01*
X197181580Y-98318995D01*
X197163108Y-98353554D01*
X197138247Y-98383847D01*
X197107954Y-98408708D01*
X197073395Y-98427180D01*
X197035899Y-98438555D01*
X196990762Y-98443000D01*
X196252038Y-98443000D01*
X196206901Y-98438555D01*
X196169405Y-98427180D01*
X196134846Y-98408708D01*
X196104553Y-98383847D01*
X196079692Y-98353554D01*
X196061220Y-98318995D01*
X196049845Y-98281499D01*
X196045400Y-98236362D01*
X196045400Y-97597638D01*
X196049845Y-97552501D01*
X196061220Y-97515005D01*
X196079692Y-97480446D01*
X196104553Y-97450153D01*
X196134846Y-97425292D01*
X196169405Y-97406820D01*
X196206901Y-97395445D01*
X196252038Y-97391000D01*
X196990762Y-97391000D01*
X197035899Y-97395445D01*
X197035899Y-97395445D01*
G37*
G36*
X198785899Y-97395445D02*
G01*
X198823395Y-97406820D01*
X198857954Y-97425292D01*
X198888247Y-97450153D01*
X198913108Y-97480446D01*
X198931580Y-97515005D01*
X198942955Y-97552501D01*
X198947400Y-97597638D01*
X198947400Y-98236362D01*
X198942955Y-98281499D01*
X198931580Y-98318995D01*
X198913108Y-98353554D01*
X198888247Y-98383847D01*
X198857954Y-98408708D01*
X198823395Y-98427180D01*
X198785899Y-98438555D01*
X198740762Y-98443000D01*
X198002038Y-98443000D01*
X197956901Y-98438555D01*
X197919405Y-98427180D01*
X197884846Y-98408708D01*
X197854553Y-98383847D01*
X197829692Y-98353554D01*
X197811220Y-98318995D01*
X197799845Y-98281499D01*
X197795400Y-98236362D01*
X197795400Y-97597638D01*
X197799845Y-97552501D01*
X197811220Y-97515005D01*
X197829692Y-97480446D01*
X197854553Y-97450153D01*
X197884846Y-97425292D01*
X197919405Y-97406820D01*
X197956901Y-97395445D01*
X198002038Y-97391000D01*
X198740762Y-97391000D01*
X198785899Y-97395445D01*
X198785899Y-97395445D01*
G37*
G36*
X169697000Y-98308000D02*
G01*
X168095000Y-98308000D01*
X168095000Y-96206000D01*
X169697000Y-96206000D01*
X169697000Y-98308000D01*
X169697000Y-98308000D01*
G37*
G36*
X174297000Y-98308000D02*
G01*
X172695000Y-98308000D01*
X172695000Y-96206000D01*
X174297000Y-96206000D01*
X174297000Y-98308000D01*
X174297000Y-98308000D01*
G37*
G36*
X171997000Y-98308000D02*
G01*
X170395000Y-98308000D01*
X170395000Y-96206000D01*
X171997000Y-96206000D01*
X171997000Y-98308000D01*
X171997000Y-98308000D01*
G37*
G36*
X201786928Y-96933764D02*
G01*
X201808009Y-96940160D01*
X201827445Y-96950548D01*
X201844476Y-96964524D01*
X201858452Y-96981555D01*
X201868840Y-97000991D01*
X201875236Y-97022072D01*
X201878000Y-97050140D01*
X201878000Y-97513860D01*
X201875236Y-97541928D01*
X201868840Y-97563009D01*
X201858452Y-97582445D01*
X201844476Y-97599476D01*
X201827445Y-97613452D01*
X201808009Y-97623840D01*
X201786928Y-97630236D01*
X201758860Y-97633000D01*
X199945140Y-97633000D01*
X199917072Y-97630236D01*
X199895991Y-97623840D01*
X199876555Y-97613452D01*
X199859524Y-97599476D01*
X199845548Y-97582445D01*
X199835160Y-97563009D01*
X199828764Y-97541928D01*
X199826000Y-97513860D01*
X199826000Y-97050140D01*
X199828764Y-97022072D01*
X199835160Y-97000991D01*
X199845548Y-96981555D01*
X199859524Y-96964524D01*
X199876555Y-96950548D01*
X199895991Y-96940160D01*
X199917072Y-96933764D01*
X199945140Y-96931000D01*
X201758860Y-96931000D01*
X201786928Y-96933764D01*
X201786928Y-96933764D01*
G37*
G36*
X206736928Y-96933764D02*
G01*
X206758009Y-96940160D01*
X206777445Y-96950548D01*
X206794476Y-96964524D01*
X206808452Y-96981555D01*
X206818840Y-97000991D01*
X206825236Y-97022072D01*
X206828000Y-97050140D01*
X206828000Y-97513860D01*
X206825236Y-97541928D01*
X206818840Y-97563009D01*
X206808452Y-97582445D01*
X206794476Y-97599476D01*
X206777445Y-97613452D01*
X206758009Y-97623840D01*
X206736928Y-97630236D01*
X206708860Y-97633000D01*
X204895140Y-97633000D01*
X204867072Y-97630236D01*
X204845991Y-97623840D01*
X204826555Y-97613452D01*
X204809524Y-97599476D01*
X204795548Y-97582445D01*
X204785160Y-97563009D01*
X204778764Y-97541928D01*
X204776000Y-97513860D01*
X204776000Y-97050140D01*
X204778764Y-97022072D01*
X204785160Y-97000991D01*
X204795548Y-96981555D01*
X204809524Y-96964524D01*
X204826555Y-96950548D01*
X204845991Y-96940160D01*
X204867072Y-96933764D01*
X204895140Y-96931000D01*
X206708860Y-96931000D01*
X206736928Y-96933764D01*
X206736928Y-96933764D01*
G37*
G36*
X193708000Y-97292000D02*
G01*
X191606000Y-97292000D01*
X191606000Y-96490000D01*
X193708000Y-96490000D01*
X193708000Y-97292000D01*
X193708000Y-97292000D01*
G37*
G36*
X177708000Y-97292000D02*
G01*
X175606000Y-97292000D01*
X175606000Y-96490000D01*
X177708000Y-96490000D01*
X177708000Y-97292000D01*
X177708000Y-97292000D01*
G37*
G36*
X163843562Y-95687681D02*
G01*
X163878481Y-95698274D01*
X163910663Y-95715476D01*
X163938873Y-95738627D01*
X163962024Y-95766837D01*
X163979226Y-95799019D01*
X163989819Y-95833938D01*
X163994000Y-95876395D01*
X163994000Y-97017605D01*
X163989819Y-97060062D01*
X163979226Y-97094981D01*
X163962024Y-97127163D01*
X163938873Y-97155373D01*
X163910663Y-97178524D01*
X163878481Y-97195726D01*
X163843562Y-97206319D01*
X163801105Y-97210500D01*
X162334895Y-97210500D01*
X162292438Y-97206319D01*
X162257519Y-97195726D01*
X162225337Y-97178524D01*
X162197127Y-97155373D01*
X162173976Y-97127163D01*
X162156774Y-97094981D01*
X162146181Y-97060062D01*
X162142000Y-97017605D01*
X162142000Y-95876395D01*
X162146181Y-95833938D01*
X162156774Y-95799019D01*
X162173976Y-95766837D01*
X162197127Y-95738627D01*
X162225337Y-95715476D01*
X162257519Y-95698274D01*
X162292438Y-95687681D01*
X162334895Y-95683500D01*
X163801105Y-95683500D01*
X163843562Y-95687681D01*
X163843562Y-95687681D01*
G37*
G36*
X165942674Y-95898465D02*
G01*
X165980367Y-95909899D01*
X166015103Y-95928466D01*
X166045548Y-95953452D01*
X166070534Y-95983897D01*
X166089101Y-96018633D01*
X166100535Y-96056326D01*
X166105000Y-96101661D01*
X166105000Y-96938339D01*
X166100535Y-96983674D01*
X166089101Y-97021367D01*
X166070534Y-97056103D01*
X166045548Y-97086548D01*
X166015103Y-97111534D01*
X165980367Y-97130101D01*
X165942674Y-97141535D01*
X165897339Y-97146000D01*
X164810661Y-97146000D01*
X164765326Y-97141535D01*
X164727633Y-97130101D01*
X164692897Y-97111534D01*
X164662452Y-97086548D01*
X164637466Y-97056103D01*
X164618899Y-97021367D01*
X164607465Y-96983674D01*
X164603000Y-96938339D01*
X164603000Y-96101661D01*
X164607465Y-96056326D01*
X164618899Y-96018633D01*
X164637466Y-95983897D01*
X164662452Y-95953452D01*
X164692897Y-95928466D01*
X164727633Y-95909899D01*
X164765326Y-95898465D01*
X164810661Y-95894000D01*
X165897339Y-95894000D01*
X165942674Y-95898465D01*
X165942674Y-95898465D01*
G37*
G36*
X198760499Y-95871445D02*
G01*
X198797995Y-95882820D01*
X198832554Y-95901292D01*
X198862847Y-95926153D01*
X198887708Y-95956446D01*
X198906180Y-95991005D01*
X198917555Y-96028501D01*
X198922000Y-96073638D01*
X198922000Y-96712362D01*
X198917555Y-96757499D01*
X198906180Y-96794995D01*
X198887708Y-96829554D01*
X198862847Y-96859847D01*
X198832554Y-96884708D01*
X198797995Y-96903180D01*
X198760499Y-96914555D01*
X198715362Y-96919000D01*
X197976638Y-96919000D01*
X197931501Y-96914555D01*
X197894005Y-96903180D01*
X197859446Y-96884708D01*
X197829153Y-96859847D01*
X197804292Y-96829554D01*
X197785820Y-96794995D01*
X197774445Y-96757499D01*
X197770000Y-96712362D01*
X197770000Y-96073638D01*
X197774445Y-96028501D01*
X197785820Y-95991005D01*
X197804292Y-95956446D01*
X197829153Y-95926153D01*
X197859446Y-95901292D01*
X197894005Y-95882820D01*
X197931501Y-95871445D01*
X197976638Y-95867000D01*
X198715362Y-95867000D01*
X198760499Y-95871445D01*
X198760499Y-95871445D01*
G37*
G36*
X197010499Y-95871445D02*
G01*
X197047995Y-95882820D01*
X197082554Y-95901292D01*
X197112847Y-95926153D01*
X197137708Y-95956446D01*
X197156180Y-95991005D01*
X197167555Y-96028501D01*
X197172000Y-96073638D01*
X197172000Y-96712362D01*
X197167555Y-96757499D01*
X197156180Y-96794995D01*
X197137708Y-96829554D01*
X197112847Y-96859847D01*
X197082554Y-96884708D01*
X197047995Y-96903180D01*
X197010499Y-96914555D01*
X196965362Y-96919000D01*
X196226638Y-96919000D01*
X196181501Y-96914555D01*
X196144005Y-96903180D01*
X196109446Y-96884708D01*
X196079153Y-96859847D01*
X196054292Y-96829554D01*
X196035820Y-96794995D01*
X196024445Y-96757499D01*
X196020000Y-96712362D01*
X196020000Y-96073638D01*
X196024445Y-96028501D01*
X196035820Y-95991005D01*
X196054292Y-95956446D01*
X196079153Y-95926153D01*
X196109446Y-95901292D01*
X196144005Y-95882820D01*
X196181501Y-95871445D01*
X196226638Y-95867000D01*
X196965362Y-95867000D01*
X197010499Y-95871445D01*
X197010499Y-95871445D01*
G37*
G36*
X206736928Y-95663764D02*
G01*
X206758009Y-95670160D01*
X206777445Y-95680548D01*
X206794476Y-95694524D01*
X206808452Y-95711555D01*
X206818840Y-95730991D01*
X206825236Y-95752072D01*
X206828000Y-95780140D01*
X206828000Y-96243860D01*
X206825236Y-96271928D01*
X206818840Y-96293009D01*
X206808452Y-96312445D01*
X206794476Y-96329476D01*
X206777445Y-96343452D01*
X206758009Y-96353840D01*
X206736928Y-96360236D01*
X206708860Y-96363000D01*
X204895140Y-96363000D01*
X204867072Y-96360236D01*
X204845991Y-96353840D01*
X204826555Y-96343452D01*
X204809524Y-96329476D01*
X204795548Y-96312445D01*
X204785160Y-96293009D01*
X204778764Y-96271928D01*
X204776000Y-96243860D01*
X204776000Y-95780140D01*
X204778764Y-95752072D01*
X204785160Y-95730991D01*
X204795548Y-95711555D01*
X204809524Y-95694524D01*
X204826555Y-95680548D01*
X204845991Y-95670160D01*
X204867072Y-95663764D01*
X204895140Y-95661000D01*
X206708860Y-95661000D01*
X206736928Y-95663764D01*
X206736928Y-95663764D01*
G37*
G36*
X201786928Y-95663764D02*
G01*
X201808009Y-95670160D01*
X201827445Y-95680548D01*
X201844476Y-95694524D01*
X201858452Y-95711555D01*
X201868840Y-95730991D01*
X201875236Y-95752072D01*
X201878000Y-95780140D01*
X201878000Y-96243860D01*
X201875236Y-96271928D01*
X201868840Y-96293009D01*
X201858452Y-96312445D01*
X201844476Y-96329476D01*
X201827445Y-96343452D01*
X201808009Y-96353840D01*
X201786928Y-96360236D01*
X201758860Y-96363000D01*
X199945140Y-96363000D01*
X199917072Y-96360236D01*
X199895991Y-96353840D01*
X199876555Y-96343452D01*
X199859524Y-96329476D01*
X199845548Y-96312445D01*
X199835160Y-96293009D01*
X199828764Y-96271928D01*
X199826000Y-96243860D01*
X199826000Y-95780140D01*
X199828764Y-95752072D01*
X199835160Y-95730991D01*
X199845548Y-95711555D01*
X199859524Y-95694524D01*
X199876555Y-95680548D01*
X199895991Y-95670160D01*
X199917072Y-95663764D01*
X199945140Y-95661000D01*
X201758860Y-95661000D01*
X201786928Y-95663764D01*
X201786928Y-95663764D01*
G37*
G36*
X193708000Y-96022000D02*
G01*
X191606000Y-96022000D01*
X191606000Y-95220000D01*
X193708000Y-95220000D01*
X193708000Y-96022000D01*
X193708000Y-96022000D01*
G37*
G36*
X177708000Y-96022000D02*
G01*
X175606000Y-96022000D01*
X175606000Y-95220000D01*
X177708000Y-95220000D01*
X177708000Y-96022000D01*
X177708000Y-96022000D01*
G37*
G36*
X165942674Y-93848465D02*
G01*
X165980367Y-93859899D01*
X166015103Y-93878466D01*
X166045548Y-93903452D01*
X166070534Y-93933897D01*
X166089101Y-93968633D01*
X166100535Y-94006326D01*
X166105000Y-94051661D01*
X166105000Y-94888339D01*
X166100535Y-94933674D01*
X166089101Y-94971367D01*
X166070534Y-95006103D01*
X166045548Y-95036548D01*
X166015103Y-95061534D01*
X165980367Y-95080101D01*
X165942674Y-95091535D01*
X165897339Y-95096000D01*
X164810661Y-95096000D01*
X164765326Y-95091535D01*
X164727633Y-95080101D01*
X164692897Y-95061534D01*
X164662452Y-95036548D01*
X164637466Y-95006103D01*
X164618899Y-94971367D01*
X164607465Y-94933674D01*
X164603000Y-94888339D01*
X164603000Y-94051661D01*
X164607465Y-94006326D01*
X164618899Y-93968633D01*
X164637466Y-93933897D01*
X164662452Y-93903452D01*
X164692897Y-93878466D01*
X164727633Y-93859899D01*
X164765326Y-93848465D01*
X164810661Y-93844000D01*
X165897339Y-93844000D01*
X165942674Y-93848465D01*
X165942674Y-93848465D01*
G37*
G36*
X201786928Y-94393764D02*
G01*
X201808009Y-94400160D01*
X201827445Y-94410548D01*
X201844476Y-94424524D01*
X201858452Y-94441555D01*
X201868840Y-94460991D01*
X201875236Y-94482072D01*
X201878000Y-94510140D01*
X201878000Y-94973860D01*
X201875236Y-95001928D01*
X201868840Y-95023009D01*
X201858452Y-95042445D01*
X201844476Y-95059476D01*
X201827445Y-95073452D01*
X201808009Y-95083840D01*
X201786928Y-95090236D01*
X201758860Y-95093000D01*
X199945140Y-95093000D01*
X199917072Y-95090236D01*
X199895991Y-95083840D01*
X199876555Y-95073452D01*
X199859524Y-95059476D01*
X199845548Y-95042445D01*
X199835160Y-95023009D01*
X199828764Y-95001928D01*
X199826000Y-94973860D01*
X199826000Y-94510140D01*
X199828764Y-94482072D01*
X199835160Y-94460991D01*
X199845548Y-94441555D01*
X199859524Y-94424524D01*
X199876555Y-94410548D01*
X199895991Y-94400160D01*
X199917072Y-94393764D01*
X199945140Y-94391000D01*
X201758860Y-94391000D01*
X201786928Y-94393764D01*
X201786928Y-94393764D01*
G37*
G36*
X206736928Y-94393764D02*
G01*
X206758009Y-94400160D01*
X206777445Y-94410548D01*
X206794476Y-94424524D01*
X206808452Y-94441555D01*
X206818840Y-94460991D01*
X206825236Y-94482072D01*
X206828000Y-94510140D01*
X206828000Y-94973860D01*
X206825236Y-95001928D01*
X206818840Y-95023009D01*
X206808452Y-95042445D01*
X206794476Y-95059476D01*
X206777445Y-95073452D01*
X206758009Y-95083840D01*
X206736928Y-95090236D01*
X206708860Y-95093000D01*
X204895140Y-95093000D01*
X204867072Y-95090236D01*
X204845991Y-95083840D01*
X204826555Y-95073452D01*
X204809524Y-95059476D01*
X204795548Y-95042445D01*
X204785160Y-95023009D01*
X204778764Y-95001928D01*
X204776000Y-94973860D01*
X204776000Y-94510140D01*
X204778764Y-94482072D01*
X204785160Y-94460991D01*
X204795548Y-94441555D01*
X204809524Y-94424524D01*
X204826555Y-94410548D01*
X204845991Y-94400160D01*
X204867072Y-94393764D01*
X204895140Y-94391000D01*
X206708860Y-94391000D01*
X206736928Y-94393764D01*
X206736928Y-94393764D01*
G37*
G36*
X177708000Y-94752000D02*
G01*
X175606000Y-94752000D01*
X175606000Y-93950000D01*
X177708000Y-93950000D01*
X177708000Y-94752000D01*
X177708000Y-94752000D01*
G37*
G36*
X193708000Y-94752000D02*
G01*
X191606000Y-94752000D01*
X191606000Y-93950000D01*
X193708000Y-93950000D01*
X193708000Y-94752000D01*
X193708000Y-94752000D01*
G37*
G36*
X163843562Y-92712681D02*
G01*
X163878481Y-92723274D01*
X163910663Y-92740476D01*
X163938873Y-92763627D01*
X163962024Y-92791837D01*
X163979226Y-92824019D01*
X163989819Y-92858938D01*
X163994000Y-92901395D01*
X163994000Y-94042605D01*
X163989819Y-94085062D01*
X163979226Y-94119981D01*
X163962024Y-94152163D01*
X163938873Y-94180373D01*
X163910663Y-94203524D01*
X163878481Y-94220726D01*
X163843562Y-94231319D01*
X163801105Y-94235500D01*
X162334895Y-94235500D01*
X162292438Y-94231319D01*
X162257519Y-94220726D01*
X162225337Y-94203524D01*
X162197127Y-94180373D01*
X162173976Y-94152163D01*
X162156774Y-94119981D01*
X162146181Y-94085062D01*
X162142000Y-94042605D01*
X162142000Y-92901395D01*
X162146181Y-92858938D01*
X162156774Y-92824019D01*
X162173976Y-92791837D01*
X162197127Y-92763627D01*
X162225337Y-92740476D01*
X162257519Y-92723274D01*
X162292438Y-92712681D01*
X162334895Y-92708500D01*
X163801105Y-92708500D01*
X163843562Y-92712681D01*
X163843562Y-92712681D01*
G37*
G36*
X197248331Y-90292411D02*
G01*
X197576092Y-90428174D01*
X197871070Y-90625272D01*
X198121928Y-90876130D01*
X198319026Y-91171108D01*
X198454789Y-91498869D01*
X198524000Y-91846816D01*
X198524000Y-92201584D01*
X198454789Y-92549531D01*
X198319026Y-92877292D01*
X198121928Y-93172270D01*
X197871070Y-93423128D01*
X197576092Y-93620226D01*
X197248331Y-93755989D01*
X196900384Y-93825200D01*
X196545616Y-93825200D01*
X196197669Y-93755989D01*
X195869908Y-93620226D01*
X195574930Y-93423128D01*
X195324072Y-93172270D01*
X195126974Y-92877292D01*
X194991211Y-92549531D01*
X194922000Y-92201584D01*
X194922000Y-91846816D01*
X194991211Y-91498869D01*
X195126974Y-91171108D01*
X195324072Y-90876130D01*
X195574930Y-90625272D01*
X195869908Y-90428174D01*
X196197669Y-90292411D01*
X196545616Y-90223200D01*
X196900384Y-90223200D01*
X197248331Y-90292411D01*
X197248331Y-90292411D01*
G37*
G36*
X201786928Y-93123764D02*
G01*
X201808009Y-93130160D01*
X201827445Y-93140548D01*
X201844476Y-93154524D01*
X201858452Y-93171555D01*
X201868840Y-93190991D01*
X201875236Y-93212072D01*
X201878000Y-93240140D01*
X201878000Y-93703860D01*
X201875236Y-93731928D01*
X201868840Y-93753009D01*
X201858452Y-93772445D01*
X201844476Y-93789476D01*
X201827445Y-93803452D01*
X201808009Y-93813840D01*
X201786928Y-93820236D01*
X201758860Y-93823000D01*
X199945140Y-93823000D01*
X199917072Y-93820236D01*
X199895991Y-93813840D01*
X199876555Y-93803452D01*
X199859524Y-93789476D01*
X199845548Y-93772445D01*
X199835160Y-93753009D01*
X199828764Y-93731928D01*
X199826000Y-93703860D01*
X199826000Y-93240140D01*
X199828764Y-93212072D01*
X199835160Y-93190991D01*
X199845548Y-93171555D01*
X199859524Y-93154524D01*
X199876555Y-93140548D01*
X199895991Y-93130160D01*
X199917072Y-93123764D01*
X199945140Y-93121000D01*
X201758860Y-93121000D01*
X201786928Y-93123764D01*
X201786928Y-93123764D01*
G37*
G36*
X206736928Y-93123764D02*
G01*
X206758009Y-93130160D01*
X206777445Y-93140548D01*
X206794476Y-93154524D01*
X206808452Y-93171555D01*
X206818840Y-93190991D01*
X206825236Y-93212072D01*
X206828000Y-93240140D01*
X206828000Y-93703860D01*
X206825236Y-93731928D01*
X206818840Y-93753009D01*
X206808452Y-93772445D01*
X206794476Y-93789476D01*
X206777445Y-93803452D01*
X206758009Y-93813840D01*
X206736928Y-93820236D01*
X206708860Y-93823000D01*
X204895140Y-93823000D01*
X204867072Y-93820236D01*
X204845991Y-93813840D01*
X204826555Y-93803452D01*
X204809524Y-93789476D01*
X204795548Y-93772445D01*
X204785160Y-93753009D01*
X204778764Y-93731928D01*
X204776000Y-93703860D01*
X204776000Y-93240140D01*
X204778764Y-93212072D01*
X204785160Y-93190991D01*
X204795548Y-93171555D01*
X204809524Y-93154524D01*
X204826555Y-93140548D01*
X204845991Y-93130160D01*
X204867072Y-93123764D01*
X204895140Y-93121000D01*
X206708860Y-93121000D01*
X206736928Y-93123764D01*
X206736928Y-93123764D01*
G37*
G36*
X177708000Y-93482000D02*
G01*
X175606000Y-93482000D01*
X175606000Y-92680000D01*
X177708000Y-92680000D01*
X177708000Y-93482000D01*
X177708000Y-93482000D01*
G37*
G36*
X193708000Y-93482000D02*
G01*
X191606000Y-93482000D01*
X191606000Y-92680000D01*
X193708000Y-92680000D01*
X193708000Y-93482000D01*
X193708000Y-93482000D01*
G37*
G36*
X177708000Y-92212000D02*
G01*
X175606000Y-92212000D01*
X175606000Y-91410000D01*
X177708000Y-91410000D01*
X177708000Y-92212000D01*
X177708000Y-92212000D01*
G37*
G36*
X193708000Y-92212000D02*
G01*
X191606000Y-92212000D01*
X191606000Y-91410000D01*
X193708000Y-91410000D01*
X193708000Y-92212000D01*
X193708000Y-92212000D01*
G37*
G36*
X166374206Y-90932000D02*
G01*
X165100000Y-92206206D01*
X163825794Y-90932000D01*
X165100000Y-89657794D01*
X166374206Y-90932000D01*
X166374206Y-90932000D01*
G37*
G36*
X173147000Y-92008000D02*
G01*
X169245000Y-92008000D01*
X169245000Y-89906000D01*
X173147000Y-89906000D01*
X173147000Y-92008000D01*
X173147000Y-92008000D01*
G37*
G36*
X203557575Y-90943075D02*
G01*
X202948049Y-91552601D01*
X201744553Y-90349105D01*
X202354079Y-89739579D01*
X203557575Y-90943075D01*
X203557575Y-90943075D01*
G37*
G36*
X177708000Y-90942000D02*
G01*
X175606000Y-90942000D01*
X175606000Y-90140000D01*
X177708000Y-90140000D01*
X177708000Y-90942000D01*
X177708000Y-90942000D01*
G37*
G36*
X193708000Y-90942000D02*
G01*
X191606000Y-90942000D01*
X191606000Y-90140000D01*
X193708000Y-90140000D01*
X193708000Y-90942000D01*
X193708000Y-90942000D01*
G37*
G36*
X204455601Y-90045049D02*
G01*
X203846075Y-90654575D01*
X202642579Y-89451079D01*
X203252105Y-88841553D01*
X204455601Y-90045049D01*
X204455601Y-90045049D01*
G37*
G36*
X167000711Y-88240898D02*
G01*
X167072678Y-88247986D01*
X167242517Y-88299506D01*
X167399042Y-88383171D01*
X167434780Y-88412501D01*
X167536237Y-88495763D01*
X167619499Y-88597220D01*
X167648829Y-88632958D01*
X167732494Y-88789483D01*
X167784014Y-88959322D01*
X167801410Y-89135949D01*
X167784014Y-89312576D01*
X167732494Y-89482415D01*
X167648829Y-89638940D01*
X167633356Y-89657794D01*
X167536237Y-89776135D01*
X167434780Y-89859397D01*
X167399042Y-89888727D01*
X167242517Y-89972392D01*
X167072678Y-90023912D01*
X167006493Y-90030431D01*
X166940311Y-90036949D01*
X166851791Y-90036949D01*
X166785609Y-90030431D01*
X166719424Y-90023912D01*
X166549585Y-89972392D01*
X166393060Y-89888727D01*
X166357322Y-89859397D01*
X166255865Y-89776135D01*
X166158746Y-89657794D01*
X166143273Y-89638940D01*
X166059608Y-89482415D01*
X166008088Y-89312576D01*
X165990692Y-89135949D01*
X166008088Y-88959322D01*
X166059608Y-88789483D01*
X166143273Y-88632958D01*
X166172603Y-88597220D01*
X166255865Y-88495763D01*
X166357322Y-88412501D01*
X166393060Y-88383171D01*
X166549585Y-88299506D01*
X166719424Y-88247986D01*
X166791391Y-88240898D01*
X166851791Y-88234949D01*
X166940311Y-88234949D01*
X167000711Y-88240898D01*
X167000711Y-88240898D01*
G37*
G36*
X172527499Y-87870445D02*
G01*
X172564995Y-87881820D01*
X172599554Y-87900292D01*
X172629847Y-87925153D01*
X172654708Y-87955446D01*
X172673180Y-87990005D01*
X172684555Y-88027501D01*
X172689000Y-88072638D01*
X172689000Y-88711362D01*
X172684555Y-88756499D01*
X172673180Y-88793995D01*
X172654708Y-88828554D01*
X172629847Y-88858847D01*
X172599554Y-88883708D01*
X172564995Y-88902180D01*
X172527499Y-88913555D01*
X172482362Y-88918000D01*
X171743638Y-88918000D01*
X171698501Y-88913555D01*
X171661005Y-88902180D01*
X171626446Y-88883708D01*
X171596153Y-88858847D01*
X171571292Y-88828554D01*
X171552820Y-88793995D01*
X171541445Y-88756499D01*
X171537000Y-88711362D01*
X171537000Y-88072638D01*
X171541445Y-88027501D01*
X171552820Y-87990005D01*
X171571292Y-87955446D01*
X171596153Y-87925153D01*
X171626446Y-87900292D01*
X171661005Y-87881820D01*
X171698501Y-87870445D01*
X171743638Y-87866000D01*
X172482362Y-87866000D01*
X172527499Y-87870445D01*
X172527499Y-87870445D01*
G37*
G36*
X174277499Y-87870445D02*
G01*
X174314995Y-87881820D01*
X174349554Y-87900292D01*
X174379847Y-87925153D01*
X174404708Y-87955446D01*
X174423180Y-87990005D01*
X174434555Y-88027501D01*
X174439000Y-88072638D01*
X174439000Y-88711362D01*
X174434555Y-88756499D01*
X174423180Y-88793995D01*
X174404708Y-88828554D01*
X174379847Y-88858847D01*
X174349554Y-88883708D01*
X174314995Y-88902180D01*
X174277499Y-88913555D01*
X174232362Y-88918000D01*
X173493638Y-88918000D01*
X173448501Y-88913555D01*
X173411005Y-88902180D01*
X173376446Y-88883708D01*
X173346153Y-88858847D01*
X173321292Y-88828554D01*
X173302820Y-88793995D01*
X173291445Y-88756499D01*
X173287000Y-88711362D01*
X173287000Y-88072638D01*
X173291445Y-88027501D01*
X173302820Y-87990005D01*
X173321292Y-87955446D01*
X173346153Y-87925153D01*
X173376446Y-87900292D01*
X173411005Y-87881820D01*
X173448501Y-87870445D01*
X173493638Y-87866000D01*
X174232362Y-87866000D01*
X174277499Y-87870445D01*
X174277499Y-87870445D01*
G37*
G36*
X168796752Y-86444846D02*
G01*
X168868729Y-86451935D01*
X169038568Y-86503455D01*
X169195093Y-86587120D01*
X169230831Y-86616450D01*
X169332288Y-86699712D01*
X169415550Y-86801169D01*
X169444880Y-86836907D01*
X169528545Y-86993432D01*
X169580065Y-87163271D01*
X169597461Y-87339898D01*
X169580065Y-87516525D01*
X169528545Y-87686364D01*
X169444880Y-87842889D01*
X169425913Y-87866000D01*
X169332288Y-87980084D01*
X169230831Y-88063346D01*
X169195093Y-88092676D01*
X169038568Y-88176341D01*
X168868729Y-88227861D01*
X168802545Y-88234379D01*
X168736362Y-88240898D01*
X168647842Y-88240898D01*
X168581659Y-88234379D01*
X168515475Y-88227861D01*
X168345636Y-88176341D01*
X168189111Y-88092676D01*
X168153373Y-88063346D01*
X168051916Y-87980084D01*
X167958291Y-87866000D01*
X167939324Y-87842889D01*
X167855659Y-87686364D01*
X167804139Y-87516525D01*
X167786743Y-87339898D01*
X167804139Y-87163271D01*
X167855659Y-86993432D01*
X167939324Y-86836907D01*
X167968654Y-86801169D01*
X168051916Y-86699712D01*
X168153373Y-86616450D01*
X168189111Y-86587120D01*
X168345636Y-86503455D01*
X168515475Y-86451935D01*
X168587452Y-86444846D01*
X168647842Y-86438898D01*
X168736362Y-86438898D01*
X168796752Y-86444846D01*
X168796752Y-86444846D01*
G37*
G36*
X170592814Y-84648795D02*
G01*
X170664781Y-84655883D01*
X170834620Y-84707403D01*
X170991145Y-84791068D01*
X171026883Y-84820398D01*
X171128340Y-84903660D01*
X171211602Y-85005117D01*
X171240932Y-85040855D01*
X171324597Y-85197380D01*
X171376117Y-85367219D01*
X171393513Y-85543846D01*
X171376117Y-85720473D01*
X171324597Y-85890312D01*
X171240932Y-86046837D01*
X171211602Y-86082575D01*
X171128340Y-86184032D01*
X171026883Y-86267294D01*
X170991145Y-86296624D01*
X170834620Y-86380289D01*
X170664781Y-86431809D01*
X170598597Y-86438327D01*
X170532414Y-86444846D01*
X170443894Y-86444846D01*
X170377711Y-86438327D01*
X170311527Y-86431809D01*
X170141688Y-86380289D01*
X169985163Y-86296624D01*
X169949425Y-86267294D01*
X169847968Y-86184032D01*
X169764706Y-86082575D01*
X169735376Y-86046837D01*
X169651711Y-85890312D01*
X169600191Y-85720473D01*
X169582795Y-85543846D01*
X169600191Y-85367219D01*
X169651711Y-85197380D01*
X169735376Y-85040855D01*
X169764706Y-85005117D01*
X169847968Y-84903660D01*
X169949425Y-84820398D01*
X169985163Y-84791068D01*
X170141688Y-84707403D01*
X170311527Y-84655883D01*
X170383494Y-84648795D01*
X170443894Y-84642846D01*
X170532414Y-84642846D01*
X170592814Y-84648795D01*
X170592814Y-84648795D01*
G37*
G36*
X198169421Y-85554921D02*
G01*
X197559895Y-86164447D01*
X196356399Y-84960951D01*
X196965925Y-84351425D01*
X198169421Y-85554921D01*
X198169421Y-85554921D01*
G37*
G36*
X199067447Y-84656895D02*
G01*
X198457921Y-85266421D01*
X197254425Y-84062925D01*
X197863951Y-83453399D01*
X199067447Y-84656895D01*
X199067447Y-84656895D01*
G37*
G36*
X172394648Y-82853314D02*
G01*
X172460832Y-82859832D01*
X172630671Y-82911352D01*
X172787196Y-82995017D01*
X172822934Y-83024347D01*
X172924391Y-83107609D01*
X172985234Y-83181748D01*
X173036983Y-83244804D01*
X173120648Y-83401329D01*
X173172168Y-83571168D01*
X173189564Y-83747795D01*
X173172168Y-83924422D01*
X173120648Y-84094261D01*
X173036983Y-84250786D01*
X173007653Y-84286524D01*
X172924391Y-84387981D01*
X172822934Y-84471243D01*
X172787196Y-84500573D01*
X172630671Y-84584238D01*
X172460832Y-84635758D01*
X172394647Y-84642277D01*
X172328465Y-84648795D01*
X172239945Y-84648795D01*
X172173763Y-84642277D01*
X172107578Y-84635758D01*
X171937739Y-84584238D01*
X171781214Y-84500573D01*
X171745476Y-84471243D01*
X171644019Y-84387981D01*
X171560757Y-84286524D01*
X171531427Y-84250786D01*
X171447762Y-84094261D01*
X171396242Y-83924422D01*
X171378846Y-83747795D01*
X171396242Y-83571168D01*
X171447762Y-83401329D01*
X171531427Y-83244804D01*
X171583176Y-83181748D01*
X171644019Y-83107609D01*
X171745476Y-83024347D01*
X171781214Y-82995017D01*
X171937739Y-82911352D01*
X172107578Y-82859832D01*
X172173762Y-82853314D01*
X172239945Y-82846795D01*
X172328465Y-82846795D01*
X172394648Y-82853314D01*
X172394648Y-82853314D01*
G37*
G36*
X195097239Y-82859820D02*
G01*
X195134932Y-82871254D01*
X195169668Y-82889821D01*
X195204881Y-82918719D01*
X195973281Y-83687119D01*
X196002179Y-83722332D01*
X196020746Y-83757068D01*
X196032180Y-83794761D01*
X196036040Y-83833956D01*
X196032180Y-83873151D01*
X196020746Y-83910844D01*
X196002179Y-83945580D01*
X195973281Y-83980793D01*
X195381657Y-84572417D01*
X195346444Y-84601315D01*
X195311708Y-84619882D01*
X195274015Y-84631316D01*
X195234820Y-84635176D01*
X195195625Y-84631316D01*
X195157932Y-84619882D01*
X195123196Y-84601315D01*
X195087983Y-84572417D01*
X194319583Y-83804017D01*
X194290685Y-83768804D01*
X194272118Y-83734068D01*
X194260684Y-83696375D01*
X194256824Y-83657180D01*
X194260684Y-83617985D01*
X194272118Y-83580292D01*
X194290685Y-83545556D01*
X194319583Y-83510343D01*
X194911207Y-82918719D01*
X194946420Y-82889821D01*
X194981156Y-82871254D01*
X195018849Y-82859820D01*
X195058044Y-82855960D01*
X195097239Y-82859820D01*
X195097239Y-82859820D01*
G37*
G36*
X196546807Y-81410252D02*
G01*
X196584500Y-81421686D01*
X196619236Y-81440253D01*
X196654449Y-81469151D01*
X197422849Y-82237551D01*
X197451747Y-82272764D01*
X197470314Y-82307500D01*
X197481748Y-82345193D01*
X197485608Y-82384388D01*
X197481748Y-82423583D01*
X197470314Y-82461276D01*
X197451747Y-82496012D01*
X197422849Y-82531225D01*
X196831225Y-83122849D01*
X196796012Y-83151747D01*
X196761276Y-83170314D01*
X196723583Y-83181748D01*
X196684388Y-83185608D01*
X196645193Y-83181748D01*
X196607500Y-83170314D01*
X196572764Y-83151747D01*
X196537551Y-83122849D01*
X195769151Y-82354449D01*
X195740253Y-82319236D01*
X195721686Y-82284500D01*
X195710252Y-82246807D01*
X195706392Y-82207612D01*
X195710252Y-82168417D01*
X195721686Y-82130724D01*
X195740253Y-82095988D01*
X195769151Y-82060775D01*
X196360775Y-81469151D01*
X196395988Y-81440253D01*
X196430724Y-81421686D01*
X196468417Y-81410252D01*
X196507612Y-81406392D01*
X196546807Y-81410252D01*
X196546807Y-81410252D01*
G37*
M02*
