G04 #@! TF.GenerationSoftware,KiCad,Pcbnew,(5.1.4-0-10_14)*
G04 #@! TF.CreationDate,2019-11-19T00:31:21+08:00*
G04 #@! TF.ProjectId,z2m_partner,7a326d5f-7061-4727-946e-65722e6b6963,rev?*
G04 #@! TF.SameCoordinates,Original*
G04 #@! TF.FileFunction,Legend,Bot*
G04 #@! TF.FilePolarity,Positive*
%FSLAX46Y46*%
G04 Gerber Fmt 4.6, Leading zero omitted, Abs format (unit mm)*
G04 Created by KiCad (PCBNEW (5.1.4-0-10_14)) date 2019-11-19 00:31:21*
%MOMM*%
%LPD*%
G04 APERTURE LIST*
%ADD10C,0.150000*%
%ADD11C,0.120000*%
G04 APERTURE END LIST*
D10*
X193212857Y-125672380D02*
X193212857Y-124672380D01*
X192784285Y-125672380D02*
X192784285Y-125148571D01*
X192831904Y-125053333D01*
X192927142Y-125005714D01*
X193070000Y-125005714D01*
X193165238Y-125053333D01*
X193212857Y-125100952D01*
X192450952Y-125005714D02*
X192070000Y-125005714D01*
X192308095Y-124672380D02*
X192308095Y-125529523D01*
X192260476Y-125624761D01*
X192165238Y-125672380D01*
X192070000Y-125672380D01*
X191879523Y-125005714D02*
X191498571Y-125005714D01*
X191736666Y-124672380D02*
X191736666Y-125529523D01*
X191689047Y-125624761D01*
X191593809Y-125672380D01*
X191498571Y-125672380D01*
X191165238Y-125005714D02*
X191165238Y-126005714D01*
X191165238Y-125053333D02*
X191070000Y-125005714D01*
X190879523Y-125005714D01*
X190784285Y-125053333D01*
X190736666Y-125100952D01*
X190689047Y-125196190D01*
X190689047Y-125481904D01*
X190736666Y-125577142D01*
X190784285Y-125624761D01*
X190879523Y-125672380D01*
X191070000Y-125672380D01*
X191165238Y-125624761D01*
X190308095Y-125624761D02*
X190212857Y-125672380D01*
X190022380Y-125672380D01*
X189927142Y-125624761D01*
X189879523Y-125529523D01*
X189879523Y-125481904D01*
X189927142Y-125386666D01*
X190022380Y-125339047D01*
X190165238Y-125339047D01*
X190260476Y-125291428D01*
X190308095Y-125196190D01*
X190308095Y-125148571D01*
X190260476Y-125053333D01*
X190165238Y-125005714D01*
X190022380Y-125005714D01*
X189927142Y-125053333D01*
X189450952Y-125577142D02*
X189403333Y-125624761D01*
X189450952Y-125672380D01*
X189498571Y-125624761D01*
X189450952Y-125577142D01*
X189450952Y-125672380D01*
X189450952Y-125053333D02*
X189403333Y-125100952D01*
X189450952Y-125148571D01*
X189498571Y-125100952D01*
X189450952Y-125053333D01*
X189450952Y-125148571D01*
X188260476Y-124624761D02*
X189117619Y-125910476D01*
X187212857Y-124624761D02*
X188070000Y-125910476D01*
X186879523Y-125672380D02*
X186879523Y-124672380D01*
X186879523Y-125053333D02*
X186784285Y-125005714D01*
X186593809Y-125005714D01*
X186498571Y-125053333D01*
X186450952Y-125100952D01*
X186403333Y-125196190D01*
X186403333Y-125481904D01*
X186450952Y-125577142D01*
X186498571Y-125624761D01*
X186593809Y-125672380D01*
X186784285Y-125672380D01*
X186879523Y-125624761D01*
X185974761Y-125672380D02*
X185974761Y-124672380D01*
X185974761Y-125053333D02*
X185879523Y-125005714D01*
X185689047Y-125005714D01*
X185593809Y-125053333D01*
X185546190Y-125100952D01*
X185498571Y-125196190D01*
X185498571Y-125481904D01*
X185546190Y-125577142D01*
X185593809Y-125624761D01*
X185689047Y-125672380D01*
X185879523Y-125672380D01*
X185974761Y-125624761D01*
X185117619Y-125624761D02*
X185022380Y-125672380D01*
X184831904Y-125672380D01*
X184736666Y-125624761D01*
X184689047Y-125529523D01*
X184689047Y-125481904D01*
X184736666Y-125386666D01*
X184831904Y-125339047D01*
X184974761Y-125339047D01*
X185070000Y-125291428D01*
X185117619Y-125196190D01*
X185117619Y-125148571D01*
X185070000Y-125053333D01*
X184974761Y-125005714D01*
X184831904Y-125005714D01*
X184736666Y-125053333D01*
X184260476Y-125577142D02*
X184212857Y-125624761D01*
X184260476Y-125672380D01*
X184308095Y-125624761D01*
X184260476Y-125577142D01*
X184260476Y-125672380D01*
X183784285Y-125672380D02*
X183784285Y-125005714D01*
X183784285Y-124672380D02*
X183831904Y-124720000D01*
X183784285Y-124767619D01*
X183736666Y-124720000D01*
X183784285Y-124672380D01*
X183784285Y-124767619D01*
X183165238Y-125672380D02*
X183260476Y-125624761D01*
X183308095Y-125577142D01*
X183355714Y-125481904D01*
X183355714Y-125196190D01*
X183308095Y-125100952D01*
X183260476Y-125053333D01*
X183165238Y-125005714D01*
X183022380Y-125005714D01*
X182927142Y-125053333D01*
X182879523Y-125100952D01*
X182831904Y-125196190D01*
X182831904Y-125481904D01*
X182879523Y-125577142D01*
X182927142Y-125624761D01*
X183022380Y-125672380D01*
X183165238Y-125672380D01*
X182403333Y-125672380D02*
X182403333Y-124672380D01*
X182403333Y-125053333D02*
X182308095Y-125005714D01*
X182117619Y-125005714D01*
X182022380Y-125053333D01*
X181974761Y-125100952D01*
X181927142Y-125196190D01*
X181927142Y-125481904D01*
X181974761Y-125577142D01*
X182022380Y-125624761D01*
X182117619Y-125672380D01*
X182308095Y-125672380D01*
X182403333Y-125624761D01*
X181498571Y-125672380D02*
X181498571Y-125005714D01*
X181498571Y-125196190D02*
X181450952Y-125100952D01*
X181403333Y-125053333D01*
X181308095Y-125005714D01*
X181212857Y-125005714D01*
X180736666Y-125672380D02*
X180831904Y-125624761D01*
X180879523Y-125577142D01*
X180927142Y-125481904D01*
X180927142Y-125196190D01*
X180879523Y-125100952D01*
X180831904Y-125053333D01*
X180736666Y-125005714D01*
X180593809Y-125005714D01*
X180498571Y-125053333D01*
X180450952Y-125100952D01*
X180403333Y-125196190D01*
X180403333Y-125481904D01*
X180450952Y-125577142D01*
X180498571Y-125624761D01*
X180593809Y-125672380D01*
X180736666Y-125672380D01*
X179974761Y-125672380D02*
X179974761Y-124672380D01*
X179879523Y-125291428D02*
X179593809Y-125672380D01*
X179593809Y-125005714D02*
X179974761Y-125386666D01*
X178784285Y-125624761D02*
X178879523Y-125672380D01*
X179070000Y-125672380D01*
X179165238Y-125624761D01*
X179212857Y-125529523D01*
X179212857Y-125148571D01*
X179165238Y-125053333D01*
X179070000Y-125005714D01*
X178879523Y-125005714D01*
X178784285Y-125053333D01*
X178736666Y-125148571D01*
X178736666Y-125243809D01*
X179212857Y-125339047D01*
X178308095Y-125672380D02*
X178308095Y-125005714D01*
X178308095Y-125196190D02*
X178260476Y-125100952D01*
X178212857Y-125053333D01*
X178117619Y-125005714D01*
X178022380Y-125005714D01*
X177689047Y-125577142D02*
X177641428Y-125624761D01*
X177689047Y-125672380D01*
X177736666Y-125624761D01*
X177689047Y-125577142D01*
X177689047Y-125672380D01*
X176784285Y-125624761D02*
X176879523Y-125672380D01*
X177070000Y-125672380D01*
X177165238Y-125624761D01*
X177212857Y-125577142D01*
X177260476Y-125481904D01*
X177260476Y-125196190D01*
X177212857Y-125100952D01*
X177165238Y-125053333D01*
X177070000Y-125005714D01*
X176879523Y-125005714D01*
X176784285Y-125053333D01*
X176355714Y-125005714D02*
X176355714Y-125672380D01*
X176355714Y-125100952D02*
X176308095Y-125053333D01*
X176212857Y-125005714D01*
X176070000Y-125005714D01*
X175974761Y-125053333D01*
X175927142Y-125148571D01*
X175927142Y-125672380D01*
X194978571Y-123522380D02*
X194978571Y-122522380D01*
X194740476Y-122522380D01*
X194597619Y-122570000D01*
X194502380Y-122665238D01*
X194454761Y-122760476D01*
X194407142Y-122950952D01*
X194407142Y-123093809D01*
X194454761Y-123284285D01*
X194502380Y-123379523D01*
X194597619Y-123474761D01*
X194740476Y-123522380D01*
X194978571Y-123522380D01*
X193597619Y-123474761D02*
X193692857Y-123522380D01*
X193883333Y-123522380D01*
X193978571Y-123474761D01*
X194026190Y-123379523D01*
X194026190Y-122998571D01*
X193978571Y-122903333D01*
X193883333Y-122855714D01*
X193692857Y-122855714D01*
X193597619Y-122903333D01*
X193550000Y-122998571D01*
X193550000Y-123093809D01*
X194026190Y-123189047D01*
X193169047Y-123474761D02*
X193073809Y-123522380D01*
X192883333Y-123522380D01*
X192788095Y-123474761D01*
X192740476Y-123379523D01*
X192740476Y-123331904D01*
X192788095Y-123236666D01*
X192883333Y-123189047D01*
X193026190Y-123189047D01*
X193121428Y-123141428D01*
X193169047Y-123046190D01*
X193169047Y-122998571D01*
X193121428Y-122903333D01*
X193026190Y-122855714D01*
X192883333Y-122855714D01*
X192788095Y-122903333D01*
X192311904Y-123522380D02*
X192311904Y-122855714D01*
X192311904Y-122522380D02*
X192359523Y-122570000D01*
X192311904Y-122617619D01*
X192264285Y-122570000D01*
X192311904Y-122522380D01*
X192311904Y-122617619D01*
X191407142Y-122855714D02*
X191407142Y-123665238D01*
X191454761Y-123760476D01*
X191502380Y-123808095D01*
X191597619Y-123855714D01*
X191740476Y-123855714D01*
X191835714Y-123808095D01*
X191407142Y-123474761D02*
X191502380Y-123522380D01*
X191692857Y-123522380D01*
X191788095Y-123474761D01*
X191835714Y-123427142D01*
X191883333Y-123331904D01*
X191883333Y-123046190D01*
X191835714Y-122950952D01*
X191788095Y-122903333D01*
X191692857Y-122855714D01*
X191502380Y-122855714D01*
X191407142Y-122903333D01*
X190930952Y-122855714D02*
X190930952Y-123522380D01*
X190930952Y-122950952D02*
X190883333Y-122903333D01*
X190788095Y-122855714D01*
X190645238Y-122855714D01*
X190550000Y-122903333D01*
X190502380Y-122998571D01*
X190502380Y-123522380D01*
X189645238Y-123474761D02*
X189740476Y-123522380D01*
X189930952Y-123522380D01*
X190026190Y-123474761D01*
X190073809Y-123379523D01*
X190073809Y-122998571D01*
X190026190Y-122903333D01*
X189930952Y-122855714D01*
X189740476Y-122855714D01*
X189645238Y-122903333D01*
X189597619Y-122998571D01*
X189597619Y-123093809D01*
X190073809Y-123189047D01*
X188740476Y-123522380D02*
X188740476Y-122522380D01*
X188740476Y-123474761D02*
X188835714Y-123522380D01*
X189026190Y-123522380D01*
X189121428Y-123474761D01*
X189169047Y-123427142D01*
X189216666Y-123331904D01*
X189216666Y-123046190D01*
X189169047Y-122950952D01*
X189121428Y-122903333D01*
X189026190Y-122855714D01*
X188835714Y-122855714D01*
X188740476Y-122903333D01*
X187502380Y-123522380D02*
X187502380Y-122522380D01*
X187502380Y-122903333D02*
X187407142Y-122855714D01*
X187216666Y-122855714D01*
X187121428Y-122903333D01*
X187073809Y-122950952D01*
X187026190Y-123046190D01*
X187026190Y-123331904D01*
X187073809Y-123427142D01*
X187121428Y-123474761D01*
X187216666Y-123522380D01*
X187407142Y-123522380D01*
X187502380Y-123474761D01*
X186692857Y-122855714D02*
X186454761Y-123522380D01*
X186216666Y-122855714D02*
X186454761Y-123522380D01*
X186550000Y-123760476D01*
X186597619Y-123808095D01*
X186692857Y-123855714D01*
X185121428Y-123474761D02*
X185026190Y-123522380D01*
X184835714Y-123522380D01*
X184740476Y-123474761D01*
X184692857Y-123379523D01*
X184692857Y-123331904D01*
X184740476Y-123236666D01*
X184835714Y-123189047D01*
X184978571Y-123189047D01*
X185073809Y-123141428D01*
X185121428Y-123046190D01*
X185121428Y-122998571D01*
X185073809Y-122903333D01*
X184978571Y-122855714D01*
X184835714Y-122855714D01*
X184740476Y-122903333D01*
X184264285Y-123522380D02*
X184264285Y-122855714D01*
X184264285Y-122950952D02*
X184216666Y-122903333D01*
X184121428Y-122855714D01*
X183978571Y-122855714D01*
X183883333Y-122903333D01*
X183835714Y-122998571D01*
X183835714Y-123522380D01*
X183835714Y-122998571D02*
X183788095Y-122903333D01*
X183692857Y-122855714D01*
X183550000Y-122855714D01*
X183454761Y-122903333D01*
X183407142Y-122998571D01*
X183407142Y-123522380D01*
X182502380Y-123522380D02*
X182502380Y-122998571D01*
X182550000Y-122903333D01*
X182645238Y-122855714D01*
X182835714Y-122855714D01*
X182930952Y-122903333D01*
X182502380Y-123474761D02*
X182597619Y-123522380D01*
X182835714Y-123522380D01*
X182930952Y-123474761D01*
X182978571Y-123379523D01*
X182978571Y-123284285D01*
X182930952Y-123189047D01*
X182835714Y-123141428D01*
X182597619Y-123141428D01*
X182502380Y-123093809D01*
X182026190Y-123522380D02*
X182026190Y-122855714D01*
X182026190Y-123046190D02*
X181978571Y-122950952D01*
X181930952Y-122903333D01*
X181835714Y-122855714D01*
X181740476Y-122855714D01*
X181550000Y-122855714D02*
X181169047Y-122855714D01*
X181407142Y-122522380D02*
X181407142Y-123379523D01*
X181359523Y-123474761D01*
X181264285Y-123522380D01*
X181169047Y-123522380D01*
X180835714Y-123522380D02*
X180835714Y-122522380D01*
X180407142Y-123522380D02*
X180407142Y-122998571D01*
X180454761Y-122903333D01*
X180550000Y-122855714D01*
X180692857Y-122855714D01*
X180788095Y-122903333D01*
X180835714Y-122950952D01*
X179788095Y-123522380D02*
X179883333Y-123474761D01*
X179930952Y-123427142D01*
X179978571Y-123331904D01*
X179978571Y-123046190D01*
X179930952Y-122950952D01*
X179883333Y-122903333D01*
X179788095Y-122855714D01*
X179645238Y-122855714D01*
X179550000Y-122903333D01*
X179502380Y-122950952D01*
X179454761Y-123046190D01*
X179454761Y-123331904D01*
X179502380Y-123427142D01*
X179550000Y-123474761D01*
X179645238Y-123522380D01*
X179788095Y-123522380D01*
X179026190Y-123522380D02*
X179026190Y-122855714D01*
X179026190Y-122950952D02*
X178978571Y-122903333D01*
X178883333Y-122855714D01*
X178740476Y-122855714D01*
X178645238Y-122903333D01*
X178597619Y-122998571D01*
X178597619Y-123522380D01*
X178597619Y-122998571D02*
X178550000Y-122903333D01*
X178454761Y-122855714D01*
X178311904Y-122855714D01*
X178216666Y-122903333D01*
X178169047Y-122998571D01*
X178169047Y-123522380D01*
X177311904Y-123474761D02*
X177407142Y-123522380D01*
X177597619Y-123522380D01*
X177692857Y-123474761D01*
X177740476Y-123379523D01*
X177740476Y-122998571D01*
X177692857Y-122903333D01*
X177597619Y-122855714D01*
X177407142Y-122855714D01*
X177311904Y-122903333D01*
X177264285Y-122998571D01*
X177264285Y-123093809D01*
X177740476Y-123189047D01*
X176978571Y-122855714D02*
X176597619Y-122855714D01*
X176835714Y-123522380D02*
X176835714Y-122665238D01*
X176788095Y-122570000D01*
X176692857Y-122522380D01*
X176597619Y-122522380D01*
X175835714Y-123522380D02*
X175835714Y-122998571D01*
X175883333Y-122903333D01*
X175978571Y-122855714D01*
X176169047Y-122855714D01*
X176264285Y-122903333D01*
X175835714Y-123474761D02*
X175930952Y-123522380D01*
X176169047Y-123522380D01*
X176264285Y-123474761D01*
X176311904Y-123379523D01*
X176311904Y-123284285D01*
X176264285Y-123189047D01*
X176169047Y-123141428D01*
X175930952Y-123141428D01*
X175835714Y-123093809D01*
X175359523Y-122855714D02*
X175359523Y-123522380D01*
X175359523Y-122950952D02*
X175311904Y-122903333D01*
X175216666Y-122855714D01*
X175073809Y-122855714D01*
X174978571Y-122903333D01*
X174930952Y-122998571D01*
X174930952Y-123522380D01*
X174502380Y-123474761D02*
X174407142Y-123522380D01*
X174216666Y-123522380D01*
X174121428Y-123474761D01*
X174073809Y-123379523D01*
X174073809Y-123331904D01*
X174121428Y-123236666D01*
X174216666Y-123189047D01*
X174359523Y-123189047D01*
X174454761Y-123141428D01*
X174502380Y-123046190D01*
X174502380Y-122998571D01*
X174454761Y-122903333D01*
X174359523Y-122855714D01*
X174216666Y-122855714D01*
X174121428Y-122903333D01*
X190760476Y-120995714D02*
X190236666Y-120995714D01*
X190760476Y-121662380D01*
X190236666Y-121662380D01*
X189903333Y-120757619D02*
X189855714Y-120710000D01*
X189760476Y-120662380D01*
X189522380Y-120662380D01*
X189427142Y-120710000D01*
X189379523Y-120757619D01*
X189331904Y-120852857D01*
X189331904Y-120948095D01*
X189379523Y-121090952D01*
X189950952Y-121662380D01*
X189331904Y-121662380D01*
X188903333Y-121662380D02*
X188903333Y-120995714D01*
X188903333Y-121090952D02*
X188855714Y-121043333D01*
X188760476Y-120995714D01*
X188617619Y-120995714D01*
X188522380Y-121043333D01*
X188474761Y-121138571D01*
X188474761Y-121662380D01*
X188474761Y-121138571D02*
X188427142Y-121043333D01*
X188331904Y-120995714D01*
X188189047Y-120995714D01*
X188093809Y-121043333D01*
X188046190Y-121138571D01*
X188046190Y-121662380D01*
X186808095Y-120995714D02*
X186808095Y-121995714D01*
X186808095Y-121043333D02*
X186712857Y-120995714D01*
X186522380Y-120995714D01*
X186427142Y-121043333D01*
X186379523Y-121090952D01*
X186331904Y-121186190D01*
X186331904Y-121471904D01*
X186379523Y-121567142D01*
X186427142Y-121614761D01*
X186522380Y-121662380D01*
X186712857Y-121662380D01*
X186808095Y-121614761D01*
X185474761Y-121662380D02*
X185474761Y-121138571D01*
X185522380Y-121043333D01*
X185617619Y-120995714D01*
X185808095Y-120995714D01*
X185903333Y-121043333D01*
X185474761Y-121614761D02*
X185570000Y-121662380D01*
X185808095Y-121662380D01*
X185903333Y-121614761D01*
X185950952Y-121519523D01*
X185950952Y-121424285D01*
X185903333Y-121329047D01*
X185808095Y-121281428D01*
X185570000Y-121281428D01*
X185474761Y-121233809D01*
X184998571Y-121662380D02*
X184998571Y-120995714D01*
X184998571Y-121186190D02*
X184950952Y-121090952D01*
X184903333Y-121043333D01*
X184808095Y-120995714D01*
X184712857Y-120995714D01*
X184522380Y-120995714D02*
X184141428Y-120995714D01*
X184379523Y-120662380D02*
X184379523Y-121519523D01*
X184331904Y-121614761D01*
X184236666Y-121662380D01*
X184141428Y-121662380D01*
X183808095Y-120995714D02*
X183808095Y-121662380D01*
X183808095Y-121090952D02*
X183760476Y-121043333D01*
X183665238Y-120995714D01*
X183522380Y-120995714D01*
X183427142Y-121043333D01*
X183379523Y-121138571D01*
X183379523Y-121662380D01*
X182522380Y-121614761D02*
X182617619Y-121662380D01*
X182808095Y-121662380D01*
X182903333Y-121614761D01*
X182950952Y-121519523D01*
X182950952Y-121138571D01*
X182903333Y-121043333D01*
X182808095Y-120995714D01*
X182617619Y-120995714D01*
X182522380Y-121043333D01*
X182474761Y-121138571D01*
X182474761Y-121233809D01*
X182950952Y-121329047D01*
X182046190Y-121662380D02*
X182046190Y-120995714D01*
X182046190Y-121186190D02*
X181998571Y-121090952D01*
X181950952Y-121043333D01*
X181855714Y-120995714D01*
X181760476Y-120995714D01*
X180760476Y-120995714D02*
X180522380Y-121662380D01*
X180284285Y-120995714D01*
X179712857Y-120662380D02*
X179617619Y-120662380D01*
X179522380Y-120710000D01*
X179474761Y-120757619D01*
X179427142Y-120852857D01*
X179379523Y-121043333D01*
X179379523Y-121281428D01*
X179427142Y-121471904D01*
X179474761Y-121567142D01*
X179522380Y-121614761D01*
X179617619Y-121662380D01*
X179712857Y-121662380D01*
X179808095Y-121614761D01*
X179855714Y-121567142D01*
X179903333Y-121471904D01*
X179950952Y-121281428D01*
X179950952Y-121043333D01*
X179903333Y-120852857D01*
X179855714Y-120757619D01*
X179808095Y-120710000D01*
X179712857Y-120662380D01*
X178998571Y-120757619D02*
X178950952Y-120710000D01*
X178855714Y-120662380D01*
X178617619Y-120662380D01*
X178522380Y-120710000D01*
X178474761Y-120757619D01*
X178427142Y-120852857D01*
X178427142Y-120948095D01*
X178474761Y-121090952D01*
X179046190Y-121662380D01*
X178427142Y-121662380D01*
D11*
X177853733Y-103160000D02*
X178196267Y-103160000D01*
X177853733Y-104180000D02*
X178196267Y-104180000D01*
X188200000Y-100120000D02*
X188200000Y-101270000D01*
X180900000Y-100120000D02*
X188200000Y-100120000D01*
X180900000Y-105620000D02*
X188200000Y-105620000D01*
X179585000Y-104460000D02*
X179585000Y-102000000D01*
X181055000Y-104460000D02*
X179585000Y-104460000D01*
X181055000Y-102000000D02*
X181055000Y-104460000D01*
X184786267Y-94010000D02*
X184443733Y-94010000D01*
X184786267Y-92990000D02*
X184443733Y-92990000D01*
X177662039Y-106911678D02*
X177833306Y-107208322D01*
X176778694Y-107421678D02*
X176949961Y-107718322D01*
X191496694Y-107335322D02*
X191667961Y-107038678D01*
X192380039Y-107845322D02*
X192551306Y-107548678D01*
X182550000Y-89120000D02*
X186550000Y-89120000D01*
X185550000Y-89120000D02*
X185550000Y-89620000D01*
X184550000Y-89120000D02*
X184550000Y-89620000D01*
X183550000Y-89120000D02*
X183550000Y-89620000D01*
X182550000Y-89120000D02*
X183050000Y-89620000D01*
X183050000Y-89620000D02*
X186050000Y-89620000D01*
X186050000Y-89620000D02*
X186550000Y-89120000D01*
X197449519Y-108032949D02*
X195449519Y-111497051D01*
X195949519Y-110631025D02*
X195516506Y-110381025D01*
X196449519Y-109765000D02*
X196016506Y-109515000D01*
X196949519Y-108898975D02*
X196516506Y-108648975D01*
X197449519Y-108032949D02*
X196766506Y-108215962D01*
X196766506Y-108215962D02*
X195266506Y-110814038D01*
X195266506Y-110814038D02*
X195449519Y-111497051D01*
X173650481Y-111487051D02*
X171650481Y-108022949D01*
X172150481Y-108888975D02*
X172583494Y-108638975D01*
X172650481Y-109755000D02*
X173083494Y-109505000D01*
X173150481Y-110621025D02*
X173583494Y-110371025D01*
X173650481Y-111487051D02*
X173833494Y-110804038D01*
X173833494Y-110804038D02*
X172333494Y-108205962D01*
X172333494Y-108205962D02*
X171650481Y-108022949D01*
X193437306Y-97493322D02*
X193266039Y-97196678D01*
X192553961Y-98003322D02*
X192382694Y-97706678D01*
X184358733Y-111570000D02*
X184701267Y-111570000D01*
X184358733Y-112590000D02*
X184701267Y-112590000D01*
X176073961Y-98486678D02*
X175902694Y-98783322D01*
X176957306Y-98996678D02*
X176786039Y-99293322D01*
X173543494Y-95685962D02*
X173360481Y-95002949D01*
X172043494Y-98284038D02*
X173543494Y-95685962D01*
X171360481Y-98467051D02*
X172043494Y-98284038D01*
X171860481Y-97601025D02*
X172293494Y-97851025D01*
X172360481Y-96735000D02*
X172793494Y-96985000D01*
X172860481Y-95868975D02*
X173293494Y-96118975D01*
X171360481Y-98467051D02*
X173360481Y-95002949D01*
X197076506Y-96824038D02*
X197759519Y-97007051D01*
X195576506Y-94225962D02*
X197076506Y-96824038D01*
X195759519Y-93542949D02*
X195576506Y-94225962D01*
X196259519Y-94408975D02*
X195826506Y-94658975D01*
X196759519Y-95275000D02*
X196326506Y-95525000D01*
X197259519Y-96141025D02*
X196826506Y-96391025D01*
X195759519Y-93542949D02*
X197759519Y-97007051D01*
X186530000Y-116620000D02*
X182530000Y-116620000D01*
X183530000Y-116620000D02*
X183530000Y-116120000D01*
X184530000Y-116620000D02*
X184530000Y-116120000D01*
X185530000Y-116620000D02*
X185530000Y-116120000D01*
X186530000Y-116620000D02*
X186030000Y-116120000D01*
X186030000Y-116120000D02*
X183030000Y-116120000D01*
X183030000Y-116120000D02*
X182530000Y-116620000D01*
D10*
X179509523Y-81900000D02*
X179433333Y-81938095D01*
X179319047Y-81938095D01*
X179204761Y-81900000D01*
X179128571Y-81823809D01*
X179090476Y-81747619D01*
X179052380Y-81595238D01*
X179052380Y-81480952D01*
X179090476Y-81328571D01*
X179128571Y-81252380D01*
X179204761Y-81176190D01*
X179319047Y-81138095D01*
X179395238Y-81138095D01*
X179509523Y-81176190D01*
X179547619Y-81214285D01*
X179547619Y-81480952D01*
X179395238Y-81480952D01*
X181719047Y-81138095D02*
X181719047Y-81938095D01*
X181909523Y-81938095D01*
X182023809Y-81900000D01*
X182100000Y-81823809D01*
X182138095Y-81747619D01*
X182176190Y-81595238D01*
X182176190Y-81480952D01*
X182138095Y-81328571D01*
X182100000Y-81252380D01*
X182023809Y-81176190D01*
X181909523Y-81138095D01*
X181719047Y-81138095D01*
X184804761Y-81214285D02*
X184766666Y-81176190D01*
X184652380Y-81138095D01*
X184576190Y-81138095D01*
X184461904Y-81176190D01*
X184385714Y-81252380D01*
X184347619Y-81328571D01*
X184309523Y-81480952D01*
X184309523Y-81595238D01*
X184347619Y-81747619D01*
X184385714Y-81823809D01*
X184461904Y-81900000D01*
X184576190Y-81938095D01*
X184652380Y-81938095D01*
X184766666Y-81900000D01*
X184804761Y-81861904D01*
X187433333Y-81138095D02*
X187166666Y-81519047D01*
X186976190Y-81138095D02*
X186976190Y-81938095D01*
X187280952Y-81938095D01*
X187357142Y-81900000D01*
X187395238Y-81861904D01*
X187433333Y-81785714D01*
X187433333Y-81671428D01*
X187395238Y-81595238D01*
X187357142Y-81557142D01*
X187280952Y-81519047D01*
X186976190Y-81519047D01*
X189490476Y-81938095D02*
X189757142Y-81138095D01*
X190023809Y-81938095D01*
X178466666Y-102657142D02*
X178514285Y-102704761D01*
X178657142Y-102752380D01*
X178752380Y-102752380D01*
X178895238Y-102704761D01*
X178990476Y-102609523D01*
X179038095Y-102514285D01*
X179085714Y-102323809D01*
X179085714Y-102180952D01*
X179038095Y-101990476D01*
X178990476Y-101895238D01*
X178895238Y-101800000D01*
X178752380Y-101752380D01*
X178657142Y-101752380D01*
X178514285Y-101800000D01*
X178466666Y-101847619D01*
X177514285Y-102752380D02*
X178085714Y-102752380D01*
X177800000Y-102752380D02*
X177800000Y-101752380D01*
X177895238Y-101895238D01*
X177990476Y-101990476D01*
X178085714Y-102038095D01*
X184838095Y-99952380D02*
X184838095Y-98952380D01*
X184600000Y-98952380D01*
X184457142Y-99000000D01*
X184361904Y-99095238D01*
X184314285Y-99190476D01*
X184266666Y-99380952D01*
X184266666Y-99523809D01*
X184314285Y-99714285D01*
X184361904Y-99809523D01*
X184457142Y-99904761D01*
X184600000Y-99952380D01*
X184838095Y-99952380D01*
X183314285Y-99952380D02*
X183885714Y-99952380D01*
X183600000Y-99952380D02*
X183600000Y-98952380D01*
X183695238Y-99095238D01*
X183790476Y-99190476D01*
X183885714Y-99238095D01*
X180552380Y-99561904D02*
X179552380Y-99561904D01*
X179552380Y-99800000D01*
X179600000Y-99942857D01*
X179695238Y-100038095D01*
X179790476Y-100085714D01*
X179980952Y-100133333D01*
X180123809Y-100133333D01*
X180314285Y-100085714D01*
X180409523Y-100038095D01*
X180504761Y-99942857D01*
X180552380Y-99800000D01*
X180552380Y-99561904D01*
X179647619Y-100514285D02*
X179600000Y-100561904D01*
X179552380Y-100657142D01*
X179552380Y-100895238D01*
X179600000Y-100990476D01*
X179647619Y-101038095D01*
X179742857Y-101085714D01*
X179838095Y-101085714D01*
X179980952Y-101038095D01*
X180552380Y-100466666D01*
X180552380Y-101085714D01*
X184566666Y-95157142D02*
X184614285Y-95204761D01*
X184757142Y-95252380D01*
X184852380Y-95252380D01*
X184995238Y-95204761D01*
X185090476Y-95109523D01*
X185138095Y-95014285D01*
X185185714Y-94823809D01*
X185185714Y-94680952D01*
X185138095Y-94490476D01*
X185090476Y-94395238D01*
X184995238Y-94300000D01*
X184852380Y-94252380D01*
X184757142Y-94252380D01*
X184614285Y-94300000D01*
X184566666Y-94347619D01*
X184185714Y-94347619D02*
X184138095Y-94300000D01*
X184042857Y-94252380D01*
X183804761Y-94252380D01*
X183709523Y-94300000D01*
X183661904Y-94347619D01*
X183614285Y-94442857D01*
X183614285Y-94538095D01*
X183661904Y-94680952D01*
X184233333Y-95252380D01*
X183614285Y-95252380D01*
X178274038Y-107122908D02*
X178256608Y-107187957D01*
X178286798Y-107335485D01*
X178334417Y-107417963D01*
X178447084Y-107517872D01*
X178577182Y-107552731D01*
X178683470Y-107546352D01*
X178872237Y-107492353D01*
X178995955Y-107420924D01*
X179137103Y-107284447D01*
X179195772Y-107195588D01*
X179230631Y-107065491D01*
X179200442Y-106917963D01*
X179152823Y-106835485D01*
X179040155Y-106735576D01*
X178975106Y-106718147D01*
X178400717Y-106389942D02*
X178489575Y-106448611D01*
X178554624Y-106466040D01*
X178660912Y-106459661D01*
X178702151Y-106435851D01*
X178760821Y-106346993D01*
X178778250Y-106281944D01*
X178771871Y-106175656D01*
X178676632Y-106010699D01*
X178587774Y-105952030D01*
X178522725Y-105934600D01*
X178416437Y-105940980D01*
X178375198Y-105964789D01*
X178316529Y-106053647D01*
X178299099Y-106118696D01*
X178305479Y-106224984D01*
X178400717Y-106389942D01*
X178407097Y-106496230D01*
X178389667Y-106561279D01*
X178330998Y-106650137D01*
X178166040Y-106745375D01*
X178059752Y-106751755D01*
X177994704Y-106734325D01*
X177905845Y-106675656D01*
X177810607Y-106510699D01*
X177804227Y-106404411D01*
X177821657Y-106339362D01*
X177880326Y-106250503D01*
X178045283Y-106155265D01*
X178151572Y-106148886D01*
X178216620Y-106166315D01*
X178305479Y-106224984D01*
X191292628Y-106934233D02*
X191357676Y-106916804D01*
X191470344Y-106816895D01*
X191517963Y-106734417D01*
X191548153Y-106586889D01*
X191513293Y-106456791D01*
X191454624Y-106367933D01*
X191313476Y-106231456D01*
X191189758Y-106160027D01*
X191000992Y-106106028D01*
X190894704Y-106099649D01*
X190764606Y-106134508D01*
X190651938Y-106234417D01*
X190604319Y-106316895D01*
X190574130Y-106464423D01*
X190591559Y-106529471D01*
X191137011Y-107394245D02*
X191041773Y-107559203D01*
X190952915Y-107617872D01*
X190887866Y-107635302D01*
X190716529Y-107646352D01*
X190527762Y-107592353D01*
X190197848Y-107401877D01*
X190139178Y-107313018D01*
X190121749Y-107247969D01*
X190128128Y-107141681D01*
X190223367Y-106976724D01*
X190312225Y-106918055D01*
X190377274Y-106900625D01*
X190483562Y-106907005D01*
X190689758Y-107026053D01*
X190748427Y-107114911D01*
X190765857Y-107179960D01*
X190759478Y-107286248D01*
X190664239Y-107451205D01*
X190575381Y-107509874D01*
X190510332Y-107527304D01*
X190404044Y-107520924D01*
X185438095Y-92752380D02*
X185438095Y-91752380D01*
X185200000Y-91752380D01*
X185057142Y-91800000D01*
X184961904Y-91895238D01*
X184914285Y-91990476D01*
X184866666Y-92180952D01*
X184866666Y-92323809D01*
X184914285Y-92514285D01*
X184961904Y-92609523D01*
X185057142Y-92704761D01*
X185200000Y-92752380D01*
X185438095Y-92752380D01*
X184533333Y-91752380D02*
X183914285Y-91752380D01*
X184247619Y-92133333D01*
X184104761Y-92133333D01*
X184009523Y-92180952D01*
X183961904Y-92228571D01*
X183914285Y-92323809D01*
X183914285Y-92561904D01*
X183961904Y-92657142D01*
X184009523Y-92704761D01*
X184104761Y-92752380D01*
X184390476Y-92752380D01*
X184485714Y-92704761D01*
X184533333Y-92657142D01*
X194460821Y-107986981D02*
X193594795Y-107486981D01*
X193475747Y-107693177D01*
X193445558Y-107840705D01*
X193480418Y-107970802D01*
X193539087Y-108059661D01*
X193680235Y-108196138D01*
X193803952Y-108267567D01*
X193992719Y-108321565D01*
X194099007Y-108327945D01*
X194229105Y-108293086D01*
X194341773Y-108193177D01*
X194460821Y-107986981D01*
X192856700Y-108765399D02*
X193094795Y-108353006D01*
X193530998Y-108549862D01*
X193465949Y-108567292D01*
X193377091Y-108625961D01*
X193258043Y-108832157D01*
X193251663Y-108938446D01*
X193269093Y-109003494D01*
X193327762Y-109092353D01*
X193533959Y-109211400D01*
X193640247Y-109217780D01*
X193705295Y-109200350D01*
X193794154Y-109141681D01*
X193913201Y-108935485D01*
X193919581Y-108829197D01*
X193902151Y-108764148D01*
X175177274Y-108965399D02*
X176043299Y-108465399D01*
X175924252Y-108259203D01*
X175811584Y-108159294D01*
X175681486Y-108124435D01*
X175575198Y-108130814D01*
X175386431Y-108184813D01*
X175262713Y-108256242D01*
X175121565Y-108392719D01*
X175062896Y-108481578D01*
X175028037Y-108611675D01*
X175058226Y-108759203D01*
X175177274Y-108965399D01*
X175040338Y-107394887D02*
X174462988Y-107728220D01*
X175489300Y-107410607D02*
X174989758Y-107973946D01*
X174680235Y-107437835D01*
X191712133Y-99135302D02*
X191694704Y-99200350D01*
X191724893Y-99347878D01*
X191772512Y-99430356D01*
X191885180Y-99530265D01*
X192015277Y-99565124D01*
X192121565Y-99558745D01*
X192310332Y-99504746D01*
X192434050Y-99433317D01*
X192575198Y-99296840D01*
X192633867Y-99207982D01*
X192668726Y-99077884D01*
X192638537Y-98930356D01*
X192590918Y-98847878D01*
X192478250Y-98747969D01*
X192413201Y-98730540D01*
X191153464Y-98358134D02*
X191439178Y-98853006D01*
X191296321Y-98605570D02*
X192162347Y-98105570D01*
X192086248Y-98259478D01*
X192051388Y-98389575D01*
X192057768Y-98495863D01*
X191709966Y-97322024D02*
X191662347Y-97239545D01*
X191573488Y-97180876D01*
X191508440Y-97163446D01*
X191402151Y-97169826D01*
X191213385Y-97223825D01*
X191007188Y-97342872D01*
X190866040Y-97479350D01*
X190807371Y-97568208D01*
X190789942Y-97633257D01*
X190796321Y-97739545D01*
X190843940Y-97822024D01*
X190932799Y-97880693D01*
X190997848Y-97898122D01*
X191104136Y-97891743D01*
X191292902Y-97837744D01*
X191499099Y-97718696D01*
X191640247Y-97582219D01*
X191698916Y-97493360D01*
X191716346Y-97428312D01*
X191709966Y-97322024D01*
X185142857Y-111157142D02*
X185190476Y-111204761D01*
X185333333Y-111252380D01*
X185428571Y-111252380D01*
X185571428Y-111204761D01*
X185666666Y-111109523D01*
X185714285Y-111014285D01*
X185761904Y-110823809D01*
X185761904Y-110680952D01*
X185714285Y-110490476D01*
X185666666Y-110395238D01*
X185571428Y-110300000D01*
X185428571Y-110252380D01*
X185333333Y-110252380D01*
X185190476Y-110300000D01*
X185142857Y-110347619D01*
X184190476Y-111252380D02*
X184761904Y-111252380D01*
X184476190Y-111252380D02*
X184476190Y-110252380D01*
X184571428Y-110395238D01*
X184666666Y-110490476D01*
X184761904Y-110538095D01*
X183238095Y-111252380D02*
X183809523Y-111252380D01*
X183523809Y-111252380D02*
X183523809Y-110252380D01*
X183619047Y-110395238D01*
X183714285Y-110490476D01*
X183809523Y-110538095D01*
X178330723Y-99121840D02*
X178395772Y-99104411D01*
X178508440Y-99004502D01*
X178556059Y-98922024D01*
X178586248Y-98774496D01*
X178551388Y-98644398D01*
X178492719Y-98555540D01*
X178351572Y-98419063D01*
X178227854Y-98347634D01*
X178039087Y-98293635D01*
X177932799Y-98287256D01*
X177802701Y-98322115D01*
X177690033Y-98422024D01*
X177642414Y-98504502D01*
X177612225Y-98652030D01*
X177629655Y-98717078D01*
X177937011Y-99994245D02*
X178222725Y-99499374D01*
X178079868Y-99746810D02*
X177213843Y-99246810D01*
X177385180Y-99235760D01*
X177515277Y-99200900D01*
X177604136Y-99142231D01*
X176962988Y-99871779D02*
X176897939Y-99889209D01*
X176809081Y-99947878D01*
X176690033Y-100154074D01*
X176683653Y-100260362D01*
X176701083Y-100325411D01*
X176759752Y-100414270D01*
X176842231Y-100461889D01*
X176989758Y-100492078D01*
X177770344Y-100282921D01*
X177460821Y-100819032D01*
X176160821Y-97486981D02*
X175294795Y-96986981D01*
X175175747Y-97193177D01*
X175145558Y-97340705D01*
X175180418Y-97470802D01*
X175239087Y-97559661D01*
X175380235Y-97696138D01*
X175503952Y-97767567D01*
X175692719Y-97821565D01*
X175799007Y-97827945D01*
X175929105Y-97793086D01*
X176041773Y-97693177D01*
X176160821Y-97486981D01*
X174580509Y-98224160D02*
X174675747Y-98059203D01*
X174764606Y-98000534D01*
X174829655Y-97983104D01*
X175000992Y-97972054D01*
X175189758Y-98026053D01*
X175519673Y-98216529D01*
X175578342Y-98305387D01*
X175595772Y-98370436D01*
X175589392Y-98476724D01*
X175494154Y-98641681D01*
X175405295Y-98700350D01*
X175340247Y-98717780D01*
X175233959Y-98711400D01*
X175027762Y-98592353D01*
X174969093Y-98503494D01*
X174951663Y-98438446D01*
X174958043Y-98332157D01*
X175053281Y-98167200D01*
X175142139Y-98108531D01*
X175207188Y-98091101D01*
X175313476Y-98097481D01*
X194077274Y-97765399D02*
X194943299Y-97265399D01*
X194824252Y-97059203D01*
X194711584Y-96959294D01*
X194581486Y-96924435D01*
X194475198Y-96930814D01*
X194286431Y-96984813D01*
X194162713Y-97056242D01*
X194021565Y-97192719D01*
X193962896Y-97281578D01*
X193928037Y-97411675D01*
X193958226Y-97559203D01*
X194077274Y-97765399D01*
X194490918Y-96481852D02*
X194157585Y-95904502D01*
X193505845Y-96775656D01*
X185238095Y-114052380D02*
X185238095Y-113052380D01*
X185000000Y-113052380D01*
X184857142Y-113100000D01*
X184761904Y-113195238D01*
X184714285Y-113290476D01*
X184666666Y-113480952D01*
X184666666Y-113623809D01*
X184714285Y-113814285D01*
X184761904Y-113909523D01*
X184857142Y-114004761D01*
X185000000Y-114052380D01*
X185238095Y-114052380D01*
X184095238Y-113480952D02*
X184190476Y-113433333D01*
X184238095Y-113385714D01*
X184285714Y-113290476D01*
X184285714Y-113242857D01*
X184238095Y-113147619D01*
X184190476Y-113100000D01*
X184095238Y-113052380D01*
X183904761Y-113052380D01*
X183809523Y-113100000D01*
X183761904Y-113147619D01*
X183714285Y-113242857D01*
X183714285Y-113290476D01*
X183761904Y-113385714D01*
X183809523Y-113433333D01*
X183904761Y-113480952D01*
X184095238Y-113480952D01*
X184190476Y-113528571D01*
X184238095Y-113576190D01*
X184285714Y-113671428D01*
X184285714Y-113861904D01*
X184238095Y-113957142D01*
X184190476Y-114004761D01*
X184095238Y-114052380D01*
X183904761Y-114052380D01*
X183809523Y-114004761D01*
X183761904Y-113957142D01*
X183714285Y-113861904D01*
X183714285Y-113671428D01*
X183761904Y-113576190D01*
X183809523Y-113528571D01*
X183904761Y-113480952D01*
M02*
