G04 #@! TF.GenerationSoftware,KiCad,Pcbnew,(5.1.4-0-10_14)*
G04 #@! TF.CreationDate,2019-10-28T14:00:27+08:00*
G04 #@! TF.ProjectId,z2m_partner,7a326d5f-7061-4727-946e-65722e6b6963,rev?*
G04 #@! TF.SameCoordinates,Original*
G04 #@! TF.FileFunction,Paste,Top*
G04 #@! TF.FilePolarity,Positive*
%FSLAX46Y46*%
G04 Gerber Fmt 4.6, Leading zero omitted, Abs format (unit mm)*
G04 Created by KiCad (PCBNEW (5.1.4-0-10_14)) date 2019-10-28 14:00:27*
%MOMM*%
%LPD*%
G04 APERTURE LIST*
%ADD10O,2.000000X0.900000*%
%ADD11R,2.000000X0.900000*%
%ADD12R,4.299999X4.299999*%
%ADD13C,0.100000*%
%ADD14C,0.950000*%
%ADD15C,1.500000*%
%ADD16C,1.425000*%
%ADD17C,1.300000*%
%ADD18C,1.150000*%
%ADD19C,0.760000*%
%ADD20C,0.650000*%
%ADD21C,0.600000*%
%ADD22R,2.000000X0.700000*%
%ADD23R,0.700000X2.000000*%
%ADD24R,1.500000X0.400000*%
%ADD25R,3.800000X2.000000*%
%ADD26R,1.500000X2.000000*%
%ADD27R,2.450000X0.300000*%
%ADD28R,2.450000X0.600000*%
%ADD29C,0.400000*%
G04 APERTURE END LIST*
D10*
X176564000Y-106745000D03*
X194564000Y-106745000D03*
D11*
X194564000Y-118745000D03*
D10*
X194564000Y-117245000D03*
X194564000Y-115745000D03*
X194564000Y-114245000D03*
X194564000Y-112745000D03*
X194564000Y-111245000D03*
X194564000Y-109745000D03*
X194564000Y-108245000D03*
X176564000Y-108245000D03*
X176564000Y-109745000D03*
X176564000Y-111245000D03*
X176564000Y-112745000D03*
X176564000Y-114245000D03*
X176564000Y-115745000D03*
X176564000Y-117245000D03*
X176564000Y-118745000D03*
D12*
X184444000Y-112165000D03*
D13*
G36*
X173030779Y-112175144D02*
G01*
X173053834Y-112178563D01*
X173076443Y-112184227D01*
X173098387Y-112192079D01*
X173119457Y-112202044D01*
X173139448Y-112214026D01*
X173158168Y-112227910D01*
X173175438Y-112243562D01*
X173191090Y-112260832D01*
X173204974Y-112279552D01*
X173216956Y-112299543D01*
X173226921Y-112320613D01*
X173234773Y-112342557D01*
X173240437Y-112365166D01*
X173243856Y-112388221D01*
X173245000Y-112411500D01*
X173245000Y-112886500D01*
X173243856Y-112909779D01*
X173240437Y-112932834D01*
X173234773Y-112955443D01*
X173226921Y-112977387D01*
X173216956Y-112998457D01*
X173204974Y-113018448D01*
X173191090Y-113037168D01*
X173175438Y-113054438D01*
X173158168Y-113070090D01*
X173139448Y-113083974D01*
X173119457Y-113095956D01*
X173098387Y-113105921D01*
X173076443Y-113113773D01*
X173053834Y-113119437D01*
X173030779Y-113122856D01*
X173007500Y-113124000D01*
X172432500Y-113124000D01*
X172409221Y-113122856D01*
X172386166Y-113119437D01*
X172363557Y-113113773D01*
X172341613Y-113105921D01*
X172320543Y-113095956D01*
X172300552Y-113083974D01*
X172281832Y-113070090D01*
X172264562Y-113054438D01*
X172248910Y-113037168D01*
X172235026Y-113018448D01*
X172223044Y-112998457D01*
X172213079Y-112977387D01*
X172205227Y-112955443D01*
X172199563Y-112932834D01*
X172196144Y-112909779D01*
X172195000Y-112886500D01*
X172195000Y-112411500D01*
X172196144Y-112388221D01*
X172199563Y-112365166D01*
X172205227Y-112342557D01*
X172213079Y-112320613D01*
X172223044Y-112299543D01*
X172235026Y-112279552D01*
X172248910Y-112260832D01*
X172264562Y-112243562D01*
X172281832Y-112227910D01*
X172300552Y-112214026D01*
X172320543Y-112202044D01*
X172341613Y-112192079D01*
X172363557Y-112184227D01*
X172386166Y-112178563D01*
X172409221Y-112175144D01*
X172432500Y-112174000D01*
X173007500Y-112174000D01*
X173030779Y-112175144D01*
X173030779Y-112175144D01*
G37*
D14*
X172720000Y-112649000D03*
D13*
G36*
X174780779Y-112175144D02*
G01*
X174803834Y-112178563D01*
X174826443Y-112184227D01*
X174848387Y-112192079D01*
X174869457Y-112202044D01*
X174889448Y-112214026D01*
X174908168Y-112227910D01*
X174925438Y-112243562D01*
X174941090Y-112260832D01*
X174954974Y-112279552D01*
X174966956Y-112299543D01*
X174976921Y-112320613D01*
X174984773Y-112342557D01*
X174990437Y-112365166D01*
X174993856Y-112388221D01*
X174995000Y-112411500D01*
X174995000Y-112886500D01*
X174993856Y-112909779D01*
X174990437Y-112932834D01*
X174984773Y-112955443D01*
X174976921Y-112977387D01*
X174966956Y-112998457D01*
X174954974Y-113018448D01*
X174941090Y-113037168D01*
X174925438Y-113054438D01*
X174908168Y-113070090D01*
X174889448Y-113083974D01*
X174869457Y-113095956D01*
X174848387Y-113105921D01*
X174826443Y-113113773D01*
X174803834Y-113119437D01*
X174780779Y-113122856D01*
X174757500Y-113124000D01*
X174182500Y-113124000D01*
X174159221Y-113122856D01*
X174136166Y-113119437D01*
X174113557Y-113113773D01*
X174091613Y-113105921D01*
X174070543Y-113095956D01*
X174050552Y-113083974D01*
X174031832Y-113070090D01*
X174014562Y-113054438D01*
X173998910Y-113037168D01*
X173985026Y-113018448D01*
X173973044Y-112998457D01*
X173963079Y-112977387D01*
X173955227Y-112955443D01*
X173949563Y-112932834D01*
X173946144Y-112909779D01*
X173945000Y-112886500D01*
X173945000Y-112411500D01*
X173946144Y-112388221D01*
X173949563Y-112365166D01*
X173955227Y-112342557D01*
X173963079Y-112320613D01*
X173973044Y-112299543D01*
X173985026Y-112279552D01*
X173998910Y-112260832D01*
X174014562Y-112243562D01*
X174031832Y-112227910D01*
X174050552Y-112214026D01*
X174070543Y-112202044D01*
X174091613Y-112192079D01*
X174113557Y-112184227D01*
X174136166Y-112178563D01*
X174159221Y-112175144D01*
X174182500Y-112174000D01*
X174757500Y-112174000D01*
X174780779Y-112175144D01*
X174780779Y-112175144D01*
G37*
D14*
X174470000Y-112649000D03*
D13*
G36*
X200920779Y-111744144D02*
G01*
X200943834Y-111747563D01*
X200966443Y-111753227D01*
X200988387Y-111761079D01*
X201009457Y-111771044D01*
X201029448Y-111783026D01*
X201048168Y-111796910D01*
X201065438Y-111812562D01*
X201081090Y-111829832D01*
X201094974Y-111848552D01*
X201106956Y-111868543D01*
X201116921Y-111889613D01*
X201124773Y-111911557D01*
X201130437Y-111934166D01*
X201133856Y-111957221D01*
X201135000Y-111980500D01*
X201135000Y-112555500D01*
X201133856Y-112578779D01*
X201130437Y-112601834D01*
X201124773Y-112624443D01*
X201116921Y-112646387D01*
X201106956Y-112667457D01*
X201094974Y-112687448D01*
X201081090Y-112706168D01*
X201065438Y-112723438D01*
X201048168Y-112739090D01*
X201029448Y-112752974D01*
X201009457Y-112764956D01*
X200988387Y-112774921D01*
X200966443Y-112782773D01*
X200943834Y-112788437D01*
X200920779Y-112791856D01*
X200897500Y-112793000D01*
X200422500Y-112793000D01*
X200399221Y-112791856D01*
X200376166Y-112788437D01*
X200353557Y-112782773D01*
X200331613Y-112774921D01*
X200310543Y-112764956D01*
X200290552Y-112752974D01*
X200271832Y-112739090D01*
X200254562Y-112723438D01*
X200238910Y-112706168D01*
X200225026Y-112687448D01*
X200213044Y-112667457D01*
X200203079Y-112646387D01*
X200195227Y-112624443D01*
X200189563Y-112601834D01*
X200186144Y-112578779D01*
X200185000Y-112555500D01*
X200185000Y-111980500D01*
X200186144Y-111957221D01*
X200189563Y-111934166D01*
X200195227Y-111911557D01*
X200203079Y-111889613D01*
X200213044Y-111868543D01*
X200225026Y-111848552D01*
X200238910Y-111829832D01*
X200254562Y-111812562D01*
X200271832Y-111796910D01*
X200290552Y-111783026D01*
X200310543Y-111771044D01*
X200331613Y-111761079D01*
X200353557Y-111753227D01*
X200376166Y-111747563D01*
X200399221Y-111744144D01*
X200422500Y-111743000D01*
X200897500Y-111743000D01*
X200920779Y-111744144D01*
X200920779Y-111744144D01*
G37*
D14*
X200660000Y-112268000D03*
D13*
G36*
X200920779Y-113494144D02*
G01*
X200943834Y-113497563D01*
X200966443Y-113503227D01*
X200988387Y-113511079D01*
X201009457Y-113521044D01*
X201029448Y-113533026D01*
X201048168Y-113546910D01*
X201065438Y-113562562D01*
X201081090Y-113579832D01*
X201094974Y-113598552D01*
X201106956Y-113618543D01*
X201116921Y-113639613D01*
X201124773Y-113661557D01*
X201130437Y-113684166D01*
X201133856Y-113707221D01*
X201135000Y-113730500D01*
X201135000Y-114305500D01*
X201133856Y-114328779D01*
X201130437Y-114351834D01*
X201124773Y-114374443D01*
X201116921Y-114396387D01*
X201106956Y-114417457D01*
X201094974Y-114437448D01*
X201081090Y-114456168D01*
X201065438Y-114473438D01*
X201048168Y-114489090D01*
X201029448Y-114502974D01*
X201009457Y-114514956D01*
X200988387Y-114524921D01*
X200966443Y-114532773D01*
X200943834Y-114538437D01*
X200920779Y-114541856D01*
X200897500Y-114543000D01*
X200422500Y-114543000D01*
X200399221Y-114541856D01*
X200376166Y-114538437D01*
X200353557Y-114532773D01*
X200331613Y-114524921D01*
X200310543Y-114514956D01*
X200290552Y-114502974D01*
X200271832Y-114489090D01*
X200254562Y-114473438D01*
X200238910Y-114456168D01*
X200225026Y-114437448D01*
X200213044Y-114417457D01*
X200203079Y-114396387D01*
X200195227Y-114374443D01*
X200189563Y-114351834D01*
X200186144Y-114328779D01*
X200185000Y-114305500D01*
X200185000Y-113730500D01*
X200186144Y-113707221D01*
X200189563Y-113684166D01*
X200195227Y-113661557D01*
X200203079Y-113639613D01*
X200213044Y-113618543D01*
X200225026Y-113598552D01*
X200238910Y-113579832D01*
X200254562Y-113562562D01*
X200271832Y-113546910D01*
X200290552Y-113533026D01*
X200310543Y-113521044D01*
X200331613Y-113511079D01*
X200353557Y-113503227D01*
X200376166Y-113497563D01*
X200399221Y-113494144D01*
X200422500Y-113493000D01*
X200897500Y-113493000D01*
X200920779Y-113494144D01*
X200920779Y-113494144D01*
G37*
D14*
X200660000Y-114018000D03*
D13*
G36*
X174558504Y-102196204D02*
G01*
X174582773Y-102199804D01*
X174606571Y-102205765D01*
X174629671Y-102214030D01*
X174651849Y-102224520D01*
X174672893Y-102237133D01*
X174692598Y-102251747D01*
X174710777Y-102268223D01*
X174727253Y-102286402D01*
X174741867Y-102306107D01*
X174754480Y-102327151D01*
X174764970Y-102349329D01*
X174773235Y-102372429D01*
X174779196Y-102396227D01*
X174782796Y-102420496D01*
X174784000Y-102445000D01*
X174784000Y-103445000D01*
X174782796Y-103469504D01*
X174779196Y-103493773D01*
X174773235Y-103517571D01*
X174764970Y-103540671D01*
X174754480Y-103562849D01*
X174741867Y-103583893D01*
X174727253Y-103603598D01*
X174710777Y-103621777D01*
X174692598Y-103638253D01*
X174672893Y-103652867D01*
X174651849Y-103665480D01*
X174629671Y-103675970D01*
X174606571Y-103684235D01*
X174582773Y-103690196D01*
X174558504Y-103693796D01*
X174534000Y-103695000D01*
X172684000Y-103695000D01*
X172659496Y-103693796D01*
X172635227Y-103690196D01*
X172611429Y-103684235D01*
X172588329Y-103675970D01*
X172566151Y-103665480D01*
X172545107Y-103652867D01*
X172525402Y-103638253D01*
X172507223Y-103621777D01*
X172490747Y-103603598D01*
X172476133Y-103583893D01*
X172463520Y-103562849D01*
X172453030Y-103540671D01*
X172444765Y-103517571D01*
X172438804Y-103493773D01*
X172435204Y-103469504D01*
X172434000Y-103445000D01*
X172434000Y-102445000D01*
X172435204Y-102420496D01*
X172438804Y-102396227D01*
X172444765Y-102372429D01*
X172453030Y-102349329D01*
X172463520Y-102327151D01*
X172476133Y-102306107D01*
X172490747Y-102286402D01*
X172507223Y-102268223D01*
X172525402Y-102251747D01*
X172545107Y-102237133D01*
X172566151Y-102224520D01*
X172588329Y-102214030D01*
X172611429Y-102205765D01*
X172635227Y-102199804D01*
X172659496Y-102196204D01*
X172684000Y-102195000D01*
X174534000Y-102195000D01*
X174558504Y-102196204D01*
X174558504Y-102196204D01*
G37*
D15*
X173609000Y-102945000D03*
D13*
G36*
X174558504Y-98946204D02*
G01*
X174582773Y-98949804D01*
X174606571Y-98955765D01*
X174629671Y-98964030D01*
X174651849Y-98974520D01*
X174672893Y-98987133D01*
X174692598Y-99001747D01*
X174710777Y-99018223D01*
X174727253Y-99036402D01*
X174741867Y-99056107D01*
X174754480Y-99077151D01*
X174764970Y-99099329D01*
X174773235Y-99122429D01*
X174779196Y-99146227D01*
X174782796Y-99170496D01*
X174784000Y-99195000D01*
X174784000Y-100195000D01*
X174782796Y-100219504D01*
X174779196Y-100243773D01*
X174773235Y-100267571D01*
X174764970Y-100290671D01*
X174754480Y-100312849D01*
X174741867Y-100333893D01*
X174727253Y-100353598D01*
X174710777Y-100371777D01*
X174692598Y-100388253D01*
X174672893Y-100402867D01*
X174651849Y-100415480D01*
X174629671Y-100425970D01*
X174606571Y-100434235D01*
X174582773Y-100440196D01*
X174558504Y-100443796D01*
X174534000Y-100445000D01*
X172684000Y-100445000D01*
X172659496Y-100443796D01*
X172635227Y-100440196D01*
X172611429Y-100434235D01*
X172588329Y-100425970D01*
X172566151Y-100415480D01*
X172545107Y-100402867D01*
X172525402Y-100388253D01*
X172507223Y-100371777D01*
X172490747Y-100353598D01*
X172476133Y-100333893D01*
X172463520Y-100312849D01*
X172453030Y-100290671D01*
X172444765Y-100267571D01*
X172438804Y-100243773D01*
X172435204Y-100219504D01*
X172434000Y-100195000D01*
X172434000Y-99195000D01*
X172435204Y-99170496D01*
X172438804Y-99146227D01*
X172444765Y-99122429D01*
X172453030Y-99099329D01*
X172463520Y-99077151D01*
X172476133Y-99056107D01*
X172490747Y-99036402D01*
X172507223Y-99018223D01*
X172525402Y-99001747D01*
X172545107Y-98987133D01*
X172566151Y-98974520D01*
X172588329Y-98964030D01*
X172611429Y-98955765D01*
X172635227Y-98949804D01*
X172659496Y-98946204D01*
X172684000Y-98945000D01*
X174534000Y-98945000D01*
X174558504Y-98946204D01*
X174558504Y-98946204D01*
G37*
D15*
X173609000Y-99695000D03*
D13*
G36*
X171129504Y-98946204D02*
G01*
X171153773Y-98949804D01*
X171177571Y-98955765D01*
X171200671Y-98964030D01*
X171222849Y-98974520D01*
X171243893Y-98987133D01*
X171263598Y-99001747D01*
X171281777Y-99018223D01*
X171298253Y-99036402D01*
X171312867Y-99056107D01*
X171325480Y-99077151D01*
X171335970Y-99099329D01*
X171344235Y-99122429D01*
X171350196Y-99146227D01*
X171353796Y-99170496D01*
X171355000Y-99195000D01*
X171355000Y-100195000D01*
X171353796Y-100219504D01*
X171350196Y-100243773D01*
X171344235Y-100267571D01*
X171335970Y-100290671D01*
X171325480Y-100312849D01*
X171312867Y-100333893D01*
X171298253Y-100353598D01*
X171281777Y-100371777D01*
X171263598Y-100388253D01*
X171243893Y-100402867D01*
X171222849Y-100415480D01*
X171200671Y-100425970D01*
X171177571Y-100434235D01*
X171153773Y-100440196D01*
X171129504Y-100443796D01*
X171105000Y-100445000D01*
X169255000Y-100445000D01*
X169230496Y-100443796D01*
X169206227Y-100440196D01*
X169182429Y-100434235D01*
X169159329Y-100425970D01*
X169137151Y-100415480D01*
X169116107Y-100402867D01*
X169096402Y-100388253D01*
X169078223Y-100371777D01*
X169061747Y-100353598D01*
X169047133Y-100333893D01*
X169034520Y-100312849D01*
X169024030Y-100290671D01*
X169015765Y-100267571D01*
X169009804Y-100243773D01*
X169006204Y-100219504D01*
X169005000Y-100195000D01*
X169005000Y-99195000D01*
X169006204Y-99170496D01*
X169009804Y-99146227D01*
X169015765Y-99122429D01*
X169024030Y-99099329D01*
X169034520Y-99077151D01*
X169047133Y-99056107D01*
X169061747Y-99036402D01*
X169078223Y-99018223D01*
X169096402Y-99001747D01*
X169116107Y-98987133D01*
X169137151Y-98974520D01*
X169159329Y-98964030D01*
X169182429Y-98955765D01*
X169206227Y-98949804D01*
X169230496Y-98946204D01*
X169255000Y-98945000D01*
X171105000Y-98945000D01*
X171129504Y-98946204D01*
X171129504Y-98946204D01*
G37*
D15*
X170180000Y-99695000D03*
D13*
G36*
X171129504Y-102196204D02*
G01*
X171153773Y-102199804D01*
X171177571Y-102205765D01*
X171200671Y-102214030D01*
X171222849Y-102224520D01*
X171243893Y-102237133D01*
X171263598Y-102251747D01*
X171281777Y-102268223D01*
X171298253Y-102286402D01*
X171312867Y-102306107D01*
X171325480Y-102327151D01*
X171335970Y-102349329D01*
X171344235Y-102372429D01*
X171350196Y-102396227D01*
X171353796Y-102420496D01*
X171355000Y-102445000D01*
X171355000Y-103445000D01*
X171353796Y-103469504D01*
X171350196Y-103493773D01*
X171344235Y-103517571D01*
X171335970Y-103540671D01*
X171325480Y-103562849D01*
X171312867Y-103583893D01*
X171298253Y-103603598D01*
X171281777Y-103621777D01*
X171263598Y-103638253D01*
X171243893Y-103652867D01*
X171222849Y-103665480D01*
X171200671Y-103675970D01*
X171177571Y-103684235D01*
X171153773Y-103690196D01*
X171129504Y-103693796D01*
X171105000Y-103695000D01*
X169255000Y-103695000D01*
X169230496Y-103693796D01*
X169206227Y-103690196D01*
X169182429Y-103684235D01*
X169159329Y-103675970D01*
X169137151Y-103665480D01*
X169116107Y-103652867D01*
X169096402Y-103638253D01*
X169078223Y-103621777D01*
X169061747Y-103603598D01*
X169047133Y-103583893D01*
X169034520Y-103562849D01*
X169024030Y-103540671D01*
X169015765Y-103517571D01*
X169009804Y-103493773D01*
X169006204Y-103469504D01*
X169005000Y-103445000D01*
X169005000Y-102445000D01*
X169006204Y-102420496D01*
X169009804Y-102396227D01*
X169015765Y-102372429D01*
X169024030Y-102349329D01*
X169034520Y-102327151D01*
X169047133Y-102306107D01*
X169061747Y-102286402D01*
X169078223Y-102268223D01*
X169096402Y-102251747D01*
X169116107Y-102237133D01*
X169137151Y-102224520D01*
X169159329Y-102214030D01*
X169182429Y-102205765D01*
X169206227Y-102199804D01*
X169230496Y-102196204D01*
X169255000Y-102195000D01*
X171105000Y-102195000D01*
X171129504Y-102196204D01*
X171129504Y-102196204D01*
G37*
D15*
X170180000Y-102945000D03*
D13*
G36*
X174173779Y-87918144D02*
G01*
X174196834Y-87921563D01*
X174219443Y-87927227D01*
X174241387Y-87935079D01*
X174262457Y-87945044D01*
X174282448Y-87957026D01*
X174301168Y-87970910D01*
X174318438Y-87986562D01*
X174334090Y-88003832D01*
X174347974Y-88022552D01*
X174359956Y-88042543D01*
X174369921Y-88063613D01*
X174377773Y-88085557D01*
X174383437Y-88108166D01*
X174386856Y-88131221D01*
X174388000Y-88154500D01*
X174388000Y-88629500D01*
X174386856Y-88652779D01*
X174383437Y-88675834D01*
X174377773Y-88698443D01*
X174369921Y-88720387D01*
X174359956Y-88741457D01*
X174347974Y-88761448D01*
X174334090Y-88780168D01*
X174318438Y-88797438D01*
X174301168Y-88813090D01*
X174282448Y-88826974D01*
X174262457Y-88838956D01*
X174241387Y-88848921D01*
X174219443Y-88856773D01*
X174196834Y-88862437D01*
X174173779Y-88865856D01*
X174150500Y-88867000D01*
X173575500Y-88867000D01*
X173552221Y-88865856D01*
X173529166Y-88862437D01*
X173506557Y-88856773D01*
X173484613Y-88848921D01*
X173463543Y-88838956D01*
X173443552Y-88826974D01*
X173424832Y-88813090D01*
X173407562Y-88797438D01*
X173391910Y-88780168D01*
X173378026Y-88761448D01*
X173366044Y-88741457D01*
X173356079Y-88720387D01*
X173348227Y-88698443D01*
X173342563Y-88675834D01*
X173339144Y-88652779D01*
X173338000Y-88629500D01*
X173338000Y-88154500D01*
X173339144Y-88131221D01*
X173342563Y-88108166D01*
X173348227Y-88085557D01*
X173356079Y-88063613D01*
X173366044Y-88042543D01*
X173378026Y-88022552D01*
X173391910Y-88003832D01*
X173407562Y-87986562D01*
X173424832Y-87970910D01*
X173443552Y-87957026D01*
X173463543Y-87945044D01*
X173484613Y-87935079D01*
X173506557Y-87927227D01*
X173529166Y-87921563D01*
X173552221Y-87918144D01*
X173575500Y-87917000D01*
X174150500Y-87917000D01*
X174173779Y-87918144D01*
X174173779Y-87918144D01*
G37*
D14*
X173863000Y-88392000D03*
D13*
G36*
X172423779Y-87918144D02*
G01*
X172446834Y-87921563D01*
X172469443Y-87927227D01*
X172491387Y-87935079D01*
X172512457Y-87945044D01*
X172532448Y-87957026D01*
X172551168Y-87970910D01*
X172568438Y-87986562D01*
X172584090Y-88003832D01*
X172597974Y-88022552D01*
X172609956Y-88042543D01*
X172619921Y-88063613D01*
X172627773Y-88085557D01*
X172633437Y-88108166D01*
X172636856Y-88131221D01*
X172638000Y-88154500D01*
X172638000Y-88629500D01*
X172636856Y-88652779D01*
X172633437Y-88675834D01*
X172627773Y-88698443D01*
X172619921Y-88720387D01*
X172609956Y-88741457D01*
X172597974Y-88761448D01*
X172584090Y-88780168D01*
X172568438Y-88797438D01*
X172551168Y-88813090D01*
X172532448Y-88826974D01*
X172512457Y-88838956D01*
X172491387Y-88848921D01*
X172469443Y-88856773D01*
X172446834Y-88862437D01*
X172423779Y-88865856D01*
X172400500Y-88867000D01*
X171825500Y-88867000D01*
X171802221Y-88865856D01*
X171779166Y-88862437D01*
X171756557Y-88856773D01*
X171734613Y-88848921D01*
X171713543Y-88838956D01*
X171693552Y-88826974D01*
X171674832Y-88813090D01*
X171657562Y-88797438D01*
X171641910Y-88780168D01*
X171628026Y-88761448D01*
X171616044Y-88741457D01*
X171606079Y-88720387D01*
X171598227Y-88698443D01*
X171592563Y-88675834D01*
X171589144Y-88652779D01*
X171588000Y-88629500D01*
X171588000Y-88154500D01*
X171589144Y-88131221D01*
X171592563Y-88108166D01*
X171598227Y-88085557D01*
X171606079Y-88063613D01*
X171616044Y-88042543D01*
X171628026Y-88022552D01*
X171641910Y-88003832D01*
X171657562Y-87986562D01*
X171674832Y-87970910D01*
X171693552Y-87957026D01*
X171713543Y-87945044D01*
X171734613Y-87935079D01*
X171756557Y-87927227D01*
X171779166Y-87921563D01*
X171802221Y-87918144D01*
X171825500Y-87917000D01*
X172400500Y-87917000D01*
X172423779Y-87918144D01*
X172423779Y-87918144D01*
G37*
D14*
X172113000Y-88392000D03*
D13*
G36*
X163717504Y-92760704D02*
G01*
X163741773Y-92764304D01*
X163765571Y-92770265D01*
X163788671Y-92778530D01*
X163810849Y-92789020D01*
X163831893Y-92801633D01*
X163851598Y-92816247D01*
X163869777Y-92832723D01*
X163886253Y-92850902D01*
X163900867Y-92870607D01*
X163913480Y-92891651D01*
X163923970Y-92913829D01*
X163932235Y-92936929D01*
X163938196Y-92960727D01*
X163941796Y-92984996D01*
X163943000Y-93009500D01*
X163943000Y-93934500D01*
X163941796Y-93959004D01*
X163938196Y-93983273D01*
X163932235Y-94007071D01*
X163923970Y-94030171D01*
X163913480Y-94052349D01*
X163900867Y-94073393D01*
X163886253Y-94093098D01*
X163869777Y-94111277D01*
X163851598Y-94127753D01*
X163831893Y-94142367D01*
X163810849Y-94154980D01*
X163788671Y-94165470D01*
X163765571Y-94173735D01*
X163741773Y-94179696D01*
X163717504Y-94183296D01*
X163693000Y-94184500D01*
X162443000Y-94184500D01*
X162418496Y-94183296D01*
X162394227Y-94179696D01*
X162370429Y-94173735D01*
X162347329Y-94165470D01*
X162325151Y-94154980D01*
X162304107Y-94142367D01*
X162284402Y-94127753D01*
X162266223Y-94111277D01*
X162249747Y-94093098D01*
X162235133Y-94073393D01*
X162222520Y-94052349D01*
X162212030Y-94030171D01*
X162203765Y-94007071D01*
X162197804Y-93983273D01*
X162194204Y-93959004D01*
X162193000Y-93934500D01*
X162193000Y-93009500D01*
X162194204Y-92984996D01*
X162197804Y-92960727D01*
X162203765Y-92936929D01*
X162212030Y-92913829D01*
X162222520Y-92891651D01*
X162235133Y-92870607D01*
X162249747Y-92850902D01*
X162266223Y-92832723D01*
X162284402Y-92816247D01*
X162304107Y-92801633D01*
X162325151Y-92789020D01*
X162347329Y-92778530D01*
X162370429Y-92770265D01*
X162394227Y-92764304D01*
X162418496Y-92760704D01*
X162443000Y-92759500D01*
X163693000Y-92759500D01*
X163717504Y-92760704D01*
X163717504Y-92760704D01*
G37*
D16*
X163068000Y-93472000D03*
D13*
G36*
X163717504Y-95735704D02*
G01*
X163741773Y-95739304D01*
X163765571Y-95745265D01*
X163788671Y-95753530D01*
X163810849Y-95764020D01*
X163831893Y-95776633D01*
X163851598Y-95791247D01*
X163869777Y-95807723D01*
X163886253Y-95825902D01*
X163900867Y-95845607D01*
X163913480Y-95866651D01*
X163923970Y-95888829D01*
X163932235Y-95911929D01*
X163938196Y-95935727D01*
X163941796Y-95959996D01*
X163943000Y-95984500D01*
X163943000Y-96909500D01*
X163941796Y-96934004D01*
X163938196Y-96958273D01*
X163932235Y-96982071D01*
X163923970Y-97005171D01*
X163913480Y-97027349D01*
X163900867Y-97048393D01*
X163886253Y-97068098D01*
X163869777Y-97086277D01*
X163851598Y-97102753D01*
X163831893Y-97117367D01*
X163810849Y-97129980D01*
X163788671Y-97140470D01*
X163765571Y-97148735D01*
X163741773Y-97154696D01*
X163717504Y-97158296D01*
X163693000Y-97159500D01*
X162443000Y-97159500D01*
X162418496Y-97158296D01*
X162394227Y-97154696D01*
X162370429Y-97148735D01*
X162347329Y-97140470D01*
X162325151Y-97129980D01*
X162304107Y-97117367D01*
X162284402Y-97102753D01*
X162266223Y-97086277D01*
X162249747Y-97068098D01*
X162235133Y-97048393D01*
X162222520Y-97027349D01*
X162212030Y-97005171D01*
X162203765Y-96982071D01*
X162197804Y-96958273D01*
X162194204Y-96934004D01*
X162193000Y-96909500D01*
X162193000Y-95984500D01*
X162194204Y-95959996D01*
X162197804Y-95935727D01*
X162203765Y-95911929D01*
X162212030Y-95888829D01*
X162222520Y-95866651D01*
X162235133Y-95845607D01*
X162249747Y-95825902D01*
X162266223Y-95807723D01*
X162284402Y-95791247D01*
X162304107Y-95776633D01*
X162325151Y-95764020D01*
X162347329Y-95753530D01*
X162370429Y-95745265D01*
X162394227Y-95739304D01*
X162418496Y-95735704D01*
X162443000Y-95734500D01*
X163693000Y-95734500D01*
X163717504Y-95735704D01*
X163717504Y-95735704D01*
G37*
D16*
X163068000Y-96447000D03*
D13*
G36*
X174353504Y-104346204D02*
G01*
X174377773Y-104349804D01*
X174401571Y-104355765D01*
X174424671Y-104364030D01*
X174446849Y-104374520D01*
X174467893Y-104387133D01*
X174487598Y-104401747D01*
X174505777Y-104418223D01*
X174522253Y-104436402D01*
X174536867Y-104456107D01*
X174549480Y-104477151D01*
X174559970Y-104499329D01*
X174568235Y-104522429D01*
X174574196Y-104546227D01*
X174577796Y-104570496D01*
X174579000Y-104595000D01*
X174579000Y-107495000D01*
X174577796Y-107519504D01*
X174574196Y-107543773D01*
X174568235Y-107567571D01*
X174559970Y-107590671D01*
X174549480Y-107612849D01*
X174536867Y-107633893D01*
X174522253Y-107653598D01*
X174505777Y-107671777D01*
X174487598Y-107688253D01*
X174467893Y-107702867D01*
X174446849Y-107715480D01*
X174424671Y-107725970D01*
X174401571Y-107734235D01*
X174377773Y-107740196D01*
X174353504Y-107743796D01*
X174329000Y-107745000D01*
X173529000Y-107745000D01*
X173504496Y-107743796D01*
X173480227Y-107740196D01*
X173456429Y-107734235D01*
X173433329Y-107725970D01*
X173411151Y-107715480D01*
X173390107Y-107702867D01*
X173370402Y-107688253D01*
X173352223Y-107671777D01*
X173335747Y-107653598D01*
X173321133Y-107633893D01*
X173308520Y-107612849D01*
X173298030Y-107590671D01*
X173289765Y-107567571D01*
X173283804Y-107543773D01*
X173280204Y-107519504D01*
X173279000Y-107495000D01*
X173279000Y-104595000D01*
X173280204Y-104570496D01*
X173283804Y-104546227D01*
X173289765Y-104522429D01*
X173298030Y-104499329D01*
X173308520Y-104477151D01*
X173321133Y-104456107D01*
X173335747Y-104436402D01*
X173352223Y-104418223D01*
X173370402Y-104401747D01*
X173390107Y-104387133D01*
X173411151Y-104374520D01*
X173433329Y-104364030D01*
X173456429Y-104355765D01*
X173480227Y-104349804D01*
X173504496Y-104346204D01*
X173529000Y-104345000D01*
X174329000Y-104345000D01*
X174353504Y-104346204D01*
X174353504Y-104346204D01*
G37*
D17*
X173929000Y-106045000D03*
D13*
G36*
X169903504Y-104346204D02*
G01*
X169927773Y-104349804D01*
X169951571Y-104355765D01*
X169974671Y-104364030D01*
X169996849Y-104374520D01*
X170017893Y-104387133D01*
X170037598Y-104401747D01*
X170055777Y-104418223D01*
X170072253Y-104436402D01*
X170086867Y-104456107D01*
X170099480Y-104477151D01*
X170109970Y-104499329D01*
X170118235Y-104522429D01*
X170124196Y-104546227D01*
X170127796Y-104570496D01*
X170129000Y-104595000D01*
X170129000Y-107495000D01*
X170127796Y-107519504D01*
X170124196Y-107543773D01*
X170118235Y-107567571D01*
X170109970Y-107590671D01*
X170099480Y-107612849D01*
X170086867Y-107633893D01*
X170072253Y-107653598D01*
X170055777Y-107671777D01*
X170037598Y-107688253D01*
X170017893Y-107702867D01*
X169996849Y-107715480D01*
X169974671Y-107725970D01*
X169951571Y-107734235D01*
X169927773Y-107740196D01*
X169903504Y-107743796D01*
X169879000Y-107745000D01*
X169079000Y-107745000D01*
X169054496Y-107743796D01*
X169030227Y-107740196D01*
X169006429Y-107734235D01*
X168983329Y-107725970D01*
X168961151Y-107715480D01*
X168940107Y-107702867D01*
X168920402Y-107688253D01*
X168902223Y-107671777D01*
X168885747Y-107653598D01*
X168871133Y-107633893D01*
X168858520Y-107612849D01*
X168848030Y-107590671D01*
X168839765Y-107567571D01*
X168833804Y-107543773D01*
X168830204Y-107519504D01*
X168829000Y-107495000D01*
X168829000Y-104595000D01*
X168830204Y-104570496D01*
X168833804Y-104546227D01*
X168839765Y-104522429D01*
X168848030Y-104499329D01*
X168858520Y-104477151D01*
X168871133Y-104456107D01*
X168885747Y-104436402D01*
X168902223Y-104418223D01*
X168920402Y-104401747D01*
X168940107Y-104387133D01*
X168961151Y-104374520D01*
X168983329Y-104364030D01*
X169006429Y-104355765D01*
X169030227Y-104349804D01*
X169054496Y-104346204D01*
X169079000Y-104345000D01*
X169879000Y-104345000D01*
X169903504Y-104346204D01*
X169903504Y-104346204D01*
G37*
D17*
X169479000Y-106045000D03*
D13*
G36*
X196906779Y-95919144D02*
G01*
X196929834Y-95922563D01*
X196952443Y-95928227D01*
X196974387Y-95936079D01*
X196995457Y-95946044D01*
X197015448Y-95958026D01*
X197034168Y-95971910D01*
X197051438Y-95987562D01*
X197067090Y-96004832D01*
X197080974Y-96023552D01*
X197092956Y-96043543D01*
X197102921Y-96064613D01*
X197110773Y-96086557D01*
X197116437Y-96109166D01*
X197119856Y-96132221D01*
X197121000Y-96155500D01*
X197121000Y-96630500D01*
X197119856Y-96653779D01*
X197116437Y-96676834D01*
X197110773Y-96699443D01*
X197102921Y-96721387D01*
X197092956Y-96742457D01*
X197080974Y-96762448D01*
X197067090Y-96781168D01*
X197051438Y-96798438D01*
X197034168Y-96814090D01*
X197015448Y-96827974D01*
X196995457Y-96839956D01*
X196974387Y-96849921D01*
X196952443Y-96857773D01*
X196929834Y-96863437D01*
X196906779Y-96866856D01*
X196883500Y-96868000D01*
X196308500Y-96868000D01*
X196285221Y-96866856D01*
X196262166Y-96863437D01*
X196239557Y-96857773D01*
X196217613Y-96849921D01*
X196196543Y-96839956D01*
X196176552Y-96827974D01*
X196157832Y-96814090D01*
X196140562Y-96798438D01*
X196124910Y-96781168D01*
X196111026Y-96762448D01*
X196099044Y-96742457D01*
X196089079Y-96721387D01*
X196081227Y-96699443D01*
X196075563Y-96676834D01*
X196072144Y-96653779D01*
X196071000Y-96630500D01*
X196071000Y-96155500D01*
X196072144Y-96132221D01*
X196075563Y-96109166D01*
X196081227Y-96086557D01*
X196089079Y-96064613D01*
X196099044Y-96043543D01*
X196111026Y-96023552D01*
X196124910Y-96004832D01*
X196140562Y-95987562D01*
X196157832Y-95971910D01*
X196176552Y-95958026D01*
X196196543Y-95946044D01*
X196217613Y-95936079D01*
X196239557Y-95928227D01*
X196262166Y-95922563D01*
X196285221Y-95919144D01*
X196308500Y-95918000D01*
X196883500Y-95918000D01*
X196906779Y-95919144D01*
X196906779Y-95919144D01*
G37*
D14*
X196596000Y-96393000D03*
D13*
G36*
X198656779Y-95919144D02*
G01*
X198679834Y-95922563D01*
X198702443Y-95928227D01*
X198724387Y-95936079D01*
X198745457Y-95946044D01*
X198765448Y-95958026D01*
X198784168Y-95971910D01*
X198801438Y-95987562D01*
X198817090Y-96004832D01*
X198830974Y-96023552D01*
X198842956Y-96043543D01*
X198852921Y-96064613D01*
X198860773Y-96086557D01*
X198866437Y-96109166D01*
X198869856Y-96132221D01*
X198871000Y-96155500D01*
X198871000Y-96630500D01*
X198869856Y-96653779D01*
X198866437Y-96676834D01*
X198860773Y-96699443D01*
X198852921Y-96721387D01*
X198842956Y-96742457D01*
X198830974Y-96762448D01*
X198817090Y-96781168D01*
X198801438Y-96798438D01*
X198784168Y-96814090D01*
X198765448Y-96827974D01*
X198745457Y-96839956D01*
X198724387Y-96849921D01*
X198702443Y-96857773D01*
X198679834Y-96863437D01*
X198656779Y-96866856D01*
X198633500Y-96868000D01*
X198058500Y-96868000D01*
X198035221Y-96866856D01*
X198012166Y-96863437D01*
X197989557Y-96857773D01*
X197967613Y-96849921D01*
X197946543Y-96839956D01*
X197926552Y-96827974D01*
X197907832Y-96814090D01*
X197890562Y-96798438D01*
X197874910Y-96781168D01*
X197861026Y-96762448D01*
X197849044Y-96742457D01*
X197839079Y-96721387D01*
X197831227Y-96699443D01*
X197825563Y-96676834D01*
X197822144Y-96653779D01*
X197821000Y-96630500D01*
X197821000Y-96155500D01*
X197822144Y-96132221D01*
X197825563Y-96109166D01*
X197831227Y-96086557D01*
X197839079Y-96064613D01*
X197849044Y-96043543D01*
X197861026Y-96023552D01*
X197874910Y-96004832D01*
X197890562Y-95987562D01*
X197907832Y-95971910D01*
X197926552Y-95958026D01*
X197946543Y-95946044D01*
X197967613Y-95936079D01*
X197989557Y-95928227D01*
X198012166Y-95922563D01*
X198035221Y-95919144D01*
X198058500Y-95918000D01*
X198633500Y-95918000D01*
X198656779Y-95919144D01*
X198656779Y-95919144D01*
G37*
D14*
X198346000Y-96393000D03*
D13*
G36*
X198682179Y-97443144D02*
G01*
X198705234Y-97446563D01*
X198727843Y-97452227D01*
X198749787Y-97460079D01*
X198770857Y-97470044D01*
X198790848Y-97482026D01*
X198809568Y-97495910D01*
X198826838Y-97511562D01*
X198842490Y-97528832D01*
X198856374Y-97547552D01*
X198868356Y-97567543D01*
X198878321Y-97588613D01*
X198886173Y-97610557D01*
X198891837Y-97633166D01*
X198895256Y-97656221D01*
X198896400Y-97679500D01*
X198896400Y-98154500D01*
X198895256Y-98177779D01*
X198891837Y-98200834D01*
X198886173Y-98223443D01*
X198878321Y-98245387D01*
X198868356Y-98266457D01*
X198856374Y-98286448D01*
X198842490Y-98305168D01*
X198826838Y-98322438D01*
X198809568Y-98338090D01*
X198790848Y-98351974D01*
X198770857Y-98363956D01*
X198749787Y-98373921D01*
X198727843Y-98381773D01*
X198705234Y-98387437D01*
X198682179Y-98390856D01*
X198658900Y-98392000D01*
X198083900Y-98392000D01*
X198060621Y-98390856D01*
X198037566Y-98387437D01*
X198014957Y-98381773D01*
X197993013Y-98373921D01*
X197971943Y-98363956D01*
X197951952Y-98351974D01*
X197933232Y-98338090D01*
X197915962Y-98322438D01*
X197900310Y-98305168D01*
X197886426Y-98286448D01*
X197874444Y-98266457D01*
X197864479Y-98245387D01*
X197856627Y-98223443D01*
X197850963Y-98200834D01*
X197847544Y-98177779D01*
X197846400Y-98154500D01*
X197846400Y-97679500D01*
X197847544Y-97656221D01*
X197850963Y-97633166D01*
X197856627Y-97610557D01*
X197864479Y-97588613D01*
X197874444Y-97567543D01*
X197886426Y-97547552D01*
X197900310Y-97528832D01*
X197915962Y-97511562D01*
X197933232Y-97495910D01*
X197951952Y-97482026D01*
X197971943Y-97470044D01*
X197993013Y-97460079D01*
X198014957Y-97452227D01*
X198037566Y-97446563D01*
X198060621Y-97443144D01*
X198083900Y-97442000D01*
X198658900Y-97442000D01*
X198682179Y-97443144D01*
X198682179Y-97443144D01*
G37*
D14*
X198371400Y-97917000D03*
D13*
G36*
X196932179Y-97443144D02*
G01*
X196955234Y-97446563D01*
X196977843Y-97452227D01*
X196999787Y-97460079D01*
X197020857Y-97470044D01*
X197040848Y-97482026D01*
X197059568Y-97495910D01*
X197076838Y-97511562D01*
X197092490Y-97528832D01*
X197106374Y-97547552D01*
X197118356Y-97567543D01*
X197128321Y-97588613D01*
X197136173Y-97610557D01*
X197141837Y-97633166D01*
X197145256Y-97656221D01*
X197146400Y-97679500D01*
X197146400Y-98154500D01*
X197145256Y-98177779D01*
X197141837Y-98200834D01*
X197136173Y-98223443D01*
X197128321Y-98245387D01*
X197118356Y-98266457D01*
X197106374Y-98286448D01*
X197092490Y-98305168D01*
X197076838Y-98322438D01*
X197059568Y-98338090D01*
X197040848Y-98351974D01*
X197020857Y-98363956D01*
X196999787Y-98373921D01*
X196977843Y-98381773D01*
X196955234Y-98387437D01*
X196932179Y-98390856D01*
X196908900Y-98392000D01*
X196333900Y-98392000D01*
X196310621Y-98390856D01*
X196287566Y-98387437D01*
X196264957Y-98381773D01*
X196243013Y-98373921D01*
X196221943Y-98363956D01*
X196201952Y-98351974D01*
X196183232Y-98338090D01*
X196165962Y-98322438D01*
X196150310Y-98305168D01*
X196136426Y-98286448D01*
X196124444Y-98266457D01*
X196114479Y-98245387D01*
X196106627Y-98223443D01*
X196100963Y-98200834D01*
X196097544Y-98177779D01*
X196096400Y-98154500D01*
X196096400Y-97679500D01*
X196097544Y-97656221D01*
X196100963Y-97633166D01*
X196106627Y-97610557D01*
X196114479Y-97588613D01*
X196124444Y-97567543D01*
X196136426Y-97547552D01*
X196150310Y-97528832D01*
X196165962Y-97511562D01*
X196183232Y-97495910D01*
X196201952Y-97482026D01*
X196221943Y-97470044D01*
X196243013Y-97460079D01*
X196264957Y-97452227D01*
X196287566Y-97446563D01*
X196310621Y-97443144D01*
X196333900Y-97442000D01*
X196908900Y-97442000D01*
X196932179Y-97443144D01*
X196932179Y-97443144D01*
G37*
D14*
X196621400Y-97917000D03*
D13*
G36*
X196532116Y-81499196D02*
G01*
X196556384Y-81502796D01*
X196580183Y-81508757D01*
X196603282Y-81517022D01*
X196625461Y-81527512D01*
X196646504Y-81540124D01*
X196666210Y-81554739D01*
X196684388Y-81571215D01*
X197320785Y-82207612D01*
X197337261Y-82225790D01*
X197351876Y-82245496D01*
X197364488Y-82266539D01*
X197374978Y-82288718D01*
X197383243Y-82311817D01*
X197389204Y-82335616D01*
X197392804Y-82359884D01*
X197394008Y-82384388D01*
X197392804Y-82408892D01*
X197389204Y-82433160D01*
X197383243Y-82456959D01*
X197374978Y-82480058D01*
X197364488Y-82502237D01*
X197351876Y-82523280D01*
X197337261Y-82542986D01*
X197320785Y-82561164D01*
X196861164Y-83020785D01*
X196842986Y-83037261D01*
X196823280Y-83051876D01*
X196802237Y-83064488D01*
X196780058Y-83074978D01*
X196756959Y-83083243D01*
X196733160Y-83089204D01*
X196708892Y-83092804D01*
X196684388Y-83094008D01*
X196659884Y-83092804D01*
X196635616Y-83089204D01*
X196611817Y-83083243D01*
X196588718Y-83074978D01*
X196566539Y-83064488D01*
X196545496Y-83051876D01*
X196525790Y-83037261D01*
X196507612Y-83020785D01*
X195871215Y-82384388D01*
X195854739Y-82366210D01*
X195840124Y-82346504D01*
X195827512Y-82325461D01*
X195817022Y-82303282D01*
X195808757Y-82280183D01*
X195802796Y-82256384D01*
X195799196Y-82232116D01*
X195797992Y-82207612D01*
X195799196Y-82183108D01*
X195802796Y-82158840D01*
X195808757Y-82135041D01*
X195817022Y-82111942D01*
X195827512Y-82089763D01*
X195840124Y-82068720D01*
X195854739Y-82049014D01*
X195871215Y-82030836D01*
X196330836Y-81571215D01*
X196349014Y-81554739D01*
X196368720Y-81540124D01*
X196389763Y-81527512D01*
X196411942Y-81517022D01*
X196435041Y-81508757D01*
X196458840Y-81502796D01*
X196483108Y-81499196D01*
X196507612Y-81497992D01*
X196532116Y-81499196D01*
X196532116Y-81499196D01*
G37*
D18*
X196596000Y-82296000D03*
D13*
G36*
X195082548Y-82948764D02*
G01*
X195106816Y-82952364D01*
X195130615Y-82958325D01*
X195153714Y-82966590D01*
X195175893Y-82977080D01*
X195196936Y-82989692D01*
X195216642Y-83004307D01*
X195234820Y-83020783D01*
X195871217Y-83657180D01*
X195887693Y-83675358D01*
X195902308Y-83695064D01*
X195914920Y-83716107D01*
X195925410Y-83738286D01*
X195933675Y-83761385D01*
X195939636Y-83785184D01*
X195943236Y-83809452D01*
X195944440Y-83833956D01*
X195943236Y-83858460D01*
X195939636Y-83882728D01*
X195933675Y-83906527D01*
X195925410Y-83929626D01*
X195914920Y-83951805D01*
X195902308Y-83972848D01*
X195887693Y-83992554D01*
X195871217Y-84010732D01*
X195411596Y-84470353D01*
X195393418Y-84486829D01*
X195373712Y-84501444D01*
X195352669Y-84514056D01*
X195330490Y-84524546D01*
X195307391Y-84532811D01*
X195283592Y-84538772D01*
X195259324Y-84542372D01*
X195234820Y-84543576D01*
X195210316Y-84542372D01*
X195186048Y-84538772D01*
X195162249Y-84532811D01*
X195139150Y-84524546D01*
X195116971Y-84514056D01*
X195095928Y-84501444D01*
X195076222Y-84486829D01*
X195058044Y-84470353D01*
X194421647Y-83833956D01*
X194405171Y-83815778D01*
X194390556Y-83796072D01*
X194377944Y-83775029D01*
X194367454Y-83752850D01*
X194359189Y-83729751D01*
X194353228Y-83705952D01*
X194349628Y-83681684D01*
X194348424Y-83657180D01*
X194349628Y-83632676D01*
X194353228Y-83608408D01*
X194359189Y-83584609D01*
X194367454Y-83561510D01*
X194377944Y-83539331D01*
X194390556Y-83518288D01*
X194405171Y-83498582D01*
X194421647Y-83480404D01*
X194881268Y-83020783D01*
X194899446Y-83004307D01*
X194919152Y-82989692D01*
X194940195Y-82977080D01*
X194962374Y-82966590D01*
X194985473Y-82958325D01*
X195009272Y-82952364D01*
X195033540Y-82948764D01*
X195058044Y-82947560D01*
X195082548Y-82948764D01*
X195082548Y-82948764D01*
G37*
D18*
X195146432Y-83745568D03*
D13*
G36*
X205111779Y-104251144D02*
G01*
X205134834Y-104254563D01*
X205157443Y-104260227D01*
X205179387Y-104268079D01*
X205200457Y-104278044D01*
X205220448Y-104290026D01*
X205239168Y-104303910D01*
X205256438Y-104319562D01*
X205272090Y-104336832D01*
X205285974Y-104355552D01*
X205297956Y-104375543D01*
X205307921Y-104396613D01*
X205315773Y-104418557D01*
X205321437Y-104441166D01*
X205324856Y-104464221D01*
X205326000Y-104487500D01*
X205326000Y-105062500D01*
X205324856Y-105085779D01*
X205321437Y-105108834D01*
X205315773Y-105131443D01*
X205307921Y-105153387D01*
X205297956Y-105174457D01*
X205285974Y-105194448D01*
X205272090Y-105213168D01*
X205256438Y-105230438D01*
X205239168Y-105246090D01*
X205220448Y-105259974D01*
X205200457Y-105271956D01*
X205179387Y-105281921D01*
X205157443Y-105289773D01*
X205134834Y-105295437D01*
X205111779Y-105298856D01*
X205088500Y-105300000D01*
X204613500Y-105300000D01*
X204590221Y-105298856D01*
X204567166Y-105295437D01*
X204544557Y-105289773D01*
X204522613Y-105281921D01*
X204501543Y-105271956D01*
X204481552Y-105259974D01*
X204462832Y-105246090D01*
X204445562Y-105230438D01*
X204429910Y-105213168D01*
X204416026Y-105194448D01*
X204404044Y-105174457D01*
X204394079Y-105153387D01*
X204386227Y-105131443D01*
X204380563Y-105108834D01*
X204377144Y-105085779D01*
X204376000Y-105062500D01*
X204376000Y-104487500D01*
X204377144Y-104464221D01*
X204380563Y-104441166D01*
X204386227Y-104418557D01*
X204394079Y-104396613D01*
X204404044Y-104375543D01*
X204416026Y-104355552D01*
X204429910Y-104336832D01*
X204445562Y-104319562D01*
X204462832Y-104303910D01*
X204481552Y-104290026D01*
X204501543Y-104278044D01*
X204522613Y-104268079D01*
X204544557Y-104260227D01*
X204567166Y-104254563D01*
X204590221Y-104251144D01*
X204613500Y-104250000D01*
X205088500Y-104250000D01*
X205111779Y-104251144D01*
X205111779Y-104251144D01*
G37*
D14*
X204851000Y-104775000D03*
D13*
G36*
X205111779Y-106001144D02*
G01*
X205134834Y-106004563D01*
X205157443Y-106010227D01*
X205179387Y-106018079D01*
X205200457Y-106028044D01*
X205220448Y-106040026D01*
X205239168Y-106053910D01*
X205256438Y-106069562D01*
X205272090Y-106086832D01*
X205285974Y-106105552D01*
X205297956Y-106125543D01*
X205307921Y-106146613D01*
X205315773Y-106168557D01*
X205321437Y-106191166D01*
X205324856Y-106214221D01*
X205326000Y-106237500D01*
X205326000Y-106812500D01*
X205324856Y-106835779D01*
X205321437Y-106858834D01*
X205315773Y-106881443D01*
X205307921Y-106903387D01*
X205297956Y-106924457D01*
X205285974Y-106944448D01*
X205272090Y-106963168D01*
X205256438Y-106980438D01*
X205239168Y-106996090D01*
X205220448Y-107009974D01*
X205200457Y-107021956D01*
X205179387Y-107031921D01*
X205157443Y-107039773D01*
X205134834Y-107045437D01*
X205111779Y-107048856D01*
X205088500Y-107050000D01*
X204613500Y-107050000D01*
X204590221Y-107048856D01*
X204567166Y-107045437D01*
X204544557Y-107039773D01*
X204522613Y-107031921D01*
X204501543Y-107021956D01*
X204481552Y-107009974D01*
X204462832Y-106996090D01*
X204445562Y-106980438D01*
X204429910Y-106963168D01*
X204416026Y-106944448D01*
X204404044Y-106924457D01*
X204394079Y-106903387D01*
X204386227Y-106881443D01*
X204380563Y-106858834D01*
X204377144Y-106835779D01*
X204376000Y-106812500D01*
X204376000Y-106237500D01*
X204377144Y-106214221D01*
X204380563Y-106191166D01*
X204386227Y-106168557D01*
X204394079Y-106146613D01*
X204404044Y-106125543D01*
X204416026Y-106105552D01*
X204429910Y-106086832D01*
X204445562Y-106069562D01*
X204462832Y-106053910D01*
X204481552Y-106040026D01*
X204501543Y-106028044D01*
X204522613Y-106018079D01*
X204544557Y-106010227D01*
X204567166Y-106004563D01*
X204590221Y-106001144D01*
X204613500Y-106000000D01*
X205088500Y-106000000D01*
X205111779Y-106001144D01*
X205111779Y-106001144D01*
G37*
D14*
X204851000Y-106525000D03*
D13*
G36*
X206635779Y-106001144D02*
G01*
X206658834Y-106004563D01*
X206681443Y-106010227D01*
X206703387Y-106018079D01*
X206724457Y-106028044D01*
X206744448Y-106040026D01*
X206763168Y-106053910D01*
X206780438Y-106069562D01*
X206796090Y-106086832D01*
X206809974Y-106105552D01*
X206821956Y-106125543D01*
X206831921Y-106146613D01*
X206839773Y-106168557D01*
X206845437Y-106191166D01*
X206848856Y-106214221D01*
X206850000Y-106237500D01*
X206850000Y-106812500D01*
X206848856Y-106835779D01*
X206845437Y-106858834D01*
X206839773Y-106881443D01*
X206831921Y-106903387D01*
X206821956Y-106924457D01*
X206809974Y-106944448D01*
X206796090Y-106963168D01*
X206780438Y-106980438D01*
X206763168Y-106996090D01*
X206744448Y-107009974D01*
X206724457Y-107021956D01*
X206703387Y-107031921D01*
X206681443Y-107039773D01*
X206658834Y-107045437D01*
X206635779Y-107048856D01*
X206612500Y-107050000D01*
X206137500Y-107050000D01*
X206114221Y-107048856D01*
X206091166Y-107045437D01*
X206068557Y-107039773D01*
X206046613Y-107031921D01*
X206025543Y-107021956D01*
X206005552Y-107009974D01*
X205986832Y-106996090D01*
X205969562Y-106980438D01*
X205953910Y-106963168D01*
X205940026Y-106944448D01*
X205928044Y-106924457D01*
X205918079Y-106903387D01*
X205910227Y-106881443D01*
X205904563Y-106858834D01*
X205901144Y-106835779D01*
X205900000Y-106812500D01*
X205900000Y-106237500D01*
X205901144Y-106214221D01*
X205904563Y-106191166D01*
X205910227Y-106168557D01*
X205918079Y-106146613D01*
X205928044Y-106125543D01*
X205940026Y-106105552D01*
X205953910Y-106086832D01*
X205969562Y-106069562D01*
X205986832Y-106053910D01*
X206005552Y-106040026D01*
X206025543Y-106028044D01*
X206046613Y-106018079D01*
X206068557Y-106010227D01*
X206091166Y-106004563D01*
X206114221Y-106001144D01*
X206137500Y-106000000D01*
X206612500Y-106000000D01*
X206635779Y-106001144D01*
X206635779Y-106001144D01*
G37*
D14*
X206375000Y-106525000D03*
D13*
G36*
X206635779Y-104251144D02*
G01*
X206658834Y-104254563D01*
X206681443Y-104260227D01*
X206703387Y-104268079D01*
X206724457Y-104278044D01*
X206744448Y-104290026D01*
X206763168Y-104303910D01*
X206780438Y-104319562D01*
X206796090Y-104336832D01*
X206809974Y-104355552D01*
X206821956Y-104375543D01*
X206831921Y-104396613D01*
X206839773Y-104418557D01*
X206845437Y-104441166D01*
X206848856Y-104464221D01*
X206850000Y-104487500D01*
X206850000Y-105062500D01*
X206848856Y-105085779D01*
X206845437Y-105108834D01*
X206839773Y-105131443D01*
X206831921Y-105153387D01*
X206821956Y-105174457D01*
X206809974Y-105194448D01*
X206796090Y-105213168D01*
X206780438Y-105230438D01*
X206763168Y-105246090D01*
X206744448Y-105259974D01*
X206724457Y-105271956D01*
X206703387Y-105281921D01*
X206681443Y-105289773D01*
X206658834Y-105295437D01*
X206635779Y-105298856D01*
X206612500Y-105300000D01*
X206137500Y-105300000D01*
X206114221Y-105298856D01*
X206091166Y-105295437D01*
X206068557Y-105289773D01*
X206046613Y-105281921D01*
X206025543Y-105271956D01*
X206005552Y-105259974D01*
X205986832Y-105246090D01*
X205969562Y-105230438D01*
X205953910Y-105213168D01*
X205940026Y-105194448D01*
X205928044Y-105174457D01*
X205918079Y-105153387D01*
X205910227Y-105131443D01*
X205904563Y-105108834D01*
X205901144Y-105085779D01*
X205900000Y-105062500D01*
X205900000Y-104487500D01*
X205901144Y-104464221D01*
X205904563Y-104441166D01*
X205910227Y-104418557D01*
X205918079Y-104396613D01*
X205928044Y-104375543D01*
X205940026Y-104355552D01*
X205953910Y-104336832D01*
X205969562Y-104319562D01*
X205986832Y-104303910D01*
X206005552Y-104290026D01*
X206025543Y-104278044D01*
X206046613Y-104268079D01*
X206068557Y-104260227D01*
X206091166Y-104254563D01*
X206114221Y-104251144D01*
X206137500Y-104250000D01*
X206612500Y-104250000D01*
X206635779Y-104251144D01*
X206635779Y-104251144D01*
G37*
D14*
X206375000Y-104775000D03*
D13*
G36*
X203587779Y-105989744D02*
G01*
X203610834Y-105993163D01*
X203633443Y-105998827D01*
X203655387Y-106006679D01*
X203676457Y-106016644D01*
X203696448Y-106028626D01*
X203715168Y-106042510D01*
X203732438Y-106058162D01*
X203748090Y-106075432D01*
X203761974Y-106094152D01*
X203773956Y-106114143D01*
X203783921Y-106135213D01*
X203791773Y-106157157D01*
X203797437Y-106179766D01*
X203800856Y-106202821D01*
X203802000Y-106226100D01*
X203802000Y-106801100D01*
X203800856Y-106824379D01*
X203797437Y-106847434D01*
X203791773Y-106870043D01*
X203783921Y-106891987D01*
X203773956Y-106913057D01*
X203761974Y-106933048D01*
X203748090Y-106951768D01*
X203732438Y-106969038D01*
X203715168Y-106984690D01*
X203696448Y-106998574D01*
X203676457Y-107010556D01*
X203655387Y-107020521D01*
X203633443Y-107028373D01*
X203610834Y-107034037D01*
X203587779Y-107037456D01*
X203564500Y-107038600D01*
X203089500Y-107038600D01*
X203066221Y-107037456D01*
X203043166Y-107034037D01*
X203020557Y-107028373D01*
X202998613Y-107020521D01*
X202977543Y-107010556D01*
X202957552Y-106998574D01*
X202938832Y-106984690D01*
X202921562Y-106969038D01*
X202905910Y-106951768D01*
X202892026Y-106933048D01*
X202880044Y-106913057D01*
X202870079Y-106891987D01*
X202862227Y-106870043D01*
X202856563Y-106847434D01*
X202853144Y-106824379D01*
X202852000Y-106801100D01*
X202852000Y-106226100D01*
X202853144Y-106202821D01*
X202856563Y-106179766D01*
X202862227Y-106157157D01*
X202870079Y-106135213D01*
X202880044Y-106114143D01*
X202892026Y-106094152D01*
X202905910Y-106075432D01*
X202921562Y-106058162D01*
X202938832Y-106042510D01*
X202957552Y-106028626D01*
X202977543Y-106016644D01*
X202998613Y-106006679D01*
X203020557Y-105998827D01*
X203043166Y-105993163D01*
X203066221Y-105989744D01*
X203089500Y-105988600D01*
X203564500Y-105988600D01*
X203587779Y-105989744D01*
X203587779Y-105989744D01*
G37*
D14*
X203327000Y-106513600D03*
D13*
G36*
X203587779Y-104239744D02*
G01*
X203610834Y-104243163D01*
X203633443Y-104248827D01*
X203655387Y-104256679D01*
X203676457Y-104266644D01*
X203696448Y-104278626D01*
X203715168Y-104292510D01*
X203732438Y-104308162D01*
X203748090Y-104325432D01*
X203761974Y-104344152D01*
X203773956Y-104364143D01*
X203783921Y-104385213D01*
X203791773Y-104407157D01*
X203797437Y-104429766D01*
X203800856Y-104452821D01*
X203802000Y-104476100D01*
X203802000Y-105051100D01*
X203800856Y-105074379D01*
X203797437Y-105097434D01*
X203791773Y-105120043D01*
X203783921Y-105141987D01*
X203773956Y-105163057D01*
X203761974Y-105183048D01*
X203748090Y-105201768D01*
X203732438Y-105219038D01*
X203715168Y-105234690D01*
X203696448Y-105248574D01*
X203676457Y-105260556D01*
X203655387Y-105270521D01*
X203633443Y-105278373D01*
X203610834Y-105284037D01*
X203587779Y-105287456D01*
X203564500Y-105288600D01*
X203089500Y-105288600D01*
X203066221Y-105287456D01*
X203043166Y-105284037D01*
X203020557Y-105278373D01*
X202998613Y-105270521D01*
X202977543Y-105260556D01*
X202957552Y-105248574D01*
X202938832Y-105234690D01*
X202921562Y-105219038D01*
X202905910Y-105201768D01*
X202892026Y-105183048D01*
X202880044Y-105163057D01*
X202870079Y-105141987D01*
X202862227Y-105120043D01*
X202856563Y-105097434D01*
X202853144Y-105074379D01*
X202852000Y-105051100D01*
X202852000Y-104476100D01*
X202853144Y-104452821D01*
X202856563Y-104429766D01*
X202862227Y-104407157D01*
X202870079Y-104385213D01*
X202880044Y-104364143D01*
X202892026Y-104344152D01*
X202905910Y-104325432D01*
X202921562Y-104308162D01*
X202938832Y-104292510D01*
X202957552Y-104278626D01*
X202977543Y-104266644D01*
X202998613Y-104256679D01*
X203020557Y-104248827D01*
X203043166Y-104243163D01*
X203066221Y-104239744D01*
X203089500Y-104238600D01*
X203564500Y-104238600D01*
X203587779Y-104239744D01*
X203587779Y-104239744D01*
G37*
D14*
X203327000Y-104763600D03*
D13*
G36*
X165828505Y-93896204D02*
G01*
X165852773Y-93899804D01*
X165876572Y-93905765D01*
X165899671Y-93914030D01*
X165921850Y-93924520D01*
X165942893Y-93937132D01*
X165962599Y-93951747D01*
X165980777Y-93968223D01*
X165997253Y-93986401D01*
X166011868Y-94006107D01*
X166024480Y-94027150D01*
X166034970Y-94049329D01*
X166043235Y-94072428D01*
X166049196Y-94096227D01*
X166052796Y-94120495D01*
X166054000Y-94144999D01*
X166054000Y-94795001D01*
X166052796Y-94819505D01*
X166049196Y-94843773D01*
X166043235Y-94867572D01*
X166034970Y-94890671D01*
X166024480Y-94912850D01*
X166011868Y-94933893D01*
X165997253Y-94953599D01*
X165980777Y-94971777D01*
X165962599Y-94988253D01*
X165942893Y-95002868D01*
X165921850Y-95015480D01*
X165899671Y-95025970D01*
X165876572Y-95034235D01*
X165852773Y-95040196D01*
X165828505Y-95043796D01*
X165804001Y-95045000D01*
X164903999Y-95045000D01*
X164879495Y-95043796D01*
X164855227Y-95040196D01*
X164831428Y-95034235D01*
X164808329Y-95025970D01*
X164786150Y-95015480D01*
X164765107Y-95002868D01*
X164745401Y-94988253D01*
X164727223Y-94971777D01*
X164710747Y-94953599D01*
X164696132Y-94933893D01*
X164683520Y-94912850D01*
X164673030Y-94890671D01*
X164664765Y-94867572D01*
X164658804Y-94843773D01*
X164655204Y-94819505D01*
X164654000Y-94795001D01*
X164654000Y-94144999D01*
X164655204Y-94120495D01*
X164658804Y-94096227D01*
X164664765Y-94072428D01*
X164673030Y-94049329D01*
X164683520Y-94027150D01*
X164696132Y-94006107D01*
X164710747Y-93986401D01*
X164727223Y-93968223D01*
X164745401Y-93951747D01*
X164765107Y-93937132D01*
X164786150Y-93924520D01*
X164808329Y-93914030D01*
X164831428Y-93905765D01*
X164855227Y-93899804D01*
X164879495Y-93896204D01*
X164903999Y-93895000D01*
X165804001Y-93895000D01*
X165828505Y-93896204D01*
X165828505Y-93896204D01*
G37*
D18*
X165354000Y-94470000D03*
D13*
G36*
X165828505Y-95946204D02*
G01*
X165852773Y-95949804D01*
X165876572Y-95955765D01*
X165899671Y-95964030D01*
X165921850Y-95974520D01*
X165942893Y-95987132D01*
X165962599Y-96001747D01*
X165980777Y-96018223D01*
X165997253Y-96036401D01*
X166011868Y-96056107D01*
X166024480Y-96077150D01*
X166034970Y-96099329D01*
X166043235Y-96122428D01*
X166049196Y-96146227D01*
X166052796Y-96170495D01*
X166054000Y-96194999D01*
X166054000Y-96845001D01*
X166052796Y-96869505D01*
X166049196Y-96893773D01*
X166043235Y-96917572D01*
X166034970Y-96940671D01*
X166024480Y-96962850D01*
X166011868Y-96983893D01*
X165997253Y-97003599D01*
X165980777Y-97021777D01*
X165962599Y-97038253D01*
X165942893Y-97052868D01*
X165921850Y-97065480D01*
X165899671Y-97075970D01*
X165876572Y-97084235D01*
X165852773Y-97090196D01*
X165828505Y-97093796D01*
X165804001Y-97095000D01*
X164903999Y-97095000D01*
X164879495Y-97093796D01*
X164855227Y-97090196D01*
X164831428Y-97084235D01*
X164808329Y-97075970D01*
X164786150Y-97065480D01*
X164765107Y-97052868D01*
X164745401Y-97038253D01*
X164727223Y-97021777D01*
X164710747Y-97003599D01*
X164696132Y-96983893D01*
X164683520Y-96962850D01*
X164673030Y-96940671D01*
X164664765Y-96917572D01*
X164658804Y-96893773D01*
X164655204Y-96869505D01*
X164654000Y-96845001D01*
X164654000Y-96194999D01*
X164655204Y-96170495D01*
X164658804Y-96146227D01*
X164664765Y-96122428D01*
X164673030Y-96099329D01*
X164683520Y-96077150D01*
X164696132Y-96056107D01*
X164710747Y-96036401D01*
X164727223Y-96018223D01*
X164745401Y-96001747D01*
X164765107Y-95987132D01*
X164786150Y-95974520D01*
X164808329Y-95964030D01*
X164831428Y-95955765D01*
X164855227Y-95949804D01*
X164879495Y-95946204D01*
X164903999Y-95945000D01*
X165804001Y-95945000D01*
X165828505Y-95946204D01*
X165828505Y-95946204D01*
G37*
D18*
X165354000Y-96520000D03*
D13*
G36*
X199142779Y-113508144D02*
G01*
X199165834Y-113511563D01*
X199188443Y-113517227D01*
X199210387Y-113525079D01*
X199231457Y-113535044D01*
X199251448Y-113547026D01*
X199270168Y-113560910D01*
X199287438Y-113576562D01*
X199303090Y-113593832D01*
X199316974Y-113612552D01*
X199328956Y-113632543D01*
X199338921Y-113653613D01*
X199346773Y-113675557D01*
X199352437Y-113698166D01*
X199355856Y-113721221D01*
X199357000Y-113744500D01*
X199357000Y-114319500D01*
X199355856Y-114342779D01*
X199352437Y-114365834D01*
X199346773Y-114388443D01*
X199338921Y-114410387D01*
X199328956Y-114431457D01*
X199316974Y-114451448D01*
X199303090Y-114470168D01*
X199287438Y-114487438D01*
X199270168Y-114503090D01*
X199251448Y-114516974D01*
X199231457Y-114528956D01*
X199210387Y-114538921D01*
X199188443Y-114546773D01*
X199165834Y-114552437D01*
X199142779Y-114555856D01*
X199119500Y-114557000D01*
X198644500Y-114557000D01*
X198621221Y-114555856D01*
X198598166Y-114552437D01*
X198575557Y-114546773D01*
X198553613Y-114538921D01*
X198532543Y-114528956D01*
X198512552Y-114516974D01*
X198493832Y-114503090D01*
X198476562Y-114487438D01*
X198460910Y-114470168D01*
X198447026Y-114451448D01*
X198435044Y-114431457D01*
X198425079Y-114410387D01*
X198417227Y-114388443D01*
X198411563Y-114365834D01*
X198408144Y-114342779D01*
X198407000Y-114319500D01*
X198407000Y-113744500D01*
X198408144Y-113721221D01*
X198411563Y-113698166D01*
X198417227Y-113675557D01*
X198425079Y-113653613D01*
X198435044Y-113632543D01*
X198447026Y-113612552D01*
X198460910Y-113593832D01*
X198476562Y-113576562D01*
X198493832Y-113560910D01*
X198512552Y-113547026D01*
X198532543Y-113535044D01*
X198553613Y-113525079D01*
X198575557Y-113517227D01*
X198598166Y-113511563D01*
X198621221Y-113508144D01*
X198644500Y-113507000D01*
X199119500Y-113507000D01*
X199142779Y-113508144D01*
X199142779Y-113508144D01*
G37*
D14*
X198882000Y-114032000D03*
D13*
G36*
X199142779Y-111758144D02*
G01*
X199165834Y-111761563D01*
X199188443Y-111767227D01*
X199210387Y-111775079D01*
X199231457Y-111785044D01*
X199251448Y-111797026D01*
X199270168Y-111810910D01*
X199287438Y-111826562D01*
X199303090Y-111843832D01*
X199316974Y-111862552D01*
X199328956Y-111882543D01*
X199338921Y-111903613D01*
X199346773Y-111925557D01*
X199352437Y-111948166D01*
X199355856Y-111971221D01*
X199357000Y-111994500D01*
X199357000Y-112569500D01*
X199355856Y-112592779D01*
X199352437Y-112615834D01*
X199346773Y-112638443D01*
X199338921Y-112660387D01*
X199328956Y-112681457D01*
X199316974Y-112701448D01*
X199303090Y-112720168D01*
X199287438Y-112737438D01*
X199270168Y-112753090D01*
X199251448Y-112766974D01*
X199231457Y-112778956D01*
X199210387Y-112788921D01*
X199188443Y-112796773D01*
X199165834Y-112802437D01*
X199142779Y-112805856D01*
X199119500Y-112807000D01*
X198644500Y-112807000D01*
X198621221Y-112805856D01*
X198598166Y-112802437D01*
X198575557Y-112796773D01*
X198553613Y-112788921D01*
X198532543Y-112778956D01*
X198512552Y-112766974D01*
X198493832Y-112753090D01*
X198476562Y-112737438D01*
X198460910Y-112720168D01*
X198447026Y-112701448D01*
X198435044Y-112681457D01*
X198425079Y-112660387D01*
X198417227Y-112638443D01*
X198411563Y-112615834D01*
X198408144Y-112592779D01*
X198407000Y-112569500D01*
X198407000Y-111994500D01*
X198408144Y-111971221D01*
X198411563Y-111948166D01*
X198417227Y-111925557D01*
X198425079Y-111903613D01*
X198435044Y-111882543D01*
X198447026Y-111862552D01*
X198460910Y-111843832D01*
X198476562Y-111826562D01*
X198493832Y-111810910D01*
X198512552Y-111797026D01*
X198532543Y-111785044D01*
X198553613Y-111775079D01*
X198575557Y-111767227D01*
X198598166Y-111761563D01*
X198621221Y-111758144D01*
X198644500Y-111757000D01*
X199119500Y-111757000D01*
X199142779Y-111758144D01*
X199142779Y-111758144D01*
G37*
D14*
X198882000Y-112282000D03*
D13*
G36*
X199888497Y-120763426D02*
G01*
X199911552Y-120766845D01*
X199934161Y-120772509D01*
X199956105Y-120780361D01*
X199977175Y-120790326D01*
X199997166Y-120802308D01*
X200015886Y-120816192D01*
X200033156Y-120831844D01*
X200048808Y-120849114D01*
X200062692Y-120867834D01*
X200074674Y-120887825D01*
X200084639Y-120908895D01*
X200092491Y-120930839D01*
X200098155Y-120953448D01*
X200101574Y-120976503D01*
X200102718Y-120999782D01*
X200102718Y-121574782D01*
X200101574Y-121598061D01*
X200098155Y-121621116D01*
X200092491Y-121643725D01*
X200084639Y-121665669D01*
X200074674Y-121686739D01*
X200062692Y-121706730D01*
X200048808Y-121725450D01*
X200033156Y-121742720D01*
X200015886Y-121758372D01*
X199997166Y-121772256D01*
X199977175Y-121784238D01*
X199956105Y-121794203D01*
X199934161Y-121802055D01*
X199911552Y-121807719D01*
X199888497Y-121811138D01*
X199865218Y-121812282D01*
X199390218Y-121812282D01*
X199366939Y-121811138D01*
X199343884Y-121807719D01*
X199321275Y-121802055D01*
X199299331Y-121794203D01*
X199278261Y-121784238D01*
X199258270Y-121772256D01*
X199239550Y-121758372D01*
X199222280Y-121742720D01*
X199206628Y-121725450D01*
X199192744Y-121706730D01*
X199180762Y-121686739D01*
X199170797Y-121665669D01*
X199162945Y-121643725D01*
X199157281Y-121621116D01*
X199153862Y-121598061D01*
X199152718Y-121574782D01*
X199152718Y-120999782D01*
X199153862Y-120976503D01*
X199157281Y-120953448D01*
X199162945Y-120930839D01*
X199170797Y-120908895D01*
X199180762Y-120887825D01*
X199192744Y-120867834D01*
X199206628Y-120849114D01*
X199222280Y-120831844D01*
X199239550Y-120816192D01*
X199258270Y-120802308D01*
X199278261Y-120790326D01*
X199299331Y-120780361D01*
X199321275Y-120772509D01*
X199343884Y-120766845D01*
X199366939Y-120763426D01*
X199390218Y-120762282D01*
X199865218Y-120762282D01*
X199888497Y-120763426D01*
X199888497Y-120763426D01*
G37*
D14*
X199627718Y-121287282D03*
D13*
G36*
X199888497Y-119013426D02*
G01*
X199911552Y-119016845D01*
X199934161Y-119022509D01*
X199956105Y-119030361D01*
X199977175Y-119040326D01*
X199997166Y-119052308D01*
X200015886Y-119066192D01*
X200033156Y-119081844D01*
X200048808Y-119099114D01*
X200062692Y-119117834D01*
X200074674Y-119137825D01*
X200084639Y-119158895D01*
X200092491Y-119180839D01*
X200098155Y-119203448D01*
X200101574Y-119226503D01*
X200102718Y-119249782D01*
X200102718Y-119824782D01*
X200101574Y-119848061D01*
X200098155Y-119871116D01*
X200092491Y-119893725D01*
X200084639Y-119915669D01*
X200074674Y-119936739D01*
X200062692Y-119956730D01*
X200048808Y-119975450D01*
X200033156Y-119992720D01*
X200015886Y-120008372D01*
X199997166Y-120022256D01*
X199977175Y-120034238D01*
X199956105Y-120044203D01*
X199934161Y-120052055D01*
X199911552Y-120057719D01*
X199888497Y-120061138D01*
X199865218Y-120062282D01*
X199390218Y-120062282D01*
X199366939Y-120061138D01*
X199343884Y-120057719D01*
X199321275Y-120052055D01*
X199299331Y-120044203D01*
X199278261Y-120034238D01*
X199258270Y-120022256D01*
X199239550Y-120008372D01*
X199222280Y-119992720D01*
X199206628Y-119975450D01*
X199192744Y-119956730D01*
X199180762Y-119936739D01*
X199170797Y-119915669D01*
X199162945Y-119893725D01*
X199157281Y-119871116D01*
X199153862Y-119848061D01*
X199152718Y-119824782D01*
X199152718Y-119249782D01*
X199153862Y-119226503D01*
X199157281Y-119203448D01*
X199162945Y-119180839D01*
X199170797Y-119158895D01*
X199180762Y-119137825D01*
X199192744Y-119117834D01*
X199206628Y-119099114D01*
X199222280Y-119081844D01*
X199239550Y-119066192D01*
X199258270Y-119052308D01*
X199278261Y-119040326D01*
X199299331Y-119030361D01*
X199321275Y-119022509D01*
X199343884Y-119016845D01*
X199366939Y-119013426D01*
X199390218Y-119012282D01*
X199865218Y-119012282D01*
X199888497Y-119013426D01*
X199888497Y-119013426D01*
G37*
D14*
X199627718Y-119537282D03*
D13*
G36*
X200942779Y-110143144D02*
G01*
X200965834Y-110146563D01*
X200988443Y-110152227D01*
X201010387Y-110160079D01*
X201031457Y-110170044D01*
X201051448Y-110182026D01*
X201070168Y-110195910D01*
X201087438Y-110211562D01*
X201103090Y-110228832D01*
X201116974Y-110247552D01*
X201128956Y-110267543D01*
X201138921Y-110288613D01*
X201146773Y-110310557D01*
X201152437Y-110333166D01*
X201155856Y-110356221D01*
X201157000Y-110379500D01*
X201157000Y-110854500D01*
X201155856Y-110877779D01*
X201152437Y-110900834D01*
X201146773Y-110923443D01*
X201138921Y-110945387D01*
X201128956Y-110966457D01*
X201116974Y-110986448D01*
X201103090Y-111005168D01*
X201087438Y-111022438D01*
X201070168Y-111038090D01*
X201051448Y-111051974D01*
X201031457Y-111063956D01*
X201010387Y-111073921D01*
X200988443Y-111081773D01*
X200965834Y-111087437D01*
X200942779Y-111090856D01*
X200919500Y-111092000D01*
X200344500Y-111092000D01*
X200321221Y-111090856D01*
X200298166Y-111087437D01*
X200275557Y-111081773D01*
X200253613Y-111073921D01*
X200232543Y-111063956D01*
X200212552Y-111051974D01*
X200193832Y-111038090D01*
X200176562Y-111022438D01*
X200160910Y-111005168D01*
X200147026Y-110986448D01*
X200135044Y-110966457D01*
X200125079Y-110945387D01*
X200117227Y-110923443D01*
X200111563Y-110900834D01*
X200108144Y-110877779D01*
X200107000Y-110854500D01*
X200107000Y-110379500D01*
X200108144Y-110356221D01*
X200111563Y-110333166D01*
X200117227Y-110310557D01*
X200125079Y-110288613D01*
X200135044Y-110267543D01*
X200147026Y-110247552D01*
X200160910Y-110228832D01*
X200176562Y-110211562D01*
X200193832Y-110195910D01*
X200212552Y-110182026D01*
X200232543Y-110170044D01*
X200253613Y-110160079D01*
X200275557Y-110152227D01*
X200298166Y-110146563D01*
X200321221Y-110143144D01*
X200344500Y-110142000D01*
X200919500Y-110142000D01*
X200942779Y-110143144D01*
X200942779Y-110143144D01*
G37*
D14*
X200632000Y-110617000D03*
D13*
G36*
X199192779Y-110143144D02*
G01*
X199215834Y-110146563D01*
X199238443Y-110152227D01*
X199260387Y-110160079D01*
X199281457Y-110170044D01*
X199301448Y-110182026D01*
X199320168Y-110195910D01*
X199337438Y-110211562D01*
X199353090Y-110228832D01*
X199366974Y-110247552D01*
X199378956Y-110267543D01*
X199388921Y-110288613D01*
X199396773Y-110310557D01*
X199402437Y-110333166D01*
X199405856Y-110356221D01*
X199407000Y-110379500D01*
X199407000Y-110854500D01*
X199405856Y-110877779D01*
X199402437Y-110900834D01*
X199396773Y-110923443D01*
X199388921Y-110945387D01*
X199378956Y-110966457D01*
X199366974Y-110986448D01*
X199353090Y-111005168D01*
X199337438Y-111022438D01*
X199320168Y-111038090D01*
X199301448Y-111051974D01*
X199281457Y-111063956D01*
X199260387Y-111073921D01*
X199238443Y-111081773D01*
X199215834Y-111087437D01*
X199192779Y-111090856D01*
X199169500Y-111092000D01*
X198594500Y-111092000D01*
X198571221Y-111090856D01*
X198548166Y-111087437D01*
X198525557Y-111081773D01*
X198503613Y-111073921D01*
X198482543Y-111063956D01*
X198462552Y-111051974D01*
X198443832Y-111038090D01*
X198426562Y-111022438D01*
X198410910Y-111005168D01*
X198397026Y-110986448D01*
X198385044Y-110966457D01*
X198375079Y-110945387D01*
X198367227Y-110923443D01*
X198361563Y-110900834D01*
X198358144Y-110877779D01*
X198357000Y-110854500D01*
X198357000Y-110379500D01*
X198358144Y-110356221D01*
X198361563Y-110333166D01*
X198367227Y-110310557D01*
X198375079Y-110288613D01*
X198385044Y-110267543D01*
X198397026Y-110247552D01*
X198410910Y-110228832D01*
X198426562Y-110211562D01*
X198443832Y-110195910D01*
X198462552Y-110182026D01*
X198482543Y-110170044D01*
X198503613Y-110160079D01*
X198525557Y-110152227D01*
X198548166Y-110146563D01*
X198571221Y-110143144D01*
X198594500Y-110142000D01*
X199169500Y-110142000D01*
X199192779Y-110143144D01*
X199192779Y-110143144D01*
G37*
D14*
X198882000Y-110617000D03*
D19*
X202651064Y-90646090D03*
D13*
G36*
X203485450Y-90943075D02*
G01*
X202948049Y-91480476D01*
X201816678Y-90349105D01*
X202354079Y-89811704D01*
X203485450Y-90943075D01*
X203485450Y-90943075D01*
G37*
D19*
X198160936Y-84359910D03*
D13*
G36*
X198995322Y-84656895D02*
G01*
X198457921Y-85194296D01*
X197326550Y-84062925D01*
X197863951Y-83525524D01*
X198995322Y-84656895D01*
X198995322Y-84656895D01*
G37*
D19*
X203549090Y-89748064D03*
D13*
G36*
X204383476Y-90045049D02*
G01*
X203846075Y-90582450D01*
X202714704Y-89451079D01*
X203252105Y-88913678D01*
X204383476Y-90045049D01*
X204383476Y-90045049D01*
G37*
D19*
X197262910Y-85257936D03*
D13*
G36*
X198097296Y-85554921D02*
G01*
X197559895Y-86092322D01*
X196428524Y-84960951D01*
X196965925Y-84423550D01*
X198097296Y-85554921D01*
X198097296Y-85554921D01*
G37*
D20*
X202750614Y-111451107D03*
D13*
G36*
X202609193Y-112052148D02*
G01*
X202149573Y-111592528D01*
X202892035Y-110850066D01*
X203351655Y-111309686D01*
X202609193Y-112052148D01*
X202609193Y-112052148D01*
G37*
D20*
X205685107Y-108516614D03*
D13*
G36*
X205543686Y-109117655D02*
G01*
X205084066Y-108658035D01*
X205826528Y-107915573D01*
X206286148Y-108375193D01*
X205543686Y-109117655D01*
X205543686Y-109117655D01*
G37*
D20*
X204270893Y-112971386D03*
D13*
G36*
X204129472Y-113572427D02*
G01*
X203669852Y-113112807D01*
X204412314Y-112370345D01*
X204871934Y-112829965D01*
X204129472Y-113572427D01*
X204129472Y-113572427D01*
G37*
D20*
X207205386Y-110036893D03*
D13*
G36*
X207063965Y-110637934D02*
G01*
X206604345Y-110178314D01*
X207346807Y-109435852D01*
X207806427Y-109895472D01*
X207063965Y-110637934D01*
X207063965Y-110637934D01*
G37*
D20*
X204538386Y-115878893D03*
D13*
G36*
X204396965Y-116479934D02*
G01*
X203937345Y-116020314D01*
X204679807Y-115277852D01*
X205139427Y-115737472D01*
X204396965Y-116479934D01*
X204396965Y-116479934D01*
G37*
D20*
X201603893Y-118813386D03*
D13*
G36*
X201462472Y-119414427D02*
G01*
X201002852Y-118954807D01*
X201745314Y-118212345D01*
X202204934Y-118671965D01*
X201462472Y-119414427D01*
X201462472Y-119414427D01*
G37*
D20*
X203018107Y-114358614D03*
D13*
G36*
X202876686Y-114959655D02*
G01*
X202417066Y-114500035D01*
X203159528Y-113757573D01*
X203619148Y-114217193D01*
X202876686Y-114959655D01*
X202876686Y-114959655D01*
G37*
D20*
X200083614Y-117293107D03*
D13*
G36*
X199942193Y-117894148D02*
G01*
X199482573Y-117434528D01*
X200225035Y-116692066D01*
X200684655Y-117151686D01*
X199942193Y-117894148D01*
X199942193Y-117894148D01*
G37*
G36*
X174041179Y-115997293D02*
G01*
X174055740Y-115999453D01*
X174070019Y-116003030D01*
X174083879Y-116007989D01*
X174097186Y-116014283D01*
X174109812Y-116021851D01*
X174121635Y-116030619D01*
X174132542Y-116040505D01*
X174344674Y-116252637D01*
X174354560Y-116263544D01*
X174363328Y-116275367D01*
X174370896Y-116287993D01*
X174377190Y-116301300D01*
X174382149Y-116315160D01*
X174385726Y-116329439D01*
X174387886Y-116344000D01*
X174388608Y-116358703D01*
X174387886Y-116373406D01*
X174385726Y-116387967D01*
X174382149Y-116402246D01*
X174377190Y-116416106D01*
X174370896Y-116429413D01*
X174363328Y-116442039D01*
X174354560Y-116453862D01*
X174344674Y-116464769D01*
X173177948Y-117631495D01*
X173167041Y-117641381D01*
X173155218Y-117650149D01*
X173142592Y-117657717D01*
X173129285Y-117664011D01*
X173115425Y-117668970D01*
X173101146Y-117672547D01*
X173086585Y-117674707D01*
X173071882Y-117675429D01*
X173057179Y-117674707D01*
X173042618Y-117672547D01*
X173028339Y-117668970D01*
X173014479Y-117664011D01*
X173001172Y-117657717D01*
X172988546Y-117650149D01*
X172976723Y-117641381D01*
X172965816Y-117631495D01*
X172753684Y-117419363D01*
X172743798Y-117408456D01*
X172735030Y-117396633D01*
X172727462Y-117384007D01*
X172721168Y-117370700D01*
X172716209Y-117356840D01*
X172712632Y-117342561D01*
X172710472Y-117328000D01*
X172709750Y-117313297D01*
X172710472Y-117298594D01*
X172712632Y-117284033D01*
X172716209Y-117269754D01*
X172721168Y-117255894D01*
X172727462Y-117242587D01*
X172735030Y-117229961D01*
X172743798Y-117218138D01*
X172753684Y-117207231D01*
X173920410Y-116040505D01*
X173931317Y-116030619D01*
X173943140Y-116021851D01*
X173955766Y-116014283D01*
X173969073Y-116007989D01*
X173982933Y-116003030D01*
X173997212Y-115999453D01*
X174011773Y-115997293D01*
X174026476Y-115996571D01*
X174041179Y-115997293D01*
X174041179Y-115997293D01*
G37*
D21*
X173549179Y-116836000D03*
D13*
G36*
X173143153Y-115099268D02*
G01*
X173157714Y-115101428D01*
X173171993Y-115105005D01*
X173185853Y-115109964D01*
X173199160Y-115116258D01*
X173211786Y-115123826D01*
X173223609Y-115132594D01*
X173234516Y-115142480D01*
X173446648Y-115354612D01*
X173456534Y-115365519D01*
X173465302Y-115377342D01*
X173472870Y-115389968D01*
X173479164Y-115403275D01*
X173484123Y-115417135D01*
X173487700Y-115431414D01*
X173489860Y-115445975D01*
X173490582Y-115460678D01*
X173489860Y-115475381D01*
X173487700Y-115489942D01*
X173484123Y-115504221D01*
X173479164Y-115518081D01*
X173472870Y-115531388D01*
X173465302Y-115544014D01*
X173456534Y-115555837D01*
X173446648Y-115566744D01*
X172279922Y-116733470D01*
X172269015Y-116743356D01*
X172257192Y-116752124D01*
X172244566Y-116759692D01*
X172231259Y-116765986D01*
X172217399Y-116770945D01*
X172203120Y-116774522D01*
X172188559Y-116776682D01*
X172173856Y-116777404D01*
X172159153Y-116776682D01*
X172144592Y-116774522D01*
X172130313Y-116770945D01*
X172116453Y-116765986D01*
X172103146Y-116759692D01*
X172090520Y-116752124D01*
X172078697Y-116743356D01*
X172067790Y-116733470D01*
X171855658Y-116521338D01*
X171845772Y-116510431D01*
X171837004Y-116498608D01*
X171829436Y-116485982D01*
X171823142Y-116472675D01*
X171818183Y-116458815D01*
X171814606Y-116444536D01*
X171812446Y-116429975D01*
X171811724Y-116415272D01*
X171812446Y-116400569D01*
X171814606Y-116386008D01*
X171818183Y-116371729D01*
X171823142Y-116357869D01*
X171829436Y-116344562D01*
X171837004Y-116331936D01*
X171845772Y-116320113D01*
X171855658Y-116309206D01*
X173022384Y-115142480D01*
X173033291Y-115132594D01*
X173045114Y-115123826D01*
X173057740Y-115116258D01*
X173071047Y-115109964D01*
X173084907Y-115105005D01*
X173099186Y-115101428D01*
X173113747Y-115099268D01*
X173128450Y-115098546D01*
X173143153Y-115099268D01*
X173143153Y-115099268D01*
G37*
D21*
X172651153Y-115937975D03*
D13*
G36*
X172245128Y-114201242D02*
G01*
X172259689Y-114203402D01*
X172273968Y-114206979D01*
X172287828Y-114211938D01*
X172301135Y-114218232D01*
X172313761Y-114225800D01*
X172325584Y-114234568D01*
X172336491Y-114244454D01*
X172548623Y-114456586D01*
X172558509Y-114467493D01*
X172567277Y-114479316D01*
X172574845Y-114491942D01*
X172581139Y-114505249D01*
X172586098Y-114519109D01*
X172589675Y-114533388D01*
X172591835Y-114547949D01*
X172592557Y-114562652D01*
X172591835Y-114577355D01*
X172589675Y-114591916D01*
X172586098Y-114606195D01*
X172581139Y-114620055D01*
X172574845Y-114633362D01*
X172567277Y-114645988D01*
X172558509Y-114657811D01*
X172548623Y-114668718D01*
X171381897Y-115835444D01*
X171370990Y-115845330D01*
X171359167Y-115854098D01*
X171346541Y-115861666D01*
X171333234Y-115867960D01*
X171319374Y-115872919D01*
X171305095Y-115876496D01*
X171290534Y-115878656D01*
X171275831Y-115879378D01*
X171261128Y-115878656D01*
X171246567Y-115876496D01*
X171232288Y-115872919D01*
X171218428Y-115867960D01*
X171205121Y-115861666D01*
X171192495Y-115854098D01*
X171180672Y-115845330D01*
X171169765Y-115835444D01*
X170957633Y-115623312D01*
X170947747Y-115612405D01*
X170938979Y-115600582D01*
X170931411Y-115587956D01*
X170925117Y-115574649D01*
X170920158Y-115560789D01*
X170916581Y-115546510D01*
X170914421Y-115531949D01*
X170913699Y-115517246D01*
X170914421Y-115502543D01*
X170916581Y-115487982D01*
X170920158Y-115473703D01*
X170925117Y-115459843D01*
X170931411Y-115446536D01*
X170938979Y-115433910D01*
X170947747Y-115422087D01*
X170957633Y-115411180D01*
X172124359Y-114244454D01*
X172135266Y-114234568D01*
X172147089Y-114225800D01*
X172159715Y-114218232D01*
X172173022Y-114211938D01*
X172186882Y-114206979D01*
X172201161Y-114203402D01*
X172215722Y-114201242D01*
X172230425Y-114200520D01*
X172245128Y-114201242D01*
X172245128Y-114201242D01*
G37*
D21*
X171753128Y-115039949D03*
D13*
G36*
X171347102Y-113303217D02*
G01*
X171361663Y-113305377D01*
X171375942Y-113308954D01*
X171389802Y-113313913D01*
X171403109Y-113320207D01*
X171415735Y-113327775D01*
X171427558Y-113336543D01*
X171438465Y-113346429D01*
X171650597Y-113558561D01*
X171660483Y-113569468D01*
X171669251Y-113581291D01*
X171676819Y-113593917D01*
X171683113Y-113607224D01*
X171688072Y-113621084D01*
X171691649Y-113635363D01*
X171693809Y-113649924D01*
X171694531Y-113664627D01*
X171693809Y-113679330D01*
X171691649Y-113693891D01*
X171688072Y-113708170D01*
X171683113Y-113722030D01*
X171676819Y-113735337D01*
X171669251Y-113747963D01*
X171660483Y-113759786D01*
X171650597Y-113770693D01*
X170483871Y-114937419D01*
X170472964Y-114947305D01*
X170461141Y-114956073D01*
X170448515Y-114963641D01*
X170435208Y-114969935D01*
X170421348Y-114974894D01*
X170407069Y-114978471D01*
X170392508Y-114980631D01*
X170377805Y-114981353D01*
X170363102Y-114980631D01*
X170348541Y-114978471D01*
X170334262Y-114974894D01*
X170320402Y-114969935D01*
X170307095Y-114963641D01*
X170294469Y-114956073D01*
X170282646Y-114947305D01*
X170271739Y-114937419D01*
X170059607Y-114725287D01*
X170049721Y-114714380D01*
X170040953Y-114702557D01*
X170033385Y-114689931D01*
X170027091Y-114676624D01*
X170022132Y-114662764D01*
X170018555Y-114648485D01*
X170016395Y-114633924D01*
X170015673Y-114619221D01*
X170016395Y-114604518D01*
X170018555Y-114589957D01*
X170022132Y-114575678D01*
X170027091Y-114561818D01*
X170033385Y-114548511D01*
X170040953Y-114535885D01*
X170049721Y-114524062D01*
X170059607Y-114513155D01*
X171226333Y-113346429D01*
X171237240Y-113336543D01*
X171249063Y-113327775D01*
X171261689Y-113320207D01*
X171274996Y-113313913D01*
X171288856Y-113308954D01*
X171303135Y-113305377D01*
X171317696Y-113303217D01*
X171332399Y-113302495D01*
X171347102Y-113303217D01*
X171347102Y-113303217D01*
G37*
D21*
X170855102Y-114141924D03*
D13*
G36*
X170449076Y-112405191D02*
G01*
X170463637Y-112407351D01*
X170477916Y-112410928D01*
X170491776Y-112415887D01*
X170505083Y-112422181D01*
X170517709Y-112429749D01*
X170529532Y-112438517D01*
X170540439Y-112448403D01*
X170752571Y-112660535D01*
X170762457Y-112671442D01*
X170771225Y-112683265D01*
X170778793Y-112695891D01*
X170785087Y-112709198D01*
X170790046Y-112723058D01*
X170793623Y-112737337D01*
X170795783Y-112751898D01*
X170796505Y-112766601D01*
X170795783Y-112781304D01*
X170793623Y-112795865D01*
X170790046Y-112810144D01*
X170785087Y-112824004D01*
X170778793Y-112837311D01*
X170771225Y-112849937D01*
X170762457Y-112861760D01*
X170752571Y-112872667D01*
X169585845Y-114039393D01*
X169574938Y-114049279D01*
X169563115Y-114058047D01*
X169550489Y-114065615D01*
X169537182Y-114071909D01*
X169523322Y-114076868D01*
X169509043Y-114080445D01*
X169494482Y-114082605D01*
X169479779Y-114083327D01*
X169465076Y-114082605D01*
X169450515Y-114080445D01*
X169436236Y-114076868D01*
X169422376Y-114071909D01*
X169409069Y-114065615D01*
X169396443Y-114058047D01*
X169384620Y-114049279D01*
X169373713Y-114039393D01*
X169161581Y-113827261D01*
X169151695Y-113816354D01*
X169142927Y-113804531D01*
X169135359Y-113791905D01*
X169129065Y-113778598D01*
X169124106Y-113764738D01*
X169120529Y-113750459D01*
X169118369Y-113735898D01*
X169117647Y-113721195D01*
X169118369Y-113706492D01*
X169120529Y-113691931D01*
X169124106Y-113677652D01*
X169129065Y-113663792D01*
X169135359Y-113650485D01*
X169142927Y-113637859D01*
X169151695Y-113626036D01*
X169161581Y-113615129D01*
X170328307Y-112448403D01*
X170339214Y-112438517D01*
X170351037Y-112429749D01*
X170363663Y-112422181D01*
X170376970Y-112415887D01*
X170390830Y-112410928D01*
X170405109Y-112407351D01*
X170419670Y-112405191D01*
X170434373Y-112404469D01*
X170449076Y-112405191D01*
X170449076Y-112405191D01*
G37*
D21*
X169957076Y-113243898D03*
D13*
G36*
X169551051Y-111507165D02*
G01*
X169565612Y-111509325D01*
X169579891Y-111512902D01*
X169593751Y-111517861D01*
X169607058Y-111524155D01*
X169619684Y-111531723D01*
X169631507Y-111540491D01*
X169642414Y-111550377D01*
X169854546Y-111762509D01*
X169864432Y-111773416D01*
X169873200Y-111785239D01*
X169880768Y-111797865D01*
X169887062Y-111811172D01*
X169892021Y-111825032D01*
X169895598Y-111839311D01*
X169897758Y-111853872D01*
X169898480Y-111868575D01*
X169897758Y-111883278D01*
X169895598Y-111897839D01*
X169892021Y-111912118D01*
X169887062Y-111925978D01*
X169880768Y-111939285D01*
X169873200Y-111951911D01*
X169864432Y-111963734D01*
X169854546Y-111974641D01*
X168687820Y-113141367D01*
X168676913Y-113151253D01*
X168665090Y-113160021D01*
X168652464Y-113167589D01*
X168639157Y-113173883D01*
X168625297Y-113178842D01*
X168611018Y-113182419D01*
X168596457Y-113184579D01*
X168581754Y-113185301D01*
X168567051Y-113184579D01*
X168552490Y-113182419D01*
X168538211Y-113178842D01*
X168524351Y-113173883D01*
X168511044Y-113167589D01*
X168498418Y-113160021D01*
X168486595Y-113151253D01*
X168475688Y-113141367D01*
X168263556Y-112929235D01*
X168253670Y-112918328D01*
X168244902Y-112906505D01*
X168237334Y-112893879D01*
X168231040Y-112880572D01*
X168226081Y-112866712D01*
X168222504Y-112852433D01*
X168220344Y-112837872D01*
X168219622Y-112823169D01*
X168220344Y-112808466D01*
X168222504Y-112793905D01*
X168226081Y-112779626D01*
X168231040Y-112765766D01*
X168237334Y-112752459D01*
X168244902Y-112739833D01*
X168253670Y-112728010D01*
X168263556Y-112717103D01*
X169430282Y-111550377D01*
X169441189Y-111540491D01*
X169453012Y-111531723D01*
X169465638Y-111524155D01*
X169478945Y-111517861D01*
X169492805Y-111512902D01*
X169507084Y-111509325D01*
X169521645Y-111507165D01*
X169536348Y-111506443D01*
X169551051Y-111507165D01*
X169551051Y-111507165D01*
G37*
D21*
X169059051Y-112345872D03*
D13*
G36*
X168653025Y-110609140D02*
G01*
X168667586Y-110611300D01*
X168681865Y-110614877D01*
X168695725Y-110619836D01*
X168709032Y-110626130D01*
X168721658Y-110633698D01*
X168733481Y-110642466D01*
X168744388Y-110652352D01*
X168956520Y-110864484D01*
X168966406Y-110875391D01*
X168975174Y-110887214D01*
X168982742Y-110899840D01*
X168989036Y-110913147D01*
X168993995Y-110927007D01*
X168997572Y-110941286D01*
X168999732Y-110955847D01*
X169000454Y-110970550D01*
X168999732Y-110985253D01*
X168997572Y-110999814D01*
X168993995Y-111014093D01*
X168989036Y-111027953D01*
X168982742Y-111041260D01*
X168975174Y-111053886D01*
X168966406Y-111065709D01*
X168956520Y-111076616D01*
X167789794Y-112243342D01*
X167778887Y-112253228D01*
X167767064Y-112261996D01*
X167754438Y-112269564D01*
X167741131Y-112275858D01*
X167727271Y-112280817D01*
X167712992Y-112284394D01*
X167698431Y-112286554D01*
X167683728Y-112287276D01*
X167669025Y-112286554D01*
X167654464Y-112284394D01*
X167640185Y-112280817D01*
X167626325Y-112275858D01*
X167613018Y-112269564D01*
X167600392Y-112261996D01*
X167588569Y-112253228D01*
X167577662Y-112243342D01*
X167365530Y-112031210D01*
X167355644Y-112020303D01*
X167346876Y-112008480D01*
X167339308Y-111995854D01*
X167333014Y-111982547D01*
X167328055Y-111968687D01*
X167324478Y-111954408D01*
X167322318Y-111939847D01*
X167321596Y-111925144D01*
X167322318Y-111910441D01*
X167324478Y-111895880D01*
X167328055Y-111881601D01*
X167333014Y-111867741D01*
X167339308Y-111854434D01*
X167346876Y-111841808D01*
X167355644Y-111829985D01*
X167365530Y-111819078D01*
X168532256Y-110652352D01*
X168543163Y-110642466D01*
X168554986Y-110633698D01*
X168567612Y-110626130D01*
X168580919Y-110619836D01*
X168594779Y-110614877D01*
X168609058Y-110611300D01*
X168623619Y-110609140D01*
X168638322Y-110608418D01*
X168653025Y-110609140D01*
X168653025Y-110609140D01*
G37*
D21*
X168161025Y-111447847D03*
D13*
G36*
X167755000Y-109711114D02*
G01*
X167769561Y-109713274D01*
X167783840Y-109716851D01*
X167797700Y-109721810D01*
X167811007Y-109728104D01*
X167823633Y-109735672D01*
X167835456Y-109744440D01*
X167846363Y-109754326D01*
X168058495Y-109966458D01*
X168068381Y-109977365D01*
X168077149Y-109989188D01*
X168084717Y-110001814D01*
X168091011Y-110015121D01*
X168095970Y-110028981D01*
X168099547Y-110043260D01*
X168101707Y-110057821D01*
X168102429Y-110072524D01*
X168101707Y-110087227D01*
X168099547Y-110101788D01*
X168095970Y-110116067D01*
X168091011Y-110129927D01*
X168084717Y-110143234D01*
X168077149Y-110155860D01*
X168068381Y-110167683D01*
X168058495Y-110178590D01*
X166891769Y-111345316D01*
X166880862Y-111355202D01*
X166869039Y-111363970D01*
X166856413Y-111371538D01*
X166843106Y-111377832D01*
X166829246Y-111382791D01*
X166814967Y-111386368D01*
X166800406Y-111388528D01*
X166785703Y-111389250D01*
X166771000Y-111388528D01*
X166756439Y-111386368D01*
X166742160Y-111382791D01*
X166728300Y-111377832D01*
X166714993Y-111371538D01*
X166702367Y-111363970D01*
X166690544Y-111355202D01*
X166679637Y-111345316D01*
X166467505Y-111133184D01*
X166457619Y-111122277D01*
X166448851Y-111110454D01*
X166441283Y-111097828D01*
X166434989Y-111084521D01*
X166430030Y-111070661D01*
X166426453Y-111056382D01*
X166424293Y-111041821D01*
X166423571Y-111027118D01*
X166424293Y-111012415D01*
X166426453Y-110997854D01*
X166430030Y-110983575D01*
X166434989Y-110969715D01*
X166441283Y-110956408D01*
X166448851Y-110943782D01*
X166457619Y-110931959D01*
X166467505Y-110921052D01*
X167634231Y-109754326D01*
X167645138Y-109744440D01*
X167656961Y-109735672D01*
X167669587Y-109728104D01*
X167682894Y-109721810D01*
X167696754Y-109716851D01*
X167711033Y-109713274D01*
X167725594Y-109711114D01*
X167740297Y-109710392D01*
X167755000Y-109711114D01*
X167755000Y-109711114D01*
G37*
D21*
X167263000Y-110549821D03*
D13*
G36*
X164254821Y-113211293D02*
G01*
X164269382Y-113213453D01*
X164283661Y-113217030D01*
X164297521Y-113221989D01*
X164310828Y-113228283D01*
X164323454Y-113235851D01*
X164335277Y-113244619D01*
X164346184Y-113254505D01*
X164558316Y-113466637D01*
X164568202Y-113477544D01*
X164576970Y-113489367D01*
X164584538Y-113501993D01*
X164590832Y-113515300D01*
X164595791Y-113529160D01*
X164599368Y-113543439D01*
X164601528Y-113558000D01*
X164602250Y-113572703D01*
X164601528Y-113587406D01*
X164599368Y-113601967D01*
X164595791Y-113616246D01*
X164590832Y-113630106D01*
X164584538Y-113643413D01*
X164576970Y-113656039D01*
X164568202Y-113667862D01*
X164558316Y-113678769D01*
X163391590Y-114845495D01*
X163380683Y-114855381D01*
X163368860Y-114864149D01*
X163356234Y-114871717D01*
X163342927Y-114878011D01*
X163329067Y-114882970D01*
X163314788Y-114886547D01*
X163300227Y-114888707D01*
X163285524Y-114889429D01*
X163270821Y-114888707D01*
X163256260Y-114886547D01*
X163241981Y-114882970D01*
X163228121Y-114878011D01*
X163214814Y-114871717D01*
X163202188Y-114864149D01*
X163190365Y-114855381D01*
X163179458Y-114845495D01*
X162967326Y-114633363D01*
X162957440Y-114622456D01*
X162948672Y-114610633D01*
X162941104Y-114598007D01*
X162934810Y-114584700D01*
X162929851Y-114570840D01*
X162926274Y-114556561D01*
X162924114Y-114542000D01*
X162923392Y-114527297D01*
X162924114Y-114512594D01*
X162926274Y-114498033D01*
X162929851Y-114483754D01*
X162934810Y-114469894D01*
X162941104Y-114456587D01*
X162948672Y-114443961D01*
X162957440Y-114432138D01*
X162967326Y-114421231D01*
X164134052Y-113254505D01*
X164144959Y-113244619D01*
X164156782Y-113235851D01*
X164169408Y-113228283D01*
X164182715Y-113221989D01*
X164196575Y-113217030D01*
X164210854Y-113213453D01*
X164225415Y-113211293D01*
X164240118Y-113210571D01*
X164254821Y-113211293D01*
X164254821Y-113211293D01*
G37*
D21*
X163762821Y-114050000D03*
D13*
G36*
X165152847Y-114109318D02*
G01*
X165167408Y-114111478D01*
X165181687Y-114115055D01*
X165195547Y-114120014D01*
X165208854Y-114126308D01*
X165221480Y-114133876D01*
X165233303Y-114142644D01*
X165244210Y-114152530D01*
X165456342Y-114364662D01*
X165466228Y-114375569D01*
X165474996Y-114387392D01*
X165482564Y-114400018D01*
X165488858Y-114413325D01*
X165493817Y-114427185D01*
X165497394Y-114441464D01*
X165499554Y-114456025D01*
X165500276Y-114470728D01*
X165499554Y-114485431D01*
X165497394Y-114499992D01*
X165493817Y-114514271D01*
X165488858Y-114528131D01*
X165482564Y-114541438D01*
X165474996Y-114554064D01*
X165466228Y-114565887D01*
X165456342Y-114576794D01*
X164289616Y-115743520D01*
X164278709Y-115753406D01*
X164266886Y-115762174D01*
X164254260Y-115769742D01*
X164240953Y-115776036D01*
X164227093Y-115780995D01*
X164212814Y-115784572D01*
X164198253Y-115786732D01*
X164183550Y-115787454D01*
X164168847Y-115786732D01*
X164154286Y-115784572D01*
X164140007Y-115780995D01*
X164126147Y-115776036D01*
X164112840Y-115769742D01*
X164100214Y-115762174D01*
X164088391Y-115753406D01*
X164077484Y-115743520D01*
X163865352Y-115531388D01*
X163855466Y-115520481D01*
X163846698Y-115508658D01*
X163839130Y-115496032D01*
X163832836Y-115482725D01*
X163827877Y-115468865D01*
X163824300Y-115454586D01*
X163822140Y-115440025D01*
X163821418Y-115425322D01*
X163822140Y-115410619D01*
X163824300Y-115396058D01*
X163827877Y-115381779D01*
X163832836Y-115367919D01*
X163839130Y-115354612D01*
X163846698Y-115341986D01*
X163855466Y-115330163D01*
X163865352Y-115319256D01*
X165032078Y-114152530D01*
X165042985Y-114142644D01*
X165054808Y-114133876D01*
X165067434Y-114126308D01*
X165080741Y-114120014D01*
X165094601Y-114115055D01*
X165108880Y-114111478D01*
X165123441Y-114109318D01*
X165138144Y-114108596D01*
X165152847Y-114109318D01*
X165152847Y-114109318D01*
G37*
D21*
X164660847Y-114948025D03*
D13*
G36*
X166050872Y-115007344D02*
G01*
X166065433Y-115009504D01*
X166079712Y-115013081D01*
X166093572Y-115018040D01*
X166106879Y-115024334D01*
X166119505Y-115031902D01*
X166131328Y-115040670D01*
X166142235Y-115050556D01*
X166354367Y-115262688D01*
X166364253Y-115273595D01*
X166373021Y-115285418D01*
X166380589Y-115298044D01*
X166386883Y-115311351D01*
X166391842Y-115325211D01*
X166395419Y-115339490D01*
X166397579Y-115354051D01*
X166398301Y-115368754D01*
X166397579Y-115383457D01*
X166395419Y-115398018D01*
X166391842Y-115412297D01*
X166386883Y-115426157D01*
X166380589Y-115439464D01*
X166373021Y-115452090D01*
X166364253Y-115463913D01*
X166354367Y-115474820D01*
X165187641Y-116641546D01*
X165176734Y-116651432D01*
X165164911Y-116660200D01*
X165152285Y-116667768D01*
X165138978Y-116674062D01*
X165125118Y-116679021D01*
X165110839Y-116682598D01*
X165096278Y-116684758D01*
X165081575Y-116685480D01*
X165066872Y-116684758D01*
X165052311Y-116682598D01*
X165038032Y-116679021D01*
X165024172Y-116674062D01*
X165010865Y-116667768D01*
X164998239Y-116660200D01*
X164986416Y-116651432D01*
X164975509Y-116641546D01*
X164763377Y-116429414D01*
X164753491Y-116418507D01*
X164744723Y-116406684D01*
X164737155Y-116394058D01*
X164730861Y-116380751D01*
X164725902Y-116366891D01*
X164722325Y-116352612D01*
X164720165Y-116338051D01*
X164719443Y-116323348D01*
X164720165Y-116308645D01*
X164722325Y-116294084D01*
X164725902Y-116279805D01*
X164730861Y-116265945D01*
X164737155Y-116252638D01*
X164744723Y-116240012D01*
X164753491Y-116228189D01*
X164763377Y-116217282D01*
X165930103Y-115050556D01*
X165941010Y-115040670D01*
X165952833Y-115031902D01*
X165965459Y-115024334D01*
X165978766Y-115018040D01*
X165992626Y-115013081D01*
X166006905Y-115009504D01*
X166021466Y-115007344D01*
X166036169Y-115006622D01*
X166050872Y-115007344D01*
X166050872Y-115007344D01*
G37*
D21*
X165558872Y-115846051D03*
D13*
G36*
X166948898Y-115905369D02*
G01*
X166963459Y-115907529D01*
X166977738Y-115911106D01*
X166991598Y-115916065D01*
X167004905Y-115922359D01*
X167017531Y-115929927D01*
X167029354Y-115938695D01*
X167040261Y-115948581D01*
X167252393Y-116160713D01*
X167262279Y-116171620D01*
X167271047Y-116183443D01*
X167278615Y-116196069D01*
X167284909Y-116209376D01*
X167289868Y-116223236D01*
X167293445Y-116237515D01*
X167295605Y-116252076D01*
X167296327Y-116266779D01*
X167295605Y-116281482D01*
X167293445Y-116296043D01*
X167289868Y-116310322D01*
X167284909Y-116324182D01*
X167278615Y-116337489D01*
X167271047Y-116350115D01*
X167262279Y-116361938D01*
X167252393Y-116372845D01*
X166085667Y-117539571D01*
X166074760Y-117549457D01*
X166062937Y-117558225D01*
X166050311Y-117565793D01*
X166037004Y-117572087D01*
X166023144Y-117577046D01*
X166008865Y-117580623D01*
X165994304Y-117582783D01*
X165979601Y-117583505D01*
X165964898Y-117582783D01*
X165950337Y-117580623D01*
X165936058Y-117577046D01*
X165922198Y-117572087D01*
X165908891Y-117565793D01*
X165896265Y-117558225D01*
X165884442Y-117549457D01*
X165873535Y-117539571D01*
X165661403Y-117327439D01*
X165651517Y-117316532D01*
X165642749Y-117304709D01*
X165635181Y-117292083D01*
X165628887Y-117278776D01*
X165623928Y-117264916D01*
X165620351Y-117250637D01*
X165618191Y-117236076D01*
X165617469Y-117221373D01*
X165618191Y-117206670D01*
X165620351Y-117192109D01*
X165623928Y-117177830D01*
X165628887Y-117163970D01*
X165635181Y-117150663D01*
X165642749Y-117138037D01*
X165651517Y-117126214D01*
X165661403Y-117115307D01*
X166828129Y-115948581D01*
X166839036Y-115938695D01*
X166850859Y-115929927D01*
X166863485Y-115922359D01*
X166876792Y-115916065D01*
X166890652Y-115911106D01*
X166904931Y-115907529D01*
X166919492Y-115905369D01*
X166934195Y-115904647D01*
X166948898Y-115905369D01*
X166948898Y-115905369D01*
G37*
D21*
X166456898Y-116744076D03*
D13*
G36*
X167846924Y-116803395D02*
G01*
X167861485Y-116805555D01*
X167875764Y-116809132D01*
X167889624Y-116814091D01*
X167902931Y-116820385D01*
X167915557Y-116827953D01*
X167927380Y-116836721D01*
X167938287Y-116846607D01*
X168150419Y-117058739D01*
X168160305Y-117069646D01*
X168169073Y-117081469D01*
X168176641Y-117094095D01*
X168182935Y-117107402D01*
X168187894Y-117121262D01*
X168191471Y-117135541D01*
X168193631Y-117150102D01*
X168194353Y-117164805D01*
X168193631Y-117179508D01*
X168191471Y-117194069D01*
X168187894Y-117208348D01*
X168182935Y-117222208D01*
X168176641Y-117235515D01*
X168169073Y-117248141D01*
X168160305Y-117259964D01*
X168150419Y-117270871D01*
X166983693Y-118437597D01*
X166972786Y-118447483D01*
X166960963Y-118456251D01*
X166948337Y-118463819D01*
X166935030Y-118470113D01*
X166921170Y-118475072D01*
X166906891Y-118478649D01*
X166892330Y-118480809D01*
X166877627Y-118481531D01*
X166862924Y-118480809D01*
X166848363Y-118478649D01*
X166834084Y-118475072D01*
X166820224Y-118470113D01*
X166806917Y-118463819D01*
X166794291Y-118456251D01*
X166782468Y-118447483D01*
X166771561Y-118437597D01*
X166559429Y-118225465D01*
X166549543Y-118214558D01*
X166540775Y-118202735D01*
X166533207Y-118190109D01*
X166526913Y-118176802D01*
X166521954Y-118162942D01*
X166518377Y-118148663D01*
X166516217Y-118134102D01*
X166515495Y-118119399D01*
X166516217Y-118104696D01*
X166518377Y-118090135D01*
X166521954Y-118075856D01*
X166526913Y-118061996D01*
X166533207Y-118048689D01*
X166540775Y-118036063D01*
X166549543Y-118024240D01*
X166559429Y-118013333D01*
X167726155Y-116846607D01*
X167737062Y-116836721D01*
X167748885Y-116827953D01*
X167761511Y-116820385D01*
X167774818Y-116814091D01*
X167788678Y-116809132D01*
X167802957Y-116805555D01*
X167817518Y-116803395D01*
X167832221Y-116802673D01*
X167846924Y-116803395D01*
X167846924Y-116803395D01*
G37*
D21*
X167354924Y-117642102D03*
D13*
G36*
X168744949Y-117701421D02*
G01*
X168759510Y-117703581D01*
X168773789Y-117707158D01*
X168787649Y-117712117D01*
X168800956Y-117718411D01*
X168813582Y-117725979D01*
X168825405Y-117734747D01*
X168836312Y-117744633D01*
X169048444Y-117956765D01*
X169058330Y-117967672D01*
X169067098Y-117979495D01*
X169074666Y-117992121D01*
X169080960Y-118005428D01*
X169085919Y-118019288D01*
X169089496Y-118033567D01*
X169091656Y-118048128D01*
X169092378Y-118062831D01*
X169091656Y-118077534D01*
X169089496Y-118092095D01*
X169085919Y-118106374D01*
X169080960Y-118120234D01*
X169074666Y-118133541D01*
X169067098Y-118146167D01*
X169058330Y-118157990D01*
X169048444Y-118168897D01*
X167881718Y-119335623D01*
X167870811Y-119345509D01*
X167858988Y-119354277D01*
X167846362Y-119361845D01*
X167833055Y-119368139D01*
X167819195Y-119373098D01*
X167804916Y-119376675D01*
X167790355Y-119378835D01*
X167775652Y-119379557D01*
X167760949Y-119378835D01*
X167746388Y-119376675D01*
X167732109Y-119373098D01*
X167718249Y-119368139D01*
X167704942Y-119361845D01*
X167692316Y-119354277D01*
X167680493Y-119345509D01*
X167669586Y-119335623D01*
X167457454Y-119123491D01*
X167447568Y-119112584D01*
X167438800Y-119100761D01*
X167431232Y-119088135D01*
X167424938Y-119074828D01*
X167419979Y-119060968D01*
X167416402Y-119046689D01*
X167414242Y-119032128D01*
X167413520Y-119017425D01*
X167414242Y-119002722D01*
X167416402Y-118988161D01*
X167419979Y-118973882D01*
X167424938Y-118960022D01*
X167431232Y-118946715D01*
X167438800Y-118934089D01*
X167447568Y-118922266D01*
X167457454Y-118911359D01*
X168624180Y-117744633D01*
X168635087Y-117734747D01*
X168646910Y-117725979D01*
X168659536Y-117718411D01*
X168672843Y-117712117D01*
X168686703Y-117707158D01*
X168700982Y-117703581D01*
X168715543Y-117701421D01*
X168730246Y-117700699D01*
X168744949Y-117701421D01*
X168744949Y-117701421D01*
G37*
D21*
X168252949Y-118540128D03*
D13*
G36*
X169642975Y-118599446D02*
G01*
X169657536Y-118601606D01*
X169671815Y-118605183D01*
X169685675Y-118610142D01*
X169698982Y-118616436D01*
X169711608Y-118624004D01*
X169723431Y-118632772D01*
X169734338Y-118642658D01*
X169946470Y-118854790D01*
X169956356Y-118865697D01*
X169965124Y-118877520D01*
X169972692Y-118890146D01*
X169978986Y-118903453D01*
X169983945Y-118917313D01*
X169987522Y-118931592D01*
X169989682Y-118946153D01*
X169990404Y-118960856D01*
X169989682Y-118975559D01*
X169987522Y-118990120D01*
X169983945Y-119004399D01*
X169978986Y-119018259D01*
X169972692Y-119031566D01*
X169965124Y-119044192D01*
X169956356Y-119056015D01*
X169946470Y-119066922D01*
X168779744Y-120233648D01*
X168768837Y-120243534D01*
X168757014Y-120252302D01*
X168744388Y-120259870D01*
X168731081Y-120266164D01*
X168717221Y-120271123D01*
X168702942Y-120274700D01*
X168688381Y-120276860D01*
X168673678Y-120277582D01*
X168658975Y-120276860D01*
X168644414Y-120274700D01*
X168630135Y-120271123D01*
X168616275Y-120266164D01*
X168602968Y-120259870D01*
X168590342Y-120252302D01*
X168578519Y-120243534D01*
X168567612Y-120233648D01*
X168355480Y-120021516D01*
X168345594Y-120010609D01*
X168336826Y-119998786D01*
X168329258Y-119986160D01*
X168322964Y-119972853D01*
X168318005Y-119958993D01*
X168314428Y-119944714D01*
X168312268Y-119930153D01*
X168311546Y-119915450D01*
X168312268Y-119900747D01*
X168314428Y-119886186D01*
X168318005Y-119871907D01*
X168322964Y-119858047D01*
X168329258Y-119844740D01*
X168336826Y-119832114D01*
X168345594Y-119820291D01*
X168355480Y-119809384D01*
X169522206Y-118642658D01*
X169533113Y-118632772D01*
X169544936Y-118624004D01*
X169557562Y-118616436D01*
X169570869Y-118610142D01*
X169584729Y-118605183D01*
X169599008Y-118601606D01*
X169613569Y-118599446D01*
X169628272Y-118598724D01*
X169642975Y-118599446D01*
X169642975Y-118599446D01*
G37*
D21*
X169150975Y-119438153D03*
D13*
G36*
X170541000Y-119497472D02*
G01*
X170555561Y-119499632D01*
X170569840Y-119503209D01*
X170583700Y-119508168D01*
X170597007Y-119514462D01*
X170609633Y-119522030D01*
X170621456Y-119530798D01*
X170632363Y-119540684D01*
X170844495Y-119752816D01*
X170854381Y-119763723D01*
X170863149Y-119775546D01*
X170870717Y-119788172D01*
X170877011Y-119801479D01*
X170881970Y-119815339D01*
X170885547Y-119829618D01*
X170887707Y-119844179D01*
X170888429Y-119858882D01*
X170887707Y-119873585D01*
X170885547Y-119888146D01*
X170881970Y-119902425D01*
X170877011Y-119916285D01*
X170870717Y-119929592D01*
X170863149Y-119942218D01*
X170854381Y-119954041D01*
X170844495Y-119964948D01*
X169677769Y-121131674D01*
X169666862Y-121141560D01*
X169655039Y-121150328D01*
X169642413Y-121157896D01*
X169629106Y-121164190D01*
X169615246Y-121169149D01*
X169600967Y-121172726D01*
X169586406Y-121174886D01*
X169571703Y-121175608D01*
X169557000Y-121174886D01*
X169542439Y-121172726D01*
X169528160Y-121169149D01*
X169514300Y-121164190D01*
X169500993Y-121157896D01*
X169488367Y-121150328D01*
X169476544Y-121141560D01*
X169465637Y-121131674D01*
X169253505Y-120919542D01*
X169243619Y-120908635D01*
X169234851Y-120896812D01*
X169227283Y-120884186D01*
X169220989Y-120870879D01*
X169216030Y-120857019D01*
X169212453Y-120842740D01*
X169210293Y-120828179D01*
X169209571Y-120813476D01*
X169210293Y-120798773D01*
X169212453Y-120784212D01*
X169216030Y-120769933D01*
X169220989Y-120756073D01*
X169227283Y-120742766D01*
X169234851Y-120730140D01*
X169243619Y-120718317D01*
X169253505Y-120707410D01*
X170420231Y-119540684D01*
X170431138Y-119530798D01*
X170442961Y-119522030D01*
X170455587Y-119514462D01*
X170468894Y-119508168D01*
X170482754Y-119503209D01*
X170497033Y-119499632D01*
X170511594Y-119497472D01*
X170526297Y-119496750D01*
X170541000Y-119497472D01*
X170541000Y-119497472D01*
G37*
D21*
X170049000Y-120336179D03*
D13*
G36*
X201691703Y-102062722D02*
G01*
X201706264Y-102064882D01*
X201720543Y-102068459D01*
X201734403Y-102073418D01*
X201747710Y-102079712D01*
X201760336Y-102087280D01*
X201772159Y-102096048D01*
X201783066Y-102105934D01*
X201792952Y-102116841D01*
X201801720Y-102128664D01*
X201809288Y-102141290D01*
X201815582Y-102154597D01*
X201820541Y-102168457D01*
X201824118Y-102182736D01*
X201826278Y-102197297D01*
X201827000Y-102212000D01*
X201827000Y-102512000D01*
X201826278Y-102526703D01*
X201824118Y-102541264D01*
X201820541Y-102555543D01*
X201815582Y-102569403D01*
X201809288Y-102582710D01*
X201801720Y-102595336D01*
X201792952Y-102607159D01*
X201783066Y-102618066D01*
X201772159Y-102627952D01*
X201760336Y-102636720D01*
X201747710Y-102644288D01*
X201734403Y-102650582D01*
X201720543Y-102655541D01*
X201706264Y-102659118D01*
X201691703Y-102661278D01*
X201677000Y-102662000D01*
X200027000Y-102662000D01*
X200012297Y-102661278D01*
X199997736Y-102659118D01*
X199983457Y-102655541D01*
X199969597Y-102650582D01*
X199956290Y-102644288D01*
X199943664Y-102636720D01*
X199931841Y-102627952D01*
X199920934Y-102618066D01*
X199911048Y-102607159D01*
X199902280Y-102595336D01*
X199894712Y-102582710D01*
X199888418Y-102569403D01*
X199883459Y-102555543D01*
X199879882Y-102541264D01*
X199877722Y-102526703D01*
X199877000Y-102512000D01*
X199877000Y-102212000D01*
X199877722Y-102197297D01*
X199879882Y-102182736D01*
X199883459Y-102168457D01*
X199888418Y-102154597D01*
X199894712Y-102141290D01*
X199902280Y-102128664D01*
X199911048Y-102116841D01*
X199920934Y-102105934D01*
X199931841Y-102096048D01*
X199943664Y-102087280D01*
X199956290Y-102079712D01*
X199969597Y-102073418D01*
X199983457Y-102068459D01*
X199997736Y-102064882D01*
X200012297Y-102062722D01*
X200027000Y-102062000D01*
X201677000Y-102062000D01*
X201691703Y-102062722D01*
X201691703Y-102062722D01*
G37*
D21*
X200852000Y-102362000D03*
D13*
G36*
X201691703Y-100792722D02*
G01*
X201706264Y-100794882D01*
X201720543Y-100798459D01*
X201734403Y-100803418D01*
X201747710Y-100809712D01*
X201760336Y-100817280D01*
X201772159Y-100826048D01*
X201783066Y-100835934D01*
X201792952Y-100846841D01*
X201801720Y-100858664D01*
X201809288Y-100871290D01*
X201815582Y-100884597D01*
X201820541Y-100898457D01*
X201824118Y-100912736D01*
X201826278Y-100927297D01*
X201827000Y-100942000D01*
X201827000Y-101242000D01*
X201826278Y-101256703D01*
X201824118Y-101271264D01*
X201820541Y-101285543D01*
X201815582Y-101299403D01*
X201809288Y-101312710D01*
X201801720Y-101325336D01*
X201792952Y-101337159D01*
X201783066Y-101348066D01*
X201772159Y-101357952D01*
X201760336Y-101366720D01*
X201747710Y-101374288D01*
X201734403Y-101380582D01*
X201720543Y-101385541D01*
X201706264Y-101389118D01*
X201691703Y-101391278D01*
X201677000Y-101392000D01*
X200027000Y-101392000D01*
X200012297Y-101391278D01*
X199997736Y-101389118D01*
X199983457Y-101385541D01*
X199969597Y-101380582D01*
X199956290Y-101374288D01*
X199943664Y-101366720D01*
X199931841Y-101357952D01*
X199920934Y-101348066D01*
X199911048Y-101337159D01*
X199902280Y-101325336D01*
X199894712Y-101312710D01*
X199888418Y-101299403D01*
X199883459Y-101285543D01*
X199879882Y-101271264D01*
X199877722Y-101256703D01*
X199877000Y-101242000D01*
X199877000Y-100942000D01*
X199877722Y-100927297D01*
X199879882Y-100912736D01*
X199883459Y-100898457D01*
X199888418Y-100884597D01*
X199894712Y-100871290D01*
X199902280Y-100858664D01*
X199911048Y-100846841D01*
X199920934Y-100835934D01*
X199931841Y-100826048D01*
X199943664Y-100817280D01*
X199956290Y-100809712D01*
X199969597Y-100803418D01*
X199983457Y-100798459D01*
X199997736Y-100794882D01*
X200012297Y-100792722D01*
X200027000Y-100792000D01*
X201677000Y-100792000D01*
X201691703Y-100792722D01*
X201691703Y-100792722D01*
G37*
D21*
X200852000Y-101092000D03*
D13*
G36*
X201691703Y-99522722D02*
G01*
X201706264Y-99524882D01*
X201720543Y-99528459D01*
X201734403Y-99533418D01*
X201747710Y-99539712D01*
X201760336Y-99547280D01*
X201772159Y-99556048D01*
X201783066Y-99565934D01*
X201792952Y-99576841D01*
X201801720Y-99588664D01*
X201809288Y-99601290D01*
X201815582Y-99614597D01*
X201820541Y-99628457D01*
X201824118Y-99642736D01*
X201826278Y-99657297D01*
X201827000Y-99672000D01*
X201827000Y-99972000D01*
X201826278Y-99986703D01*
X201824118Y-100001264D01*
X201820541Y-100015543D01*
X201815582Y-100029403D01*
X201809288Y-100042710D01*
X201801720Y-100055336D01*
X201792952Y-100067159D01*
X201783066Y-100078066D01*
X201772159Y-100087952D01*
X201760336Y-100096720D01*
X201747710Y-100104288D01*
X201734403Y-100110582D01*
X201720543Y-100115541D01*
X201706264Y-100119118D01*
X201691703Y-100121278D01*
X201677000Y-100122000D01*
X200027000Y-100122000D01*
X200012297Y-100121278D01*
X199997736Y-100119118D01*
X199983457Y-100115541D01*
X199969597Y-100110582D01*
X199956290Y-100104288D01*
X199943664Y-100096720D01*
X199931841Y-100087952D01*
X199920934Y-100078066D01*
X199911048Y-100067159D01*
X199902280Y-100055336D01*
X199894712Y-100042710D01*
X199888418Y-100029403D01*
X199883459Y-100015543D01*
X199879882Y-100001264D01*
X199877722Y-99986703D01*
X199877000Y-99972000D01*
X199877000Y-99672000D01*
X199877722Y-99657297D01*
X199879882Y-99642736D01*
X199883459Y-99628457D01*
X199888418Y-99614597D01*
X199894712Y-99601290D01*
X199902280Y-99588664D01*
X199911048Y-99576841D01*
X199920934Y-99565934D01*
X199931841Y-99556048D01*
X199943664Y-99547280D01*
X199956290Y-99539712D01*
X199969597Y-99533418D01*
X199983457Y-99528459D01*
X199997736Y-99524882D01*
X200012297Y-99522722D01*
X200027000Y-99522000D01*
X201677000Y-99522000D01*
X201691703Y-99522722D01*
X201691703Y-99522722D01*
G37*
D21*
X200852000Y-99822000D03*
D13*
G36*
X201691703Y-98252722D02*
G01*
X201706264Y-98254882D01*
X201720543Y-98258459D01*
X201734403Y-98263418D01*
X201747710Y-98269712D01*
X201760336Y-98277280D01*
X201772159Y-98286048D01*
X201783066Y-98295934D01*
X201792952Y-98306841D01*
X201801720Y-98318664D01*
X201809288Y-98331290D01*
X201815582Y-98344597D01*
X201820541Y-98358457D01*
X201824118Y-98372736D01*
X201826278Y-98387297D01*
X201827000Y-98402000D01*
X201827000Y-98702000D01*
X201826278Y-98716703D01*
X201824118Y-98731264D01*
X201820541Y-98745543D01*
X201815582Y-98759403D01*
X201809288Y-98772710D01*
X201801720Y-98785336D01*
X201792952Y-98797159D01*
X201783066Y-98808066D01*
X201772159Y-98817952D01*
X201760336Y-98826720D01*
X201747710Y-98834288D01*
X201734403Y-98840582D01*
X201720543Y-98845541D01*
X201706264Y-98849118D01*
X201691703Y-98851278D01*
X201677000Y-98852000D01*
X200027000Y-98852000D01*
X200012297Y-98851278D01*
X199997736Y-98849118D01*
X199983457Y-98845541D01*
X199969597Y-98840582D01*
X199956290Y-98834288D01*
X199943664Y-98826720D01*
X199931841Y-98817952D01*
X199920934Y-98808066D01*
X199911048Y-98797159D01*
X199902280Y-98785336D01*
X199894712Y-98772710D01*
X199888418Y-98759403D01*
X199883459Y-98745543D01*
X199879882Y-98731264D01*
X199877722Y-98716703D01*
X199877000Y-98702000D01*
X199877000Y-98402000D01*
X199877722Y-98387297D01*
X199879882Y-98372736D01*
X199883459Y-98358457D01*
X199888418Y-98344597D01*
X199894712Y-98331290D01*
X199902280Y-98318664D01*
X199911048Y-98306841D01*
X199920934Y-98295934D01*
X199931841Y-98286048D01*
X199943664Y-98277280D01*
X199956290Y-98269712D01*
X199969597Y-98263418D01*
X199983457Y-98258459D01*
X199997736Y-98254882D01*
X200012297Y-98252722D01*
X200027000Y-98252000D01*
X201677000Y-98252000D01*
X201691703Y-98252722D01*
X201691703Y-98252722D01*
G37*
D21*
X200852000Y-98552000D03*
D13*
G36*
X201691703Y-96982722D02*
G01*
X201706264Y-96984882D01*
X201720543Y-96988459D01*
X201734403Y-96993418D01*
X201747710Y-96999712D01*
X201760336Y-97007280D01*
X201772159Y-97016048D01*
X201783066Y-97025934D01*
X201792952Y-97036841D01*
X201801720Y-97048664D01*
X201809288Y-97061290D01*
X201815582Y-97074597D01*
X201820541Y-97088457D01*
X201824118Y-97102736D01*
X201826278Y-97117297D01*
X201827000Y-97132000D01*
X201827000Y-97432000D01*
X201826278Y-97446703D01*
X201824118Y-97461264D01*
X201820541Y-97475543D01*
X201815582Y-97489403D01*
X201809288Y-97502710D01*
X201801720Y-97515336D01*
X201792952Y-97527159D01*
X201783066Y-97538066D01*
X201772159Y-97547952D01*
X201760336Y-97556720D01*
X201747710Y-97564288D01*
X201734403Y-97570582D01*
X201720543Y-97575541D01*
X201706264Y-97579118D01*
X201691703Y-97581278D01*
X201677000Y-97582000D01*
X200027000Y-97582000D01*
X200012297Y-97581278D01*
X199997736Y-97579118D01*
X199983457Y-97575541D01*
X199969597Y-97570582D01*
X199956290Y-97564288D01*
X199943664Y-97556720D01*
X199931841Y-97547952D01*
X199920934Y-97538066D01*
X199911048Y-97527159D01*
X199902280Y-97515336D01*
X199894712Y-97502710D01*
X199888418Y-97489403D01*
X199883459Y-97475543D01*
X199879882Y-97461264D01*
X199877722Y-97446703D01*
X199877000Y-97432000D01*
X199877000Y-97132000D01*
X199877722Y-97117297D01*
X199879882Y-97102736D01*
X199883459Y-97088457D01*
X199888418Y-97074597D01*
X199894712Y-97061290D01*
X199902280Y-97048664D01*
X199911048Y-97036841D01*
X199920934Y-97025934D01*
X199931841Y-97016048D01*
X199943664Y-97007280D01*
X199956290Y-96999712D01*
X199969597Y-96993418D01*
X199983457Y-96988459D01*
X199997736Y-96984882D01*
X200012297Y-96982722D01*
X200027000Y-96982000D01*
X201677000Y-96982000D01*
X201691703Y-96982722D01*
X201691703Y-96982722D01*
G37*
D21*
X200852000Y-97282000D03*
D13*
G36*
X201691703Y-95712722D02*
G01*
X201706264Y-95714882D01*
X201720543Y-95718459D01*
X201734403Y-95723418D01*
X201747710Y-95729712D01*
X201760336Y-95737280D01*
X201772159Y-95746048D01*
X201783066Y-95755934D01*
X201792952Y-95766841D01*
X201801720Y-95778664D01*
X201809288Y-95791290D01*
X201815582Y-95804597D01*
X201820541Y-95818457D01*
X201824118Y-95832736D01*
X201826278Y-95847297D01*
X201827000Y-95862000D01*
X201827000Y-96162000D01*
X201826278Y-96176703D01*
X201824118Y-96191264D01*
X201820541Y-96205543D01*
X201815582Y-96219403D01*
X201809288Y-96232710D01*
X201801720Y-96245336D01*
X201792952Y-96257159D01*
X201783066Y-96268066D01*
X201772159Y-96277952D01*
X201760336Y-96286720D01*
X201747710Y-96294288D01*
X201734403Y-96300582D01*
X201720543Y-96305541D01*
X201706264Y-96309118D01*
X201691703Y-96311278D01*
X201677000Y-96312000D01*
X200027000Y-96312000D01*
X200012297Y-96311278D01*
X199997736Y-96309118D01*
X199983457Y-96305541D01*
X199969597Y-96300582D01*
X199956290Y-96294288D01*
X199943664Y-96286720D01*
X199931841Y-96277952D01*
X199920934Y-96268066D01*
X199911048Y-96257159D01*
X199902280Y-96245336D01*
X199894712Y-96232710D01*
X199888418Y-96219403D01*
X199883459Y-96205543D01*
X199879882Y-96191264D01*
X199877722Y-96176703D01*
X199877000Y-96162000D01*
X199877000Y-95862000D01*
X199877722Y-95847297D01*
X199879882Y-95832736D01*
X199883459Y-95818457D01*
X199888418Y-95804597D01*
X199894712Y-95791290D01*
X199902280Y-95778664D01*
X199911048Y-95766841D01*
X199920934Y-95755934D01*
X199931841Y-95746048D01*
X199943664Y-95737280D01*
X199956290Y-95729712D01*
X199969597Y-95723418D01*
X199983457Y-95718459D01*
X199997736Y-95714882D01*
X200012297Y-95712722D01*
X200027000Y-95712000D01*
X201677000Y-95712000D01*
X201691703Y-95712722D01*
X201691703Y-95712722D01*
G37*
D21*
X200852000Y-96012000D03*
D13*
G36*
X201691703Y-94442722D02*
G01*
X201706264Y-94444882D01*
X201720543Y-94448459D01*
X201734403Y-94453418D01*
X201747710Y-94459712D01*
X201760336Y-94467280D01*
X201772159Y-94476048D01*
X201783066Y-94485934D01*
X201792952Y-94496841D01*
X201801720Y-94508664D01*
X201809288Y-94521290D01*
X201815582Y-94534597D01*
X201820541Y-94548457D01*
X201824118Y-94562736D01*
X201826278Y-94577297D01*
X201827000Y-94592000D01*
X201827000Y-94892000D01*
X201826278Y-94906703D01*
X201824118Y-94921264D01*
X201820541Y-94935543D01*
X201815582Y-94949403D01*
X201809288Y-94962710D01*
X201801720Y-94975336D01*
X201792952Y-94987159D01*
X201783066Y-94998066D01*
X201772159Y-95007952D01*
X201760336Y-95016720D01*
X201747710Y-95024288D01*
X201734403Y-95030582D01*
X201720543Y-95035541D01*
X201706264Y-95039118D01*
X201691703Y-95041278D01*
X201677000Y-95042000D01*
X200027000Y-95042000D01*
X200012297Y-95041278D01*
X199997736Y-95039118D01*
X199983457Y-95035541D01*
X199969597Y-95030582D01*
X199956290Y-95024288D01*
X199943664Y-95016720D01*
X199931841Y-95007952D01*
X199920934Y-94998066D01*
X199911048Y-94987159D01*
X199902280Y-94975336D01*
X199894712Y-94962710D01*
X199888418Y-94949403D01*
X199883459Y-94935543D01*
X199879882Y-94921264D01*
X199877722Y-94906703D01*
X199877000Y-94892000D01*
X199877000Y-94592000D01*
X199877722Y-94577297D01*
X199879882Y-94562736D01*
X199883459Y-94548457D01*
X199888418Y-94534597D01*
X199894712Y-94521290D01*
X199902280Y-94508664D01*
X199911048Y-94496841D01*
X199920934Y-94485934D01*
X199931841Y-94476048D01*
X199943664Y-94467280D01*
X199956290Y-94459712D01*
X199969597Y-94453418D01*
X199983457Y-94448459D01*
X199997736Y-94444882D01*
X200012297Y-94442722D01*
X200027000Y-94442000D01*
X201677000Y-94442000D01*
X201691703Y-94442722D01*
X201691703Y-94442722D01*
G37*
D21*
X200852000Y-94742000D03*
D13*
G36*
X201691703Y-93172722D02*
G01*
X201706264Y-93174882D01*
X201720543Y-93178459D01*
X201734403Y-93183418D01*
X201747710Y-93189712D01*
X201760336Y-93197280D01*
X201772159Y-93206048D01*
X201783066Y-93215934D01*
X201792952Y-93226841D01*
X201801720Y-93238664D01*
X201809288Y-93251290D01*
X201815582Y-93264597D01*
X201820541Y-93278457D01*
X201824118Y-93292736D01*
X201826278Y-93307297D01*
X201827000Y-93322000D01*
X201827000Y-93622000D01*
X201826278Y-93636703D01*
X201824118Y-93651264D01*
X201820541Y-93665543D01*
X201815582Y-93679403D01*
X201809288Y-93692710D01*
X201801720Y-93705336D01*
X201792952Y-93717159D01*
X201783066Y-93728066D01*
X201772159Y-93737952D01*
X201760336Y-93746720D01*
X201747710Y-93754288D01*
X201734403Y-93760582D01*
X201720543Y-93765541D01*
X201706264Y-93769118D01*
X201691703Y-93771278D01*
X201677000Y-93772000D01*
X200027000Y-93772000D01*
X200012297Y-93771278D01*
X199997736Y-93769118D01*
X199983457Y-93765541D01*
X199969597Y-93760582D01*
X199956290Y-93754288D01*
X199943664Y-93746720D01*
X199931841Y-93737952D01*
X199920934Y-93728066D01*
X199911048Y-93717159D01*
X199902280Y-93705336D01*
X199894712Y-93692710D01*
X199888418Y-93679403D01*
X199883459Y-93665543D01*
X199879882Y-93651264D01*
X199877722Y-93636703D01*
X199877000Y-93622000D01*
X199877000Y-93322000D01*
X199877722Y-93307297D01*
X199879882Y-93292736D01*
X199883459Y-93278457D01*
X199888418Y-93264597D01*
X199894712Y-93251290D01*
X199902280Y-93238664D01*
X199911048Y-93226841D01*
X199920934Y-93215934D01*
X199931841Y-93206048D01*
X199943664Y-93197280D01*
X199956290Y-93189712D01*
X199969597Y-93183418D01*
X199983457Y-93178459D01*
X199997736Y-93174882D01*
X200012297Y-93172722D01*
X200027000Y-93172000D01*
X201677000Y-93172000D01*
X201691703Y-93172722D01*
X201691703Y-93172722D01*
G37*
D21*
X200852000Y-93472000D03*
D13*
G36*
X206641703Y-93172722D02*
G01*
X206656264Y-93174882D01*
X206670543Y-93178459D01*
X206684403Y-93183418D01*
X206697710Y-93189712D01*
X206710336Y-93197280D01*
X206722159Y-93206048D01*
X206733066Y-93215934D01*
X206742952Y-93226841D01*
X206751720Y-93238664D01*
X206759288Y-93251290D01*
X206765582Y-93264597D01*
X206770541Y-93278457D01*
X206774118Y-93292736D01*
X206776278Y-93307297D01*
X206777000Y-93322000D01*
X206777000Y-93622000D01*
X206776278Y-93636703D01*
X206774118Y-93651264D01*
X206770541Y-93665543D01*
X206765582Y-93679403D01*
X206759288Y-93692710D01*
X206751720Y-93705336D01*
X206742952Y-93717159D01*
X206733066Y-93728066D01*
X206722159Y-93737952D01*
X206710336Y-93746720D01*
X206697710Y-93754288D01*
X206684403Y-93760582D01*
X206670543Y-93765541D01*
X206656264Y-93769118D01*
X206641703Y-93771278D01*
X206627000Y-93772000D01*
X204977000Y-93772000D01*
X204962297Y-93771278D01*
X204947736Y-93769118D01*
X204933457Y-93765541D01*
X204919597Y-93760582D01*
X204906290Y-93754288D01*
X204893664Y-93746720D01*
X204881841Y-93737952D01*
X204870934Y-93728066D01*
X204861048Y-93717159D01*
X204852280Y-93705336D01*
X204844712Y-93692710D01*
X204838418Y-93679403D01*
X204833459Y-93665543D01*
X204829882Y-93651264D01*
X204827722Y-93636703D01*
X204827000Y-93622000D01*
X204827000Y-93322000D01*
X204827722Y-93307297D01*
X204829882Y-93292736D01*
X204833459Y-93278457D01*
X204838418Y-93264597D01*
X204844712Y-93251290D01*
X204852280Y-93238664D01*
X204861048Y-93226841D01*
X204870934Y-93215934D01*
X204881841Y-93206048D01*
X204893664Y-93197280D01*
X204906290Y-93189712D01*
X204919597Y-93183418D01*
X204933457Y-93178459D01*
X204947736Y-93174882D01*
X204962297Y-93172722D01*
X204977000Y-93172000D01*
X206627000Y-93172000D01*
X206641703Y-93172722D01*
X206641703Y-93172722D01*
G37*
D21*
X205802000Y-93472000D03*
D13*
G36*
X206641703Y-94442722D02*
G01*
X206656264Y-94444882D01*
X206670543Y-94448459D01*
X206684403Y-94453418D01*
X206697710Y-94459712D01*
X206710336Y-94467280D01*
X206722159Y-94476048D01*
X206733066Y-94485934D01*
X206742952Y-94496841D01*
X206751720Y-94508664D01*
X206759288Y-94521290D01*
X206765582Y-94534597D01*
X206770541Y-94548457D01*
X206774118Y-94562736D01*
X206776278Y-94577297D01*
X206777000Y-94592000D01*
X206777000Y-94892000D01*
X206776278Y-94906703D01*
X206774118Y-94921264D01*
X206770541Y-94935543D01*
X206765582Y-94949403D01*
X206759288Y-94962710D01*
X206751720Y-94975336D01*
X206742952Y-94987159D01*
X206733066Y-94998066D01*
X206722159Y-95007952D01*
X206710336Y-95016720D01*
X206697710Y-95024288D01*
X206684403Y-95030582D01*
X206670543Y-95035541D01*
X206656264Y-95039118D01*
X206641703Y-95041278D01*
X206627000Y-95042000D01*
X204977000Y-95042000D01*
X204962297Y-95041278D01*
X204947736Y-95039118D01*
X204933457Y-95035541D01*
X204919597Y-95030582D01*
X204906290Y-95024288D01*
X204893664Y-95016720D01*
X204881841Y-95007952D01*
X204870934Y-94998066D01*
X204861048Y-94987159D01*
X204852280Y-94975336D01*
X204844712Y-94962710D01*
X204838418Y-94949403D01*
X204833459Y-94935543D01*
X204829882Y-94921264D01*
X204827722Y-94906703D01*
X204827000Y-94892000D01*
X204827000Y-94592000D01*
X204827722Y-94577297D01*
X204829882Y-94562736D01*
X204833459Y-94548457D01*
X204838418Y-94534597D01*
X204844712Y-94521290D01*
X204852280Y-94508664D01*
X204861048Y-94496841D01*
X204870934Y-94485934D01*
X204881841Y-94476048D01*
X204893664Y-94467280D01*
X204906290Y-94459712D01*
X204919597Y-94453418D01*
X204933457Y-94448459D01*
X204947736Y-94444882D01*
X204962297Y-94442722D01*
X204977000Y-94442000D01*
X206627000Y-94442000D01*
X206641703Y-94442722D01*
X206641703Y-94442722D01*
G37*
D21*
X205802000Y-94742000D03*
D13*
G36*
X206641703Y-95712722D02*
G01*
X206656264Y-95714882D01*
X206670543Y-95718459D01*
X206684403Y-95723418D01*
X206697710Y-95729712D01*
X206710336Y-95737280D01*
X206722159Y-95746048D01*
X206733066Y-95755934D01*
X206742952Y-95766841D01*
X206751720Y-95778664D01*
X206759288Y-95791290D01*
X206765582Y-95804597D01*
X206770541Y-95818457D01*
X206774118Y-95832736D01*
X206776278Y-95847297D01*
X206777000Y-95862000D01*
X206777000Y-96162000D01*
X206776278Y-96176703D01*
X206774118Y-96191264D01*
X206770541Y-96205543D01*
X206765582Y-96219403D01*
X206759288Y-96232710D01*
X206751720Y-96245336D01*
X206742952Y-96257159D01*
X206733066Y-96268066D01*
X206722159Y-96277952D01*
X206710336Y-96286720D01*
X206697710Y-96294288D01*
X206684403Y-96300582D01*
X206670543Y-96305541D01*
X206656264Y-96309118D01*
X206641703Y-96311278D01*
X206627000Y-96312000D01*
X204977000Y-96312000D01*
X204962297Y-96311278D01*
X204947736Y-96309118D01*
X204933457Y-96305541D01*
X204919597Y-96300582D01*
X204906290Y-96294288D01*
X204893664Y-96286720D01*
X204881841Y-96277952D01*
X204870934Y-96268066D01*
X204861048Y-96257159D01*
X204852280Y-96245336D01*
X204844712Y-96232710D01*
X204838418Y-96219403D01*
X204833459Y-96205543D01*
X204829882Y-96191264D01*
X204827722Y-96176703D01*
X204827000Y-96162000D01*
X204827000Y-95862000D01*
X204827722Y-95847297D01*
X204829882Y-95832736D01*
X204833459Y-95818457D01*
X204838418Y-95804597D01*
X204844712Y-95791290D01*
X204852280Y-95778664D01*
X204861048Y-95766841D01*
X204870934Y-95755934D01*
X204881841Y-95746048D01*
X204893664Y-95737280D01*
X204906290Y-95729712D01*
X204919597Y-95723418D01*
X204933457Y-95718459D01*
X204947736Y-95714882D01*
X204962297Y-95712722D01*
X204977000Y-95712000D01*
X206627000Y-95712000D01*
X206641703Y-95712722D01*
X206641703Y-95712722D01*
G37*
D21*
X205802000Y-96012000D03*
D13*
G36*
X206641703Y-96982722D02*
G01*
X206656264Y-96984882D01*
X206670543Y-96988459D01*
X206684403Y-96993418D01*
X206697710Y-96999712D01*
X206710336Y-97007280D01*
X206722159Y-97016048D01*
X206733066Y-97025934D01*
X206742952Y-97036841D01*
X206751720Y-97048664D01*
X206759288Y-97061290D01*
X206765582Y-97074597D01*
X206770541Y-97088457D01*
X206774118Y-97102736D01*
X206776278Y-97117297D01*
X206777000Y-97132000D01*
X206777000Y-97432000D01*
X206776278Y-97446703D01*
X206774118Y-97461264D01*
X206770541Y-97475543D01*
X206765582Y-97489403D01*
X206759288Y-97502710D01*
X206751720Y-97515336D01*
X206742952Y-97527159D01*
X206733066Y-97538066D01*
X206722159Y-97547952D01*
X206710336Y-97556720D01*
X206697710Y-97564288D01*
X206684403Y-97570582D01*
X206670543Y-97575541D01*
X206656264Y-97579118D01*
X206641703Y-97581278D01*
X206627000Y-97582000D01*
X204977000Y-97582000D01*
X204962297Y-97581278D01*
X204947736Y-97579118D01*
X204933457Y-97575541D01*
X204919597Y-97570582D01*
X204906290Y-97564288D01*
X204893664Y-97556720D01*
X204881841Y-97547952D01*
X204870934Y-97538066D01*
X204861048Y-97527159D01*
X204852280Y-97515336D01*
X204844712Y-97502710D01*
X204838418Y-97489403D01*
X204833459Y-97475543D01*
X204829882Y-97461264D01*
X204827722Y-97446703D01*
X204827000Y-97432000D01*
X204827000Y-97132000D01*
X204827722Y-97117297D01*
X204829882Y-97102736D01*
X204833459Y-97088457D01*
X204838418Y-97074597D01*
X204844712Y-97061290D01*
X204852280Y-97048664D01*
X204861048Y-97036841D01*
X204870934Y-97025934D01*
X204881841Y-97016048D01*
X204893664Y-97007280D01*
X204906290Y-96999712D01*
X204919597Y-96993418D01*
X204933457Y-96988459D01*
X204947736Y-96984882D01*
X204962297Y-96982722D01*
X204977000Y-96982000D01*
X206627000Y-96982000D01*
X206641703Y-96982722D01*
X206641703Y-96982722D01*
G37*
D21*
X205802000Y-97282000D03*
D13*
G36*
X206641703Y-98252722D02*
G01*
X206656264Y-98254882D01*
X206670543Y-98258459D01*
X206684403Y-98263418D01*
X206697710Y-98269712D01*
X206710336Y-98277280D01*
X206722159Y-98286048D01*
X206733066Y-98295934D01*
X206742952Y-98306841D01*
X206751720Y-98318664D01*
X206759288Y-98331290D01*
X206765582Y-98344597D01*
X206770541Y-98358457D01*
X206774118Y-98372736D01*
X206776278Y-98387297D01*
X206777000Y-98402000D01*
X206777000Y-98702000D01*
X206776278Y-98716703D01*
X206774118Y-98731264D01*
X206770541Y-98745543D01*
X206765582Y-98759403D01*
X206759288Y-98772710D01*
X206751720Y-98785336D01*
X206742952Y-98797159D01*
X206733066Y-98808066D01*
X206722159Y-98817952D01*
X206710336Y-98826720D01*
X206697710Y-98834288D01*
X206684403Y-98840582D01*
X206670543Y-98845541D01*
X206656264Y-98849118D01*
X206641703Y-98851278D01*
X206627000Y-98852000D01*
X204977000Y-98852000D01*
X204962297Y-98851278D01*
X204947736Y-98849118D01*
X204933457Y-98845541D01*
X204919597Y-98840582D01*
X204906290Y-98834288D01*
X204893664Y-98826720D01*
X204881841Y-98817952D01*
X204870934Y-98808066D01*
X204861048Y-98797159D01*
X204852280Y-98785336D01*
X204844712Y-98772710D01*
X204838418Y-98759403D01*
X204833459Y-98745543D01*
X204829882Y-98731264D01*
X204827722Y-98716703D01*
X204827000Y-98702000D01*
X204827000Y-98402000D01*
X204827722Y-98387297D01*
X204829882Y-98372736D01*
X204833459Y-98358457D01*
X204838418Y-98344597D01*
X204844712Y-98331290D01*
X204852280Y-98318664D01*
X204861048Y-98306841D01*
X204870934Y-98295934D01*
X204881841Y-98286048D01*
X204893664Y-98277280D01*
X204906290Y-98269712D01*
X204919597Y-98263418D01*
X204933457Y-98258459D01*
X204947736Y-98254882D01*
X204962297Y-98252722D01*
X204977000Y-98252000D01*
X206627000Y-98252000D01*
X206641703Y-98252722D01*
X206641703Y-98252722D01*
G37*
D21*
X205802000Y-98552000D03*
D13*
G36*
X206641703Y-99522722D02*
G01*
X206656264Y-99524882D01*
X206670543Y-99528459D01*
X206684403Y-99533418D01*
X206697710Y-99539712D01*
X206710336Y-99547280D01*
X206722159Y-99556048D01*
X206733066Y-99565934D01*
X206742952Y-99576841D01*
X206751720Y-99588664D01*
X206759288Y-99601290D01*
X206765582Y-99614597D01*
X206770541Y-99628457D01*
X206774118Y-99642736D01*
X206776278Y-99657297D01*
X206777000Y-99672000D01*
X206777000Y-99972000D01*
X206776278Y-99986703D01*
X206774118Y-100001264D01*
X206770541Y-100015543D01*
X206765582Y-100029403D01*
X206759288Y-100042710D01*
X206751720Y-100055336D01*
X206742952Y-100067159D01*
X206733066Y-100078066D01*
X206722159Y-100087952D01*
X206710336Y-100096720D01*
X206697710Y-100104288D01*
X206684403Y-100110582D01*
X206670543Y-100115541D01*
X206656264Y-100119118D01*
X206641703Y-100121278D01*
X206627000Y-100122000D01*
X204977000Y-100122000D01*
X204962297Y-100121278D01*
X204947736Y-100119118D01*
X204933457Y-100115541D01*
X204919597Y-100110582D01*
X204906290Y-100104288D01*
X204893664Y-100096720D01*
X204881841Y-100087952D01*
X204870934Y-100078066D01*
X204861048Y-100067159D01*
X204852280Y-100055336D01*
X204844712Y-100042710D01*
X204838418Y-100029403D01*
X204833459Y-100015543D01*
X204829882Y-100001264D01*
X204827722Y-99986703D01*
X204827000Y-99972000D01*
X204827000Y-99672000D01*
X204827722Y-99657297D01*
X204829882Y-99642736D01*
X204833459Y-99628457D01*
X204838418Y-99614597D01*
X204844712Y-99601290D01*
X204852280Y-99588664D01*
X204861048Y-99576841D01*
X204870934Y-99565934D01*
X204881841Y-99556048D01*
X204893664Y-99547280D01*
X204906290Y-99539712D01*
X204919597Y-99533418D01*
X204933457Y-99528459D01*
X204947736Y-99524882D01*
X204962297Y-99522722D01*
X204977000Y-99522000D01*
X206627000Y-99522000D01*
X206641703Y-99522722D01*
X206641703Y-99522722D01*
G37*
D21*
X205802000Y-99822000D03*
D13*
G36*
X206641703Y-100792722D02*
G01*
X206656264Y-100794882D01*
X206670543Y-100798459D01*
X206684403Y-100803418D01*
X206697710Y-100809712D01*
X206710336Y-100817280D01*
X206722159Y-100826048D01*
X206733066Y-100835934D01*
X206742952Y-100846841D01*
X206751720Y-100858664D01*
X206759288Y-100871290D01*
X206765582Y-100884597D01*
X206770541Y-100898457D01*
X206774118Y-100912736D01*
X206776278Y-100927297D01*
X206777000Y-100942000D01*
X206777000Y-101242000D01*
X206776278Y-101256703D01*
X206774118Y-101271264D01*
X206770541Y-101285543D01*
X206765582Y-101299403D01*
X206759288Y-101312710D01*
X206751720Y-101325336D01*
X206742952Y-101337159D01*
X206733066Y-101348066D01*
X206722159Y-101357952D01*
X206710336Y-101366720D01*
X206697710Y-101374288D01*
X206684403Y-101380582D01*
X206670543Y-101385541D01*
X206656264Y-101389118D01*
X206641703Y-101391278D01*
X206627000Y-101392000D01*
X204977000Y-101392000D01*
X204962297Y-101391278D01*
X204947736Y-101389118D01*
X204933457Y-101385541D01*
X204919597Y-101380582D01*
X204906290Y-101374288D01*
X204893664Y-101366720D01*
X204881841Y-101357952D01*
X204870934Y-101348066D01*
X204861048Y-101337159D01*
X204852280Y-101325336D01*
X204844712Y-101312710D01*
X204838418Y-101299403D01*
X204833459Y-101285543D01*
X204829882Y-101271264D01*
X204827722Y-101256703D01*
X204827000Y-101242000D01*
X204827000Y-100942000D01*
X204827722Y-100927297D01*
X204829882Y-100912736D01*
X204833459Y-100898457D01*
X204838418Y-100884597D01*
X204844712Y-100871290D01*
X204852280Y-100858664D01*
X204861048Y-100846841D01*
X204870934Y-100835934D01*
X204881841Y-100826048D01*
X204893664Y-100817280D01*
X204906290Y-100809712D01*
X204919597Y-100803418D01*
X204933457Y-100798459D01*
X204947736Y-100794882D01*
X204962297Y-100792722D01*
X204977000Y-100792000D01*
X206627000Y-100792000D01*
X206641703Y-100792722D01*
X206641703Y-100792722D01*
G37*
D21*
X205802000Y-101092000D03*
D13*
G36*
X206641703Y-102062722D02*
G01*
X206656264Y-102064882D01*
X206670543Y-102068459D01*
X206684403Y-102073418D01*
X206697710Y-102079712D01*
X206710336Y-102087280D01*
X206722159Y-102096048D01*
X206733066Y-102105934D01*
X206742952Y-102116841D01*
X206751720Y-102128664D01*
X206759288Y-102141290D01*
X206765582Y-102154597D01*
X206770541Y-102168457D01*
X206774118Y-102182736D01*
X206776278Y-102197297D01*
X206777000Y-102212000D01*
X206777000Y-102512000D01*
X206776278Y-102526703D01*
X206774118Y-102541264D01*
X206770541Y-102555543D01*
X206765582Y-102569403D01*
X206759288Y-102582710D01*
X206751720Y-102595336D01*
X206742952Y-102607159D01*
X206733066Y-102618066D01*
X206722159Y-102627952D01*
X206710336Y-102636720D01*
X206697710Y-102644288D01*
X206684403Y-102650582D01*
X206670543Y-102655541D01*
X206656264Y-102659118D01*
X206641703Y-102661278D01*
X206627000Y-102662000D01*
X204977000Y-102662000D01*
X204962297Y-102661278D01*
X204947736Y-102659118D01*
X204933457Y-102655541D01*
X204919597Y-102650582D01*
X204906290Y-102644288D01*
X204893664Y-102636720D01*
X204881841Y-102627952D01*
X204870934Y-102618066D01*
X204861048Y-102607159D01*
X204852280Y-102595336D01*
X204844712Y-102582710D01*
X204838418Y-102569403D01*
X204833459Y-102555543D01*
X204829882Y-102541264D01*
X204827722Y-102526703D01*
X204827000Y-102512000D01*
X204827000Y-102212000D01*
X204827722Y-102197297D01*
X204829882Y-102182736D01*
X204833459Y-102168457D01*
X204838418Y-102154597D01*
X204844712Y-102141290D01*
X204852280Y-102128664D01*
X204861048Y-102116841D01*
X204870934Y-102105934D01*
X204881841Y-102096048D01*
X204893664Y-102087280D01*
X204906290Y-102079712D01*
X204919597Y-102073418D01*
X204933457Y-102068459D01*
X204947736Y-102064882D01*
X204962297Y-102062722D01*
X204977000Y-102062000D01*
X206627000Y-102062000D01*
X206641703Y-102062722D01*
X206641703Y-102062722D01*
G37*
D21*
X205802000Y-102362000D03*
D22*
X192657000Y-99431000D03*
X192657000Y-98161000D03*
X192657000Y-96891000D03*
X192657000Y-95621000D03*
X192657000Y-94351000D03*
X192657000Y-93081000D03*
X192657000Y-91811000D03*
X192657000Y-90541000D03*
D23*
X180207000Y-101981000D03*
X181477000Y-101981000D03*
X182747000Y-101981000D03*
X184017000Y-101981000D03*
X185287000Y-101981000D03*
X186557000Y-101981000D03*
X187827000Y-101981000D03*
X189097000Y-101981000D03*
D22*
X176657000Y-90541000D03*
X176657000Y-91811000D03*
X176657000Y-93081000D03*
X176657000Y-94351000D03*
X176657000Y-95621000D03*
X176657000Y-96891000D03*
X176657000Y-98161000D03*
X176657000Y-99431000D03*
D24*
X195393000Y-99680000D03*
X195393000Y-100330000D03*
X195393000Y-100980000D03*
X198053000Y-100980000D03*
X198053000Y-99680000D03*
X198053000Y-102601000D03*
X198053000Y-103901000D03*
X195393000Y-103901000D03*
X195393000Y-103251000D03*
X195393000Y-102601000D03*
D25*
X171196000Y-90957000D03*
D26*
X171196000Y-97257000D03*
X173496000Y-97257000D03*
X168896000Y-97257000D03*
D27*
X166945000Y-102620000D03*
X166945000Y-103120000D03*
X166945000Y-103620000D03*
X166945000Y-102120000D03*
X166945000Y-104120000D03*
X166945000Y-101620000D03*
X166945000Y-104620000D03*
X166945000Y-101120000D03*
D28*
X166945000Y-100420000D03*
X166945000Y-105320000D03*
X166945000Y-99645000D03*
X166945000Y-106095000D03*
D29*
X162560000Y-111379000D03*
D13*
G36*
X163549949Y-112651792D02*
G01*
X161287208Y-110389051D01*
X161570051Y-110106208D01*
X163832792Y-112368949D01*
X163549949Y-112651792D01*
X163549949Y-112651792D01*
G37*
D29*
X163408528Y-110530472D03*
D13*
G36*
X164398477Y-111803264D02*
G01*
X162135736Y-109540523D01*
X162418579Y-109257680D01*
X164681320Y-111520421D01*
X164398477Y-111803264D01*
X164398477Y-111803264D01*
G37*
D29*
X164257056Y-109681944D03*
D13*
G36*
X165247005Y-110954736D02*
G01*
X162984264Y-108691995D01*
X163267107Y-108409152D01*
X165529848Y-110671893D01*
X165247005Y-110954736D01*
X165247005Y-110954736D01*
G37*
G36*
X173030779Y-108923944D02*
G01*
X173053834Y-108927363D01*
X173076443Y-108933027D01*
X173098387Y-108940879D01*
X173119457Y-108950844D01*
X173139448Y-108962826D01*
X173158168Y-108976710D01*
X173175438Y-108992362D01*
X173191090Y-109009632D01*
X173204974Y-109028352D01*
X173216956Y-109048343D01*
X173226921Y-109069413D01*
X173234773Y-109091357D01*
X173240437Y-109113966D01*
X173243856Y-109137021D01*
X173245000Y-109160300D01*
X173245000Y-109635300D01*
X173243856Y-109658579D01*
X173240437Y-109681634D01*
X173234773Y-109704243D01*
X173226921Y-109726187D01*
X173216956Y-109747257D01*
X173204974Y-109767248D01*
X173191090Y-109785968D01*
X173175438Y-109803238D01*
X173158168Y-109818890D01*
X173139448Y-109832774D01*
X173119457Y-109844756D01*
X173098387Y-109854721D01*
X173076443Y-109862573D01*
X173053834Y-109868237D01*
X173030779Y-109871656D01*
X173007500Y-109872800D01*
X172432500Y-109872800D01*
X172409221Y-109871656D01*
X172386166Y-109868237D01*
X172363557Y-109862573D01*
X172341613Y-109854721D01*
X172320543Y-109844756D01*
X172300552Y-109832774D01*
X172281832Y-109818890D01*
X172264562Y-109803238D01*
X172248910Y-109785968D01*
X172235026Y-109767248D01*
X172223044Y-109747257D01*
X172213079Y-109726187D01*
X172205227Y-109704243D01*
X172199563Y-109681634D01*
X172196144Y-109658579D01*
X172195000Y-109635300D01*
X172195000Y-109160300D01*
X172196144Y-109137021D01*
X172199563Y-109113966D01*
X172205227Y-109091357D01*
X172213079Y-109069413D01*
X172223044Y-109048343D01*
X172235026Y-109028352D01*
X172248910Y-109009632D01*
X172264562Y-108992362D01*
X172281832Y-108976710D01*
X172300552Y-108962826D01*
X172320543Y-108950844D01*
X172341613Y-108940879D01*
X172363557Y-108933027D01*
X172386166Y-108927363D01*
X172409221Y-108923944D01*
X172432500Y-108922800D01*
X173007500Y-108922800D01*
X173030779Y-108923944D01*
X173030779Y-108923944D01*
G37*
D14*
X172720000Y-109397800D03*
D13*
G36*
X174780779Y-108923944D02*
G01*
X174803834Y-108927363D01*
X174826443Y-108933027D01*
X174848387Y-108940879D01*
X174869457Y-108950844D01*
X174889448Y-108962826D01*
X174908168Y-108976710D01*
X174925438Y-108992362D01*
X174941090Y-109009632D01*
X174954974Y-109028352D01*
X174966956Y-109048343D01*
X174976921Y-109069413D01*
X174984773Y-109091357D01*
X174990437Y-109113966D01*
X174993856Y-109137021D01*
X174995000Y-109160300D01*
X174995000Y-109635300D01*
X174993856Y-109658579D01*
X174990437Y-109681634D01*
X174984773Y-109704243D01*
X174976921Y-109726187D01*
X174966956Y-109747257D01*
X174954974Y-109767248D01*
X174941090Y-109785968D01*
X174925438Y-109803238D01*
X174908168Y-109818890D01*
X174889448Y-109832774D01*
X174869457Y-109844756D01*
X174848387Y-109854721D01*
X174826443Y-109862573D01*
X174803834Y-109868237D01*
X174780779Y-109871656D01*
X174757500Y-109872800D01*
X174182500Y-109872800D01*
X174159221Y-109871656D01*
X174136166Y-109868237D01*
X174113557Y-109862573D01*
X174091613Y-109854721D01*
X174070543Y-109844756D01*
X174050552Y-109832774D01*
X174031832Y-109818890D01*
X174014562Y-109803238D01*
X173998910Y-109785968D01*
X173985026Y-109767248D01*
X173973044Y-109747257D01*
X173963079Y-109726187D01*
X173955227Y-109704243D01*
X173949563Y-109681634D01*
X173946144Y-109658579D01*
X173945000Y-109635300D01*
X173945000Y-109160300D01*
X173946144Y-109137021D01*
X173949563Y-109113966D01*
X173955227Y-109091357D01*
X173963079Y-109069413D01*
X173973044Y-109048343D01*
X173985026Y-109028352D01*
X173998910Y-109009632D01*
X174014562Y-108992362D01*
X174031832Y-108976710D01*
X174050552Y-108962826D01*
X174070543Y-108950844D01*
X174091613Y-108940879D01*
X174113557Y-108933027D01*
X174136166Y-108927363D01*
X174159221Y-108923944D01*
X174182500Y-108922800D01*
X174757500Y-108922800D01*
X174780779Y-108923944D01*
X174780779Y-108923944D01*
G37*
D14*
X174470000Y-109397800D03*
D13*
G36*
X174783379Y-110549544D02*
G01*
X174806434Y-110552963D01*
X174829043Y-110558627D01*
X174850987Y-110566479D01*
X174872057Y-110576444D01*
X174892048Y-110588426D01*
X174910768Y-110602310D01*
X174928038Y-110617962D01*
X174943690Y-110635232D01*
X174957574Y-110653952D01*
X174969556Y-110673943D01*
X174979521Y-110695013D01*
X174987373Y-110716957D01*
X174993037Y-110739566D01*
X174996456Y-110762621D01*
X174997600Y-110785900D01*
X174997600Y-111260900D01*
X174996456Y-111284179D01*
X174993037Y-111307234D01*
X174987373Y-111329843D01*
X174979521Y-111351787D01*
X174969556Y-111372857D01*
X174957574Y-111392848D01*
X174943690Y-111411568D01*
X174928038Y-111428838D01*
X174910768Y-111444490D01*
X174892048Y-111458374D01*
X174872057Y-111470356D01*
X174850987Y-111480321D01*
X174829043Y-111488173D01*
X174806434Y-111493837D01*
X174783379Y-111497256D01*
X174760100Y-111498400D01*
X174185100Y-111498400D01*
X174161821Y-111497256D01*
X174138766Y-111493837D01*
X174116157Y-111488173D01*
X174094213Y-111480321D01*
X174073143Y-111470356D01*
X174053152Y-111458374D01*
X174034432Y-111444490D01*
X174017162Y-111428838D01*
X174001510Y-111411568D01*
X173987626Y-111392848D01*
X173975644Y-111372857D01*
X173965679Y-111351787D01*
X173957827Y-111329843D01*
X173952163Y-111307234D01*
X173948744Y-111284179D01*
X173947600Y-111260900D01*
X173947600Y-110785900D01*
X173948744Y-110762621D01*
X173952163Y-110739566D01*
X173957827Y-110716957D01*
X173965679Y-110695013D01*
X173975644Y-110673943D01*
X173987626Y-110653952D01*
X174001510Y-110635232D01*
X174017162Y-110617962D01*
X174034432Y-110602310D01*
X174053152Y-110588426D01*
X174073143Y-110576444D01*
X174094213Y-110566479D01*
X174116157Y-110558627D01*
X174138766Y-110552963D01*
X174161821Y-110549544D01*
X174185100Y-110548400D01*
X174760100Y-110548400D01*
X174783379Y-110549544D01*
X174783379Y-110549544D01*
G37*
D14*
X174472600Y-111023400D03*
D13*
G36*
X173033379Y-110549544D02*
G01*
X173056434Y-110552963D01*
X173079043Y-110558627D01*
X173100987Y-110566479D01*
X173122057Y-110576444D01*
X173142048Y-110588426D01*
X173160768Y-110602310D01*
X173178038Y-110617962D01*
X173193690Y-110635232D01*
X173207574Y-110653952D01*
X173219556Y-110673943D01*
X173229521Y-110695013D01*
X173237373Y-110716957D01*
X173243037Y-110739566D01*
X173246456Y-110762621D01*
X173247600Y-110785900D01*
X173247600Y-111260900D01*
X173246456Y-111284179D01*
X173243037Y-111307234D01*
X173237373Y-111329843D01*
X173229521Y-111351787D01*
X173219556Y-111372857D01*
X173207574Y-111392848D01*
X173193690Y-111411568D01*
X173178038Y-111428838D01*
X173160768Y-111444490D01*
X173142048Y-111458374D01*
X173122057Y-111470356D01*
X173100987Y-111480321D01*
X173079043Y-111488173D01*
X173056434Y-111493837D01*
X173033379Y-111497256D01*
X173010100Y-111498400D01*
X172435100Y-111498400D01*
X172411821Y-111497256D01*
X172388766Y-111493837D01*
X172366157Y-111488173D01*
X172344213Y-111480321D01*
X172323143Y-111470356D01*
X172303152Y-111458374D01*
X172284432Y-111444490D01*
X172267162Y-111428838D01*
X172251510Y-111411568D01*
X172237626Y-111392848D01*
X172225644Y-111372857D01*
X172215679Y-111351787D01*
X172207827Y-111329843D01*
X172202163Y-111307234D01*
X172198744Y-111284179D01*
X172197600Y-111260900D01*
X172197600Y-110785900D01*
X172198744Y-110762621D01*
X172202163Y-110739566D01*
X172207827Y-110716957D01*
X172215679Y-110695013D01*
X172225644Y-110673943D01*
X172237626Y-110653952D01*
X172251510Y-110635232D01*
X172267162Y-110617962D01*
X172284432Y-110602310D01*
X172303152Y-110588426D01*
X172323143Y-110576444D01*
X172344213Y-110566479D01*
X172366157Y-110558627D01*
X172388766Y-110552963D01*
X172411821Y-110549544D01*
X172435100Y-110548400D01*
X173010100Y-110548400D01*
X173033379Y-110549544D01*
X173033379Y-110549544D01*
G37*
D14*
X172722600Y-111023400D03*
M02*
