M48
; DRILL file {KiCad (5.1.4-0-10_14)} date 2019 November 19, Tuesday 00:30:57
; FORMAT={-:-/ absolute / inch / decimal}
; #@! TF.CreationDate,2019-11-19T00:30:57+08:00
; #@! TF.GenerationSoftware,Kicad,Pcbnew,(5.1.4-0-10_14)
; #@! TF.FileFunction,Plated,1,2,PTH
FMAT,2
INCH
T1C0.0100
T2C0.0157
T3C0.0236
T4C0.0394
%
G90
G05
T1
X6.3224Y-4.015
X6.3295Y-4.0469
X6.3551Y-4.0161
X6.3606Y-4.0461
X6.4118Y-4.3472
X6.4528Y-3.7528
X6.4598Y-3.7846
X6.4854Y-3.7539
X6.4909Y-3.7839
X6.5823Y-3.5776
X6.6244Y-4.5961
X6.6409Y-3.7469
X6.6583Y-4.6327
X6.665Y-3.9327
X6.6717Y-4.2047
X6.6724Y-3.9
X6.7201Y-4.252
X6.7961Y-4.6791
X6.8008Y-4.2071
X6.8102Y-4.4811
X6.828Y-3.3465
X6.8354Y-3.7118
X6.8421Y-4.5197
X6.8811Y-3.2898
X6.8878Y-4.3921
X6.8882Y-3.3217
X6.8886Y-3.3764
X6.8894Y-3.811
X6.908Y-3.5863
X6.9138Y-3.2909
X6.9193Y-3.3209
X6.9336Y-3.5903
X6.9346Y-3.1657
X6.9417Y-3.1976
X6.9673Y-3.1669
X6.9728Y-3.1969
X6.9811Y-3.5972
X6.9854Y-3.4697
X6.9925Y-3.5016
X6.9972Y-3.8354
X6.998Y-4.1315
X6.9988Y-4.6536
X7.0091Y-4.1661
X7.0102Y-4.5409
X7.0181Y-3.4709
X7.0209Y-3.3417
X7.0228Y-4.4185
X7.0236Y-3.5008
X7.0335Y-4.3213
X7.0465Y-3.311
X7.0575Y-4.4282
X7.0787Y-4.3937
X7.0965Y-3.7665
X7.0992Y-3.8535
X7.1016Y-3.4602
X7.1035Y-3.7984
X7.1063Y-3.8854
X7.1087Y-3.4921
X7.1142Y-4.6654
X7.115Y-3.3937
X7.1213Y-4.6972
X7.122Y-3.4256
X7.1228Y-4.4583
X7.1291Y-3.7677
X7.1319Y-3.8547
X7.1343Y-3.4614
X7.1346Y-3.7976
X7.1374Y-3.8846
X7.1398Y-3.4913
X7.1469Y-4.6665
X7.1472Y-4.4913
X7.1476Y-3.3949
X7.1524Y-4.6965
X7.1531Y-3.4248
X7.1827Y-4.578
X7.1862Y-4.2602
X7.1866Y-4.2937
X7.1866Y-4.6661
X7.1937Y-4.698
X7.198Y-3.4366
X7.1992Y-3.7693
X7.1992Y-3.852
X7.2051Y-3.3657
X7.2051Y-3.4685
X7.2063Y-3.8012
X7.2063Y-3.8839
X7.2122Y-3.3976
X7.2157Y-4.2598
X7.2177Y-4.2909
X7.2193Y-4.6673
X7.2248Y-4.6972
X7.2307Y-3.4378
X7.2319Y-3.7705
X7.2319Y-3.8531
X7.2362Y-3.4677
X7.2374Y-3.8004
X7.2374Y-3.8831
X7.2378Y-3.3669
X7.2433Y-3.3969
X7.2472Y-4.2594
X7.2516Y-4.2917
X7.2587Y-4.5776
X7.2657Y-4.6646
X7.2728Y-4.6965
X7.2787Y-4.2598
X7.2858Y-4.2917
X7.2906Y-3.2083
X7.2976Y-3.9146
X7.2976Y-3.9685
X7.298Y-3.4252
X7.2984Y-4.6657
X7.3039Y-4.6957
X7.3051Y-3.4571
X7.3063Y-3.7374
X7.3114Y-4.261
X7.3169Y-4.2909
X7.3217Y-3.2075
X7.3307Y-3.4264
X7.3362Y-3.4563
X7.3413Y-4.663
X7.3465Y-4.576
X7.3484Y-4.6949
X7.3626Y-4.313
X7.374Y-4.6642
X7.3764Y-3.624
X7.3795Y-4.6941
X7.4Y-3.7594
X7.4Y-4.5512
X7.402Y-3.6894
X7.4071Y-3.7913
X7.4091Y-3.7213
X7.4114Y-4.2398
X7.4122Y-3.8291
X7.4185Y-4.2717
X7.4193Y-3.861
X7.4276Y-4.6638
X7.4287Y-3.9787
X7.4327Y-3.7606
X7.4346Y-3.6906
X7.4346Y-4.6957
X7.4378Y-3.3165
X7.4382Y-3.7906
X7.4402Y-3.7205
X7.4441Y-4.2409
X7.4449Y-3.3484
X7.4449Y-3.8303
X7.4496Y-4.2709
X7.4496Y-4.5382
X7.4504Y-3.8602
X7.4602Y-4.665
X7.4657Y-4.6949
X7.4705Y-3.3177
X7.476Y-3.3476
X7.4807Y-4.5374
X7.5059Y-3.3992
X7.5075Y-4.2953
X7.513Y-3.4311
X7.5142Y-3.9445
X7.5201Y-3.3134
X7.5272Y-3.3453
X7.5386Y-3.4004
X7.5398Y-4.5402
X7.5441Y-3.4303
X7.5516Y-3.1665
X7.5528Y-3.3146
X7.5583Y-3.3445
X7.5587Y-3.1984
X7.5843Y-3.1677
X7.5898Y-3.1976
X7.5925Y-4.3472
X7.5976Y-3.498
X7.6079Y-3.3524
X7.6386Y-3.866
X7.6449Y-3.6437
X7.6878Y-3.863
X7.6929Y-3.6756
X7.6969Y-3.8386
X7.7071Y-4.4681
X7.7138Y-3.3516
X7.7193Y-4.4197
X7.7413Y-3.7244
X7.7437Y-3.9937
X7.7587Y-3.3047
X7.772Y-4.2028
X7.7772Y-3.7504
X7.7843Y-3.463
X7.7894Y-4.122
X7.7965Y-4.1539
X7.8012Y-4.4374
X7.8038Y-3.9259
X7.822Y-4.1232
X7.8276Y-4.1531
X7.835Y-3.5488
X7.8378Y-3.2878
X7.8457Y-4.5307
X7.863Y-4.122
X7.8642Y-3.7732
X7.8701Y-4.1539
X7.8957Y-4.1232
X7.8969Y-3.7713
X7.9012Y-4.1531
X7.9071Y-4.7079
X7.9295Y-4.3399
X7.9382Y-3.9472
X7.9567Y-3.7681
X7.9606Y-3.4839
X7.9665Y-3.4165
X7.9669Y-4.1583
X8.0087Y-3.7205
X8.0382Y-3.9425
X8.0591Y-3.6496
X8.1295Y-4.4083
X8.1378Y-3.9906
T2
X6.4Y-4.19
X6.407Y-3.975
X6.408Y-4.126
X6.44Y-4.19
X6.4511Y-4.097
X6.499Y-4.0125
X6.6161Y-3.6429
X6.8823Y-3.8917
X8.075Y-4.495
T4
X7.065Y-3.1457
X7.165Y-3.1457
X7.265Y-3.1457
X7.365Y-3.1457
X7.465Y-3.1457
T3
G00X6.3642Y-3.8799
M15
G01X6.3406Y-3.8799
M16
G05
G00X6.3642Y-4.2201
M15
G01X6.3406Y-4.2201
M16
G05
G00X6.5386Y-3.8799
M15
G01X6.4953Y-3.8799
M16
G05
G00X6.5386Y-4.2201
M15
G01X6.4953Y-4.2201
M16
G05
T0
M30
